<?xml version="1.0" encoding="UTF-8"?>
<svg id="_Слой_2" data-name="Слой 2" xmlns="http://www.w3.org/2000/svg" viewBox="0 0 492.27 490.84">
  <defs>
    <style>
      .cls-1 {
        fill: none;
        stroke: #fff;
        stroke-linecap: round;
        stroke-linejoin: round;
        stroke-width: 14px;
      }

      .cls-2 {
        fill: #e5243c;
        stroke-width: 0px;
      }
    </style>
  </defs>
  <g id="_Слой_2-2" data-name=" Слой 2">
    <g>
      <g>
        <path class="cls-1" d="M169.19,252.23l-75.42-74.87,75.86-75.86,23.05,23.05c22.92-37.05,62.86,8.11,26.94,26.94l25.72,25.72-26.35,25.95c-15.16-37.4-65.77,2.62-28.2,27.77l-21.61,21.28Z"/>
        <path class="cls-1" d="M279.39,282.24v-32.37c41.71,14.7,43.5-52,0-37.85v-34.62s107.25,0,107.25,0v104.84l-34.22.38"/>
        <path class="cls-1" d="M277.01,279.06h-35.81c13.67-43.98-51.39-41.06-35.35,0h-38.02s0,108.47,0,108.47h109.18"/>
        <line class="cls-1" x1="277.01" y1="387.53" x2="277.01" y2="356.77"/>
        <path class="cls-1" d="M278.39,284.34v30.58c-41.63-11.74-46.1,47.23,0,39.4v33.12s108.25,0,108.25,0v-103.1h-34.19c5.31,40.08-47.23,38.96-40.52,0h-33.54Z"/>
      </g>
      <g>
        <path class="cls-2" d="M92.17,0H10.22S0,0,0,0v93.2c0,5.64,4.57,10.22,10.22,10.22h0c5.64,0,10.22-4.57,10.22-10.22V20.43s71.73,0,71.73,0c5.64,0,10.22-4.57,10.22-10.22h0C102.38,4.57,97.81,0,92.17,0Z"/>
        <path class="cls-2" d="M492.27,92.42V10.47s0-10.22,0-10.22h-93.2c-5.64,0-10.22,4.57-10.22,10.22h0c0,5.64,4.57,10.22,10.22,10.22h72.76s0,71.73,0,71.73c0,5.64,4.57,10.22,10.22,10.22h0c5.64,0,10.22-4.57,10.22-10.22Z"/>
        <path class="cls-2" d="M400.1,490.84h81.95s10.22,0,10.22,0v-93.2c0-5.64-4.57-10.22-10.22-10.22h0c-5.64,0-10.22,4.57-10.22,10.22v72.76s-71.73,0-71.73,0c-5.64,0-10.22,4.57-10.22,10.22h0c0,5.64,4.57,10.22,10.22,10.22Z"/>
        <path class="cls-2" d="M0,398.41v81.95s0,10.22,0,10.22h93.2c5.64,0,10.22-4.57,10.22-10.22h0c0-5.64-4.57-10.22-10.22-10.22H20.43s0-71.73,0-71.73c0-5.64-4.57-10.22-10.22-10.22h0C4.57,388.2,0,392.77,0,398.41Z"/>
      </g>
    </g>
  </g>
</svg>