<svg width="124" height="124" viewBox="0 0 124 124" fill="none" xmlns="http://www.w3.org/2000/svg">
<path d="M43.4083 52.1119C43.6195 52.913 44.44 53.3912 45.2411 53.18C46.0422 52.9689 46.5204 52.1483 46.3092 51.3472L43.4083 52.1119ZM48.1301 41.9006L48.9095 43.1822L48.9106 43.1815L48.1301 41.9006ZM49.3675 38.8334L47.9173 39.2166L47.9183 39.2206L49.3675 38.8334ZM42.2986 32.6432L41.9841 34.1099L41.9879 34.1107L42.2986 32.6432ZM41.559 30.6635L40.3812 29.7346L40.379 29.7375L41.559 30.6635ZM51.2449 26.2718L51.5431 24.8017L51.5349 24.8001L51.2449 26.2718ZM58.2853 34.5951L56.7854 34.6004V34.6008L58.2853 34.5951ZM58.2427 86.5144L56.743 86.4849L56.7429 86.4861L58.2427 86.5144ZM56.1661 94.5728L57.3544 95.4882L57.3566 95.4854L56.1661 94.5728ZM42.4409 93.2344L43.614 92.2996C43.6085 92.2927 43.603 92.2859 43.5974 92.2792L42.4409 93.2344ZM31.4749 85.162L29.9902 85.3762L29.9907 85.3792L31.4749 85.162ZM29.4125 81.6348L30.3526 80.4659L30.3505 80.4642L29.4125 81.6348ZM26.7244 71.4851L28.1524 71.9444L28.1535 71.9407L26.7244 71.4851ZM37.8701 72.1656C38.5924 71.76 38.8492 70.8456 38.4436 70.1233C38.0379 69.401 37.1236 69.1442 36.4012 69.5498L37.8701 72.1656ZM26.5679 55.8982L27.7999 56.7539L28.1977 56.1812L28.0163 55.5079L26.5679 55.8982ZM31.162 42.2352L31.8569 43.5645L32.6734 43.1376L32.6619 42.2164L31.162 42.2352ZM33.7449 54.1452C33.5467 54.9496 34.0382 55.7623 34.8426 55.9605C35.647 56.1586 36.4597 55.6671 36.6578 54.8627L33.7449 54.1452ZM44.376 48.1341C45.2007 48.2122 45.9326 47.607 46.0107 46.7823C46.0889 45.9575 45.4836 45.2256 44.6589 45.1475L44.376 48.1341ZM40.8687 79.9757C40.8687 79.1473 40.1971 78.4757 39.3687 78.4757C38.5402 78.4757 37.8687 79.1473 37.8687 79.9757H40.8687ZM51.3681 87.5526C52.1186 87.2018 52.4426 86.309 52.0918 85.5585C51.7409 84.808 50.8482 84.4841 50.0977 84.8349L51.3681 87.5526ZM84.1298 32.8648C84.5217 33.5947 85.4311 33.8687 86.161 33.4768C86.8908 33.0849 87.1648 32.1755 86.7729 31.4457L84.1298 32.8648ZM67.7295 30.9005L68.8792 31.8639L68.8834 31.8588L67.7295 30.9005ZM66.5489 33.6191L68.0388 33.7936L68.0394 33.7881L66.5489 33.6191ZM66.4067 36.1844L67.9066 36.1673L67.9065 36.1598L66.4067 36.1844ZM66.5774 88.5081L68.077 88.473L68.077 88.4726L66.5774 88.5081ZM68.3837 93.5411L67.2137 94.4797L67.214 94.4801L68.3837 93.5411ZM70.7447 95.9112L69.8214 97.0933C69.8369 97.1054 69.8527 97.1172 69.8687 97.1288L70.7447 95.9112ZM80.0182 96.2597L80.9038 97.4704C80.9157 97.4617 80.9275 97.4527 80.9392 97.4437L80.0182 96.2597ZM82.6921 94.3357L83.2359 95.7337C83.2754 95.7184 83.3142 95.7013 83.3523 95.6827L82.6921 94.3357ZM89.1067 91.1849L90.1015 92.3076C90.1204 92.2909 90.1388 92.2737 90.1567 92.2561L89.1067 91.1849ZM90.0028 90.3066L90.684 91.643C90.8196 91.5738 90.944 91.4844 91.0528 91.3778L90.0028 90.3066ZM93.5727 82.7919L92.8743 81.4645C92.5056 81.6585 92.2342 81.9971 92.1251 82.3992L93.5727 82.7919ZM98.3801 70.2164L97.1618 69.3414C96.9552 69.629 96.8571 69.9804 96.8847 70.3334L98.3801 70.2164ZM99.4753 64.2772L100.954 64.5286C100.958 64.5044 100.962 64.48 100.965 64.4555L99.4753 64.2772ZM98.9064 56.0655L97.5813 56.7684C97.6155 56.8328 97.6543 56.8947 97.6975 56.9535L98.9064 56.0655ZM98.5508 54.8386L97.0704 54.5973C97.0574 54.6771 97.0508 54.7578 97.0508 54.8386H98.5508ZM94.9808 43.3087L93.7353 44.1446C93.7437 44.157 93.7522 44.1693 93.7608 44.1814L94.9808 43.3087ZM94.4404 41.7333L92.9462 41.6012C92.9423 41.6451 92.9404 41.6892 92.9404 41.7333H94.4404ZM92.6625 35.9614L93.8283 35.0175C93.8249 35.0134 93.8216 35.0093 93.8182 35.0052L92.6625 35.9614ZM83.005 32.5596L82.889 31.0641C82.0855 31.1264 81.4749 31.8124 81.5061 32.6176C81.5373 33.4229 82.1992 34.0596 83.005 34.0596V32.5596ZM83.1899 32.5317L83.5214 33.9946C84.2664 33.8258 84.7655 33.1241 84.6806 32.3649C84.5957 31.6058 83.9538 31.0317 83.1899 31.0317V32.5317ZM76.4482 37.5368L75.0771 36.9284C75.0594 36.9682 75.0435 37.0088 75.0294 37.05L76.4482 37.5368ZM77.5149 42.2491L78.6023 41.2159C78.5662 41.1779 78.5281 41.1418 78.4882 41.1078L77.5149 42.2491ZM78.786 50.9056C78.4542 51.6646 78.8004 52.549 79.5595 52.8809C80.3185 53.2127 81.2029 52.8664 81.5348 52.1074L78.786 50.9056ZM80.9611 45.1217C80.1452 44.978 79.3673 45.5229 79.2236 46.3388C79.0799 47.1546 79.6248 47.9325 80.4407 48.0762L80.9611 45.1217ZM87.5507 53.8812C87.5224 54.7091 88.1706 55.4032 88.9986 55.4315C89.8265 55.4598 90.5206 54.8115 90.5489 53.9836L87.5507 53.8812ZM77.3729 70.3033C76.5508 70.2011 75.8015 70.7846 75.6993 71.6067C75.597 72.4288 76.1806 73.1781 77.0027 73.2804L77.3729 70.3033ZM88.3203 61.9013C88.1323 61.0945 87.3259 60.5928 86.5191 60.7808C85.7123 60.9688 85.2106 61.7753 85.3986 62.5821L88.3203 61.9013ZM74.7078 84.7046C73.9855 84.299 73.0711 84.5557 72.6655 85.2781C72.2598 86.0004 72.5166 86.9148 73.2389 87.3204L74.7078 84.7046ZM86.6198 79.548C86.6838 78.722 86.0662 78.0005 85.2403 77.9365C84.4143 77.8724 83.6928 78.49 83.6287 79.3159L86.6198 79.548ZM37.9832 62.3367C38.0896 61.5151 37.5097 60.7629 36.6882 60.6565C35.8666 60.5502 35.1144 61.13 35.008 61.9515L37.9832 62.3367ZM46.5661 73.0883C47.3745 72.9073 47.8832 72.1052 47.7022 71.2968C47.5212 70.4884 46.7191 69.9798 45.9107 70.1608L46.5661 73.0883ZM46.3092 51.3472C45.6201 48.7328 45.9475 46.9454 46.5374 45.7284C47.1409 44.4836 48.0976 43.676 48.9095 43.1822L47.3506 40.619C46.214 41.3103 44.767 42.5032 43.8379 44.4198C42.8954 46.3641 42.5613 48.8986 43.4083 52.1119L46.3092 51.3472ZM48.9106 43.1815C50.5301 42.1947 51.3017 40.2615 50.8167 38.4462L47.9183 39.2206C48.0591 39.7475 47.8351 40.3238 47.3496 40.6196L48.9106 43.1815ZM50.8177 38.4502C49.4748 33.368 45.1078 31.7049 42.6094 31.1758L41.9879 34.1107C44.0977 34.5575 47.0129 35.7943 47.9173 39.2166L50.8177 38.4502ZM42.6131 31.1766C42.683 31.1915 42.751 31.2515 42.7789 31.3261C42.7923 31.3619 42.7994 31.407 42.7922 31.458C42.7846 31.5131 42.7624 31.5597 42.7391 31.5895L40.379 29.7375C39.0997 31.3677 40.0309 33.6911 41.9841 34.1099L42.6131 31.1766ZM42.7368 31.5923C44.2777 29.6385 45.7681 28.5853 47.112 28.0615C48.4501 27.54 49.7417 27.5045 50.955 27.7435L51.5349 24.8001C49.8467 24.4675 47.9665 24.5087 46.0226 25.2663C44.0846 26.0217 42.1828 27.4501 40.3812 29.7346L42.7368 31.5923ZM50.9468 27.7419C54.4034 28.4429 56.7738 31.3679 56.7854 34.6004L59.7853 34.5897C59.7685 29.8754 56.3358 25.7737 51.5431 24.8017L50.9468 27.7419ZM56.7854 34.6008C56.8281 45.7388 56.9416 76.3859 56.743 86.4849L59.7424 86.5439C59.9419 76.3994 59.828 45.7025 59.7853 34.5893L56.7854 34.6008ZM56.7429 86.4861C56.686 89.5022 56.4972 91.6754 54.9757 93.6602L57.3566 95.4854C59.533 92.6462 59.6856 89.5494 59.7424 86.5427L56.7429 86.4861ZM54.9779 93.6573C53.8166 95.1646 52.2281 96.3478 50.4611 96.4861C48.7783 96.6179 46.4301 95.8338 43.614 92.2996L41.2677 94.1691C44.4395 98.1496 47.6597 99.7147 50.6953 99.477C53.6469 99.2458 55.927 97.3409 57.3544 95.4882L54.9779 93.6573ZM43.5974 92.2792C43.0928 91.6682 42.3246 91.2603 41.4595 91.2603V94.2603C41.3624 94.2603 41.3053 94.215 41.2843 94.1895L43.5974 92.2792ZM41.4595 91.2603C40.5163 91.2603 38.5369 91.119 36.7232 90.2368C34.9865 89.3921 33.3878 87.875 32.9591 84.9449L29.9907 85.3792C30.586 89.4479 32.9342 91.7299 35.4111 92.9346C37.8109 94.1019 40.3119 94.2603 41.4595 94.2603V91.2603ZM32.9595 84.9479C32.702 83.163 31.7342 81.5771 30.3526 80.4659L28.4724 82.8036C29.3097 83.477 29.8495 84.4006 29.9903 85.3762L32.9595 84.9479ZM30.3505 80.4642C29.5154 79.795 28.6089 78.8079 28.086 77.4564C27.5736 76.1322 27.382 74.3397 28.1523 71.9444L25.2964 71.0259C24.3316 74.026 24.5098 76.5275 25.2881 78.539C26.0559 80.5231 27.3611 81.913 28.4745 82.8053L30.3505 80.4642ZM28.1535 71.9407C28.213 71.754 28.2447 71.583 28.264 71.4586C28.2739 71.3953 28.2816 71.3364 28.2876 71.2901C28.2944 71.2373 28.2978 71.2091 28.3024 71.1753C28.3117 71.1071 28.3136 71.1134 28.3042 71.1467C28.2943 71.1822 28.255 71.3113 28.1428 71.4596C28.0844 71.5367 28.0101 71.6141 27.9184 71.6831C27.8265 71.7523 27.7306 71.803 27.638 71.838C27.4572 71.9062 27.3226 71.9022 27.2908 71.9003C27.2593 71.8985 27.2814 71.896 27.3787 71.9237C27.4724 71.9503 27.6095 71.9974 27.801 72.0766L28.9475 69.3043C28.4504 69.0987 27.9454 68.9335 27.4661 68.9054C26.9152 68.8732 26.2229 69.0249 25.7504 69.6494C25.4024 70.1095 25.3469 70.6451 25.3299 70.7702C25.3112 70.9071 25.3112 70.9235 25.2997 70.9973C25.2921 71.046 25.2891 71.0489 25.2952 71.0295L28.1535 71.9407ZM27.801 72.0766C28.8341 72.5038 30.464 72.9846 32.2404 73.1463C33.998 73.3062 36.0818 73.1698 37.8701 72.1656L36.4012 69.5498C35.3591 70.135 33.9725 70.2915 32.5122 70.1586C31.0706 70.0274 29.7349 69.6299 28.9475 69.3043L27.801 72.0766ZM27.208 70.2025C28.1516 69.0365 28.1523 69.037 28.1529 69.0376C28.1531 69.0377 28.1537 69.0382 28.1541 69.0385C28.1548 69.0391 28.1555 69.0396 28.156 69.0401C28.1571 69.0409 28.1578 69.0415 28.1581 69.0417C28.1586 69.0422 28.1577 69.0414 28.1553 69.0394C28.1505 69.0354 28.1398 69.0263 28.1239 69.0123C28.0921 68.9843 28.0394 68.9368 27.9705 68.8703C27.8324 68.737 27.631 68.5295 27.4018 68.2524C26.9407 67.6951 26.3847 66.8771 25.9938 65.8336C25.2438 63.8312 25.0099 60.7705 27.7999 56.7539L25.336 55.0424C21.9958 59.851 22.0819 63.9425 23.1844 66.8859C23.7199 68.3153 24.4732 69.4187 25.0901 70.1645C25.3998 70.539 25.6794 70.8285 25.8875 71.0293C25.9918 71.1299 26.0786 71.2087 26.1429 71.2652C26.1751 71.2936 26.2017 71.3163 26.2222 71.3335C26.2324 71.3422 26.2411 71.3494 26.2481 71.3552C26.2516 71.3581 26.2547 71.3607 26.2575 71.3629C26.2588 71.364 26.2601 71.365 26.2612 71.3659C26.2618 71.3664 26.2626 71.367 26.2628 71.3673C26.2636 71.3679 26.2643 71.3685 27.208 70.2025ZM26.5679 55.8982C28.0163 55.5079 28.0164 55.5084 28.0165 55.5089C28.0166 55.509 28.0167 55.5095 28.0167 55.5097C28.0169 55.5101 28.0169 55.5104 28.017 55.5106C28.0171 55.5109 28.017 55.5106 28.0168 55.5097C28.0163 55.508 28.0153 55.504 28.0137 55.4977C28.0104 55.4852 28.005 55.4637 27.9978 55.4338C27.9833 55.3739 27.9615 55.2802 27.9354 55.1567C27.8832 54.9094 27.8141 54.5441 27.7516 54.0914C27.6258 53.1806 27.5303 51.9429 27.6397 50.6116C27.8597 47.9362 28.8687 45.1267 31.8569 43.5645L30.467 40.9059C26.2015 43.1359 24.9135 47.1578 24.6498 50.3659C24.5175 51.9763 24.6336 53.4433 24.7798 54.5019C24.8533 55.0337 24.9353 55.4693 25.0002 55.7765C25.0327 55.9303 25.0609 56.0525 25.0819 56.139C25.0923 56.1823 25.101 56.2167 25.1074 56.2418C25.1106 56.2543 25.1132 56.2645 25.1153 56.2723C25.1163 56.2762 25.1172 56.2795 25.1179 56.2822C25.1183 56.2835 25.1186 56.2847 25.1189 56.2858C25.119 56.2863 25.1192 56.2869 25.1193 56.2872C25.1194 56.2878 25.1196 56.2884 26.5679 55.8982ZM31.162 42.2352C32.6619 42.2164 32.6619 42.2172 32.6619 42.2179C32.6619 42.2181 32.6619 42.2189 32.6619 42.2193C32.6619 42.2201 32.6619 42.2208 32.6619 42.2214C32.6619 42.2225 32.6619 42.2231 32.6619 42.2232C32.6619 42.2234 32.6619 42.2215 32.6619 42.2175C32.662 42.2097 32.6621 42.1938 32.6627 42.1704C32.6639 42.1236 32.6667 42.047 32.6736 41.9448C32.6875 41.7398 32.7174 41.4345 32.7819 41.0613C32.9117 40.3095 33.1763 39.3133 33.7073 38.31C34.7254 36.3866 36.8017 34.2621 41.3645 33.9444L41.1562 30.9517C35.5069 31.345 32.534 34.114 31.0559 36.9065C30.3389 38.2611 29.9936 39.5784 29.8256 40.5506C29.7412 41.0394 29.7003 41.4487 29.6804 41.7429C29.6705 41.8902 29.6658 42.0093 29.6637 42.0957C29.6626 42.139 29.6621 42.1742 29.662 42.2007C29.6619 42.214 29.6619 42.2251 29.6619 42.234C29.662 42.2385 29.662 42.2424 29.662 42.2457C29.662 42.2474 29.662 42.2489 29.662 42.2503C29.6621 42.251 29.6621 42.2519 29.6621 42.2522C29.6621 42.2531 29.6621 42.254 31.162 42.2352ZM35.2013 54.504C36.6578 54.8627 36.6577 54.8633 36.6575 54.8638C36.6575 54.8639 36.6574 54.8644 36.6573 54.8647C36.6572 54.8652 36.6571 54.8656 36.657 54.8658C36.6569 54.8664 36.6569 54.8664 36.657 54.8659C36.6572 54.865 36.658 54.8621 36.6592 54.8573C36.6617 54.8477 36.6663 54.8304 36.673 54.8061C36.6864 54.7575 36.7082 54.6807 36.7393 54.5801C36.8015 54.3784 36.8998 54.0829 37.0394 53.7269C37.3207 53.0094 37.7586 52.0751 38.3864 51.1731C39.6375 49.3756 41.5063 47.8623 44.376 48.1341L44.6589 45.1475C40.3174 44.7362 37.5282 47.1545 35.9241 49.4593C35.1242 50.6085 34.5851 51.7681 34.2464 52.6317C34.076 53.0662 33.9535 53.4331 33.8724 53.6961C33.8318 53.8278 33.8014 53.934 33.7805 54.0102C33.77 54.0483 33.7618 54.079 33.7559 54.1017C33.753 54.113 33.7506 54.1224 33.7488 54.1297C33.7478 54.1333 33.747 54.1364 33.7464 54.139C33.7461 54.1403 33.7458 54.1415 33.7455 54.1425C33.7454 54.1431 33.7452 54.1437 33.7452 54.144C33.745 54.1446 33.7449 54.1452 35.2013 54.504ZM37.8687 79.9757C37.8687 83.5124 39.1534 86.4662 41.7627 87.9707C44.3422 89.458 47.7392 89.249 51.3681 87.5526L50.0977 84.8349C46.9564 86.3033 44.6713 86.1848 43.2612 85.3718C41.881 84.5759 40.8687 82.8383 40.8687 79.9757H37.8687ZM86.7729 31.4457C84.8513 27.8668 81.0546 25.0508 76.7613 24.5585L76.4195 27.539C79.6645 27.9111 82.6379 30.0863 84.1298 32.8648L86.7729 31.4457ZM76.7613 24.5585C72.1495 24.0297 68.8963 27.1477 66.5755 29.9422L68.8834 31.8588C71.1709 29.1044 73.4931 27.2034 76.4195 27.539L76.7613 24.5585ZM66.5798 29.9371C65.7446 30.9336 65.2068 32.1414 65.0585 33.4502L68.0394 33.7881C68.1186 33.0893 68.4058 32.4288 68.8791 31.8639L66.5798 29.9371ZM65.0591 33.4447C64.9538 34.344 64.8913 35.2628 64.9069 36.2091L67.9065 36.1598C67.8936 35.3773 67.9449 34.5952 68.0388 33.7936L65.0591 33.4447ZM64.9068 36.2015C65.1047 53.5593 64.6659 71.1421 65.0778 88.5436L68.077 88.4726C67.6639 71.0196 68.107 53.7478 67.9066 36.1673L64.9068 36.2015ZM65.0778 88.5431C65.1277 90.681 65.8448 92.7734 67.2137 94.4797L69.5537 92.6024C68.6185 91.4367 68.1124 89.9879 68.077 88.473L65.0778 88.5431ZM67.214 94.4801C67.9497 95.3966 68.7983 96.2941 69.8214 97.0933L71.6681 94.7291C70.8707 94.1062 70.1831 93.3865 69.5534 92.6021L67.214 94.4801ZM69.8687 97.1288C72.9219 99.3256 77.3879 100.042 80.9038 97.4704L79.1326 95.0491C76.9308 96.6597 73.9155 96.3447 71.6208 94.6936L69.8687 97.1288ZM80.9392 97.4437C81.1864 97.2514 81.4282 97.05 81.649 96.8657C81.8765 96.6759 82.0813 96.5046 82.2836 96.3451C82.7026 96.015 83.0038 95.824 83.2359 95.7337L82.1483 92.9378C81.4844 93.196 80.8967 93.6185 80.4267 93.9889C80.1845 94.1797 79.9448 94.3806 79.7269 94.5623C79.5024 94.7497 79.298 94.9195 79.0971 95.0758L80.9392 97.4437ZM83.3523 95.6827C84.3689 95.1844 85.3618 94.8587 86.605 94.3456C87.763 93.8676 89.0212 93.2649 90.1015 92.3076L88.1119 90.0623C87.4143 90.6804 86.532 91.1302 85.4605 91.5724C84.4743 91.9795 83.1488 92.4415 82.032 92.9888L83.3523 95.6827ZM90.1567 92.2561C90.2879 92.1275 90.3967 92.0054 90.4827 91.9057C90.5244 91.8573 90.5654 91.8087 90.5969 91.7717C90.6308 91.7317 90.6566 91.7014 90.6802 91.6746C90.7794 91.5621 90.7633 91.6025 90.684 91.643L89.3216 88.9702C88.8867 89.1918 88.6003 89.4972 88.4292 89.6914C88.2157 89.9337 88.1844 89.9885 88.0567 90.1137L90.1567 92.2561ZM91.0528 91.3778C93.5268 88.9526 94.3311 85.7251 95.0204 83.1847L92.1251 82.3992C91.392 85.1009 90.7456 87.478 88.9527 89.2354L91.0528 91.3778ZM94.2712 84.1194C97.0355 82.6648 98.5377 80.271 99.2878 77.7162C100.028 75.1948 100.06 72.4537 99.8756 70.0994L96.8847 70.3334C97.0561 72.5242 97.0024 74.8509 96.4093 76.8711C95.826 78.8578 94.7467 80.4792 92.8743 81.4645L94.2712 84.1194ZM99.5985 71.0914C100.463 69.8872 100.679 68.5956 100.76 67.486C100.798 66.9541 100.81 66.371 100.829 65.9047C100.85 65.4054 100.881 64.9568 100.954 64.5286L97.9965 64.0258C97.8915 64.6432 97.8538 65.2421 97.8315 65.7801C97.8077 66.3512 97.802 66.7954 97.7677 67.2691C97.7023 68.1705 97.5486 68.8029 97.1618 69.3414L99.5985 71.0914ZM100.965 64.4555C101.119 63.1683 101.456 61.47 101.496 60.0133C101.539 58.4295 101.272 56.7526 100.115 55.1775L97.6975 56.9535C98.3326 57.8182 98.5285 58.7624 98.4968 59.932C98.4616 61.2289 98.1874 62.4164 97.9859 64.0989L100.965 64.4555ZM100.231 55.3625C100.191 55.2855 100.137 55.1588 100.096 55.0216C100.077 54.9561 100.064 54.9011 100.056 54.8606C100.048 54.8161 100.051 54.8108 100.051 54.8386H97.0508C97.0508 55.5202 97.3314 56.2974 97.5813 56.7684L100.231 55.3625ZM100.031 55.0799C100.839 50.1238 98.7801 46.0417 96.2008 42.436L93.7608 44.1814C96.188 47.5745 97.685 50.8258 97.0704 54.5973L100.031 55.0799ZM96.2263 42.4728C95.9892 42.1195 95.9404 41.8903 95.9404 41.7333H92.9404C92.9404 42.6358 93.2613 43.4383 93.7353 44.1446L96.2263 42.4728ZM95.9345 41.8654C96.153 39.3942 95.5004 37.0827 93.8283 35.0175L91.4967 36.9053C92.6692 38.3534 93.0975 39.8898 92.9462 41.6012L95.9345 41.8654ZM93.8182 35.0052C91.0631 31.6749 86.5516 30.7798 82.889 31.0641L83.1211 34.0551C86.2855 33.8095 89.6252 34.6432 91.5067 36.9175L93.8182 35.0052ZM83.005 34.0596C83.1348 34.0596 83.2404 34.0442 83.2985 34.0345C83.3558 34.0248 83.4076 34.0133 83.4167 34.0113C83.4396 34.0063 83.4198 34.0109 83.3936 34.0153C83.3666 34.0198 83.2913 34.0317 83.1899 34.0317V31.0317C83.0601 31.0317 82.9545 31.047 82.8964 31.0568C82.8391 31.0664 82.7874 31.078 82.7782 31.08C82.7554 31.085 82.7751 31.0804 82.8013 31.076C82.8283 31.0714 82.9036 31.0596 83.005 31.0596V34.0596ZM82.8584 31.0688C79.7493 31.7733 76.5719 33.56 75.0771 36.9284L77.8192 38.1452C78.7993 35.9369 80.9697 34.5728 83.5214 33.9946L82.8584 31.0688ZM75.0294 37.05C74.356 39.0128 74.511 41.6588 76.5416 43.3905L78.4882 41.1078C77.6742 40.4136 77.4594 39.2117 77.867 38.0236L75.0294 37.05ZM76.4275 43.2824C78.6254 45.5953 79.8604 48.4483 78.786 50.9056L81.5348 52.1074C83.3619 47.9284 81.0412 43.7825 78.6023 41.2159L76.4275 43.2824ZM80.7009 46.599C80.4407 48.0762 80.4402 48.0762 80.4398 48.0761C80.4397 48.0761 80.4393 48.076 80.4391 48.076C80.4387 48.0759 80.4385 48.0758 80.4383 48.0758C80.4381 48.0758 80.4383 48.0758 80.4391 48.076C80.4405 48.0762 80.444 48.0769 80.4494 48.0779C80.4601 48.0799 80.4785 48.0834 80.504 48.0885C80.5551 48.0986 80.6345 48.1151 80.7382 48.1384C80.9459 48.1852 81.2488 48.2593 81.6144 48.3656C82.3515 48.58 83.3137 48.9172 84.2547 49.4094C86.2073 50.4308 87.6199 51.8553 87.5507 53.8812L90.5489 53.9836C90.6788 50.1818 87.917 47.9395 85.6453 46.7512C84.4742 46.1385 83.3118 45.735 82.4524 45.485C82.0197 45.3591 81.6564 45.27 81.3974 45.2117C81.2677 45.1825 81.1637 45.1609 81.0896 45.1462C81.0526 45.1388 81.023 45.1331 81.0014 45.1291C80.9906 45.1271 80.9818 45.1255 80.9751 45.1242C80.9717 45.1236 80.9688 45.1231 80.9665 45.1227C80.9653 45.1225 80.9643 45.1223 80.9634 45.1221C80.963 45.122 80.9624 45.1219 80.9621 45.1219C80.9616 45.1218 80.9611 45.1217 80.7009 46.599ZM98.5121 68.0407C98.2232 68.0899 98.0128 68.2151 97.9806 68.2334C97.9053 68.2762 97.8407 68.3198 97.8008 68.3473C97.7213 68.4023 97.6262 68.4735 97.5525 68.5283C97.3872 68.6512 97.184 68.8012 96.929 68.9679C96.42 69.3004 95.7086 69.6954 94.8053 69.9791C93.0457 70.5315 90.3961 70.7152 86.8798 68.8495L85.4737 71.4996C89.709 73.7468 93.1895 73.6307 95.7039 72.8413C96.9376 72.454 97.8992 71.9175 98.5699 71.4793C98.9047 71.2606 99.168 71.0655 99.3421 70.9361C99.4381 70.8647 99.481 70.8329 99.5072 70.8148C99.5203 70.8058 99.5005 70.8203 99.4619 70.8422C99.4418 70.8536 99.3996 70.8768 99.3414 70.902C99.2918 70.9234 99.1754 70.9709 99.0162 70.998L98.5121 68.0407ZM77.0027 73.2804C81.3558 73.8218 84.8429 73.3327 86.9296 71.1827C89.0526 68.9953 89.1954 65.6566 88.3203 61.9013L85.3986 62.5821C86.2161 66.0905 85.7829 68.0567 84.7768 69.0933C83.7344 70.1673 81.5394 70.8215 77.3729 70.3033L77.0027 73.2804ZM73.2389 87.3204C76.3486 89.0666 79.5742 89.4395 82.1915 87.9728C84.7983 86.512 86.3133 83.4983 86.6198 79.548L83.6287 79.3159C83.3663 82.6991 82.1362 84.5649 80.725 85.3557C79.3243 86.1406 77.2589 86.1371 74.7078 84.7046L73.2389 87.3204ZM35.008 61.9515C34.4539 66.2329 34.9551 69.6792 37.1598 71.7352C39.3758 73.8017 42.7483 73.9431 46.5661 73.0883L45.9107 70.1608C42.3183 70.9651 40.2789 70.5419 39.2058 69.5411C38.1215 68.5299 37.4564 66.4065 37.9832 62.3367L35.008 61.9515Z" fill="#CFCECE"/>
</svg>
