<svg width="64" height="64" viewBox="0 0 64 64" fill="none" xmlns="http://www.w3.org/2000/svg">
<path d="M46.8657 32.2868C46.3717 32.665 45.8777 33.0431 45.3707 33.3952C44.8247 33.7734 44.2526 34.1124 43.6676 34.4123C43.5246 34.4906 43.3816 34.5557 43.2256 34.6209C43.1606 34.6601 43.0826 34.6861 43.0176 34.7122C42.9786 34.7253 42.9396 34.7383 42.9136 34.7644C42.8876 34.7774 42.7317 34.8426 42.8617 34.7905C42.5627 34.9078 42.2636 35.0382 41.9516 35.1425C41.6396 35.2469 41.3145 35.3512 41.0025 35.4294C40.7035 35.5076 40.4045 35.5859 40.1575 35.7685C39.6375 36.1466 39.3125 36.7204 39.3125 37.3724C39.3125 37.894 39.3125 38.4025 39.3125 38.9241C39.3125 39.4588 39.3125 39.9804 39.3125 40.515C39.3125 41.6103 39.4555 42.7057 39.7285 43.775C40.0145 44.8573 40.4435 45.9136 41.0025 46.8915C41.5615 47.8695 42.2506 48.7693 43.0306 49.5647C43.8236 50.3732 44.7467 51.0774 45.7217 51.6381C46.2807 51.9641 46.8656 52.2379 47.4376 52.5248C47.6196 52.6161 47.7887 52.6161 47.9707 52.5248C48.0097 52.4987 48.0486 52.4857 48.0876 52.4596C48.2436 52.3814 48.3866 52.3031 48.5426 52.2249C48.8157 52.0814 49.1017 51.951 49.3747 51.8076C50.3757 51.273 51.3118 50.5819 52.1308 49.7995C52.9368 49.0301 53.6518 48.1434 54.2368 47.1784C54.8218 46.2135 55.2768 45.1703 55.5888 44.101C55.9138 43.0056 56.0828 41.8581 56.0958 40.7106C56.1088 40.189 56.0958 39.6804 56.0958 39.1588C56.0958 38.5721 56.0958 37.9983 56.0958 37.4115C56.0958 36.9029 55.9138 36.4074 55.5628 36.0423C55.3418 35.7946 55.0428 35.625 54.7308 35.5207C54.4318 35.4294 54.1328 35.3642 53.8338 35.2729C53.5218 35.1686 53.2097 35.0643 52.8977 34.9469C52.8197 34.9209 52.7548 34.8948 52.6768 34.8557C52.6378 34.8426 52.5987 34.8296 52.5727 34.8165C52.5467 34.8035 52.4817 34.7774 52.5987 34.8296C52.5727 34.8166 52.5597 34.8166 52.5337 34.8035C52.3777 34.7383 52.2217 34.6731 52.0787 34.5949C51.4807 34.308 50.9087 33.995 50.3627 33.6299C49.7387 33.2257 49.1537 32.7693 48.5687 32.3259C48.0617 31.9608 47.3597 31.9217 46.8657 32.2868C46.7617 32.365 46.6707 32.4563 46.6317 32.5867C46.5927 32.7041 46.6186 32.8736 46.6836 32.9779C46.8266 33.1866 47.1516 33.33 47.3726 33.1605C47.4246 33.1213 47.4897 33.0953 47.5547 33.0561C47.5417 33.0561 47.4377 33.0953 47.5157 33.0692C47.5287 33.0692 47.5417 33.0561 47.5547 33.0561C47.5677 33.0561 47.5937 33.0431 47.6067 33.0431C47.6457 33.0301 47.6976 33.0431 47.5676 33.0431C47.6196 33.0431 47.7237 33.017 47.7757 33.0431C47.7887 33.0431 47.6587 33.017 47.7107 33.0301C47.7237 33.0301 47.7367 33.0301 47.7497 33.0431C47.7627 33.0431 47.7887 33.0561 47.8017 33.0561C47.8147 33.0561 47.9056 33.0953 47.8276 33.0561C47.7496 33.017 47.8537 33.0692 47.8797 33.0822C47.9057 33.0953 47.9447 33.1214 47.9707 33.1344C47.9837 33.1344 47.9837 33.1474 47.9967 33.1474C48.0357 33.1735 48.0617 33.1996 48.1007 33.2257C48.3607 33.4213 48.6337 33.6169 48.8937 33.8255C49.8037 34.5166 50.7787 35.1034 51.8187 35.5729C52.4427 35.8597 53.0928 36.0945 53.7558 36.2901C53.9118 36.3422 54.0678 36.3813 54.2238 36.4205C54.2888 36.4335 54.3408 36.4465 54.4058 36.4726C54.4318 36.4856 54.4708 36.4987 54.4968 36.4987C54.5358 36.5118 54.5748 36.5378 54.4448 36.4726C54.4578 36.4856 54.4838 36.4857 54.4968 36.4987C54.5488 36.5248 54.6007 36.5509 54.6527 36.59C54.6917 36.6161 54.7697 36.6943 54.6527 36.59C54.6787 36.6161 54.7048 36.6291 54.7308 36.6552C54.7698 36.6943 54.8218 36.7465 54.8608 36.7856C54.9128 36.8508 54.7827 36.6813 54.8477 36.7725C54.8737 36.7986 54.8868 36.8247 54.8998 36.8638C54.9128 36.8899 54.9258 36.916 54.9388 36.9421C54.9518 36.9681 54.9909 37.0594 54.9519 36.9812C54.9129 36.9029 54.9518 36.9942 54.9648 37.0203C54.9778 37.0594 54.9908 37.0855 54.9908 37.1246C55.0038 37.1507 55.0039 37.1898 55.0169 37.2159C55.0429 37.3333 55.0039 37.1116 55.0169 37.2029C55.0169 37.255 55.0168 37.2941 55.0298 37.3463C55.0298 37.3985 55.0298 37.4506 55.0298 37.4897V38.3243V40.3064C55.0298 40.5802 55.0299 40.8671 55.0169 41.1409C55.0039 41.4148 54.9779 41.6886 54.9519 41.9624C54.9519 42.0016 54.9388 42.0276 54.9388 42.0668C54.9388 42.0798 54.9388 42.1059 54.9258 42.1189C54.9258 42.132 54.9388 42.0016 54.9388 42.0537C54.9258 42.1189 54.9128 42.1972 54.9128 42.2624C54.8867 42.4058 54.8608 42.5362 54.8348 42.6796C54.7308 43.2143 54.5878 43.7489 54.4188 44.2705C54.3278 44.5313 54.2367 44.7921 54.1327 45.0399C54.1197 45.066 54.1068 45.092 54.1068 45.1181C54.1198 45.092 54.1718 44.9616 54.1068 45.1181C54.0808 45.1833 54.0548 45.2485 54.0288 45.3137C53.9768 45.4311 53.9118 45.5615 53.8598 45.6788C53.6258 46.1613 53.3527 46.6307 53.0537 47.0871C52.8977 47.3088 52.7417 47.5305 52.5727 47.7522C52.5727 47.7522 52.6378 47.6609 52.6118 47.7C52.5988 47.7131 52.5857 47.7261 52.5727 47.7391C52.5467 47.7652 52.5337 47.7913 52.5077 47.8174C52.4687 47.8695 52.4167 47.9217 52.3777 47.9739C52.2867 48.0782 52.2087 48.1825 52.1177 48.2868C51.7537 48.6911 51.3768 49.0823 50.9608 49.4343C50.8568 49.5256 50.7528 49.6169 50.6358 49.7082C50.5838 49.7473 50.5317 49.7864 50.4797 49.8255C50.3887 49.8907 50.5447 49.7734 50.4797 49.8255C50.4537 49.8516 50.4147 49.8777 50.3887 49.8907C50.1677 50.0603 49.9467 50.2167 49.7127 50.3602C49.0497 50.7905 48.3347 51.1426 47.6197 51.4947C47.5417 51.5338 47.4637 51.5729 47.3857 51.612H47.8926C47.3856 51.3512 46.8657 51.1165 46.3717 50.8427C45.9037 50.5819 45.4487 50.295 45.0067 49.969C44.9547 49.9298 44.9026 49.8907 44.8636 49.8647C44.8506 49.8516 44.7596 49.7864 44.8246 49.8386C44.8896 49.8907 44.7986 49.8125 44.7726 49.7995C44.6686 49.7212 44.5647 49.6299 44.4607 49.5387C44.2657 49.3691 44.0707 49.1996 43.8756 49.0171C43.4986 48.6519 43.1346 48.2608 42.8096 47.8435C42.7706 47.7913 42.7316 47.7522 42.6926 47.7C42.6536 47.6479 42.7576 47.7913 42.7186 47.7391C42.7056 47.7261 42.7056 47.7131 42.6926 47.7C42.6666 47.6739 42.6536 47.6348 42.6276 47.6087C42.5496 47.5044 42.4717 47.4001 42.4067 47.2958C42.2506 47.0741 42.1075 46.8524 41.9775 46.6307C41.7045 46.1744 41.4576 45.718 41.2496 45.2355C41.2236 45.1833 41.1976 45.1312 41.1716 45.066C41.1326 44.9877 41.2236 45.1703 41.1716 45.066C41.1586 45.0268 41.1455 45.0007 41.1325 44.9616C41.0805 44.8312 41.0286 44.7139 40.9896 44.5835C40.8986 44.3357 40.8205 44.0879 40.7425 43.8402C40.5865 43.3316 40.4696 42.81 40.3916 42.2754C40.3786 42.2102 40.3786 42.158 40.3656 42.0928C40.3656 42.0798 40.3655 42.0537 40.3525 42.0407C40.3395 41.9885 40.3656 42.1189 40.3656 42.1059C40.3656 42.0668 40.3525 42.0276 40.3525 41.9885C40.3395 41.8581 40.3265 41.7277 40.3135 41.5973C40.2875 41.3235 40.2746 41.0496 40.2616 40.7888C40.2486 40.2803 40.2616 39.7848 40.2616 39.2762V37.4506C40.2616 37.3984 40.2616 37.3593 40.2616 37.3072C40.2616 37.2811 40.2616 37.242 40.2616 37.2159C40.2746 37.1116 40.2486 37.3202 40.2616 37.2289C40.2746 37.1637 40.2876 37.1116 40.3006 37.0464C40.3136 37.0203 40.3266 36.9942 40.3266 36.9551C40.3526 36.8899 40.2746 37.0594 40.3006 37.0073C40.3006 36.9942 40.3135 36.9812 40.3135 36.9681C40.3395 36.9029 40.3785 36.8508 40.4175 36.7986C40.4305 36.7856 40.4305 36.7725 40.4435 36.7725C40.4955 36.7073 40.4175 36.8117 40.4175 36.8117C40.4175 36.8117 40.4696 36.7595 40.4696 36.7465C40.5086 36.6943 40.5605 36.6552 40.6125 36.603C40.7035 36.5248 40.5346 36.6552 40.5996 36.603C40.6256 36.59 40.6515 36.5639 40.6775 36.5509C40.7035 36.5378 40.8336 36.4465 40.8596 36.4596C40.8596 36.4596 40.7556 36.4987 40.7946 36.4857C40.8076 36.4857 40.8205 36.4726 40.8335 36.4726C40.8596 36.4596 40.8986 36.4465 40.9246 36.4465C40.9896 36.4335 41.0545 36.4074 41.1325 36.3944C41.2885 36.3553 41.4315 36.3161 41.5875 36.264C42.8486 35.8858 44.0577 35.3512 45.1757 34.6601C45.8647 34.2428 46.5016 33.7473 47.1387 33.2648C47.2037 33.2126 47.2687 33.1605 47.3337 33.1213C47.4377 33.0431 47.5286 32.9518 47.5676 32.8214C47.6066 32.7041 47.5807 32.5345 47.5157 32.4302C47.4247 32.2607 47.0997 32.1173 46.8657 32.2868Z" fill="white"/>
<path d="M46.8657 32.2868C46.3717 32.665 45.8777 33.0431 45.3707 33.3952C44.8247 33.7734 44.2526 34.1124 43.6676 34.4123C43.5246 34.4906 43.3816 34.5557 43.2256 34.6209C43.1606 34.6601 43.0826 34.6861 43.0176 34.7122C42.9786 34.7253 42.9396 34.7383 42.9136 34.7644C42.8876 34.7774 42.7317 34.8426 42.8617 34.7905C42.5627 34.9078 42.2636 35.0382 41.9516 35.1425C41.6396 35.2469 41.3145 35.3512 41.0025 35.4294C40.7035 35.5076 40.4045 35.5859 40.1575 35.7685C39.6375 36.1466 39.3125 36.7204 39.3125 37.3724C39.3125 37.894 39.3125 38.4025 39.3125 38.9241C39.3125 39.4588 39.3125 39.9804 39.3125 40.515C39.3125 41.6103 39.4555 42.7057 39.7285 43.775C40.0145 44.8573 40.4435 45.9136 41.0025 46.8915C41.5615 47.8695 42.2506 48.7693 43.0306 49.5647C43.8236 50.3732 44.7467 51.0774 45.7217 51.6381C46.2807 51.9641 46.8656 52.2379 47.4376 52.5248C47.6196 52.6161 47.7887 52.6161 47.9707 52.5248C48.0097 52.4987 48.0486 52.4857 48.0876 52.4596C48.2436 52.3814 48.3866 52.3031 48.5426 52.2249C48.8157 52.0814 49.1017 51.951 49.3747 51.8076C50.3757 51.273 51.3118 50.5819 52.1308 49.7995C52.9368 49.0301 53.6518 48.1434 54.2368 47.1784C54.8218 46.2135 55.2768 45.1703 55.5888 44.101C55.9138 43.0056 56.0828 41.8581 56.0958 40.7106C56.1088 40.189 56.0958 39.6804 56.0958 39.1588C56.0958 38.5721 56.0958 37.9983 56.0958 37.4115C56.0958 36.9029 55.9138 36.4074 55.5628 36.0423C55.3418 35.7946 55.0428 35.625 54.7308 35.5207C54.4318 35.4294 54.1328 35.3642 53.8338 35.2729C53.5218 35.1686 53.2097 35.0643 52.8977 34.9469C52.8197 34.9209 52.7548 34.8948 52.6768 34.8557C52.6378 34.8426 52.5987 34.8296 52.5727 34.8165C52.5467 34.8035 52.4817 34.7774 52.5987 34.8296C52.5727 34.8166 52.5597 34.8166 52.5337 34.8035C52.3777 34.7383 52.2217 34.6731 52.0787 34.5949C51.4807 34.308 50.9087 33.995 50.3627 33.6299C49.7387 33.2257 49.1537 32.7693 48.5687 32.3259C48.0617 31.9608 47.3597 31.9217 46.8657 32.2868ZM46.8657 32.2868C46.7617 32.365 46.6707 32.4563 46.6317 32.5867C46.5927 32.7041 46.6186 32.8736 46.6836 32.9779C46.8266 33.1866 47.1516 33.33 47.3726 33.1605C47.4246 33.1213 47.4897 33.0953 47.5547 33.0561M46.8657 32.2868C47.0997 32.1173 47.4247 32.2607 47.5157 32.4302C47.5807 32.5345 47.6066 32.7041 47.5676 32.8214C47.5286 32.9518 47.4377 33.0431 47.3337 33.1213C47.2687 33.1605 47.2037 33.2126 47.1387 33.2648C46.5016 33.7473 45.8647 34.2428 45.1757 34.6601C44.0577 35.3512 42.8486 35.8858 41.5875 36.264C41.4315 36.3161 41.2885 36.3553 41.1325 36.3944C41.0545 36.4074 40.9896 36.4335 40.9246 36.4465C40.8986 36.4465 40.8596 36.4596 40.8335 36.4726C40.8205 36.4726 40.8076 36.4857 40.7946 36.4857C40.7556 36.4987 40.8596 36.4596 40.8596 36.4596C40.8336 36.4465 40.7035 36.5378 40.6775 36.5509C40.6515 36.5639 40.6256 36.59 40.5996 36.603C40.5346 36.6552 40.7035 36.5248 40.6125 36.603C40.5605 36.6552 40.5086 36.6943 40.4696 36.7465C40.4696 36.7595 40.4175 36.8117 40.4175 36.8117C40.4175 36.8117 40.4955 36.7073 40.4435 36.7725C40.4305 36.7725 40.4305 36.7856 40.4175 36.7986C40.3785 36.8508 40.3395 36.9029 40.3135 36.9681C40.3135 36.9812 40.3006 36.9942 40.3006 37.0073C40.2746 37.0594 40.3526 36.8899 40.3266 36.9551C40.3266 36.9942 40.3136 37.0203 40.3006 37.0464C40.2876 37.1116 40.2746 37.1637 40.2616 37.2289C40.2486 37.3202 40.2746 37.1116 40.2616 37.2159C40.2616 37.242 40.2616 37.2811 40.2616 37.3072C40.2616 37.3593 40.2616 37.3984 40.2616 37.4506V39.2762C40.2616 39.7848 40.2486 40.2803 40.2616 40.7888C40.2746 41.0496 40.2875 41.3235 40.3135 41.5973C40.3265 41.7277 40.3395 41.8581 40.3525 41.9885C40.3525 42.0276 40.3656 42.0668 40.3656 42.1059C40.3656 42.1189 40.3395 41.9885 40.3525 42.0407C40.3655 42.0537 40.3656 42.0798 40.3656 42.0928C40.3786 42.158 40.3786 42.2102 40.3916 42.2754C40.4696 42.81 40.5865 43.3316 40.7425 43.8402C40.8205 44.0879 40.8986 44.3357 40.9896 44.5835C41.0286 44.7139 41.0805 44.8312 41.1325 44.9616C41.1455 45.0007 41.1586 45.0268 41.1716 45.066M47.5547 33.0561C47.5417 33.0561 47.4377 33.0953 47.5157 33.0692C47.5287 33.0692 47.5417 33.0561 47.5547 33.0561ZM47.5547 33.0561C47.5677 33.0561 47.5937 33.0431 47.6067 33.0431C47.6457 33.0301 47.6976 33.0431 47.5676 33.0431C47.6196 33.0431 47.7237 33.017 47.7757 33.0431C47.7887 33.0431 47.6587 33.017 47.7107 33.0301C47.7237 33.0301 47.7367 33.0301 47.7497 33.0431C47.7627 33.0431 47.7887 33.0561 47.8017 33.0561C47.8147 33.0561 47.9056 33.0953 47.8276 33.0561C47.7496 33.017 47.8537 33.0692 47.8797 33.0822C47.9057 33.0953 47.9447 33.1214 47.9707 33.1344C47.9837 33.1344 47.9837 33.1474 47.9967 33.1474C48.0357 33.1735 48.0617 33.1996 48.1007 33.2257C48.3607 33.4213 48.6337 33.6169 48.8937 33.8255C49.8037 34.5166 50.7787 35.1034 51.8187 35.5729C52.4427 35.8597 53.0928 36.0945 53.7558 36.2901C53.9118 36.3422 54.0678 36.3813 54.2238 36.4205C54.2888 36.4335 54.3408 36.4465 54.4058 36.4726C54.4318 36.4856 54.4708 36.4987 54.4968 36.4987M54.4968 36.4987C54.5358 36.5118 54.5748 36.5378 54.4448 36.4726C54.4578 36.4856 54.4838 36.4857 54.4968 36.4987ZM54.4968 36.4987C54.5488 36.5248 54.6007 36.5509 54.6527 36.59M54.6527 36.59C54.6917 36.6161 54.7697 36.6943 54.6527 36.59ZM54.6527 36.59C54.6787 36.6161 54.7048 36.6291 54.7308 36.6552C54.7698 36.6943 54.8218 36.7465 54.8608 36.7856C54.9128 36.8508 54.7827 36.6813 54.8477 36.7725C54.8737 36.7986 54.8868 36.8247 54.8998 36.8638C54.9128 36.8899 54.9258 36.916 54.9388 36.9421C54.9518 36.9681 54.9909 37.0594 54.9519 36.9812C54.9129 36.9029 54.9518 36.9942 54.9648 37.0203C54.9778 37.0594 54.9908 37.0855 54.9908 37.1246C55.0038 37.1507 55.0039 37.1898 55.0169 37.2159C55.0429 37.3333 55.0039 37.1116 55.0169 37.2029C55.0169 37.255 55.0168 37.2941 55.0298 37.3463C55.0298 37.3985 55.0298 37.4506 55.0298 37.4897V38.3243V40.3064C55.0298 40.5802 55.0299 40.8671 55.0169 41.1409C55.0039 41.4148 54.9779 41.6886 54.9519 41.9624C54.9519 42.0016 54.9388 42.0276 54.9388 42.0668C54.9388 42.0798 54.9388 42.1059 54.9258 42.1189C54.9258 42.132 54.9388 42.0016 54.9388 42.0537C54.9258 42.1189 54.9127 42.1972 54.9127 42.2624C54.8867 42.4058 54.8608 42.5362 54.8348 42.6796C54.7308 43.2143 54.5878 43.7489 54.4188 44.2705C54.3278 44.5313 54.2367 44.7921 54.1327 45.0399C54.1197 45.066 54.1068 45.092 54.1068 45.1181M54.1068 45.1181C54.1198 45.092 54.1718 44.9616 54.1068 45.1181ZM54.1068 45.1181C54.0808 45.1833 54.0548 45.2485 54.0288 45.3137C53.9768 45.4311 53.9118 45.5615 53.8598 45.6788C53.6258 46.1613 53.3528 46.6308 53.0537 47.0871C52.8977 47.3088 52.7417 47.5305 52.5727 47.7522C52.5727 47.7522 52.6378 47.6609 52.6118 47.7C52.5988 47.7131 52.5857 47.7261 52.5727 47.7391C52.5467 47.7652 52.5337 47.7913 52.5077 47.8174C52.4687 47.8695 52.4167 47.9217 52.3777 47.9739C52.2867 48.0782 52.2087 48.1825 52.1177 48.2868C51.7537 48.6911 51.3768 49.0823 50.9608 49.4343C50.8568 49.5256 50.7528 49.6169 50.6358 49.7082C50.5838 49.7473 50.5317 49.7864 50.4797 49.8255M50.4797 49.8255C50.3887 49.8907 50.5447 49.7734 50.4797 49.8255ZM50.4797 49.8255C50.4537 49.8516 50.4147 49.8777 50.3887 49.8907C50.1677 50.0603 49.9467 50.2167 49.7127 50.3602C49.0497 50.7905 48.3347 51.1426 47.6197 51.4947C47.5417 51.5338 47.4637 51.5729 47.3857 51.612H47.8926C47.3856 51.3512 46.8657 51.1165 46.3717 50.8427C45.9037 50.5819 45.4487 50.295 45.0067 49.969C44.9547 49.9298 44.9026 49.8907 44.8636 49.8647C44.8506 49.8516 44.7596 49.7864 44.8246 49.8386C44.8896 49.8907 44.7986 49.8125 44.7726 49.7995C44.6686 49.7212 44.5647 49.6299 44.4607 49.5387C44.2657 49.3691 44.0707 49.1996 43.8756 49.0171C43.4986 48.6519 43.1346 48.2608 42.8096 47.8435C42.7706 47.7913 42.7316 47.7522 42.6926 47.7M42.6926 47.7C42.6536 47.6479 42.7576 47.7913 42.7186 47.7391C42.7056 47.7261 42.7056 47.7131 42.6926 47.7ZM42.6926 47.7C42.6666 47.6739 42.6536 47.6348 42.6276 47.6087C42.5496 47.5044 42.4717 47.4001 42.4067 47.2958C42.2506 47.0741 42.1075 46.8524 41.9775 46.6308C41.7045 46.1744 41.4576 45.718 41.2496 45.2355C41.2236 45.1833 41.1976 45.1312 41.1716 45.066M41.1716 45.066C41.1326 44.9877 41.2236 45.1703 41.1716 45.066Z" stroke="white" stroke-width="0.798697" stroke-linejoin="round"/>
<path d="M44.1355 42.2884C44.4085 42.5622 44.6816 42.823 44.9416 43.0969C45.3706 43.5272 45.7995 43.9575 46.2285 44.3878C46.3325 44.4922 46.4235 44.5834 46.5275 44.6877C46.7225 44.8833 47.0475 44.8833 47.2425 44.6877C47.3985 44.5313 47.5546 44.3748 47.7106 44.2053C48.0876 43.8271 48.4646 43.4359 48.8416 43.0577C49.2967 42.5883 49.7646 42.1319 50.2196 41.6625C50.6096 41.2582 51.0126 40.867 51.4026 40.4628C51.5976 40.2672 51.7926 40.0716 51.9746 39.876C51.9746 39.876 51.9746 39.876 51.9876 39.863C52.1696 39.6804 52.1956 39.3283 51.9876 39.1458C51.7796 38.9632 51.4676 38.9502 51.2726 39.1458C51.1166 39.3022 50.9606 39.4587 50.8046 39.6283C50.4276 40.0064 50.0506 40.3976 49.6736 40.7758L48.2956 42.1711C47.9056 42.5753 47.5025 42.9665 47.1125 43.3707C46.9175 43.5663 46.7226 43.7489 46.5406 43.9575C46.5406 43.9575 46.5405 43.9575 46.5275 43.9705H47.2425C46.9695 43.6967 46.6966 43.4359 46.4366 43.1621C46.0076 42.7318 45.5785 42.3014 45.1495 41.8711C45.0455 41.7668 44.9546 41.6755 44.8506 41.5712C44.6556 41.3886 44.3175 41.3626 44.1355 41.5712C43.9405 41.7668 43.9275 42.0798 44.1355 42.2884Z" fill="white"/>
<path d="M44.1355 42.2884C44.4085 42.5622 44.6816 42.823 44.9416 43.0969C45.3706 43.5272 45.7995 43.9575 46.2285 44.3878C46.3325 44.4922 46.4235 44.5834 46.5275 44.6877C46.7225 44.8833 47.0475 44.8833 47.2425 44.6877C47.3985 44.5313 47.5546 44.3748 47.7106 44.2053C48.0876 43.8271 48.4646 43.4359 48.8416 43.0577C49.2967 42.5883 49.7646 42.1319 50.2196 41.6625C50.6096 41.2582 51.0126 40.867 51.4026 40.4628C51.5976 40.2672 51.7926 40.0716 51.9746 39.876C51.9746 39.876 51.9746 39.876 51.9876 39.863C52.1696 39.6804 52.1956 39.3283 51.9876 39.1458C51.7796 38.9632 51.4676 38.9502 51.2726 39.1458C51.1166 39.3022 50.9606 39.4587 50.8046 39.6283C50.4276 40.0064 50.0506 40.3976 49.6736 40.7758L48.2956 42.1711C47.9056 42.5753 47.5025 42.9665 47.1125 43.3707C46.9175 43.5663 46.7226 43.7489 46.5406 43.9575C46.5406 43.9575 46.5405 43.9575 46.5275 43.9705H47.2425C46.9695 43.6967 46.6966 43.4359 46.4366 43.1621C46.0076 42.7318 45.5785 42.3014 45.1495 41.8711C45.0455 41.7668 44.9546 41.6755 44.8506 41.5712C44.6556 41.3886 44.3175 41.3626 44.1355 41.5712C43.9405 41.7668 43.9275 42.0798 44.1355 42.2884Z" stroke="white" stroke-width="0.798697" stroke-linejoin="round"/>
<path d="M16.7965 22.2596C18.2265 23.3288 19.8385 24.1373 21.5155 24.7633C23.4135 25.4674 25.3896 25.9107 27.3916 26.1715C29.5497 26.4454 31.7466 26.4845 33.9176 26.2889C35.9717 26.1064 38.0257 25.7151 39.9887 25.0631C41.7178 24.4894 43.4079 23.7331 44.9159 22.716C45.0849 22.5986 45.2539 22.4812 45.4099 22.3639C45.6439 22.1944 45.7739 21.8814 45.6049 21.6206C45.4619 21.3989 45.1108 21.2425 44.8638 21.425C44.1878 21.9205 43.4729 22.3509 42.7319 22.7421C42.3419 22.9507 41.9388 23.1332 41.5358 23.3158C41.4838 23.3419 41.4318 23.3549 41.3798 23.381C41.3538 23.394 41.2887 23.4201 41.3927 23.381C41.3667 23.394 41.3408 23.4071 41.3148 23.4201C41.2108 23.4592 41.1067 23.5114 41.0027 23.5505C40.7817 23.6418 40.5737 23.72 40.3527 23.7983C39.4427 24.1243 38.5197 24.3981 37.5837 24.6198C37.0897 24.7372 36.5958 24.8284 36.1018 24.9197C35.8548 24.9588 35.5947 25.011 35.3347 25.0371C35.2697 25.0501 35.2047 25.0501 35.1397 25.0631C35.1137 25.0631 35.0747 25.0762 35.0487 25.0762C35.0747 25.0762 35.1527 25.0632 35.0487 25.0762C34.9187 25.0892 34.7887 25.1153 34.6587 25.1283C32.5266 25.3761 30.3556 25.3892 28.2236 25.1805C27.9636 25.1544 27.7036 25.1284 27.4435 25.0892C27.3785 25.0762 27.3135 25.0762 27.2485 25.0631C27.3655 25.0762 27.1835 25.0501 27.1575 25.0501C27.0275 25.0371 26.8976 25.011 26.7806 24.9979C26.2866 24.9197 25.7796 24.8284 25.2856 24.7241C24.3365 24.5155 23.4005 24.2677 22.4774 23.9547C22.0354 23.8113 21.6064 23.6418 21.1774 23.4723C21.1254 23.4462 21.0735 23.4332 21.0215 23.4071C20.9955 23.394 20.9305 23.368 21.0345 23.4071C21.0085 23.394 20.9825 23.381 20.9565 23.3679C20.8525 23.3288 20.7485 23.2767 20.6445 23.2376C20.4365 23.1463 20.2415 23.055 20.0465 22.9507C19.2925 22.5725 18.5514 22.1552 17.8624 21.6728C17.6934 21.5554 17.5374 21.438 17.3684 21.3207C17.1344 21.1512 16.7573 21.2816 16.6273 21.5163C16.4583 21.8032 16.5494 22.077 16.7965 22.2596Z" fill="white"/>
<path d="M35.0487 25.0762C35.0747 25.0762 35.1137 25.0631 35.1397 25.0631C35.2047 25.0501 35.2697 25.0501 35.3347 25.0371C35.5947 25.011 35.8548 24.9588 36.1018 24.9197C36.5958 24.8284 37.0897 24.7372 37.5837 24.6198C38.5197 24.3981 39.4427 24.1243 40.3527 23.7983C40.5737 23.72 40.7817 23.6418 41.0027 23.5505C41.1067 23.5114 41.2108 23.4592 41.3148 23.4201C41.3408 23.4071 41.3667 23.394 41.3927 23.381C41.2887 23.4201 41.3538 23.394 41.3798 23.381C41.4318 23.3549 41.4838 23.3419 41.5358 23.3158C41.9388 23.1332 42.3419 22.9507 42.7319 22.7421C43.4729 22.3509 44.1878 21.9205 44.8638 21.425C45.1108 21.2425 45.4619 21.3989 45.6049 21.6206C45.7739 21.8814 45.6439 22.1944 45.4099 22.3639C45.2539 22.4812 45.0849 22.5986 44.9159 22.716C43.4079 23.7331 41.7178 24.4894 39.9887 25.0631C38.0257 25.7151 35.9717 26.1064 33.9176 26.2889C31.7466 26.4845 29.5497 26.4454 27.3916 26.1715C25.3896 25.9107 23.4135 25.4674 21.5155 24.7633C19.8385 24.1373 18.2265 23.3288 16.7965 22.2596C16.5494 22.077 16.4583 21.8032 16.6273 21.5163C16.7573 21.2816 17.1344 21.1512 17.3684 21.3207C17.5374 21.438 17.6934 21.5554 17.8624 21.6728C18.5514 22.1552 19.2925 22.5725 20.0465 22.9507C20.2415 23.055 20.4365 23.1463 20.6445 23.2376C20.7485 23.2767 20.8525 23.3288 20.9565 23.368C20.9825 23.381 21.0085 23.394 21.0345 23.4071C20.9305 23.368 20.9955 23.394 21.0215 23.4071C21.0735 23.4332 21.1254 23.4462 21.1774 23.4723C21.6064 23.6418 22.0354 23.8113 22.4774 23.9547C23.4005 24.2677 24.3365 24.5155 25.2856 24.7241C25.7796 24.8284 26.2866 24.9197 26.7806 24.9979C26.8976 25.011 27.0275 25.0371 27.1575 25.0501C27.1835 25.0501 27.3655 25.0762 27.2485 25.0631C27.3135 25.0762 27.3785 25.0762 27.4435 25.0892C27.7036 25.1284 27.9636 25.1544 28.2236 25.1805C30.3556 25.3892 32.5266 25.3761 34.6587 25.1283C34.7887 25.1153 34.9187 25.0892 35.0487 25.0762ZM35.0487 25.0762C35.0747 25.0762 35.1527 25.0632 35.0487 25.0762Z" stroke="white" stroke-width="0.798697"/>
<path d="M30.5624 14.9959V15.9739V18.6079V22.5069V27.2665V32.4694V37.7506V42.6406V46.7873V49.7734C30.5624 50.2429 30.5494 50.7123 30.5624 51.1817C30.5624 51.2078 30.5624 51.2209 30.5624 51.2469C30.5624 51.5338 30.8094 51.8077 31.1085 51.7946C31.4075 51.7816 31.6545 51.5599 31.6545 51.2469V50.2689V47.6349V43.7359V38.9764V33.7734V28.4922V23.6022V19.4555V16.4694C31.6545 16 31.6675 15.5305 31.6545 15.0611C31.6545 15.035 31.6545 15.022 31.6545 14.9959C31.6545 14.709 31.4075 14.4352 31.1085 14.4482C30.8094 14.4612 30.5624 14.6829 30.5624 14.9959Z" fill="white"/>
<path d="M30.5624 14.9959V15.9739V18.6079V22.5069V27.2665V32.4694V37.7506V42.6406V46.7873V49.7734C30.5624 50.2429 30.5494 50.7123 30.5624 51.1817C30.5624 51.2078 30.5624 51.2209 30.5624 51.2469C30.5624 51.5338 30.8094 51.8077 31.1085 51.7946C31.4075 51.7816 31.6545 51.5599 31.6545 51.2469V50.2689V47.6349V43.7359V38.9764V33.7734V28.4922V23.6022V19.4555V16.4694C31.6545 16 31.6675 15.5305 31.6545 15.0611C31.6545 15.035 31.6545 15.022 31.6545 14.9959C31.6545 14.709 31.4075 14.4352 31.1085 14.4482C30.8094 14.4612 30.5624 14.6829 30.5624 14.9959Z" stroke="white" stroke-width="0.798697"/>
<path d="M11.9869 0H1.33972H0.0136719V1.33007V12.1532C0.0136719 12.8835 0.611707 13.4833 1.33972 13.4833C2.06773 13.4833 2.66577 12.8835 2.66577 12.1532V2.66017H11.9869C12.715 2.66017 13.3129 2.06031 13.3129 1.33007C13.3129 0.586792 12.715 0 11.9869 0Z" fill="#FF0032"/>
<path d="M63.9989 12.0489V1.36913V0.0390625H62.6729H51.8827C51.1547 0.0390625 50.5566 0.638894 50.5566 1.36913C50.5566 2.09937 51.1547 2.6992 51.8827 2.6992H61.3468V12.0489C61.3468 12.7791 61.9448 13.3789 62.6729 13.3789C63.4009 13.3789 63.9989 12.7791 63.9989 12.0489Z" fill="#FF0032"/>
<path d="M52.0135 63.9999H62.6608H63.9868V62.6698V51.8467C63.9868 51.1164 63.3888 50.5166 62.6608 50.5166C61.9328 50.5166 61.3347 51.1164 61.3347 51.8467V61.3398H52.0135C51.2855 61.3398 50.6875 61.9396 50.6875 62.6698C50.6875 63.4001 51.2855 63.9999 52.0135 63.9999Z" fill="#FF0032"/>
<path d="M0 51.9512V62.6309V63.961H1.32605H12.1162C12.8442 63.961 13.4421 63.3611 13.4421 62.6309C13.4421 61.9007 12.8442 61.3008 12.1162 61.3008H2.65197V51.9512C2.65197 51.221 2.05406 50.6211 1.32605 50.6211C0.598035 50.6211 0 51.2079 0 51.9512Z" fill="#FF0032"/>
<path d="M26.8849 17.0827C26.8983 17.0827 26.8983 17.0693 26.9116 17.0693C26.8716 17.096 26.8716 17.096 26.8849 17.0827Z" fill="white"/>
<path d="M26.8849 17.0827C26.8983 17.0827 26.8983 17.0693 26.9116 17.0693C26.8716 17.096 26.8716 17.096 26.8849 17.0827Z" stroke="white" stroke-width="0.798697"/>
<path d="M28.6532 16.039C28.6663 16.039 28.6796 16.0259 28.6927 16.0259C28.6138 16.0522 28.6268 16.0522 28.6532 16.039Z" fill="white"/>
<path d="M28.6532 16.039C28.6663 16.039 28.6796 16.0259 28.6927 16.0259C28.6138 16.0522 28.6268 16.0522 28.6532 16.039Z" stroke="white" stroke-width="0.798697"/>
<path d="M30.2782 15.5825C30.2916 15.5825 30.2916 15.5825 30.305 15.5825C30.305 15.5825 30.3051 15.5825 30.3185 15.5825C30.3855 15.5691 30.1979 15.5959 30.2782 15.5825Z" fill="white"/>
<path d="M30.2782 15.5825C30.2916 15.5825 30.2916 15.5825 30.305 15.5825C30.305 15.5825 30.3051 15.5825 30.3185 15.5825C30.3855 15.5691 30.1979 15.5959 30.2782 15.5825Z" stroke="white" stroke-width="0.798697"/>
<path d="M22.7109 43.3057C22.7109 43.3057 22.7109 43.3057 22.7243 43.3326C22.7109 43.3326 22.7109 43.3191 22.7109 43.3057Z" fill="white"/>
<path d="M22.7109 43.3057C22.7109 43.3057 22.7109 43.3057 22.7243 43.3326C22.7109 43.3326 22.7109 43.3191 22.7109 43.3057Z" stroke="white" stroke-width="0.798697"/>
<path d="M29.0804 15.6483C29.0024 15.6613 28.9114 15.6613 28.8334 15.6743C28.8074 15.6743 28.7944 15.6744 28.7684 15.6874C28.8074 15.6874 28.6903 15.7005 28.6773 15.7005C28.3393 15.7526 27.9884 15.8047 27.6504 15.8699C27.1694 15.9612 26.6884 16.0916 26.2204 16.222C25.9604 16.4307 25.7003 16.6393 25.4533 16.874C23.9583 18.2693 22.8273 20.0428 21.9822 21.8944C20.9812 24.1112 20.3312 26.4845 20.0062 28.8969C19.6422 31.544 19.6032 34.2432 19.9412 36.9034C20.2532 39.3679 20.8642 41.7804 21.8522 44.0623C22.6712 45.9401 23.7763 47.7396 25.2454 49.187C25.5574 49.4869 25.8824 49.7738 26.2204 50.0346C26.8184 50.2041 27.4294 50.3476 28.0404 50.4649C28.2224 50.5041 28.4174 50.5301 28.5994 50.5562C28.6384 50.5562 28.6773 50.5693 28.7163 50.5693C28.7293 50.5693 28.7293 50.5693 28.7423 50.5693C28.7553 50.5693 28.7554 50.5693 28.7684 50.5693C28.8464 50.5823 28.9374 50.5953 29.0154 50.5953C29.3664 50.6345 29.7174 50.6605 30.0684 50.6866C30.3934 50.6997 30.7184 50.7127 31.0434 50.7127C30.8614 50.7127 30.6794 50.6997 30.4844 50.6866C30.4324 50.6866 30.3803 50.6736 30.3413 50.6736C30.3153 50.6736 30.2634 50.6605 30.2374 50.6605C30.2634 50.6605 30.2764 50.6736 30.3024 50.6736C30.2374 50.6606 30.2244 50.6605 30.2374 50.6605C30.1594 50.6475 30.0813 50.6345 30.0163 50.6214C29.6263 50.5432 29.2364 50.4389 28.8594 50.3085C28.7684 50.2824 28.6904 50.2433 28.5994 50.2041C28.7424 50.2563 28.5864 50.2042 28.5604 50.1911C28.5084 50.165 28.4564 50.139 28.4044 50.1259C28.2224 50.0346 28.0403 49.9434 27.8713 49.8521C27.6893 49.7478 27.5204 49.6434 27.3383 49.5261C27.2603 49.4739 27.1693 49.4217 27.0913 49.3565C27.0523 49.3305 27.0003 49.2914 26.9613 49.2653C26.9353 49.2522 26.9223 49.2392 26.8963 49.2131C26.8963 49.2131 26.8704 49.187 26.8444 49.174C26.8704 49.187 26.8964 49.2131 26.8444 49.174C26.8054 49.1479 26.8184 49.161 26.8444 49.174C26.8314 49.174 26.8313 49.1609 26.8313 49.1609C26.8053 49.1479 26.7923 49.1218 26.7663 49.1088C26.7273 49.0827 26.6883 49.0436 26.6623 49.0175C26.5713 48.9393 26.4803 48.8741 26.4023 48.7958C26.2333 48.6393 26.0643 48.4829 25.9083 48.3264C25.5833 48.0004 25.2714 47.6614 24.9854 47.2962C24.9594 47.2571 24.9203 47.218 24.8943 47.1789C24.8943 47.1789 24.8813 47.1528 24.8683 47.1398C24.8813 47.1658 24.8943 47.1789 24.8683 47.1398C24.8423 47.1137 24.8553 47.1137 24.8683 47.1398C24.8553 47.1267 24.8423 47.1137 24.8423 47.1137C24.7643 47.0094 24.6863 46.9051 24.6083 46.8007C24.4653 46.6051 24.3223 46.3965 24.1923 46.1878C23.9193 45.7575 23.6593 45.3272 23.4253 44.8708C23.1783 44.4014 22.9442 43.9189 22.7362 43.4364C22.7362 43.4234 22.6843 43.306 22.6843 43.306C22.6843 43.3191 22.6972 43.3191 22.6972 43.3321C22.6842 43.3191 22.6843 43.306 22.6843 43.306C22.6583 43.2539 22.6453 43.2017 22.6193 43.1365C22.5673 43.0061 22.5153 42.8757 22.4633 42.7453C22.3593 42.4845 22.2682 42.2237 22.1772 41.9499C21.7872 40.8284 21.4882 39.6809 21.2672 38.5073C21.0332 37.2555 20.8902 36.121 20.8122 34.817C20.7342 33.513 20.7472 32.196 20.8382 30.905C20.8642 30.5921 20.8903 30.2661 20.9293 29.9531C20.9553 29.6662 21.0072 29.3141 21.0332 29.1055C21.1242 28.4926 21.2283 27.8928 21.3453 27.293C21.5793 26.1454 21.9043 25.011 22.2943 23.9026C22.6583 22.9115 23.0482 22.0248 23.5812 21.0468C23.8282 20.6035 24.1013 20.1601 24.3873 19.7428C24.5173 19.5472 24.6603 19.3516 24.8163 19.156C24.8293 19.143 24.8424 19.13 24.8554 19.1169C24.8294 19.156 24.8683 19.0908 24.8813 19.0908C24.8683 19.1039 24.8684 19.1039 24.8554 19.1169C24.8944 19.0648 24.9333 19.0256 24.9593 18.9735C25.0373 18.8822 25.1153 18.7779 25.1933 18.6866C25.4923 18.3345 25.7913 18.0085 26.1294 17.6955C26.2854 17.5391 26.4543 17.3956 26.6233 17.2652C26.7013 17.2 26.7794 17.1479 26.8444 17.0827C26.8184 17.0957 26.8184 17.0957 26.8704 17.0696C26.8574 17.0696 26.8574 17.0827 26.8444 17.0827C26.8574 17.0696 26.8833 17.0566 26.8963 17.0435C26.9483 17.0044 26.9874 16.9784 27.0394 16.9392C27.3774 16.7045 27.7283 16.4828 28.0923 16.2872C28.2613 16.196 28.4304 16.1177 28.5994 16.0525C28.5734 16.0656 28.5734 16.0655 28.6384 16.0395C28.6254 16.0395 28.6124 16.0525 28.5994 16.0525C28.6254 16.0395 28.6643 16.0264 28.6773 16.0134C28.7293 16.0004 28.7684 15.9743 28.8204 15.9612C28.9114 15.9221 29.0023 15.896 29.1063 15.8569C29.4833 15.7265 29.8734 15.6483 30.2634 15.5831C30.2504 15.5831 30.2504 15.5831 30.2374 15.5831C30.1594 15.5961 30.3413 15.57 30.2763 15.5831C30.2763 15.5831 30.2764 15.5831 30.2634 15.5831C30.2764 15.5831 30.2764 15.5831 30.2894 15.5831C30.3414 15.5831 30.3804 15.5701 30.4324 15.5701C30.5364 15.557 30.6404 15.557 30.7444 15.5439C30.8094 15.5439 30.8874 15.5439 30.9524 15.5439C30.4974 15.5439 30.0424 15.57 29.5874 15.5961C29.4444 15.6092 29.2624 15.6222 29.0804 15.6483Z" fill="white"/>
<path d="M30.2374 50.6605C30.2634 50.6605 30.3153 50.6736 30.3413 50.6736C30.3803 50.6736 30.4324 50.6866 30.4844 50.6866C30.6794 50.6997 30.8614 50.7127 31.0434 50.7127C30.7184 50.7127 30.3934 50.6997 30.0684 50.6866C29.7174 50.6605 29.3664 50.6345 29.0154 50.5953C28.9374 50.5953 28.8464 50.5823 28.7684 50.5693C28.7554 50.5693 28.7553 50.5693 28.7423 50.5693C28.7293 50.5693 28.7293 50.5693 28.7163 50.5693C28.6773 50.5693 28.6384 50.5562 28.5994 50.5562C28.4174 50.5301 28.2224 50.5041 28.0404 50.4649C27.4294 50.3476 26.8184 50.2041 26.2204 50.0346C25.8824 49.7738 25.5574 49.4869 25.2454 49.187C23.7763 47.7396 22.6712 45.9401 21.8522 44.0623C20.8642 41.7804 20.2532 39.3679 19.9412 36.9034C19.6032 34.2432 19.6422 31.544 20.0062 28.8969C20.3312 26.4845 20.9812 24.1112 21.9822 21.8944C22.8273 20.0428 23.9583 18.2693 25.4533 16.874C25.7003 16.6393 25.9604 16.4307 26.2204 16.222C26.6884 16.0916 27.1694 15.9612 27.6504 15.8699C27.9884 15.8047 28.3393 15.7526 28.6773 15.7005C28.6903 15.7005 28.8074 15.6874 28.7684 15.6874C28.7944 15.6744 28.8074 15.6743 28.8334 15.6743C28.9114 15.6613 29.0024 15.6613 29.0804 15.6483C29.2624 15.6222 29.4444 15.6092 29.5874 15.5961C30.0424 15.57 30.4974 15.5439 30.9524 15.5439C30.8874 15.5439 30.8094 15.5439 30.7444 15.5439C30.6404 15.557 30.5364 15.557 30.4324 15.5701C30.3804 15.5701 30.3414 15.5831 30.2894 15.5831C30.2764 15.5831 30.2764 15.5831 30.2634 15.5831M30.2374 50.6605C30.2634 50.6605 30.2764 50.6736 30.3024 50.6736C30.2374 50.6606 30.2244 50.6605 30.2374 50.6605ZM30.2374 50.6605C30.1594 50.6475 30.0813 50.6345 30.0163 50.6214C29.6263 50.5432 29.2364 50.4389 28.8594 50.3085C28.7684 50.2824 28.6904 50.2433 28.5994 50.2041C28.7424 50.2563 28.5864 50.2042 28.5604 50.1911C28.5084 50.165 28.4564 50.139 28.4044 50.1259C28.2224 50.0346 28.0403 49.9434 27.8713 49.8521C27.6893 49.7478 27.5204 49.6434 27.3383 49.5261C27.2603 49.4739 27.1693 49.4217 27.0913 49.3565C27.0523 49.3305 27.0003 49.2914 26.9613 49.2653C26.9353 49.2522 26.9223 49.2392 26.8963 49.2131C26.8963 49.2131 26.8704 49.187 26.8444 49.174M26.8444 49.174C26.8704 49.187 26.8964 49.2131 26.8444 49.174ZM26.8444 49.174C26.8054 49.1479 26.8184 49.161 26.8444 49.174ZM26.8444 49.174C26.8314 49.174 26.8313 49.1609 26.8313 49.1609C26.8053 49.1479 26.7923 49.1218 26.7663 49.1088C26.7273 49.0827 26.6883 49.0436 26.6623 49.0175C26.5713 48.9393 26.4803 48.8741 26.4023 48.7958C26.2333 48.6393 26.0643 48.4829 25.9083 48.3264C25.5833 48.0004 25.2714 47.6613 24.9854 47.2962C24.9594 47.2571 24.9203 47.218 24.8943 47.1789C24.8943 47.1789 24.8813 47.1528 24.8683 47.1398M24.8683 47.1398C24.8813 47.1658 24.8943 47.1789 24.8683 47.1398ZM24.8683 47.1398C24.8423 47.1137 24.8553 47.1137 24.8683 47.1398ZM24.8683 47.1398C24.8553 47.1267 24.8423 47.1137 24.8423 47.1137C24.7643 47.0094 24.6863 46.9051 24.6083 46.8007C24.4653 46.6051 24.3223 46.3965 24.1923 46.1878C23.9193 45.7575 23.6593 45.3272 23.4253 44.8708C23.1783 44.4014 22.9442 43.9189 22.7362 43.4364C22.7362 43.4234 22.6843 43.306 22.6843 43.306M22.6843 43.306C22.6843 43.3191 22.6972 43.3191 22.6972 43.3321C22.6842 43.3191 22.6843 43.306 22.6843 43.306ZM22.6843 43.306C22.6583 43.2539 22.6453 43.2017 22.6193 43.1365C22.5673 43.0061 22.5153 42.8757 22.4633 42.7453C22.3593 42.4845 22.2682 42.2237 22.1772 41.9498C21.7872 40.8284 21.4882 39.6809 21.2672 38.5073C21.0332 37.2555 20.8902 36.121 20.8122 34.817C20.7342 33.513 20.7472 32.196 20.8382 30.905C20.8642 30.5921 20.8903 30.2661 20.9293 29.9531C20.9553 29.6662 21.0072 29.3141 21.0332 29.1055C21.1242 28.4926 21.2283 27.8928 21.3453 27.293C21.5793 26.1454 21.9043 25.011 22.2943 23.9026C22.6583 22.9115 23.0482 22.0248 23.5812 21.0468C23.8282 20.6035 24.1013 20.1601 24.3873 19.7428C24.5173 19.5472 24.6603 19.3516 24.8163 19.156C24.8293 19.143 24.8424 19.13 24.8554 19.1169M24.8554 19.1169C24.8294 19.156 24.8683 19.0908 24.8813 19.0908C24.8683 19.1039 24.8684 19.1039 24.8554 19.1169ZM24.8554 19.1169C24.8944 19.0648 24.9333 19.0256 24.9593 18.9735C25.0373 18.8822 25.1153 18.7779 25.1933 18.6866C25.4923 18.3345 25.7913 18.0085 26.1294 17.6955C26.2854 17.5391 26.4543 17.3956 26.6233 17.2652C26.7013 17.2 26.7794 17.1479 26.8444 17.0827M26.8444 17.0827C26.8184 17.0957 26.8184 17.0957 26.8704 17.0696C26.8574 17.0696 26.8574 17.0827 26.8444 17.0827ZM26.8444 17.0827C26.8574 17.0696 26.8833 17.0566 26.8963 17.0435C26.9483 17.0044 26.9874 16.9784 27.0394 16.9392C27.3774 16.7045 27.7283 16.4828 28.0923 16.2872C28.2613 16.196 28.4304 16.1177 28.5994 16.0525M28.5994 16.0525C28.5734 16.0656 28.5734 16.0655 28.6384 16.0395C28.6254 16.0395 28.6124 16.0525 28.5994 16.0525ZM28.5994 16.0525C28.6254 16.0395 28.6643 16.0264 28.6773 16.0134C28.7293 16.0004 28.7684 15.9743 28.8204 15.9612C28.9114 15.9221 29.0023 15.896 29.1063 15.8569C29.4833 15.7265 29.8734 15.6483 30.2634 15.5831M30.2634 15.5831C30.2504 15.5831 30.2504 15.5831 30.2374 15.5831C30.1594 15.5961 30.3413 15.57 30.2763 15.5831C30.2763 15.5831 30.2764 15.5831 30.2634 15.5831Z" stroke="white" stroke-width="0.798697"/>
<path d="M30.3314 50.674C30.3046 50.674 30.2912 50.6606 30.2644 50.6606C30.251 50.6606 30.2644 50.6607 30.3314 50.674Z" fill="white"/>
<path d="M30.3314 50.674C30.3046 50.674 30.2912 50.6606 30.2644 50.6606C30.251 50.6606 30.2644 50.6607 30.3314 50.674Z" stroke="white" stroke-width="0.798697"/>
<path d="M26.8848 49.1742C26.912 49.1878 26.9391 49.2013 26.8848 49.1742C26.8577 49.147 26.8712 49.147 26.8848 49.1742Z" fill="white"/>
<path d="M26.8848 49.1742C26.912 49.1878 26.9391 49.2013 26.8848 49.1742ZM26.8848 49.1742C26.8577 49.147 26.8712 49.147 26.8848 49.1742Z" stroke="white" stroke-width="0.798697"/>
<path d="M24.8943 47.1396C24.9077 47.153 24.921 47.1797 24.8943 47.1396C24.8676 47.113 24.881 47.113 24.8943 47.1396Z" fill="white"/>
<path d="M24.8943 47.1396C24.9077 47.153 24.921 47.1797 24.8943 47.1396ZM24.8943 47.1396C24.8676 47.113 24.881 47.113 24.8943 47.1396Z" stroke="white" stroke-width="0.798697"/>
<path d="M24.8825 19.117C24.8958 19.1037 24.8958 19.1037 24.9092 19.0903C24.9092 19.1037 24.8558 19.1571 24.8825 19.117Z" fill="white"/>
<path d="M24.8825 19.117C24.8958 19.1037 24.8958 19.1037 24.9092 19.0903C24.9092 19.1037 24.8558 19.1571 24.8825 19.117Z" stroke="white" stroke-width="0.798697"/>
<path d="M39.4805 22.9111V22.9246C39.4939 22.938 39.4939 22.9246 39.4805 22.9111Z" fill="white"/>
<path d="M39.4805 22.9111V22.9246C39.4939 22.938 39.4939 22.9246 39.4805 22.9111Z" stroke="white" stroke-width="0.798697"/>
<path d="M33.4629 15.687C33.4901 15.687 33.5579 15.7006 33.4629 15.687V15.687Z" fill="white"/>
<path d="M33.4629 15.687C33.5579 15.7006 33.4901 15.687 33.4629 15.687Z" stroke="white" stroke-width="0.798697"/>
<path d="M31.0969 51.8076C31.1101 51.8076 31.1101 51.8076 31.0969 51.8076C31.0837 51.8076 31.044 51.8076 31.0176 51.8076C31.0572 51.7944 31.0837 51.8076 31.0969 51.8076Z" fill="white"/>
<path d="M31.0969 51.8076C31.1101 51.8076 31.1101 51.8076 31.0969 51.8076ZM31.0969 51.8076C31.0837 51.8076 31.044 51.8076 31.0176 51.8076C31.0572 51.7944 31.0837 51.8076 31.0969 51.8076Z" stroke="white" stroke-width="0.798697"/>
<path d="M31.9023 15.5825C31.9182 15.5825 31.9182 15.5825 31.9023 15.5825Z" stroke="white" stroke-width="0.798697"/>
<path d="M37.3105 19.1175L37.3244 19.1314C37.3105 19.1036 37.3105 19.1036 37.3105 19.1175Z" fill="white"/>
<path d="M37.3105 19.1175L37.3244 19.1314C37.3105 19.1036 37.3105 19.1036 37.3105 19.1175Z" stroke="white" stroke-width="0.798697"/>
<path d="M35.2949 17.0693C35.3083 17.0827 35.3083 17.0827 35.3216 17.096C35.335 17.096 35.335 17.096 35.2949 17.0693Z" fill="white"/>
<path d="M35.2949 17.0693C35.3083 17.0827 35.3083 17.0827 35.3216 17.096C35.335 17.096 35.335 17.096 35.2949 17.0693Z" stroke="white" stroke-width="0.798697"/>
<path d="M31.6422 51.2599C31.6552 51.5468 31.3823 51.8075 31.1093 51.8075C35.7244 51.8075 37.1154 51.3251 39.2994 50.5166L38.4284 49.6299C36.9074 50.2819 34.2554 50.9078 31.0703 50.7122C31.0833 50.7122 31.0963 50.7122 31.1093 50.7122C31.4083 50.7122 31.6292 50.96 31.6422 51.2599Z" fill="white"/>
<path d="M31.6422 51.2599C31.6552 51.5468 31.3823 51.8075 31.1093 51.8075C35.7244 51.8075 37.1154 51.3251 39.2994 50.5166L38.4284 49.6299C36.9074 50.2819 34.2554 50.9078 31.0703 50.7122C31.0833 50.7122 31.0963 50.7122 31.1093 50.7122C31.4083 50.7122 31.6292 50.96 31.6422 51.2599Z" stroke="white" stroke-width="0.798697"/>
<path d="M31.0059 15.5439C31.058 15.5439 31.1102 15.5439 31.1624 15.5439" stroke="white" stroke-width="0.798697"/>
<path d="M30.0824 50.6862C29.7314 50.6731 29.3804 50.634 29.0294 50.5949C28.9514 50.5819 28.8604 50.5688 28.7824 50.5688C28.7694 50.5688 28.7565 50.5688 28.7565 50.5688C28.7435 50.5688 28.7434 50.5688 28.7304 50.5688C28.6914 50.5688 28.6524 50.5558 28.6134 50.5558C28.4314 50.5297 28.2364 50.5036 28.0544 50.4645C27.4434 50.3602 26.8324 50.2167 26.2344 50.0342C27.2874 50.8557 28.5094 51.4686 29.8224 51.6903C30.2254 51.7555 30.6285 51.7946 31.0315 51.8076C31.0575 51.8076 31.0835 51.8076 31.1095 51.8076C31.3955 51.8076 31.6554 51.5599 31.6424 51.26C31.6294 50.96 31.4085 50.7123 31.0965 50.7123C31.0835 50.7123 31.0704 50.7123 31.0574 50.7123C30.7454 50.7123 30.4204 50.6992 30.0824 50.6862Z" fill="white"/>
<path d="M30.0824 50.6862C29.7314 50.6731 29.3804 50.634 29.0294 50.5949C28.9514 50.5819 28.8604 50.5688 28.7824 50.5688C28.7694 50.5688 28.7565 50.5688 28.7565 50.5688C28.7435 50.5688 28.7434 50.5688 28.7304 50.5688C28.6914 50.5688 28.6524 50.5558 28.6134 50.5558C28.4314 50.5297 28.2364 50.5036 28.0544 50.4645C27.4434 50.3602 26.8324 50.2167 26.2344 50.0342C27.2874 50.8557 28.5094 51.4686 29.8224 51.6903C30.2254 51.7555 30.6285 51.7946 31.0315 51.8076C31.0575 51.8076 31.0835 51.8076 31.1095 51.8076C31.3955 51.8076 31.6554 51.5599 31.6424 51.26C31.6294 50.96 31.4085 50.7123 31.0965 50.7123C31.0835 50.7123 31.0704 50.7123 31.0574 50.7123C30.7454 50.7123 30.4204 50.6992 30.0824 50.6862Z" stroke="white" stroke-width="0.798697"/>
<path d="M30.0565 14.5264C28.6525 14.722 27.3524 15.361 26.2344 16.2216C26.7024 16.0912 27.1834 15.9608 27.6644 15.8695C28.0024 15.8043 28.3405 15.7391 28.6915 15.7C28.7045 15.7 28.8214 15.687 28.7824 15.687C28.8084 15.687 28.8214 15.687 28.8474 15.6739C28.9254 15.6609 29.0164 15.6478 29.0944 15.6478C29.2764 15.6218 29.4585 15.6087 29.6405 15.5957C30.0955 15.5566 30.5505 15.5435 31.0055 15.5435C31.0575 15.5435 31.1095 15.5435 31.1615 15.5435C31.3825 15.5435 31.6035 15.5435 31.8245 15.5566C32.1885 15.5696 32.5525 15.5957 32.9165 15.6348C33.0985 15.6479 33.2675 15.6739 33.4495 15.7C33.4495 15.7 33.4494 15.7 33.4624 15.7C33.5144 15.7131 33.5665 15.713 33.6055 15.7261C33.7095 15.7391 33.8005 15.7522 33.9045 15.7782C34.6065 15.8956 35.2956 16.0521 35.9716 16.2477C35.7506 16.0782 35.5296 15.9217 35.2955 15.7652C33.7355 14.7351 31.9025 14.2656 30.0565 14.5264ZM33.4624 15.687C33.4884 15.687 33.5534 15.7 33.4624 15.687V15.687Z" fill="white"/>
<path d="M30.0565 14.5264C28.6525 14.722 27.3524 15.361 26.2344 16.2216C26.7024 16.0912 27.1834 15.9608 27.6644 15.8695C28.0024 15.8043 28.3405 15.7391 28.6915 15.7C28.7045 15.7 28.8214 15.687 28.7824 15.687C28.8084 15.687 28.8214 15.687 28.8474 15.6739C28.9254 15.6609 29.0164 15.6478 29.0944 15.6478C29.2764 15.6218 29.4585 15.6087 29.6405 15.5957C30.0955 15.5566 30.5505 15.5435 31.0055 15.5435C31.0575 15.5435 31.1095 15.5435 31.1615 15.5435C31.3825 15.5435 31.6035 15.5435 31.8245 15.5566C32.1885 15.5696 32.5525 15.5957 32.9165 15.6348C33.0985 15.6479 33.2675 15.6739 33.4495 15.7C33.4495 15.7 33.4494 15.7 33.4624 15.7C33.5144 15.7131 33.5665 15.713 33.6055 15.7261C33.7095 15.7391 33.8005 15.7522 33.9045 15.7782C34.6065 15.8956 35.2956 16.0521 35.9716 16.2477C35.7506 16.0782 35.5296 15.9217 35.2955 15.7652C33.7355 14.7351 31.9025 14.2656 30.0565 14.5264ZM33.4624 15.687C33.5534 15.7 33.4884 15.687 33.4624 15.687Z" stroke="white" stroke-width="0.798697"/>
<path d="M37.8812 32.5869C37.3742 32.5869 33.2402 32.5869 32.7332 32.5869H30.3932H27.5331H24.4131H21.241H18.303H15.8069H14.0129C13.7269 32.5869 13.4539 32.5869 13.1679 32.5869H13.1289C12.7909 32.5869 12.4659 32.8347 12.4789 33.1346C12.4919 33.4345 12.7649 33.6823 13.1289 33.6823H13.7139H15.3H17.64H20.5H23.6201H26.7921H29.7302H32.2261H35.6453C35.7233 33.6823 35.8013 33.6823 35.8793 33.6823L37.8812 32.5869Z" fill="white"/>
<path d="M37.8812 32.5869C37.3742 32.5869 33.2402 32.5869 32.7332 32.5869H30.3932H27.5331H24.4131H21.241H18.303H15.8069H14.0129C13.7269 32.5869 13.4539 32.5869 13.1679 32.5869H13.1289C12.7909 32.5869 12.4659 32.8347 12.4789 33.1346C12.4919 33.4345 12.7649 33.6823 13.1289 33.6823H13.7139H15.3H17.64H20.5H23.6201H26.7921H29.7302H32.2261H35.6453C35.7233 33.6823 35.8013 33.6823 35.8793 33.6823L37.8812 32.5869Z" stroke="white" stroke-width="0.798697" stroke-linejoin="round"/>
<path d="M39.4692 20.4206C38.5722 18.8297 37.4282 17.3432 35.9722 16.2218C35.2962 16.0262 34.6071 15.8697 33.9051 15.7523C33.8011 15.7393 33.7101 15.7262 33.6061 15.7002C33.5541 15.6871 33.502 15.6871 33.463 15.6741C33.463 15.6741 33.4631 15.6741 33.4501 15.6741C33.2681 15.648 33.0991 15.6349 32.9171 15.6089C32.5531 15.5697 32.1891 15.5437 31.8251 15.5306C31.6041 15.5176 31.3831 15.5176 31.1621 15.5176C31.2401 15.5176 31.318 15.5176 31.409 15.5176C31.513 15.5176 31.604 15.5306 31.708 15.5437C31.76 15.5437 31.812 15.5567 31.864 15.5567C31.877 15.5567 31.9031 15.5567 31.9161 15.5567C31.8771 15.5567 31.877 15.5437 31.929 15.5567C31.929 15.5567 31.9291 15.5567 31.9421 15.5567C32.1501 15.5828 32.3581 15.6219 32.5661 15.6741C32.7741 15.7262 32.9821 15.7914 33.1901 15.8566C33.2811 15.8957 33.3721 15.9218 33.4761 15.961C33.5151 15.974 33.5671 16.0001 33.6061 16.0131C33.4761 15.9609 33.6581 16.0392 33.6972 16.0522C34.1002 16.2348 34.4771 16.4434 34.8411 16.6912C34.9321 16.7433 35.0101 16.8086 35.1011 16.8738C35.1531 16.9129 35.1921 16.9389 35.2441 16.978C35.2571 16.9911 35.3351 17.0433 35.3481 17.0563C35.3351 17.0433 35.3352 17.0433 35.3222 17.0302C35.3612 17.0563 35.3611 17.0563 35.3481 17.0563C35.5171 17.1867 35.6861 17.3301 35.8551 17.4866C36.2191 17.8126 36.5571 18.1516 36.8691 18.5168C37.0251 18.6993 37.1812 18.8949 37.3372 19.0775C37.3242 19.0645 37.3242 19.0645 37.3502 19.0905L37.3372 19.0775C37.3502 19.0905 37.4022 19.1557 37.4152 19.1818C37.4542 19.234 37.4932 19.2861 37.5322 19.3383C37.6102 19.4426 37.6881 19.5469 37.7531 19.6512C38.3901 20.564 38.9231 21.5551 39.3781 22.5722C39.4041 22.6244 39.4302 22.6896 39.4562 22.7417C39.4562 22.7548 39.5082 22.8591 39.5212 22.8852V22.8721C39.5342 22.8982 39.5342 22.8982 39.5212 22.8852C39.5732 23.0286 39.6382 23.172 39.6902 23.3024C39.7942 23.5763 39.8983 23.8631 40.0023 24.15C40.2103 24.7368 40.3792 25.3367 40.5482 25.9365C40.6782 26.4451 40.7952 26.9406 40.8992 27.4622C41.2372 27.3448 41.5882 27.2405 41.9392 27.1492C41.4322 24.8281 40.6522 22.52 39.4692 20.4206Z" fill="white"/>
<path d="M31.929 15.5567C31.877 15.5437 31.8771 15.5567 31.9161 15.5567C31.9031 15.5567 31.877 15.5567 31.864 15.5567C31.812 15.5567 31.76 15.5437 31.708 15.5437C31.604 15.5306 31.513 15.5176 31.409 15.5176C31.318 15.5176 31.2401 15.5176 31.1621 15.5176C31.3831 15.5176 31.6041 15.5176 31.8251 15.5306C32.1891 15.5437 32.5531 15.5697 32.9171 15.6089C33.0991 15.6349 33.2681 15.648 33.4501 15.6741C33.4631 15.6741 33.463 15.6741 33.463 15.6741C33.502 15.6871 33.5541 15.6871 33.6061 15.7002C33.7101 15.7262 33.8011 15.7393 33.9051 15.7523C34.6071 15.8697 35.2962 16.0262 35.9722 16.2218C37.4282 17.3432 38.5722 18.8297 39.4692 20.4206C40.6522 22.52 41.4322 24.8281 41.9392 27.1492C41.5882 27.2405 41.2372 27.3448 40.8992 27.4622C40.7952 26.9406 40.6782 26.4451 40.5482 25.9365C40.3792 25.3367 40.2103 24.7368 40.0023 24.15C39.8983 23.8631 39.7942 23.5763 39.6902 23.3024C39.6382 23.172 39.5732 23.0286 39.5212 22.8852M31.929 15.5567H31.9421M31.929 15.5567C31.929 15.5567 31.9291 15.5567 31.9421 15.5567M31.9421 15.5567C32.1501 15.5828 32.3581 15.6219 32.5661 15.6741C32.7741 15.7262 32.9821 15.7914 33.1901 15.8566C33.2811 15.8957 33.3721 15.9218 33.4761 15.961C33.5151 15.974 33.5671 16.0001 33.6061 16.0131C33.4761 15.9609 33.6581 16.0392 33.6972 16.0522C34.1002 16.2348 34.4771 16.4434 34.8411 16.6912C34.9321 16.7433 35.0101 16.8086 35.1011 16.8738C35.1531 16.9129 35.1921 16.9389 35.2441 16.978C35.2571 16.9911 35.3351 17.0433 35.3481 17.0563M35.3481 17.0563C35.3351 17.0433 35.3352 17.0433 35.3222 17.0302C35.3612 17.0563 35.3611 17.0563 35.3481 17.0563ZM35.3481 17.0563C35.5171 17.1867 35.6861 17.3301 35.8551 17.4866C36.2191 17.8126 36.5571 18.1516 36.8691 18.5168C37.0251 18.6993 37.1812 18.8949 37.3372 19.0775M37.3372 19.0775C37.3242 19.0645 37.3242 19.0645 37.3502 19.0905L37.3372 19.0775ZM37.3372 19.0775C37.3502 19.0905 37.4022 19.1557 37.4152 19.1818C37.4542 19.234 37.4932 19.2861 37.5322 19.3383C37.6102 19.4426 37.6881 19.5469 37.7531 19.6512C38.3901 20.564 38.9231 21.5551 39.3781 22.5722C39.4041 22.6244 39.4302 22.6896 39.4562 22.7417C39.4562 22.7548 39.5082 22.8591 39.5212 22.8852M39.5212 22.8852V22.8721C39.5342 22.8982 39.5342 22.8982 39.5212 22.8852Z" stroke="white" stroke-width="0.798697"/>
<path d="M36.9718 16.5475C37.1278 16.5996 37.2838 16.6648 37.4268 16.717C37.5048 16.743 37.5959 16.7822 37.6739 16.8213C37.7129 16.8343 37.7519 16.8474 37.7909 16.8735C37.8039 16.8735 37.8688 16.9126 37.9078 16.9256C37.9338 16.9387 37.9859 16.9517 37.9859 16.9517C38.0249 16.9647 38.0638 16.9778 38.1028 17.0039C38.1808 17.043 38.2719 17.0821 38.3499 17.1082C38.5059 17.1864 38.6749 17.2646 38.8309 17.3429C39.1299 17.4994 39.4419 17.6558 39.7279 17.8254C40.3259 18.1644 40.9109 18.5426 41.4699 18.9599C41.5349 19.012 41.5999 19.0511 41.6649 19.1033C41.7039 19.1294 41.7429 19.1554 41.7819 19.1946L41.7949 19.2076C41.925 19.3119 42.0679 19.4162 42.1979 19.5336C42.4709 19.7553 42.731 19.99 42.991 20.2378C43.485 20.7072 43.9659 21.1897 44.4079 21.7113C44.5119 21.8417 44.6289 21.9721 44.7329 22.1025C44.7849 22.1677 44.837 22.2329 44.889 22.285C44.915 22.3111 44.928 22.3372 44.954 22.3633C44.967 22.3763 44.9799 22.4024 44.993 22.4154C44.993 22.4154 45.006 22.4285 45.019 22.4415C45.227 22.7154 45.4219 22.9892 45.6169 23.263C46.0069 23.8368 46.358 24.4366 46.683 25.0495C46.839 25.3494 46.995 25.6624 47.125 25.9753C47.164 26.0536 47.203 26.1449 47.229 26.2231C47.242 26.2492 47.255 26.2752 47.255 26.3013C47.255 26.3013 47.294 26.3796 47.294 26.3926C47.359 26.5622 47.424 26.7317 47.489 26.9012C47.723 27.5141 47.762 27.5532 47.879 28.0487C48.243 28.0226 48.893 27.9053 48.867 27.814C48.464 25.9362 47.7881 24.5931 46.501 22.7023C44.876 20.316 42.7309 18.3209 40.2218 16.8995C37.6478 15.4521 34.7358 14.6306 31.7848 14.5132C28.8467 14.3959 25.8957 15.0087 23.2307 16.2475C20.6956 17.4211 18.4205 19.2076 16.6525 21.3853C14.8455 23.6151 13.5454 26.2492 12.9214 29.0528C12.2714 31.9476 12.3235 34.999 13.0645 37.8808C13.7795 40.6583 15.1574 43.2402 17.0165 45.4179C18.8495 47.5434 21.1766 49.2516 23.7507 50.36C26.0387 51.338 28.5217 51.8596 31.0048 51.8727C30.6018 51.8727 30.1988 51.8205 29.7958 51.7553C28.4828 51.5206 27.2607 50.9077 26.2076 50.0992C26.1426 50.0862 26.0907 50.0601 26.0257 50.0471C25.6877 49.9428 25.3496 49.8384 25.0116 49.708C24.8556 49.6559 24.7126 49.5907 24.5566 49.5385C24.4786 49.5125 24.4137 49.4733 24.3357 49.4472C24.3227 49.4472 24.2707 49.4212 24.2447 49.4081C24.2187 49.3951 24.1796 49.3821 24.1536 49.369C23.5296 49.0952 22.9057 48.7822 22.3207 48.4432C21.7357 48.1041 21.1636 47.726 20.6046 47.3218C20.5396 47.2696 20.4746 47.2305 20.4096 47.1783C20.3966 47.1653 20.3836 47.1522 20.3706 47.1522C20.3706 47.1522 20.3056 47.1001 20.2926 47.1001C20.1496 46.9957 20.0196 46.8784 19.8896 46.7741C19.6296 46.5654 19.3826 46.3438 19.1486 46.109C18.6546 45.6396 18.1735 45.1571 17.7315 44.6355C17.6275 44.5182 17.5235 44.3877 17.4325 44.2704C17.3805 44.2052 17.3285 44.14 17.2635 44.0618C17.2375 44.0357 17.2116 43.9965 17.1856 43.9705C17.1856 43.9574 17.1725 43.9574 17.1725 43.9574C17.1595 43.9444 17.1465 43.9314 17.1465 43.9183C16.9385 43.6445 16.7435 43.3707 16.5485 43.0838C16.1715 42.51 15.8206 41.9232 15.4956 41.3234C15.3396 41.0235 15.1965 40.7235 15.0535 40.4106C15.0145 40.3323 14.9885 40.2671 14.9495 40.1889C14.9365 40.1498 14.9105 40.0976 14.8975 40.0585C14.8975 40.0585 14.8975 40.0585 14.8975 40.0455C14.8325 39.889 14.7675 39.7195 14.7025 39.563C14.4555 38.911 14.2475 38.2459 14.0655 37.5679C13.9745 37.2288 13.8964 36.8767 13.8314 36.5377C13.7924 36.3682 13.7665 36.1987 13.7405 36.0291C13.7275 35.9509 13.7144 35.8596 13.7014 35.7814C13.7014 35.7423 13.6885 35.7031 13.6885 35.664C13.6885 35.651 13.6755 35.5988 13.6755 35.5597C13.4935 34.1383 13.4805 32.704 13.6235 31.2826C13.6365 31.1913 13.6495 31.1 13.6495 31.0088C13.6495 30.9696 13.6624 30.9305 13.6624 30.8784C13.6624 30.8653 13.6624 30.8523 13.6624 30.8523C13.6624 30.8393 13.6624 30.8393 13.6624 30.8262C13.6884 30.6437 13.7145 30.4611 13.7405 30.2916C13.7925 29.9525 13.8705 29.6135 13.9485 29.2744C14.1045 28.5964 14.2995 27.9183 14.5335 27.2663C14.5855 27.1098 14.6375 26.9664 14.7025 26.8099C14.7285 26.7317 14.7675 26.6534 14.7935 26.5882C14.8065 26.5491 14.8325 26.497 14.8455 26.4578C14.8455 26.4578 14.8584 26.4187 14.8714 26.3926C15.0014 26.0797 15.1445 25.7667 15.3005 25.4537C15.5996 24.8539 15.9245 24.2671 16.2885 23.7064C16.4705 23.4065 16.6785 23.1196 16.8735 22.8457C16.9645 22.7284 17.0555 22.598 17.1465 22.4806C17.1595 22.4546 17.2376 22.3633 17.2506 22.3502C17.3156 22.272 17.3675 22.2068 17.4325 22.1285C17.8615 21.6069 18.3166 21.0984 18.8106 20.6289C19.2916 20.1595 19.7985 19.7162 20.3315 19.2989C20.3575 19.2858 20.4485 19.2076 20.4615 19.1946C20.5265 19.1424 20.5915 19.1033 20.6565 19.0511C20.7995 18.9468 20.9426 18.8425 21.0856 18.7512C21.3586 18.5556 21.6446 18.3861 21.9176 18.2035C22.5026 17.8515 23.1137 17.5254 23.7247 17.2386C23.8807 17.1734 24.0367 17.0951 24.1797 17.0299C24.1927 17.0299 24.2186 17.0169 24.2316 17.0039C24.2576 16.9908 24.2837 16.9778 24.3097 16.9647C24.4007 16.9256 24.4916 16.8865 24.5826 16.8604C24.9076 16.73 25.2326 16.6127 25.5576 16.5083C25.7526 16.4431 25.9607 16.3779 26.1557 16.3258C27.2737 15.4651 28.5737 14.8262 29.9777 14.6306C31.8237 14.3698 33.6567 14.8392 35.2168 15.8433C35.4508 15.9998 35.6718 16.1562 35.8928 16.3258H35.9059C36.3219 16.3258 36.6468 16.4301 36.9718 16.5475ZM14.9364 39.9542C14.9104 39.9151 14.9234 39.9281 14.9364 39.9542V39.9542Z" fill="white"/>
<path d="M36.9718 16.5475C37.1278 16.5996 37.2838 16.6648 37.4268 16.717C37.5048 16.743 37.5959 16.7822 37.6739 16.8213C37.7129 16.8343 37.7519 16.8474 37.7909 16.8735C37.8039 16.8735 37.8688 16.9126 37.9078 16.9256C37.9338 16.9387 37.9859 16.9517 37.9859 16.9517C38.0249 16.9647 38.0638 16.9778 38.1028 17.0039C38.1808 17.043 38.2719 17.0821 38.3499 17.1082C38.5059 17.1864 38.6749 17.2646 38.8309 17.3429C39.1299 17.4994 39.4419 17.6558 39.7279 17.8254C40.3259 18.1644 40.9109 18.5426 41.4699 18.9599C41.5349 19.012 41.5999 19.0511 41.6649 19.1033C41.7039 19.1294 41.7429 19.1554 41.7819 19.1946L41.7949 19.2076C41.925 19.3119 42.0679 19.4162 42.1979 19.5336C42.4709 19.7553 42.731 19.99 42.991 20.2378C43.485 20.7072 43.9659 21.1897 44.4079 21.7113C44.5119 21.8417 44.6289 21.9721 44.7329 22.1025C44.7849 22.1677 44.837 22.2329 44.889 22.285C44.915 22.3111 44.928 22.3372 44.954 22.3633C44.967 22.3763 44.9799 22.4024 44.9929 22.4154C44.9929 22.4154 45.006 22.4285 45.019 22.4415C45.227 22.7154 45.4219 22.9892 45.6169 23.263C46.0069 23.8368 46.358 24.4366 46.683 25.0495C46.839 25.3494 46.995 25.6624 47.125 25.9753C47.164 26.0536 47.203 26.1449 47.229 26.2231C47.242 26.2492 47.255 26.2752 47.255 26.3013C47.255 26.3013 47.294 26.3796 47.294 26.3926C47.359 26.5622 47.424 26.7317 47.489 26.9012C47.723 27.5141 47.762 27.5532 47.879 28.0487C48.243 28.0226 48.893 27.9053 48.867 27.814C48.464 25.9362 47.7881 24.5931 46.501 22.7023C44.876 20.316 42.7309 18.3209 40.2218 16.8995C37.6478 15.4521 34.7358 14.6306 31.7848 14.5132C28.8467 14.3959 25.8957 15.0087 23.2307 16.2475C20.6956 17.4211 18.4205 19.2076 16.6525 21.3853C14.8455 23.6151 13.5454 26.2492 12.9214 29.0528C12.2714 31.9476 12.3235 34.999 13.0645 37.8808C13.7795 40.6583 15.1574 43.2402 17.0165 45.4179C18.8495 47.5434 21.1766 49.2516 23.7507 50.36C26.0387 51.338 28.5217 51.8596 31.0048 51.8727C30.6018 51.8727 30.1988 51.8205 29.7958 51.7553C28.4828 51.5206 27.2607 50.9077 26.2076 50.0992C26.1426 50.0862 26.0907 50.0601 26.0257 50.0471C25.6877 49.9428 25.3496 49.8384 25.0116 49.708C24.8556 49.6559 24.7126 49.5907 24.5566 49.5385C24.4786 49.5125 24.4137 49.4733 24.3357 49.4472C24.3227 49.4472 24.2707 49.4212 24.2447 49.4081C24.2187 49.3951 24.1796 49.3821 24.1536 49.369C23.5296 49.0952 22.9057 48.7822 22.3207 48.4432C21.7357 48.1041 21.1636 47.726 20.6046 47.3218C20.5396 47.2696 20.4746 47.2305 20.4096 47.1783C20.3966 47.1653 20.3836 47.1522 20.3706 47.1522C20.3706 47.1522 20.3056 47.1001 20.2926 47.1001C20.1496 46.9957 20.0196 46.8784 19.8896 46.7741C19.6296 46.5654 19.3826 46.3438 19.1486 46.109C18.6546 45.6396 18.1735 45.1571 17.7315 44.6355C17.6275 44.5182 17.5235 44.3877 17.4325 44.2704C17.3805 44.2052 17.3285 44.14 17.2635 44.0618C17.2375 44.0357 17.2116 43.9965 17.1856 43.9705C17.1856 43.9574 17.1725 43.9574 17.1725 43.9574C17.1595 43.9444 17.1465 43.9314 17.1465 43.9183C16.9385 43.6445 16.7435 43.3707 16.5485 43.0838C16.1715 42.51 15.8206 41.9232 15.4956 41.3234C15.3396 41.0235 15.1965 40.7235 15.0535 40.4106C15.0145 40.3323 14.9885 40.2671 14.9495 40.1889C14.9365 40.1498 14.9105 40.0976 14.8975 40.0585C14.8975 40.0585 14.8975 40.0585 14.8975 40.0455C14.8325 39.889 14.7675 39.7195 14.7025 39.563C14.4555 38.911 14.2475 38.2459 14.0655 37.5679C13.9745 37.2288 13.8964 36.8767 13.8314 36.5377C13.7924 36.3682 13.7665 36.1987 13.7405 36.0291C13.7275 35.9509 13.7144 35.8596 13.7014 35.7814C13.7014 35.7423 13.6885 35.7031 13.6885 35.664C13.6885 35.651 13.6755 35.5988 13.6755 35.5597C13.4935 34.1383 13.4805 32.704 13.6235 31.2826C13.6365 31.1913 13.6495 31.1 13.6495 31.0088C13.6495 30.9696 13.6624 30.9305 13.6624 30.8784C13.6624 30.8653 13.6624 30.8523 13.6624 30.8523C13.6624 30.8393 13.6624 30.8393 13.6624 30.8262C13.6884 30.6437 13.7145 30.4611 13.7405 30.2916C13.7925 29.9525 13.8705 29.6135 13.9485 29.2744C14.1045 28.5964 14.2995 27.9183 14.5335 27.2663C14.5855 27.1098 14.6375 26.9664 14.7025 26.8099C14.7285 26.7317 14.7675 26.6534 14.7935 26.5882C14.8065 26.5491 14.8325 26.497 14.8455 26.4578C14.8455 26.4578 14.8584 26.4187 14.8714 26.3926C15.0014 26.0797 15.1445 25.7667 15.3006 25.4537C15.5996 24.8539 15.9245 24.2671 16.2885 23.7064C16.4705 23.4065 16.6785 23.1196 16.8735 22.8457C16.9645 22.7284 17.0555 22.598 17.1465 22.4806C17.1595 22.4546 17.2376 22.3633 17.2506 22.3502C17.3156 22.272 17.3675 22.2068 17.4325 22.1285C17.8615 21.6069 18.3166 21.0984 18.8106 20.6289C19.2916 20.1595 19.7985 19.7162 20.3315 19.2989C20.3575 19.2858 20.4485 19.2076 20.4615 19.1946C20.5265 19.1424 20.5915 19.1033 20.6565 19.0511C20.7995 18.9468 20.9426 18.8425 21.0856 18.7512C21.3586 18.5556 21.6446 18.3861 21.9176 18.2035C22.5026 17.8515 23.1136 17.5254 23.7247 17.2386C23.8807 17.1734 24.0367 17.0951 24.1797 17.0299C24.1927 17.0299 24.2186 17.0169 24.2316 17.0039C24.2576 16.9908 24.2837 16.9778 24.3097 16.9647C24.4007 16.9256 24.4916 16.8865 24.5826 16.8604C24.9076 16.73 25.2326 16.6127 25.5576 16.5083C25.7526 16.4431 25.9607 16.3779 26.1557 16.3258C27.2737 15.4651 28.5737 14.8262 29.9777 14.6306C31.8237 14.3698 33.6567 14.8392 35.2168 15.8433C35.4508 15.9998 35.6718 16.1562 35.8928 16.3258H35.9059C36.3219 16.3258 36.6468 16.4301 36.9718 16.5475ZM14.9364 39.9542C14.9234 39.9281 14.9104 39.9151 14.9364 39.9542Z" stroke="white" stroke-width="0.798697" stroke-linejoin="round"/>
<path d="M20.8906 42.3283C20.9449 42.3147 20.9449 42.3011 20.9313 42.3147C20.9178 42.3147 20.9042 42.3147 20.8906 42.3283Z" fill="white"/>
<path d="M20.8906 42.3283C20.9449 42.3147 20.9449 42.3011 20.9313 42.3147C20.9178 42.3147 20.9042 42.3147 20.8906 42.3283Z" stroke="white" stroke-width="0.798697"/>
<path d="M35.3349 40.6977V39.6153C35.1789 39.5893 35.0359 39.5762 34.8799 39.5501C32.7218 39.2763 30.5248 39.2372 28.3538 39.4328C26.2997 39.6154 24.2457 40.0065 22.2826 40.6585C20.5536 41.2323 18.8637 41.9886 17.3556 43.0057C17.1866 43.1231 17.0176 43.2404 16.8616 43.3578C16.6276 43.5273 16.4976 43.8403 16.6666 44.1011C16.8096 44.3228 17.1605 44.4792 17.4076 44.2967C18.0836 43.8012 18.7986 43.3709 19.5396 42.9797C19.9296 42.771 20.3327 42.5884 20.7357 42.4059C20.7877 42.3798 20.8397 42.3668 20.8917 42.3407H20.8786L20.8917 42.3277C20.9047 42.3277 20.9177 42.3146 20.9307 42.3146C20.9437 42.3146 20.9437 42.3016 20.9567 42.3016C21.0607 42.2625 21.1646 42.2103 21.2686 42.1712C21.4896 42.0799 21.6976 42.0017 21.9186 41.9234C22.8287 41.5974 23.7517 41.3236 24.6877 41.1019C25.1817 40.9845 25.6757 40.8933 26.1697 40.802C26.4167 40.7629 26.6768 40.7107 26.9368 40.6846C27.0018 40.6716 27.0668 40.6716 27.1318 40.6585C27.1578 40.6585 27.1838 40.6455 27.2098 40.6455C27.2228 40.6455 27.2228 40.6455 27.2358 40.6455C27.3658 40.6325 27.4958 40.6064 27.6258 40.5933C29.7578 40.3456 31.9289 40.3326 34.0609 40.5412C34.3209 40.5673 34.5809 40.5934 34.8409 40.6325C34.8929 40.6455 34.9449 40.6455 34.9969 40.6585C35.0099 40.6585 35.1139 40.6716 35.1269 40.6716C35.1919 40.6716 35.2569 40.6846 35.3349 40.6977Z" fill="white"/>
<path d="M35.3349 40.6977V39.6153C35.1789 39.5893 35.0359 39.5762 34.8799 39.5501C32.7218 39.2763 30.5248 39.2372 28.3538 39.4328C26.2997 39.6154 24.2457 40.0065 22.2826 40.6585C20.5536 41.2323 18.8637 41.9886 17.3556 43.0057C17.1866 43.1231 17.0176 43.2404 16.8616 43.3578C16.6276 43.5273 16.4976 43.8403 16.6666 44.1011C16.8096 44.3228 17.1605 44.4792 17.4076 44.2967C18.0836 43.8012 18.7986 43.3709 19.5396 42.9797C19.9296 42.771 20.3327 42.5884 20.7357 42.4059C20.7877 42.3798 20.8397 42.3668 20.8917 42.3407H20.8786L20.8917 42.3277C20.9047 42.3277 20.9177 42.3146 20.9307 42.3146C20.9437 42.3146 20.9437 42.3016 20.9567 42.3016C21.0607 42.2625 21.1646 42.2103 21.2686 42.1712C21.4896 42.0799 21.6976 42.0017 21.9186 41.9234C22.8287 41.5974 23.7517 41.3236 24.6877 41.1019C25.1817 40.9845 25.6757 40.8933 26.1697 40.802C26.4167 40.7629 26.6768 40.7107 26.9368 40.6846C27.0018 40.6716 27.0668 40.6716 27.1318 40.6585C27.1578 40.6585 27.1838 40.6455 27.2098 40.6455C27.2228 40.6455 27.2228 40.6455 27.2358 40.6455C27.3658 40.6325 27.4958 40.6064 27.6258 40.5933C29.7578 40.3456 31.9289 40.3326 34.0609 40.5412C34.3209 40.5673 34.5809 40.5934 34.8409 40.6325C34.8929 40.6455 34.9449 40.6455 34.9969 40.6585C35.0099 40.6585 35.1139 40.6716 35.1269 40.6716C35.1919 40.6716 35.2569 40.6846 35.3349 40.6977Z" stroke="white" stroke-width="0.798697" stroke-linejoin="round"/>
<path d="M41.1724 29.2224C41.1984 29.431 41.2504 29.7831 41.2764 30.07C41.3024 30.2656 41.3153 30.4481 41.3283 30.6437H42.4075C42.3555 30.0961 42.3034 29.5353 42.2254 28.9877C41.8874 26.5753 41.2504 24.202 40.2494 21.9852C39.4043 20.1335 38.2733 18.3601 36.7783 16.9648C36.5313 16.7432 36.2843 16.5215 36.0113 16.3128C35.5433 16.1824 35.0623 16.052 34.5813 15.9608C34.2433 15.8956 33.9053 15.8304 33.5542 15.7912C33.5412 15.7912 33.4242 15.7782 33.4632 15.7782C33.4372 15.7782 33.4242 15.7782 33.3982 15.7652C33.3202 15.7521 33.2293 15.7391 33.1513 15.7391C32.9693 15.713 32.7873 15.7 32.6053 15.6869C32.1502 15.6478 31.6952 15.6348 31.2402 15.6348C31.3052 15.6348 31.3832 15.6348 31.4482 15.6348C31.5522 15.6348 31.6562 15.6478 31.7602 15.6608C31.8122 15.6608 31.8642 15.6739 31.9032 15.6739C31.9162 15.6739 31.9162 15.6739 31.9292 15.6739H31.9163C31.8383 15.6608 32.0202 15.6869 31.9552 15.6739C31.9422 15.6739 31.9422 15.6739 31.9292 15.6739C32.3192 15.7391 32.7093 15.8173 33.0863 15.9477C33.1773 15.9738 33.2683 16.0129 33.3723 16.052C33.4243 16.0651 33.4633 16.0911 33.5153 16.1042C33.5283 16.1172 33.5802 16.1303 33.5932 16.1433C33.5802 16.1433 33.5672 16.1303 33.5542 16.1303C33.6192 16.1563 33.6192 16.1564 33.5932 16.1433C33.7622 16.2216 33.9313 16.2998 34.1003 16.378C34.4643 16.5736 34.8152 16.7823 35.1532 17.03C35.2052 17.0692 35.2443 17.0952 35.2963 17.1344C35.3093 17.1474 35.3352 17.1604 35.3482 17.1735C35.3352 17.1735 35.3354 17.1604 35.3224 17.1604C35.3744 17.1996 35.3612 17.1995 35.3482 17.1735C35.4263 17.2387 35.5043 17.2908 35.5693 17.356C35.7383 17.4995 35.8943 17.6429 36.0633 17.7864C36.3883 18.0993 36.7003 18.4253 36.9993 18.7774C37.0773 18.8687 37.1553 18.973 37.2333 19.0642C37.2723 19.1164 37.3114 19.1555 37.3374 19.2077C37.3244 19.1947 37.3244 19.1947 37.3114 19.1816C37.3114 19.1816 37.3634 19.2468 37.3374 19.2077C37.3504 19.2207 37.3634 19.2338 37.3764 19.2468C37.5194 19.4424 37.6623 19.638 37.8053 19.8336C38.0913 20.2509 38.3644 20.6943 38.6114 21.1376C39.1574 22.1156 39.5473 23.0023 39.8983 23.9934C40.3013 25.1018 40.6134 26.2362 40.8474 27.3837C40.9774 28.0097 41.0814 28.6095 41.1724 29.2224Z" fill="white"/>
<path d="M31.9292 15.6739C31.9162 15.6739 31.9162 15.6739 31.9032 15.6739C31.8642 15.6739 31.8122 15.6608 31.7602 15.6608C31.6562 15.6478 31.5522 15.6348 31.4482 15.6348C31.3832 15.6348 31.3052 15.6348 31.2402 15.6348C31.6952 15.6348 32.1502 15.6478 32.6053 15.6869C32.7873 15.7 32.9693 15.713 33.1513 15.7391C33.2293 15.7391 33.3202 15.7521 33.3982 15.7652C33.4242 15.7782 33.4372 15.7782 33.4632 15.7782C33.4242 15.7782 33.5412 15.7912 33.5542 15.7912C33.9053 15.8304 34.2433 15.8956 34.5813 15.9608C35.0623 16.052 35.5433 16.1824 36.0113 16.3128C36.2843 16.5215 36.5313 16.7432 36.7783 16.9648C38.2733 18.3601 39.4043 20.1335 40.2494 21.9852C41.2504 24.202 41.8874 26.5753 42.2254 28.9877C42.3034 29.5353 42.3555 30.0961 42.4075 30.6437H41.3283C41.3153 30.4481 41.3024 30.2656 41.2764 30.07C41.2504 29.7831 41.1984 29.431 41.1724 29.2224C41.0814 28.6095 40.9774 28.0097 40.8474 27.3837C40.6134 26.2362 40.3013 25.1018 39.8983 23.9934C39.5473 23.0023 39.1574 22.1156 38.6114 21.1376C38.3644 20.6943 38.0913 20.2509 37.8053 19.8336C37.6623 19.638 37.5194 19.4424 37.3764 19.2468C37.3634 19.2338 37.3504 19.2207 37.3374 19.2077M31.9292 15.6739H31.9163C31.8383 15.6608 32.0202 15.6869 31.9552 15.6739C31.9422 15.6739 31.9422 15.6739 31.9292 15.6739ZM31.9292 15.6739C32.3192 15.7391 32.7093 15.8173 33.0863 15.9477C33.1773 15.9738 33.2683 16.0129 33.3723 16.052C33.4243 16.0651 33.4633 16.0911 33.5153 16.1042C33.5283 16.1172 33.5802 16.1303 33.5932 16.1433M33.5932 16.1433C33.5802 16.1433 33.5672 16.1303 33.5542 16.1303C33.6192 16.1563 33.6192 16.1564 33.5932 16.1433ZM33.5932 16.1433C33.7622 16.2216 33.9313 16.2998 34.1003 16.378C34.4643 16.5736 34.8152 16.7823 35.1532 17.03C35.2052 17.0692 35.2443 17.0952 35.2963 17.1344C35.3093 17.1474 35.3352 17.1604 35.3482 17.1735M35.3482 17.1735C35.3352 17.1735 35.3354 17.1604 35.3224 17.1604C35.3744 17.1996 35.3613 17.1995 35.3482 17.1735ZM35.3482 17.1735C35.4263 17.2387 35.5043 17.2908 35.5693 17.356C35.7383 17.4995 35.8943 17.6429 36.0633 17.7864C36.3883 18.0993 36.7003 18.4253 36.9993 18.7774C37.0773 18.8687 37.1553 18.973 37.2333 19.0642C37.2723 19.1164 37.3114 19.1555 37.3374 19.2077M37.3374 19.2077C37.3244 19.1947 37.3244 19.1947 37.3114 19.1816C37.3114 19.1816 37.3634 19.2468 37.3374 19.2077Z" stroke="white" stroke-width="0.798697" stroke-linejoin="round"/>
</svg>
