<?xml version="1.0" encoding="UTF-8"?>
<svg id="_Слой_2" data-name="Слой 2" xmlns="http://www.w3.org/2000/svg" viewBox="0 0 490 490">
  <defs>
    <style>
      .cls-1, .cls-2 {
        stroke-linecap: round;
        stroke-linejoin: round;
      }

      .cls-1, .cls-2, .cls-3 {
        fill: none;
        stroke: #fff;
      }

      .cls-1, .cls-3 {
        stroke-width: 9.12px;
      }

      .cls-2 {
        stroke-width: 9.23px;
      }

      .cls-3 {
        stroke-miterlimit: 10;
      }

      .cls-4 {
        fill: #e5213f;
        stroke-width: 0px;
      }
    </style>
  </defs>
  <g id="_Слой_2-2" data-name=" Слой 2">
    <g>
      <rect class="cls-3" x="312.91" y="42.85" width="29.81" height="265.95" rx="12.94" ry="12.94" transform="translate(184.83 -167.58) rotate(39.19)"/>
      <line class="cls-3" x1="367.2" y1="100.57" x2="389.54" y2="119.93"/>
      <rect class="cls-3" x="234.51" y="276.12" width="4.96" height="15.1" rx="2.18" ry="2.18" transform="translate(232.54 -85.94) rotate(39.19)"/>
    </g>
    <g>
      <path class="cls-2" d="M358.27,192.46v212.74c0,5.93-4.81,10.74-10.74,10.74h-214.89c-5.93,0-10.74-4.81-10.74-10.74v-228.8c0-1.41.56-2.76,1.56-3.76l66.72-66.72c1-1,2.35-1.56,3.76-1.56h124.93"/>
      <path class="cls-2" d="M197.1,108.51v60.32c0,5.93-4.81,10.74-10.74,10.74h-62.87"/>
    </g>
    <line class="cls-1" x1="140.13" y1="291.72" x2="215.05" y2="291.72"/>
    <line class="cls-1" x1="140.13" y1="336.26" x2="327.19" y2="336.26"/>
    <line class="cls-1" x1="140.13" y1="355.94" x2="327.19" y2="355.94"/>
    <line class="cls-1" x1="140.97" y1="313.99" x2="328.03" y2="313.99"/>
    <g>
      <path class="cls-4" d="M91.74,0H10.17S0,0,0,0v93.04c0,5.63,4.55,10.2,10.17,10.2h0c5.62,0,10.17-4.57,10.17-10.2V20.4s71.4,0,71.4,0c5.62,0,10.17-4.57,10.17-10.2h0C101.91,4.57,97.36,0,91.74,0Z"/>
      <path class="cls-4" d="M490,92.27V10.46s0-10.2,0-10.2h-92.77c-5.62,0-10.17,4.57-10.17,10.2h0c0,5.63,4.55,10.2,10.17,10.2h72.43s0,71.61,0,71.61c0,5.63,4.55,10.2,10.17,10.2h0c5.62,0,10.17-4.57,10.17-10.2Z"/>
      <path class="cls-4" d="M398.26,490h81.57s10.17,0,10.17,0v-93.04c0-5.63-4.55-10.2-10.17-10.2h0c-5.62,0-10.17,4.57-10.17,10.2v72.64s-71.4,0-71.4,0c-5.62,0-10.17,4.57-10.17,10.2h0c0,5.63,4.55,10.2,10.17,10.2Z"/>
      <path class="cls-4" d="M0,397.73v81.81s0,10.2,0,10.2h92.77c5.62,0,10.17-4.57,10.17-10.2h0c0-5.63-4.55-10.2-10.17-10.2H20.34s0-71.61,0-71.61c0-5.63-4.55-10.2-10.17-10.2h0C4.55,387.53,0,392.1,0,397.73Z"/>
    </g>
  </g>
</svg>