<?xml version="1.0" encoding="UTF-8"?>
<svg id="_Слой_2" data-name="Слой 2" xmlns="http://www.w3.org/2000/svg" viewBox="0 0 492.27 490.84">
  <defs>
    <style>
      .cls-1 {
        stroke-width: 2px;
      }

      .cls-1, .cls-2, .cls-3, .cls-4, .cls-5, .cls-6 {
        fill: #fff;
      }

      .cls-1, .cls-2, .cls-3, .cls-4, .cls-6 {
        stroke: #fff;
      }

      .cls-1, .cls-2, .cls-3, .cls-6 {
        stroke-miterlimit: 10;
      }

      .cls-2 {
        stroke-width: 4.42px;
      }

      .cls-3 {
        stroke-width: 3.52px;
      }

      .cls-4 {
        stroke-linecap: round;
        stroke-linejoin: round;
        stroke-width: 15px;
      }

      .cls-5, .cls-7 {
        stroke-width: 0px;
      }

      .cls-7 {
        fill: #e5243c;
      }

      .cls-6 {
        stroke-width: 3.17px;
      }
    </style>
  </defs>
  <g id="_Слой_2-2" data-name=" Слой 2">
    <path class="cls-2" d="M370.25,387.34h-9.95v-152.64h-62.53v152.64h-9.95v-156.07c0-3.52,2.85-6.36,6.36-6.36h69.7c3.52,0,6.36,2.85,6.36,6.36v156.07Z"/>
    <path class="cls-3" d="M352.09,232.95h-42.71v-50.05c0-2.43,2.24-4.4,5.01-4.4h32.7c2.76,0,5.01,1.97,5.01,4.4v50.05ZM317.12,226.24h27.23v-41.04h-27.23v41.04Z"/>
    <path class="cls-6" d="M330.73,182.67c-1.37,0-2.49-2.25-2.49-5.03v-59.37c0-2.78,1.11-5.03,2.49-5.03s2.49,2.25,2.49,5.03v59.37c0,2.78-1.11,5.03-2.49,5.03Z"/>
    <path class="cls-2" d="M297.59,387.42h-9.95V123.03h-128.81v264.39h-9.95V119.64c0-3.54,2.87-6.4,6.4-6.4h135.9c3.54,0,6.4,2.87,6.4,6.4v267.78Z"/>
    <path class="cls-5" d="M372.5,376.51h-226.19v13.07h226.1l.09-13.07Z"/>
    <g>
      <path class="cls-7" d="M92.17,0H10.22S0,0,0,0v93.2c0,5.64,4.57,10.22,10.22,10.22h0c5.64,0,10.22-4.57,10.22-10.22V20.43s71.73,0,71.73,0c5.64,0,10.22-4.57,10.22-10.22h0C102.38,4.57,97.81,0,92.17,0Z"/>
      <path class="cls-7" d="M492.27,92.42V10.47s0-10.22,0-10.22h-93.2c-5.64,0-10.22,4.57-10.22,10.22h0c0,5.64,4.57,10.22,10.22,10.22h72.76s0,71.73,0,71.73c0,5.64,4.57,10.22,10.22,10.22h0c5.64,0,10.22-4.57,10.22-10.22Z"/>
      <path class="cls-7" d="M400.1,490.84h81.95s10.22,0,10.22,0v-93.2c0-5.64-4.57-10.22-10.22-10.22h0c-5.64,0-10.22,4.57-10.22,10.22v72.76s-71.73,0-71.73,0c-5.64,0-10.22,4.57-10.22,10.22h0c0,5.64,4.57,10.22,10.22,10.22Z"/>
      <path class="cls-7" d="M0,398.41v81.95s0,10.22,0,10.22h93.2c5.64,0,10.22-4.57,10.22-10.22h0c0-5.64-4.57-10.22-10.22-10.22H20.43s0-71.73,0-71.73c0-5.64-4.57-10.22-10.22-10.22h0C4.57,388.2,0,392.77,0,398.41Z"/>
    </g>
    <line class="cls-4" x1="136.92" y1="405.46" x2="389.89" y2="405.46"/>
    <rect class="cls-1" x="190.2" y="143.1" width="10.35" height="220.06" rx="2.85" ry="2.85"/>
    <rect class="cls-1" x="218.06" y="143.1" width="10.35" height="220.06" rx="2.85" ry="2.85"/>
    <rect class="cls-1" x="245.93" y="143.1" width="10.35" height="220.06" rx="2.85" ry="2.85"/>
    <rect class="cls-1" x="324.9" y="242.3" width="8.27" height="43.98" rx="2.2" ry="2.2" transform="translate(593.33 -64.74) rotate(90)"/>
    <rect class="cls-1" x="324.9" y="270.16" width="8.27" height="43.98" rx="2.2" ry="2.2" transform="translate(621.18 -36.89) rotate(90)"/>
  </g>
</svg>