<svg width="1334" height="522" viewBox="0 0 1334 522" fill="none" xmlns="http://www.w3.org/2000/svg">
<rect x="1" y="279" width="378" height="192" rx="40" fill="white" fill-opacity="0.1"/>
<path d="M122.384 315.2H135.864V329H133.064V317.48H125.184V329H122.384V315.2ZM137.746 326.54H138.166C140.066 326.54 140.366 325.02 140.366 321V315.2H152.366V329H149.566V317.48H142.966V321C142.966 326.9 142.186 329 138.566 329H137.746V326.54ZM168.39 322.78V321.36C168.39 318.32 166.59 317.14 163.03 317.14C159.45 317.14 157.67 318.32 157.67 321.36V322.78C157.67 325.86 159.45 327.06 163.03 327.06C166.59 327.06 168.39 325.88 168.39 322.78ZM154.85 322.04C154.85 316.8 157.69 314.96 163.03 314.96C168.37 314.96 171.21 316.8 171.21 322.04C171.21 327.36 168.37 329.24 163.03 329.24C157.69 329.24 154.85 327.36 154.85 322.04ZM173.693 315.2H176.493V326.72H182.233V315.2H185.033V326.72H190.773V315.2H193.573V326.72H195.393V332H192.793V329H173.693V315.2ZM202.102 315.2H205.942L212.022 329H209.102L207.562 325.46H200.182L198.642 329H196.002L202.102 315.2ZM203.862 317.02L201.082 323.4H206.662L203.862 317.02ZM212.353 332V326.72H213.933C214.593 325.72 215.173 323.8 215.173 320.26V315.2H227.633V326.72H229.493V332H226.893V329H214.953V332H212.353ZM224.833 317.48H217.773V320.26C217.773 323.8 217.293 325.74 216.733 326.72H224.833V317.48ZM241.825 315.2H245.145L238.725 321.84L245.525 329H241.925L236.265 323.1H234.305V329H231.505V315.2H234.305V320.82H236.365L241.825 315.2ZM251.692 315.2H255.532L261.612 329H258.692L257.152 325.46H249.772L248.232 329H245.592L251.692 315.2ZM253.452 317.02L250.672 323.4H256.252L253.452 317.02ZM110.842 350.04H113.662C113.922 351.6 115.442 352.14 118.042 352.14C120.822 352.14 122.062 351.52 122.062 350.2V349.72C122.062 348.56 121.042 347.96 119.142 347.96H115.402V345.92H119.142C120.782 345.92 121.682 345.3 121.682 344.24V343.82C121.682 342.56 120.522 342.06 117.962 342.06C115.582 342.06 114.082 342.5 113.822 344H111.002C111.282 341.1 113.802 339.96 117.962 339.96C122.522 339.96 124.522 341.2 124.522 343.68C124.522 345.28 123.502 346.38 121.842 346.76C123.722 347.12 124.882 348.22 124.882 349.96C124.882 352.82 122.762 354.24 118.042 354.24C113.722 354.24 111.142 353.06 110.842 350.04ZM131.634 340.2H135.474L141.554 354H138.634L137.094 350.46H129.714L128.174 354H125.534L131.634 340.2ZM133.394 342.02L130.614 348.4H136.194L133.394 342.02ZM153.525 340.2H156.845L150.425 346.84L157.225 354H153.625L147.965 348.1H146.005V354H143.205V340.2H146.005V345.82H148.065L153.525 340.2ZM163.391 340.2H167.231L173.311 354H170.391L168.851 350.46H161.471L159.931 354H157.291L163.391 340.2ZM165.151 342.02L162.371 348.4H167.951L165.151 342.02ZM173.752 350.04H176.572C176.832 351.6 178.352 352.14 180.952 352.14C183.732 352.14 184.972 351.52 184.972 350.2V349.72C184.972 348.56 183.952 347.96 182.052 347.96H178.312V345.92H182.052C183.692 345.92 184.592 345.3 184.592 344.24V343.82C184.592 342.56 183.432 342.06 180.872 342.06C178.492 342.06 176.992 342.5 176.732 344H173.912C174.192 341.1 176.712 339.96 180.872 339.96C185.432 339.96 187.432 341.2 187.432 343.68C187.432 345.28 186.412 346.38 184.752 346.76C186.632 347.12 187.792 348.22 187.792 349.96C187.792 352.82 185.672 354.24 180.952 354.24C176.632 354.24 174.052 353.06 173.752 350.04ZM200.2 348.68C199.12 348.78 197.64 348.86 196.32 348.86C191.28 348.84 189.52 347.48 189.52 344.02V340.2H192.3V343.64C192.3 346.12 193.7 346.6 196.64 346.6C197.74 346.6 199.04 346.54 200.2 346.42V340.2H202.98V354H200.2V348.68ZM217.375 343.64L209.115 354H206.095V340.2H208.895V350.56L217.155 340.2H220.155V354H217.375V343.64ZM233.603 340.2H236.923L230.503 346.84L237.303 354H233.703L228.043 348.1H226.083V354H223.283V340.2H226.083V345.82H228.143L233.603 340.2ZM243.47 340.2H247.31L253.39 354H250.47L248.93 350.46H241.55L240.01 354H237.37L243.47 340.2ZM245.23 342.02L242.45 348.4H248.03L245.23 342.02ZM258.68 352.88C258.68 345.68 268 348.18 268 344.32V343.9C268 342.54 266.84 342.1 264.96 342.1C262.8 342.1 261.82 342.62 261.6 344.34H258.78C259.02 341.04 261.3 339.96 264.98 339.96C268.68 339.96 270.82 341.04 270.82 344.08C270.82 349.94 261.96 347.62 261.58 351.76H270.82V354H258.68V352.88Z" fill="white"/>
<g clip-path="url(#clip0_2985_13870)">
<mask id="mask0_2985_13870" style="mask-type:luminance" maskUnits="userSpaceOnUse" x="160" y="370" width="62" height="69">
<path d="M221.803 370.999H160.205V438.999H221.803V370.999Z" fill="white"/>
</mask>
<g mask="url(#mask0_2985_13870)">
<path d="M216.309 435.961H213.949V399.851H199.139V435.961H196.779V399.055C196.779 398.199 197.458 397.55 198.284 397.55H214.804C215.63 397.55 216.309 398.229 216.309 399.055V435.961Z" fill="white"/>
</g>
<mask id="mask1_2985_13870" style="mask-type:luminance" maskUnits="userSpaceOnUse" x="160" y="370" width="62" height="69">
<path d="M221.803 370.999H160.205V438.999H221.803V370.999Z" fill="white"/>
</mask>
<g mask="url(#mask1_2985_13870)">
<path d="M216.309 435.961H213.949V399.851H199.139V435.961H196.779V399.055C196.779 398.199 197.458 397.55 198.284 397.55H214.804C215.63 397.55 216.309 398.229 216.309 399.055V435.961Z" stroke="white" stroke-width="0.177597" stroke-miterlimit="10"/>
</g>
<mask id="mask2_2985_13870" style="mask-type:luminance" maskUnits="userSpaceOnUse" x="160" y="370" width="62" height="69">
<path d="M221.803 370.999H160.205V438.999H221.803V370.999Z" fill="white"/>
</mask>
<g mask="url(#mask2_2985_13870)">
<path d="M212.04 399.438H201.922V387.608C201.922 387.018 202.453 386.575 203.102 386.575H210.86C211.509 386.575 212.04 387.047 212.04 387.608V399.438ZM203.751 397.845H210.211V388.139H203.751V397.845Z" fill="white"/>
</g>
<mask id="mask3_2985_13870" style="mask-type:luminance" maskUnits="userSpaceOnUse" x="160" y="370" width="62" height="69">
<path d="M221.803 370.999H160.205V438.999H221.803V370.999Z" fill="white"/>
</mask>
<g mask="url(#mask3_2985_13870)">
<path d="M212.04 399.438H201.922V387.608C201.922 387.018 202.453 386.575 203.102 386.575H210.86C211.509 386.575 212.04 387.047 212.04 387.608V399.438ZM203.751 397.845H210.211V388.139H203.751V397.845Z" stroke="white" stroke-width="0.177597" stroke-miterlimit="10"/>
</g>
<mask id="mask4_2985_13870" style="mask-type:luminance" maskUnits="userSpaceOnUse" x="160" y="370" width="62" height="69">
<path d="M221.803 370.999H160.205V438.999H221.803V370.999Z" fill="white"/>
</mask>
<g mask="url(#mask4_2985_13870)">
<path d="M206.961 387.549C206.636 387.549 206.371 387.018 206.371 386.369V372.297C206.371 371.648 206.636 371.117 206.961 371.117C207.286 371.117 207.551 371.648 207.551 372.297V386.34C207.551 387.018 207.286 387.549 206.961 387.549Z" fill="white"/>
</g>
<mask id="mask5_2985_13870" style="mask-type:luminance" maskUnits="userSpaceOnUse" x="160" y="370" width="62" height="69">
<path d="M221.803 370.999H160.205V438.999H221.803V370.999Z" fill="white"/>
</mask>
<g mask="url(#mask5_2985_13870)">
<path d="M206.961 387.549C206.636 387.549 206.371 387.018 206.371 386.369V372.297C206.371 371.648 206.636 371.117 206.961 371.117C207.286 371.117 207.551 371.648 207.551 372.297V386.34C207.551 387.018 207.286 387.549 206.961 387.549Z" stroke="white" stroke-width="0.236894" stroke-miterlimit="10"/>
</g>
<mask id="mask6_2985_13870" style="mask-type:luminance" maskUnits="userSpaceOnUse" x="160" y="370" width="62" height="69">
<path d="M221.803 370.999H160.205V438.999H221.803V370.999Z" fill="white"/>
</mask>
<g mask="url(#mask6_2985_13870)">
<path d="M199.125 435.99H196.764V373.448H166.231V435.99H163.871V372.622C163.871 371.796 164.549 371.117 165.375 371.117H197.59C198.417 371.117 199.095 371.796 199.095 372.622V435.99H199.125Z" fill="white"/>
</g>
<mask id="mask7_2985_13870" style="mask-type:luminance" maskUnits="userSpaceOnUse" x="160" y="370" width="62" height="69">
<path d="M221.803 370.999H160.205V438.999H221.803V370.999Z" fill="white"/>
</mask>
<g mask="url(#mask7_2985_13870)">
<path d="M199.125 435.99H196.764V373.448H166.231V435.99H163.871V372.622C163.871 371.796 164.549 371.117 165.375 371.117H197.59C198.416 371.117 199.095 371.796 199.095 372.622V435.99H199.125Z" stroke="white" stroke-width="0.177597" stroke-miterlimit="10"/>
</g>
<mask id="mask8_2985_13870" style="mask-type:luminance" maskUnits="userSpaceOnUse" x="160" y="370" width="62" height="69">
<path d="M221.803 370.999H160.205V438.999H221.803V370.999Z" fill="white"/>
</mask>
<g mask="url(#mask8_2985_13870)">
<path d="M216.405 433.718H163.775V436.078H216.405V433.718Z" fill="white"/>
</g>
<mask id="mask9_2985_13870" style="mask-type:luminance" maskUnits="userSpaceOnUse" x="160" y="370" width="62" height="69">
<path d="M221.803 370.999H160.205V438.999H221.803V370.999Z" fill="white"/>
</mask>
<g mask="url(#mask9_2985_13870)">
<path d="M161.031 438.173H220.977" stroke="white" stroke-width="1.65737" stroke-miterlimit="10" stroke-linecap="round" stroke-linejoin="round"/>
</g>
<mask id="mask10_2985_13870" style="mask-type:luminance" maskUnits="userSpaceOnUse" x="160" y="370" width="62" height="69">
<path d="M221.803 370.999H160.205V438.999H221.803V370.999Z" fill="white"/>
</mask>
<g mask="url(#mask10_2985_13870)">
<path d="M175.436 430.238H174.344C173.961 430.238 173.666 429.943 173.666 429.559V378.847C173.666 378.463 173.961 378.168 174.344 378.168H175.436C175.819 378.168 176.114 378.463 176.114 378.847V429.559C176.114 429.943 175.819 430.238 175.436 430.238Z" fill="white"/>
</g>
<mask id="mask11_2985_13870" style="mask-type:luminance" maskUnits="userSpaceOnUse" x="160" y="370" width="62" height="69">
<path d="M221.803 370.999H160.205V438.999H221.803V370.999Z" fill="white"/>
</mask>
<g mask="url(#mask11_2985_13870)">
<path d="M182.028 430.238H180.936C180.552 430.238 180.257 429.943 180.257 429.559V378.847C180.257 378.463 180.552 378.168 180.936 378.168H182.028C182.411 378.168 182.706 378.463 182.706 378.847V429.559C182.706 429.943 182.411 430.238 182.028 430.238Z" fill="white"/>
</g>
<mask id="mask12_2985_13870" style="mask-type:luminance" maskUnits="userSpaceOnUse" x="160" y="370" width="62" height="69">
<path d="M221.803 370.999H160.205V438.999H221.803V370.999Z" fill="white"/>
</mask>
<g mask="url(#mask12_2985_13870)">
<path d="M188.641 430.238H187.549C187.166 430.238 186.871 429.943 186.871 429.559V378.847C186.871 378.463 187.166 378.168 187.549 378.168H188.641C189.024 378.168 189.319 378.463 189.319 378.847V429.559C189.319 429.943 189.024 430.238 188.641 430.238Z" fill="white"/>
</g>
<mask id="mask13_2985_13870" style="mask-type:luminance" maskUnits="userSpaceOnUse" x="160" y="370" width="62" height="69">
<path d="M221.803 370.999H160.205V438.999H221.803V370.999Z" fill="white"/>
</mask>
<g mask="url(#mask13_2985_13870)">
<path d="M201.365 407.315V406.4C201.365 406.105 201.601 405.869 201.896 405.869H211.277C211.572 405.869 211.808 406.105 211.808 406.4V407.315C211.808 407.61 211.572 407.846 211.277 407.846H201.896C201.601 407.846 201.365 407.61 201.365 407.315Z" fill="white"/>
</g>
<mask id="mask14_2985_13870" style="mask-type:luminance" maskUnits="userSpaceOnUse" x="160" y="370" width="62" height="69">
<path d="M221.803 370.999H160.205V438.999H221.803V370.999Z" fill="white"/>
</mask>
<g mask="url(#mask14_2985_13870)">
<path d="M201.365 413.893V412.979C201.365 412.684 201.601 412.448 201.896 412.448H211.277C211.572 412.448 211.808 412.684 211.808 412.979V413.893C211.808 414.188 211.572 414.424 211.277 414.424H201.896C201.601 414.424 201.365 414.188 201.365 413.893Z" fill="white"/>
</g>
</g>
<g clip-path="url(#clip1_2985_13870)">
<path fill-rule="evenodd" clip-rule="evenodd" d="M364.94 366.991H394.075C394.377 366.991 394.656 366.829 394.795 366.573C394.934 366.318 394.934 365.993 394.772 365.738L393.681 363.973C392.914 362.743 391.591 362 390.152 362H368.863C367.424 362 366.101 362.743 365.335 363.95L364.243 365.714C364.081 365.97 364.058 366.295 364.22 366.573C364.36 366.829 364.638 366.991 364.94 366.991Z" fill="#FF0032"/>
<path fill-rule="evenodd" clip-rule="evenodd" d="M395.321 375.326H381.996C381.531 375.326 381.16 374.954 381.16 374.49C381.16 374.026 381.531 373.654 381.996 373.654H395.321C395.786 373.654 396.157 374.026 396.157 374.49C396.157 374.954 395.786 375.326 395.321 375.326ZM364.515 375.326C363.609 375.326 362.843 374.583 362.843 373.654C362.843 372.749 363.586 371.983 364.515 371.983C365.42 371.983 366.186 372.726 366.186 373.654C366.186 374.56 365.42 375.326 364.515 375.326ZM396.157 368.663H362.843C360.986 368.663 359.5 370.149 359.5 372.006V375.349C359.5 377.183 360.986 378.669 362.843 378.669H396.157C397.991 378.669 399.5 377.183 399.5 375.349V372.006C399.5 370.149 397.991 368.663 396.157 368.663Z" fill="#FF0032"/>
</g>
<path d="M336.294 386.008H338.618L334.124 390.656L338.884 395.668H336.364L332.402 391.538H331.03V395.668H329.07V386.008H331.03V389.942H332.472L336.294 386.008ZM339.826 388.64H341.632V389.83C342.206 388.878 343.242 388.458 344.712 388.458C347.064 388.458 348.422 389.508 348.422 392.154C348.422 394.786 347.078 395.836 344.712 395.836C343.284 395.836 342.276 395.458 341.688 394.59V398.468H339.826V388.64ZM346.546 392.588V391.692C346.546 390.25 345.692 389.746 344.11 389.746C342.542 389.746 341.73 390.236 341.688 391.594V392.588C341.688 394.002 342.528 394.548 344.11 394.548C345.692 394.548 346.546 394.058 346.546 392.588ZM349.944 388.64H351.792V393.736L355.824 388.64H357.868V395.668H356.02V390.572L352.002 395.668H349.944V388.64ZM359.801 388.64H367.431V395.668H365.569V390.012H361.663V395.668H359.801V388.64ZM371.528 390.012H368.616V388.64H376.288V390.012H373.39V395.668H371.528V390.012ZM383.547 392.56V391.706C383.547 390.264 382.721 389.746 381.125 389.746C379.515 389.746 378.689 390.264 378.689 391.706V392.574C378.689 394.016 379.515 394.548 381.125 394.548C382.721 394.548 383.547 394.016 383.547 392.56ZM376.813 392.154C376.813 389.396 378.325 388.458 381.125 388.458C383.925 388.458 385.423 389.396 385.423 392.154C385.423 394.94 383.925 395.836 381.125 395.836C378.325 395.836 376.813 394.94 376.813 392.154ZM386.953 388.64H388.815V394.296H391.839V388.64H393.701V394.296H396.725V388.64H398.587V395.668H386.953V388.64ZM399.788 395.668V394.114H399.984C400.908 394.114 401.202 393.694 401.202 391.692V388.64H408.02V395.668H406.158V390.012H402.91V391.734C402.91 394.828 402.266 395.668 400.18 395.668H399.788ZM409.949 388.64H411.811V391.398H413.155C413.421 389.2 414.891 388.458 417.341 388.458C420.057 388.458 421.555 389.368 421.555 392.154C421.555 394.954 420.057 395.836 417.341 395.836C414.821 395.836 413.337 395.08 413.141 392.742H411.811V395.668H409.949V388.64ZM419.679 392.588V391.72C419.679 390.222 418.853 389.746 417.341 389.746C415.815 389.746 414.989 390.222 414.989 391.72V392.588C414.989 394.072 415.815 394.548 417.341 394.548C418.853 394.548 419.679 394.072 419.679 392.588ZM422.528 393.554H424.404C424.502 394.338 425.272 394.646 426.574 394.646C427.988 394.646 428.59 394.38 428.59 393.68V393.484C428.59 392.882 428.086 392.588 426.994 392.588H425.412V391.454H426.938C428.002 391.454 428.422 391.202 428.422 390.642V390.46C428.422 389.886 427.904 389.662 426.588 389.662C425.258 389.662 424.614 389.956 424.488 390.642H422.612C422.766 389.06 424.32 388.458 426.574 388.458C428.954 388.458 430.284 389.046 430.284 390.404C430.284 391.104 429.948 391.678 428.828 391.93C429.92 392.168 430.466 392.784 430.466 393.638C430.466 395.15 429.206 395.836 426.574 395.836C424.11 395.836 422.682 395.192 422.528 393.554Z" fill="#FF0032"/>
<path d="M379 353V319C379 296.909 361.091 279 339 279H41C18.9086 279 1 296.909 1 319V431C1 453.091 18.9086 471 41 471H339C361.091 471 379 453.091 379 431V409" stroke="#8D8B8B" stroke-width="2"/>
<rect x="1" y="42" width="378" height="192" rx="40" fill="white" fill-opacity="0.1"/>
<path d="M122.384 78.2L135.864 78.2V92H133.064V80.48L125.184 80.48V92H122.384V78.2ZM137.746 89.54H138.166C140.066 89.54 140.366 88.02 140.366 84V78.2H152.366V92H149.566V80.48H142.966V84C142.966 89.9 142.186 92 138.566 92H137.746V89.54ZM168.39 85.78V84.36C168.39 81.32 166.59 80.14 163.03 80.14C159.45 80.14 157.67 81.32 157.67 84.36V85.78C157.67 88.86 159.45 90.06 163.03 90.06C166.59 90.06 168.39 88.88 168.39 85.78ZM154.85 85.04C154.85 79.8 157.69 77.96 163.03 77.96C168.37 77.96 171.21 79.8 171.21 85.04C171.21 90.36 168.37 92.24 163.03 92.24C157.69 92.24 154.85 90.36 154.85 85.04ZM173.693 78.2H176.493V89.72H182.233V78.2H185.033V89.72H190.773V78.2H193.573V89.72H195.393V95H192.793V92H173.693V78.2ZM202.102 78.2H205.942L212.022 92H209.102L207.562 88.46H200.182L198.642 92H196.002L202.102 78.2ZM203.862 80.02L201.082 86.4H206.662L203.862 80.02ZM212.353 95V89.72H213.933C214.593 88.72 215.173 86.8 215.173 83.26V78.2H227.633V89.72H229.493V95H226.893V92H214.953V95H212.353ZM224.833 80.48H217.773V83.26C217.773 86.8 217.293 88.74 216.733 89.72H224.833V80.48ZM241.825 78.2H245.145L238.725 84.84L245.525 92H241.925L236.265 86.1H234.305V92H231.505V78.2H234.305V83.82H236.365L241.825 78.2ZM251.692 78.2H255.532L261.612 92H258.692L257.152 88.46H249.772L248.232 92H245.592L251.692 78.2ZM253.452 80.02L250.672 86.4H256.252L253.452 80.02ZM113.82 113.04H116.64C116.9 114.6 118.42 115.14 121.02 115.14C123.8 115.14 125.04 114.52 125.04 113.2V112.72C125.04 111.56 124.02 110.96 122.12 110.96H118.38V108.92H122.12C123.76 108.92 124.66 108.3 124.66 107.24V106.82C124.66 105.56 123.5 105.06 120.94 105.06C118.56 105.06 117.06 105.5 116.8 107H113.98C114.26 104.1 116.78 102.96 120.94 102.96C125.5 102.96 127.5 104.2 127.5 106.68C127.5 108.28 126.48 109.38 124.82 109.76C126.7 110.12 127.86 111.22 127.86 112.96C127.86 115.82 125.74 117.24 121.02 117.24C116.7 117.24 114.12 116.06 113.82 113.04ZM134.612 103.2L138.452 103.2L144.532 117H141.612L140.072 113.46H132.692L131.152 117H128.512L134.612 103.2ZM136.372 105.02L133.592 111.4H139.172L136.372 105.02ZM156.503 103.2H159.823L153.403 109.84L160.203 117H156.603L150.943 111.1H148.983V117L146.183 117V103.2H148.983V108.82H151.043L156.503 103.2ZM166.37 103.2H170.21L176.29 117H173.37L171.83 113.46H164.45L162.91 117H160.27L166.37 103.2ZM168.13 105.02L165.35 111.4H170.93L168.13 105.02ZM176.73 113.04H179.55C179.81 114.6 181.33 115.14 183.93 115.14C186.71 115.14 187.95 114.52 187.95 113.2V112.72C187.95 111.56 186.93 110.96 185.03 110.96H181.29V108.92H185.03C186.67 108.92 187.57 108.3 187.57 107.24V106.82C187.57 105.56 186.41 105.06 183.85 105.06C181.47 105.06 179.97 105.5 179.71 107H176.89C177.17 104.1 179.69 102.96 183.85 102.96C188.41 102.96 190.41 104.2 190.41 106.68C190.41 108.28 189.39 109.38 187.73 109.76C189.61 110.12 190.77 111.22 190.77 112.96C190.77 115.82 188.65 117.24 183.93 117.24C179.61 117.24 177.03 116.06 176.73 113.04ZM203.178 111.68C202.098 111.78 200.618 111.86 199.298 111.86C194.258 111.84 192.498 110.48 192.498 107.02V103.2H195.278V106.64C195.278 109.12 196.678 109.6 199.618 109.6C200.718 109.6 202.018 109.54 203.178 109.42V103.2L205.958 103.2V117H203.178V111.68ZM220.354 106.64L212.094 117H209.074V103.2H211.874V113.56L220.134 103.2H223.134V117H220.354V106.64ZM236.581 103.2H239.901L233.481 109.84L240.281 117H236.681L231.021 111.1H229.061V117H226.261V103.2H229.061V108.82H231.121L236.581 103.2ZM246.448 103.2H250.288L256.368 117H253.448L251.908 113.46H244.528L242.988 117H240.348L246.448 103.2ZM248.208 105.02L245.428 111.4H251.008L248.208 105.02ZM261.258 105.28L264.498 103.2H267.298V117H264.498V105.66L261.258 107.78V105.28Z" fill="white"/>
<g clip-path="url(#clip2_2985_13870)">
<mask id="mask15_2985_13870" style="mask-type:luminance" maskUnits="userSpaceOnUse" x="160" y="133" width="62" height="69">
<path d="M221.803 133.999H160.205V201.999H221.803V133.999Z" fill="white"/>
</mask>
<g mask="url(#mask15_2985_13870)">
<path d="M216.309 198.961H213.949V162.851H199.139V198.961H196.779V162.055C196.779 161.199 197.458 160.55 198.284 160.55H214.804C215.63 160.55 216.309 161.229 216.309 162.055V198.961Z" fill="white"/>
</g>
<mask id="mask16_2985_13870" style="mask-type:luminance" maskUnits="userSpaceOnUse" x="160" y="133" width="62" height="69">
<path d="M221.803 133.999H160.205V201.999H221.803V133.999Z" fill="white"/>
</mask>
<g mask="url(#mask16_2985_13870)">
<path d="M216.309 198.961H213.949V162.851H199.139V198.961H196.779V162.055C196.779 161.199 197.458 160.55 198.284 160.55H214.804C215.63 160.55 216.309 161.229 216.309 162.055V198.961Z" stroke="white" stroke-width="0.177597" stroke-miterlimit="10"/>
</g>
<mask id="mask17_2985_13870" style="mask-type:luminance" maskUnits="userSpaceOnUse" x="160" y="133" width="62" height="69">
<path d="M221.803 133.999H160.205V201.999H221.803V133.999Z" fill="white"/>
</mask>
<g mask="url(#mask17_2985_13870)">
<path d="M212.04 162.438H201.922V150.608C201.922 150.018 202.453 149.575 203.102 149.575H210.86C211.509 149.575 212.04 150.047 212.04 150.608V162.438ZM203.751 160.845H210.211V151.139H203.751V160.845Z" fill="white"/>
</g>
<mask id="mask18_2985_13870" style="mask-type:luminance" maskUnits="userSpaceOnUse" x="160" y="133" width="62" height="69">
<path d="M221.803 133.999H160.205V201.999H221.803V133.999Z" fill="white"/>
</mask>
<g mask="url(#mask18_2985_13870)">
<path d="M212.04 162.438H201.922V150.608C201.922 150.018 202.453 149.575 203.102 149.575H210.86C211.509 149.575 212.04 150.047 212.04 150.608V162.438ZM203.751 160.845H210.211V151.139H203.751V160.845Z" stroke="white" stroke-width="0.177597" stroke-miterlimit="10"/>
</g>
<mask id="mask19_2985_13870" style="mask-type:luminance" maskUnits="userSpaceOnUse" x="160" y="133" width="62" height="69">
<path d="M221.803 133.999H160.205V201.999H221.803V133.999Z" fill="white"/>
</mask>
<g mask="url(#mask19_2985_13870)">
<path d="M206.961 150.549C206.636 150.549 206.371 150.018 206.371 149.369V135.297C206.371 134.648 206.636 134.117 206.961 134.117C207.286 134.117 207.551 134.648 207.551 135.297V149.34C207.551 150.018 207.286 150.549 206.961 150.549Z" fill="white"/>
</g>
<mask id="mask20_2985_13870" style="mask-type:luminance" maskUnits="userSpaceOnUse" x="160" y="133" width="62" height="69">
<path d="M221.803 133.999H160.205V201.999H221.803V133.999Z" fill="white"/>
</mask>
<g mask="url(#mask20_2985_13870)">
<path d="M206.961 150.549C206.636 150.549 206.371 150.018 206.371 149.369V135.297C206.371 134.648 206.636 134.117 206.961 134.117C207.286 134.117 207.551 134.648 207.551 135.297V149.34C207.551 150.018 207.286 150.549 206.961 150.549Z" stroke="white" stroke-width="0.236894" stroke-miterlimit="10"/>
</g>
<mask id="mask21_2985_13870" style="mask-type:luminance" maskUnits="userSpaceOnUse" x="160" y="133" width="62" height="69">
<path d="M221.803 133.999H160.205V201.999H221.803V133.999Z" fill="white"/>
</mask>
<g mask="url(#mask21_2985_13870)">
<path d="M199.125 198.99H196.764V136.448H166.231V198.99H163.871V135.622C163.871 134.796 164.549 134.117 165.375 134.117H197.59C198.417 134.117 199.095 134.796 199.095 135.622V198.99H199.125Z" fill="white"/>
</g>
<mask id="mask22_2985_13870" style="mask-type:luminance" maskUnits="userSpaceOnUse" x="160" y="133" width="62" height="69">
<path d="M221.803 133.999H160.205V201.999H221.803V133.999Z" fill="white"/>
</mask>
<g mask="url(#mask22_2985_13870)">
<path d="M199.125 198.99H196.764V136.448H166.231V198.99H163.871V135.622C163.871 134.796 164.549 134.117 165.375 134.117H197.59C198.416 134.117 199.095 134.796 199.095 135.622V198.99H199.125Z" stroke="white" stroke-width="0.177597" stroke-miterlimit="10"/>
</g>
<mask id="mask23_2985_13870" style="mask-type:luminance" maskUnits="userSpaceOnUse" x="160" y="133" width="62" height="69">
<path d="M221.803 133.999H160.205V201.999H221.803V133.999Z" fill="white"/>
</mask>
<g mask="url(#mask23_2985_13870)">
<path d="M216.405 196.718H163.775V199.078H216.405V196.718Z" fill="white"/>
</g>
<mask id="mask24_2985_13870" style="mask-type:luminance" maskUnits="userSpaceOnUse" x="160" y="133" width="62" height="69">
<path d="M221.803 133.999H160.205V201.999H221.803V133.999Z" fill="white"/>
</mask>
<g mask="url(#mask24_2985_13870)">
<path d="M161.031 201.173H220.977" stroke="white" stroke-width="1.65737" stroke-miterlimit="10" stroke-linecap="round" stroke-linejoin="round"/>
</g>
<mask id="mask25_2985_13870" style="mask-type:luminance" maskUnits="userSpaceOnUse" x="160" y="133" width="62" height="69">
<path d="M221.803 133.999H160.205V201.999H221.803V133.999Z" fill="white"/>
</mask>
<g mask="url(#mask25_2985_13870)">
<path d="M175.436 193.238H174.344C173.961 193.238 173.666 192.943 173.666 192.559V141.847C173.666 141.463 173.961 141.168 174.344 141.168H175.436C175.819 141.168 176.114 141.463 176.114 141.847V192.559C176.114 192.943 175.819 193.238 175.436 193.238Z" fill="white"/>
</g>
<mask id="mask26_2985_13870" style="mask-type:luminance" maskUnits="userSpaceOnUse" x="160" y="133" width="62" height="69">
<path d="M221.803 133.999H160.205V201.999H221.803V133.999Z" fill="white"/>
</mask>
<g mask="url(#mask26_2985_13870)">
<path d="M182.028 193.238H180.936C180.552 193.238 180.257 192.943 180.257 192.559V141.847C180.257 141.463 180.552 141.168 180.936 141.168H182.028C182.411 141.168 182.706 141.463 182.706 141.847V192.559C182.706 192.943 182.411 193.238 182.028 193.238Z" fill="white"/>
</g>
<mask id="mask27_2985_13870" style="mask-type:luminance" maskUnits="userSpaceOnUse" x="160" y="133" width="62" height="69">
<path d="M221.803 133.999H160.205V201.999H221.803V133.999Z" fill="white"/>
</mask>
<g mask="url(#mask27_2985_13870)">
<path d="M188.641 193.238H187.549C187.166 193.238 186.871 192.943 186.871 192.559V141.847C186.871 141.463 187.166 141.168 187.549 141.168H188.641C189.024 141.168 189.319 141.463 189.319 141.847V192.559C189.319 192.943 189.024 193.238 188.641 193.238Z" fill="white"/>
</g>
<mask id="mask28_2985_13870" style="mask-type:luminance" maskUnits="userSpaceOnUse" x="160" y="133" width="62" height="69">
<path d="M221.803 133.999H160.205V201.999H221.803V133.999Z" fill="white"/>
</mask>
<g mask="url(#mask28_2985_13870)">
<path d="M201.365 170.315V169.4C201.365 169.105 201.601 168.869 201.896 168.869H211.277C211.572 168.869 211.808 169.105 211.808 169.4V170.315C211.808 170.61 211.572 170.846 211.277 170.846H201.896C201.601 170.846 201.365 170.61 201.365 170.315Z" fill="white"/>
</g>
<mask id="mask29_2985_13870" style="mask-type:luminance" maskUnits="userSpaceOnUse" x="160" y="133" width="62" height="69">
<path d="M221.803 133.999H160.205V201.999H221.803V133.999Z" fill="white"/>
</mask>
<g mask="url(#mask29_2985_13870)">
<path d="M201.365 176.893V175.979C201.365 175.684 201.601 175.448 201.896 175.448H211.277C211.572 175.448 211.808 175.684 211.808 175.979V176.893C211.808 177.188 211.572 177.424 211.277 177.424H201.896C201.601 177.424 201.365 177.188 201.365 176.893Z" fill="white"/>
</g>
</g>
<g clip-path="url(#clip3_2985_13870)">
<path fill-rule="evenodd" clip-rule="evenodd" d="M364.94 129.991H394.075C394.377 129.991 394.656 129.829 394.795 129.573C394.934 129.318 394.934 128.993 394.772 128.738L393.681 126.973C392.914 125.743 391.591 125 390.152 125H368.863C367.424 125 366.101 125.743 365.335 126.95L364.243 128.714C364.081 128.97 364.058 129.295 364.22 129.573C364.36 129.829 364.638 129.991 364.94 129.991Z" fill="#FF0032"/>
<path fill-rule="evenodd" clip-rule="evenodd" d="M395.321 138.326H381.996C381.531 138.326 381.16 137.954 381.16 137.49C381.16 137.026 381.531 136.654 381.996 136.654H395.321C395.786 136.654 396.157 137.026 396.157 137.49C396.157 137.954 395.786 138.326 395.321 138.326ZM364.515 138.326C363.609 138.326 362.843 137.583 362.843 136.654C362.843 135.749 363.586 134.983 364.515 134.983C365.42 134.983 366.186 135.726 366.186 136.654C366.186 137.56 365.42 138.326 364.515 138.326ZM396.157 131.663H362.843C360.986 131.663 359.5 133.149 359.5 135.006V138.349C359.5 140.183 360.986 141.669 362.843 141.669H396.157C397.991 141.669 399.5 140.183 399.5 138.349V135.006C399.5 133.149 397.991 131.663 396.157 131.663Z" fill="#FF0032"/>
</g>
<path d="M336.294 149.008H338.618L334.124 153.656L338.884 158.668H336.364L332.402 154.538H331.03V158.668H329.07V149.008H331.03V152.942H332.472L336.294 149.008ZM339.826 151.64H341.632V152.83C342.206 151.878 343.242 151.458 344.712 151.458C347.064 151.458 348.422 152.508 348.422 155.154C348.422 157.786 347.078 158.836 344.712 158.836C343.284 158.836 342.276 158.458 341.688 157.59V161.468H339.826V151.64ZM346.546 155.588V154.692C346.546 153.25 345.692 152.746 344.11 152.746C342.542 152.746 341.73 153.236 341.688 154.594V155.588C341.688 157.002 342.528 157.548 344.11 157.548C345.692 157.548 346.546 157.058 346.546 155.588ZM349.944 151.64H351.792V156.736L355.824 151.64H357.868V158.668H356.02V153.572L352.002 158.668H349.944V151.64ZM359.801 151.64H367.431V158.668H365.569V153.012H361.663V158.668H359.801V151.64ZM371.528 153.012H368.616V151.64H376.288V153.012H373.39V158.668H371.528V153.012ZM383.547 155.56V154.706C383.547 153.264 382.721 152.746 381.125 152.746C379.515 152.746 378.689 153.264 378.689 154.706V155.574C378.689 157.016 379.515 157.548 381.125 157.548C382.721 157.548 383.547 157.016 383.547 155.56ZM376.813 155.154C376.813 152.396 378.325 151.458 381.125 151.458C383.925 151.458 385.423 152.396 385.423 155.154C385.423 157.94 383.925 158.836 381.125 158.836C378.325 158.836 376.813 157.94 376.813 155.154ZM386.953 151.64H388.815V157.296H391.839V151.64H393.701V157.296H396.725V151.64H398.587V158.668H386.953V151.64ZM399.788 158.668V157.114H399.984C400.908 157.114 401.202 156.694 401.202 154.692V151.64H408.02V158.668H406.158V153.012H402.91V154.734C402.91 157.828 402.266 158.668 400.18 158.668H399.788ZM409.949 151.64H411.811V154.398H413.155C413.421 152.2 414.891 151.458 417.341 151.458C420.057 151.458 421.555 152.368 421.555 155.154C421.555 157.954 420.057 158.836 417.341 158.836C414.821 158.836 413.337 158.08 413.141 155.742H411.811V158.668H409.949V151.64ZM419.679 155.588V154.72C419.679 153.222 418.853 152.746 417.341 152.746C415.815 152.746 414.989 153.222 414.989 154.72V155.588C414.989 157.072 415.815 157.548 417.341 157.548C418.853 157.548 419.679 157.072 419.679 155.588ZM422.528 156.554H424.404C424.502 157.338 425.272 157.646 426.574 157.646C427.988 157.646 428.59 157.38 428.59 156.68V156.484C428.59 155.882 428.086 155.588 426.994 155.588H425.412V154.454H426.938C428.002 154.454 428.422 154.202 428.422 153.642V153.46C428.422 152.886 427.904 152.662 426.588 152.662C425.258 152.662 424.614 152.956 424.488 153.642H422.612C422.766 152.06 424.32 151.458 426.574 151.458C428.954 151.458 430.284 152.046 430.284 153.404C430.284 154.104 429.948 154.678 428.828 154.93C429.92 155.168 430.466 155.784 430.466 156.638C430.466 158.15 429.206 158.836 426.574 158.836C424.11 158.836 422.682 158.192 422.528 156.554Z" fill="#FF0032"/>
<path d="M379 116V82C379 59.9086 361.091 42 339 42H41C18.9086 42 1 59.9086 1 82V194C1 216.091 18.9086 234 41 234H339C361.091 234 379 216.091 379 194V172" stroke="#8D8B8B" stroke-width="2"/>
<path d="M345.85 250.228H347.824C348.006 251.32 349.07 251.698 350.89 251.698C352.836 251.698 353.704 251.264 353.704 250.34V250.004C353.704 249.192 352.99 248.772 351.66 248.772H349.042V247.344H351.66C352.808 247.344 353.438 246.91 353.438 246.168V245.874C353.438 244.992 352.626 244.642 350.834 244.642C349.168 244.642 348.118 244.95 347.936 246H345.962C346.158 243.97 347.922 243.172 350.834 243.172C354.026 243.172 355.426 244.04 355.426 245.776C355.426 246.896 354.712 247.666 353.55 247.932C354.866 248.184 355.678 248.954 355.678 250.172C355.678 252.174 354.194 253.168 350.89 253.168C347.866 253.168 346.06 252.342 345.85 250.228ZM356.83 251.068C356.83 249.738 357.656 248.996 359.882 248.898L362.92 248.786V248.562C362.92 247.442 362.276 247.022 360.946 247.022C359.77 247.022 359.126 247.302 358.944 248.058H357.082C357.306 246.56 358.538 245.79 360.932 245.79C363.508 245.79 364.768 246.644 364.768 248.562V253H362.99V251.796C362.458 252.664 361.352 253.168 359.742 253.168C357.684 253.168 356.83 252.37 356.83 251.068ZM360.302 251.95C361.772 251.95 362.92 251.432 362.92 250.088V249.808L360.288 249.906C359.196 249.962 358.706 250.2 358.706 250.872V250.998C358.706 251.642 359.182 251.95 360.302 251.95ZM366.614 245.972H368.476V251.628H371.5V245.972H373.362V251.628H376.386V245.972H378.248V251.628H379.466V254.96H377.744V253H366.614V245.972ZM380.655 245.972H382.503V251.068L386.535 245.972H388.579V253H386.731V247.904L382.713 253H380.655V245.972ZM390.513 245.972H392.375V251.628H395.399V245.972H397.261V251.628H400.285V245.972H402.147V251.628H403.365V254.96H401.643V253H390.513V245.972ZM404.039 249.486C404.039 246.868 405.495 245.79 408.113 245.79C410.717 245.79 412.201 246.77 412.201 249.262V249.654H405.873V249.934C405.873 251.334 406.643 251.936 408.113 251.936C409.373 251.936 410.073 251.6 410.311 250.844H412.145C411.753 252.454 410.367 253.168 408.113 253.168C405.495 253.168 404.039 252.146 404.039 249.486ZM408.113 247.008C406.797 247.008 405.943 247.47 405.873 248.66H410.367C410.311 247.47 409.583 247.008 408.113 247.008ZM413.7 245.972H415.562V248.744H419.622V245.972H421.484V253H419.622V250.116H415.562V253H413.7V245.972ZM423.421 245.972H425.283V248.744H429.343V245.972H431.205V253H429.343V250.116H425.283V253H423.421V245.972ZM433.142 253V245.972H435.004V248.212L438.126 248.212C439.862 248.212 440.744 249.038 440.744 250.564C440.744 252.132 439.862 253 438.126 253L433.142 253ZM438.868 250.718V250.396C438.868 249.808 438.518 249.472 437.72 249.472L435.004 249.472V251.74L437.72 251.74C438.518 251.74 438.868 251.362 438.868 250.718ZM441.598 245.972H443.46V253H441.598V245.972ZM444.972 249.486C444.972 246.868 446.428 245.79 449.046 245.79C451.65 245.79 453.134 246.77 453.134 249.262V249.654H446.806V249.934C446.806 251.334 447.576 251.936 449.046 251.936C450.306 251.936 451.006 251.6 451.244 250.844H453.078C452.686 252.454 451.3 253.168 449.046 253.168C446.428 253.168 444.972 252.146 444.972 249.486ZM449.046 247.008C447.73 247.008 446.876 247.47 446.806 248.66H451.3C451.244 247.47 450.516 247.008 449.046 247.008ZM376.631 263.972H378.731L375.497 267.318L379.095 271H376.771L373.971 268.13H372.851V271H370.989V263.972H372.851V266.758H373.929L376.631 263.972ZM379.375 269.068C379.375 267.738 380.201 266.996 382.427 266.898L385.465 266.786V266.562C385.465 265.442 384.821 265.022 383.491 265.022C382.315 265.022 381.671 265.302 381.489 266.058H379.627C379.851 264.56 381.083 263.79 383.477 263.79C386.053 263.79 387.313 264.644 387.313 266.562V271H385.535V269.796C385.003 270.664 383.897 271.168 382.287 271.168C380.229 271.168 379.375 270.37 379.375 269.068ZM382.847 269.95C384.317 269.95 385.465 269.432 385.465 268.088V267.808L382.833 267.906C381.741 267.962 381.251 268.2 381.251 268.872V268.998C381.251 269.642 381.727 269.95 382.847 269.95ZM389.159 263.972H391.021V266.744H395.081V263.972H396.943V271H395.081V268.116H391.021V271H389.159V263.972ZM398.488 269.068C398.488 267.738 399.314 266.996 401.54 266.898L404.578 266.786V266.562C404.578 265.442 403.934 265.022 402.604 265.022C401.428 265.022 400.784 265.302 400.602 266.058H398.74C398.964 264.56 400.196 263.79 402.59 263.79C405.166 263.79 406.426 264.644 406.426 266.562V271H404.648V269.796C404.116 270.664 403.01 271.168 401.4 271.168C399.342 271.168 398.488 270.37 398.488 269.068ZM401.96 269.95C403.43 269.95 404.578 269.432 404.578 268.088V267.808L401.946 267.906C400.854 267.962 400.364 268.2 400.364 268.872V268.998C400.364 269.642 400.84 269.95 401.96 269.95ZM407.545 271V269.446H407.741C408.665 269.446 408.959 269.026 408.959 267.024V263.972H415.777V271H413.915V265.344H410.667V267.066C410.667 270.16 410.023 271 407.937 271H407.545ZM417.706 271V263.972H419.568V266.212H422.69C424.426 266.212 425.308 267.038 425.308 268.564C425.308 270.132 424.426 271 422.69 271H417.706ZM423.432 268.718V268.396C423.432 267.808 423.082 267.472 422.284 267.472H419.568V269.74H422.284C423.082 269.74 423.432 269.362 423.432 268.718ZM426.162 263.972H428.024V271H426.162V263.972Z" fill="white"/>
<rect x="535" y="51" width="216" height="420" rx="40" fill="white" fill-opacity="0.1"/>
<rect x="535" y="51" width="216" height="420" rx="40" stroke="#8D8B8B" stroke-width="2"/>
<path d="M548.061 207.652C548.061 202.412 550.841 200.492 555.721 200.492C560.121 200.492 562.601 201.812 563.001 205.212H560.181C559.821 203.232 558.361 202.672 555.721 202.672C552.781 202.672 550.881 203.652 550.881 206.912V208.312C550.881 211.512 552.741 212.592 555.721 212.592C558.261 212.592 559.741 212.112 560.201 210.212H563.021C562.521 213.472 560.081 214.772 555.721 214.772C550.841 214.772 548.061 212.912 548.061 207.652ZM565.263 200.732H577.103V202.912H568.063V206.432H575.023V208.532H568.063V212.352H577.183V214.532H565.263V200.732ZM583.98 203.012H578.34V200.732H592.42V203.012H586.78V214.532H583.98V203.012ZM594.306 200.732H597.106V205.352H602.906C606.166 205.352 607.646 207.052 607.646 209.952C607.646 212.812 606.166 214.532 602.906 214.532H594.306V200.732ZM604.826 210.252V209.612C604.826 208.432 604.206 207.572 602.486 207.572H597.106V212.312H602.486C604.206 212.312 604.826 211.472 604.826 210.252ZM614.033 200.732L627.513 200.732V214.532H624.713V203.012H616.833V214.532H614.033V200.732ZM630.634 200.732H642.474V202.912H633.434V206.432H640.394V208.532H633.434V212.352H642.554V214.532L630.634 214.532V200.732ZM644.951 200.732H653.651C656.871 200.732 658.331 202.392 658.331 205.192C658.331 208.032 656.871 209.692 653.651 209.692H647.751V214.532H644.951V200.732ZM655.511 205.512V204.932C655.511 203.752 654.851 202.912 653.271 202.912H647.751V207.512H653.271C654.851 207.512 655.511 206.712 655.511 205.512ZM660.498 200.732H672.338V202.912H663.298V206.432H670.258V208.532H663.298V212.352H672.418V214.532H660.498V200.732ZM673.494 217.532V212.252H675.074C675.734 211.252 676.314 209.332 676.314 205.792V200.732H688.774V212.252H690.634V217.532H688.034V214.532H676.094V217.532H673.494ZM685.974 203.012H678.914V205.792C678.914 209.332 678.434 211.272 677.874 212.252H685.974V203.012ZM697.286 200.732H701.126L707.206 214.532H704.286L702.746 210.992H695.366L693.826 214.532H691.186L697.286 200.732ZM699.046 202.552L696.266 208.932H701.846L699.046 202.552ZM717.336 209.212C716.256 209.312 714.776 209.392 713.456 209.392C708.416 209.372 706.656 208.012 706.656 204.552V200.732H709.436V204.172C709.436 206.652 710.836 207.132 713.776 207.132C714.876 207.132 716.176 207.072 717.336 206.952V200.732H720.116V214.532H717.336V209.212ZM734.512 204.172L726.252 214.532H723.232V200.732H726.032V211.092L734.292 200.732H737.292V214.532H734.512V204.172ZM591.013 242.532V237.252H592.593C593.253 236.252 593.833 234.332 593.833 230.792V225.732H606.293V237.252H608.153V242.532H605.553V239.532H593.613V242.532H591.013ZM603.493 228.012H596.433V230.792C596.433 234.332 595.953 236.272 595.393 237.252H603.493V228.012ZM614.805 225.732H618.645L624.725 239.532H621.805L620.265 235.992H612.885L611.345 239.532H608.705L614.805 225.732ZM616.565 227.552L613.785 233.932H619.365L616.565 227.552ZM626.376 225.732H629.176V231.312H637.356V225.732H640.156V239.532H637.356V233.592H629.176V239.532H626.376V225.732ZM643.251 225.732H646.051V231.312H654.231V225.732H657.031V239.532H654.231V233.592H646.051V239.532L643.251 239.532V225.732ZM660.126 225.732H662.926V230.352H668.726C671.986 230.352 673.466 232.052 673.466 234.952C673.466 237.812 671.986 239.532 668.726 239.532H660.126V225.732ZM670.646 235.252V234.612C670.646 233.432 670.026 232.572 668.306 232.572H662.926V237.312H668.306C670.026 237.312 670.646 236.472 670.646 235.252ZM675.126 225.732H677.926V239.532H675.126V225.732ZM682.584 239.532H679.524L685.624 232.592L679.604 225.732H682.964L687.444 230.832L691.904 225.732H694.984L689.044 232.492L695.244 239.532H691.884L687.224 234.252L682.584 239.532Z" fill="white"/>
<g clip-path="url(#clip4_2985_13870)">
<mask id="mask30_2985_13870" style="mask-type:luminance" maskUnits="userSpaceOnUse" x="608" y="256" width="69" height="70">
<path d="M676.99 256.532H608.99V325.468H676.99V256.532Z" fill="white"/>
</mask>
<g mask="url(#mask30_2985_13870)">
<path d="M676.074 291C676.074 309.525 661.27 324.532 642.998 324.532C624.726 324.532 609.922 309.525 609.922 291C609.922 272.475 624.726 257.468 642.998 257.468C661.27 257.468 676.074 272.475 676.074 291Z" stroke="white" stroke-width="1.84792" stroke-miterlimit="10"/>
</g>
<mask id="mask31_2985_13870" style="mask-type:luminance" maskUnits="userSpaceOnUse" x="608" y="256" width="69" height="70">
<path d="M676.99 256.532H608.99V325.468H676.99V256.532Z" fill="white"/>
</mask>
<g mask="url(#mask31_2985_13870)">
<path d="M643.053 323.494C653.773 323.494 662.463 308.957 662.463 291.025C662.463 273.092 653.773 258.556 643.053 258.556C632.333 258.556 623.642 273.092 623.642 291.025C623.642 308.957 632.333 323.494 643.053 323.494Z" stroke="white" stroke-width="1.84792" stroke-miterlimit="10"/>
</g>
<mask id="mask32_2985_13870" style="mask-type:luminance" maskUnits="userSpaceOnUse" x="608" y="256" width="69" height="70">
<path d="M676.99 256.532H608.99V325.468H676.99V256.532Z" fill="white"/>
</mask>
<g mask="url(#mask32_2985_13870)">
<path d="M610.258 291.025H676.081" stroke="white" stroke-width="1.84792" stroke-miterlimit="10"/>
</g>
<mask id="mask33_2985_13870" style="mask-type:luminance" maskUnits="userSpaceOnUse" x="608" y="256" width="69" height="70">
<path d="M676.99 256.532H608.99V325.468H676.99V256.532Z" fill="white"/>
</mask>
<g mask="url(#mask33_2985_13870)">
<path d="M643.177 323.722V257.848" stroke="white" stroke-width="1.84792" stroke-miterlimit="10"/>
</g>
<mask id="mask34_2985_13870" style="mask-type:luminance" maskUnits="userSpaceOnUse" x="608" y="256" width="69" height="70">
<path d="M676.99 256.532H608.99V325.468H676.99V256.532Z" fill="white"/>
</mask>
<g mask="url(#mask34_2985_13870)">
<path d="M617.59 270.678C620.146 272.602 623.031 274.019 626.017 275.133C629.408 276.398 632.951 277.182 636.519 277.663C640.391 278.169 644.314 278.22 648.186 277.866C651.856 277.537 655.525 276.828 659.043 275.689C662.13 274.677 665.142 273.336 667.85 271.514C668.153 271.311 668.457 271.109 668.735 270.881C669.14 270.577 669.393 270.02 669.09 269.565C668.837 269.16 668.204 268.907 667.774 269.211C666.559 270.096 665.294 270.856 663.952 271.564C663.244 271.919 662.535 272.273 661.801 272.577C661.7 272.627 661.624 272.652 661.523 272.703C661.472 272.728 661.346 272.779 661.548 272.703C661.498 272.728 661.447 272.754 661.396 272.754C661.219 272.83 661.017 272.905 660.84 272.981C660.46 273.133 660.08 273.285 659.675 273.412C658.056 273.994 656.385 274.475 654.715 274.879C653.829 275.082 652.944 275.259 652.058 275.411C651.602 275.487 651.147 275.563 650.691 275.639C650.565 275.664 650.464 275.664 650.337 275.689C650.287 275.689 650.211 275.715 650.16 275.715C650.211 275.715 650.362 275.689 650.16 275.715C649.932 275.74 649.704 275.765 649.477 275.79C645.655 276.246 641.783 276.271 637.962 275.892C637.506 275.841 637.026 275.79 636.57 275.74C636.444 275.715 636.342 275.715 636.216 275.689C636.418 275.715 636.089 275.664 636.039 275.664C635.811 275.639 635.583 275.588 635.355 275.563C634.47 275.411 633.559 275.259 632.673 275.057C631.028 274.702 629.358 274.247 627.713 273.69C626.928 273.437 626.144 273.159 625.384 272.83C625.283 272.804 625.207 272.754 625.106 272.728C625.055 272.703 624.929 272.652 625.131 272.728C625.081 272.703 625.03 272.678 624.979 272.678C624.802 272.577 624.625 272.501 624.423 272.425C624.068 272.273 623.714 272.096 623.36 271.919C621.993 271.261 620.703 270.501 619.437 269.641C619.159 269.438 618.855 269.236 618.577 269.008C618.172 268.705 617.463 268.932 617.236 269.363C616.982 269.869 617.16 270.375 617.59 270.678Z" fill="white"/>
</g>
<mask id="mask35_2985_13870" style="mask-type:luminance" maskUnits="userSpaceOnUse" x="608" y="256" width="69" height="70">
<path d="M676.99 256.532H608.99V325.468H676.99V256.532Z" fill="white"/>
</mask>
<g mask="url(#mask35_2985_13870)">
<path d="M650.16 275.715C650.211 275.715 650.287 275.689 650.337 275.689C650.464 275.664 650.565 275.664 650.691 275.639C651.147 275.563 651.602 275.487 652.058 275.411C652.944 275.259 653.829 275.082 654.715 274.879C656.385 274.475 658.056 273.994 659.675 273.412C660.055 273.285 660.46 273.133 660.84 272.981C661.017 272.905 661.219 272.83 661.396 272.754C661.447 272.754 661.498 272.728 661.548 272.703C661.346 272.779 661.472 272.728 661.523 272.703C661.624 272.652 661.7 272.627 661.801 272.577C662.535 272.273 663.244 271.919 663.952 271.564C665.294 270.856 666.559 270.096 667.774 269.211C668.204 268.907 668.837 269.16 669.09 269.565C669.393 270.02 669.14 270.577 668.735 270.881C668.457 271.109 668.153 271.311 667.85 271.514C665.142 273.336 662.13 274.677 659.043 275.689C655.525 276.828 651.856 277.537 648.186 277.866C644.314 278.22 640.391 278.169 636.519 277.663C632.951 277.182 629.408 276.398 626.017 275.133C623.031 274.019 620.146 272.602 617.59 270.678C617.16 270.375 616.982 269.869 617.236 269.363C617.463 268.932 618.172 268.705 618.577 269.008C618.855 269.236 619.159 269.438 619.437 269.641C620.703 270.501 621.993 271.261 623.36 271.919C623.714 272.096 624.068 272.273 624.423 272.425C624.625 272.501 624.802 272.577 624.979 272.678C625.03 272.678 625.081 272.703 625.131 272.728C624.929 272.652 625.055 272.703 625.106 272.728C625.207 272.754 625.283 272.804 625.384 272.83C626.144 273.159 626.928 273.437 627.713 273.69C629.358 274.247 631.028 274.702 632.673 275.057C633.559 275.259 634.47 275.411 635.355 275.563C635.583 275.588 635.811 275.639 636.039 275.664C636.089 275.664 636.418 275.715 636.216 275.689C636.342 275.715 636.444 275.715 636.57 275.74C637.026 275.79 637.506 275.841 637.962 275.892C641.783 276.271 645.655 276.246 649.477 275.79C649.704 275.765 649.932 275.74 650.16 275.715ZM650.16 275.715C650.211 275.715 650.362 275.689 650.16 275.715Z" stroke="white" stroke-width="0.692907"/>
</g>
<mask id="mask36_2985_13870" style="mask-type:luminance" maskUnits="userSpaceOnUse" x="608" y="256" width="69" height="70">
<path d="M676.99 256.532H608.99V325.468H676.99V256.532Z" fill="white"/>
</mask>
<g mask="url(#mask36_2985_13870)">
<path d="M668.772 311.346C666.216 309.423 663.331 308.006 660.345 306.892C656.954 305.627 653.411 304.842 649.842 304.362C645.97 303.855 642.048 303.805 638.176 304.159C634.506 304.488 630.837 305.197 627.319 306.336C624.232 307.348 621.22 308.689 618.512 310.511C618.209 310.714 617.905 310.916 617.626 311.144C617.222 311.448 616.968 312.004 617.272 312.46C617.525 312.865 618.158 313.118 618.588 312.814C619.803 311.928 621.068 311.169 622.41 310.461C623.118 310.106 623.827 309.752 624.561 309.448C624.662 309.398 624.738 309.372 624.839 309.322C624.89 309.296 625.016 309.246 624.814 309.322C624.864 309.296 624.915 309.271 624.966 309.271C625.143 309.195 625.345 309.119 625.522 309.043C625.902 308.892 626.281 308.74 626.686 308.613C628.306 308.031 629.976 307.55 631.647 307.145C632.532 306.943 633.418 306.766 634.304 306.614C634.759 306.538 635.215 306.462 635.67 306.386C635.797 306.361 635.898 306.361 636.025 306.336C636.075 306.336 636.151 306.31 636.202 306.31C635.999 306.336 636.151 306.31 636.202 306.31C636.43 306.285 636.657 306.26 636.885 306.234C640.706 305.779 644.578 305.753 648.4 306.133C648.855 306.184 649.336 306.234 649.792 306.285C649.918 306.31 650.019 306.31 650.146 306.336C649.944 306.31 650.273 306.361 650.323 306.361C650.551 306.386 650.779 306.437 651.006 306.462C651.892 306.614 652.803 306.766 653.689 306.968C655.385 307.322 657.055 307.778 658.7 308.335C659.484 308.613 660.269 308.892 661.028 309.195C661.129 309.246 661.205 309.271 661.306 309.322C661.357 309.347 661.484 309.398 661.281 309.322C661.332 309.347 661.382 309.372 661.433 309.372C661.61 309.448 661.813 309.524 661.99 309.625C662.344 309.777 662.698 309.954 663.053 310.132C664.419 310.79 665.71 311.549 666.975 312.409C667.279 312.612 667.557 312.814 667.861 313.042C668.266 313.346 668.949 313.118 669.177 312.688C669.379 312.181 669.202 311.675 668.772 311.346Z" fill="white"/>
</g>
<mask id="mask37_2985_13870" style="mask-type:luminance" maskUnits="userSpaceOnUse" x="608" y="256" width="69" height="70">
<path d="M676.99 256.532H608.99V325.468H676.99V256.532Z" fill="white"/>
</mask>
<g mask="url(#mask37_2985_13870)">
<path d="M636.202 306.31C636.151 306.31 636.075 306.336 636.025 306.336C635.898 306.361 635.797 306.361 635.67 306.386C635.215 306.462 634.759 306.538 634.304 306.614C633.418 306.766 632.532 306.943 631.647 307.145C629.976 307.55 628.306 308.031 626.686 308.613C626.307 308.74 625.902 308.892 625.522 309.043C625.345 309.119 625.143 309.195 624.966 309.271C624.915 309.271 624.864 309.296 624.814 309.322C625.016 309.246 624.89 309.296 624.839 309.322C624.738 309.372 624.662 309.398 624.561 309.448C623.827 309.752 623.118 310.106 622.41 310.461C621.068 311.169 619.803 311.928 618.588 312.814C618.158 313.118 617.525 312.865 617.272 312.46C616.968 312.004 617.222 311.448 617.626 311.144C617.905 310.916 618.209 310.714 618.512 310.511C621.22 308.689 624.232 307.348 627.319 306.336C630.837 305.197 634.506 304.488 638.176 304.159C642.048 303.805 645.97 303.855 649.842 304.362C653.411 304.842 656.954 305.627 660.345 306.892C663.331 308.006 666.216 309.423 668.772 311.346C669.202 311.675 669.379 312.181 669.177 312.688C668.949 313.118 668.266 313.346 667.861 313.042C667.557 312.814 667.279 312.612 666.975 312.409C665.71 311.549 664.419 310.79 663.053 310.132C662.698 309.954 662.344 309.777 661.99 309.625C661.813 309.524 661.61 309.448 661.433 309.372C661.382 309.372 661.332 309.347 661.281 309.322C661.484 309.398 661.357 309.347 661.306 309.322C661.205 309.271 661.129 309.246 661.028 309.195C660.269 308.892 659.484 308.613 658.7 308.335C657.055 307.778 655.385 307.322 653.689 306.968C652.803 306.766 651.892 306.614 651.006 306.462C650.779 306.437 650.551 306.386 650.323 306.361C650.273 306.361 649.944 306.31 650.146 306.336C650.019 306.31 649.918 306.31 649.792 306.285C649.336 306.234 648.855 306.184 648.4 306.133C644.578 305.753 640.706 305.779 636.885 306.234C636.657 306.26 636.43 306.285 636.202 306.31ZM636.202 306.31C635.999 306.336 636.151 306.31 636.202 306.31Z" stroke="white" stroke-width="0.461853"/>
</g>
</g>
<rect x="906" y="51" width="427" height="420" rx="40" fill="url(#paint0_linear_2985_13870)"/>
<rect x="906" y="51" width="427" height="420" rx="40" stroke="#8D8B8B" stroke-width="2"/>
<rect x="936" y="130" width="174" height="311" rx="32" fill="white" fill-opacity="0.1"/>
<rect x="936" y="130" width="174" height="311" rx="32" stroke="#8D8B8B" stroke-width="2"/>
<g clip-path="url(#clip5_2985_13870)">
<mask id="mask38_2985_13870" style="mask-type:luminance" maskUnits="userSpaceOnUse" x="984" y="173" width="33" height="42">
<path d="M1016.98 173H984.984V214.007H1016.98V173Z" fill="white"/>
</mask>
<g mask="url(#mask38_2985_13870)">
<path d="M1012.82 190.436C1014.06 190.436 1015.09 191.437 1015.09 192.675V209.82C1015.09 211.058 1014.09 212.085 1012.82 212.085H989.172C987.934 212.085 986.907 211.084 986.907 209.82V192.701C986.907 191.463 987.908 190.462 989.172 190.462H1012.82V190.436ZM1012.82 188.513H989.172C986.854 188.513 984.984 190.383 984.984 192.701V209.847C984.984 212.164 986.854 214.034 989.172 214.034H1012.82C1015.14 214.034 1017.01 212.164 1017.01 209.847V192.701C1016.98 190.383 1015.11 188.513 1012.82 188.513Z" fill="white"/>
</g>
<mask id="mask39_2985_13870" style="mask-type:luminance" maskUnits="userSpaceOnUse" x="984" y="173" width="33" height="42">
<path d="M1016.98 173H984.984V214.007H1016.98V173Z" fill="white"/>
</mask>
<g mask="url(#mask39_2985_13870)">
<path d="M1010.47 189.382H991.266V183.614C991.266 178.32 995.559 174.027 1000.85 174.027C1006.15 174.027 1010.44 178.32 1010.44 183.614V189.382H1010.47Z" stroke="white" stroke-width="2.06538"/>
</g>
<mask id="mask40_2985_13870" style="mask-type:luminance" maskUnits="userSpaceOnUse" x="984" y="173" width="33" height="42">
<path d="M1016.98 173H984.984V214.007H1016.98V173Z" fill="white"/>
</mask>
<g mask="url(#mask40_2985_13870)">
<path d="M1000.79 207.159V202.708V207.159Z" stroke="white" stroke-width="2.63559" stroke-linecap="round" stroke-linejoin="round"/>
</g>
<mask id="mask41_2985_13870" style="mask-type:luminance" maskUnits="userSpaceOnUse" x="984" y="173" width="33" height="42">
<path d="M1016.98 173H984.984V214.007H1016.98V173Z" fill="white"/>
</mask>
<g mask="url(#mask41_2985_13870)">
<path d="M1003.66 201.419C1003.66 202.999 1002.37 204.289 1000.78 204.289C999.205 204.289 997.914 202.999 997.914 201.419C997.914 199.838 999.205 198.548 1000.78 198.548C1002.37 198.548 1003.66 199.812 1003.66 201.419Z" fill="white"/>
</g>
</g>
<g clip-path="url(#clip6_2985_13870)">
<mask id="mask42_2985_13870" style="mask-type:luminance" maskUnits="userSpaceOnUse" x="1028" y="173" width="33" height="42">
<path d="M1060.98 173H1028.98V214.007H1060.98V173Z" fill="white"/>
</mask>
<g mask="url(#mask42_2985_13870)">
<path d="M1056.82 190.436C1058.06 190.436 1059.09 191.437 1059.09 192.675V209.82C1059.09 211.058 1058.09 212.085 1056.82 212.085H1033.17C1031.93 212.085 1030.91 211.084 1030.91 209.82V192.701C1030.91 191.463 1031.91 190.462 1033.17 190.462H1056.82V190.436ZM1056.82 188.513H1033.17C1030.85 188.513 1028.98 190.383 1028.98 192.701V209.847C1028.98 212.164 1030.85 214.034 1033.17 214.034H1056.82C1059.14 214.034 1061.01 212.164 1061.01 209.847V192.701C1060.98 190.383 1059.11 188.513 1056.82 188.513Z" fill="white"/>
</g>
<mask id="mask43_2985_13870" style="mask-type:luminance" maskUnits="userSpaceOnUse" x="1028" y="173" width="33" height="42">
<path d="M1060.98 173H1028.98V214.007H1060.98V173Z" fill="white"/>
</mask>
<g mask="url(#mask43_2985_13870)">
<path d="M1054.47 189.382H1035.27V183.614C1035.27 178.32 1039.56 174.027 1044.85 174.027C1050.15 174.027 1054.44 178.32 1054.44 183.614V189.382H1054.47Z" stroke="white" stroke-width="2.06538"/>
</g>
<mask id="mask44_2985_13870" style="mask-type:luminance" maskUnits="userSpaceOnUse" x="1028" y="173" width="33" height="42">
<path d="M1060.98 173H1028.98V214.007H1060.98V173Z" fill="white"/>
</mask>
<g mask="url(#mask44_2985_13870)">
<path d="M1044.79 207.159V202.708V207.159Z" stroke="white" stroke-width="2.63559" stroke-linecap="round" stroke-linejoin="round"/>
</g>
<mask id="mask45_2985_13870" style="mask-type:luminance" maskUnits="userSpaceOnUse" x="1028" y="173" width="33" height="42">
<path d="M1060.98 173H1028.98V214.007H1060.98V173Z" fill="white"/>
</mask>
<g mask="url(#mask45_2985_13870)">
<path d="M1047.66 201.419C1047.66 202.999 1046.37 204.289 1044.78 204.289C1043.2 204.289 1041.91 202.999 1041.91 201.419C1041.91 199.838 1043.2 198.548 1044.78 198.548C1046.37 198.548 1047.66 199.812 1047.66 201.419Z" fill="white"/>
</g>
</g>
<path d="M987.78 228.207H991.1L984.68 234.847L991.48 242.007H987.88L982.22 236.107H980.26V242.007H977.46V228.207H980.26V233.827H982.32L987.78 228.207ZM991.846 242.007V239.787H992.126C993.446 239.787 993.866 239.187 993.866 236.327V231.967H1003.61V242.007H1000.95V233.927H996.306V236.387C996.306 240.807 995.386 242.007 992.406 242.007H991.846ZM1005.8 239.247C1005.8 237.347 1006.98 236.287 1010.16 236.147L1014.5 235.987V235.667C1014.5 234.067 1013.58 233.467 1011.68 233.467C1010 233.467 1009.08 233.867 1008.82 234.947H1006.16C1006.48 232.807 1008.24 231.707 1011.66 231.707C1015.34 231.707 1017.14 232.927 1017.14 235.667V242.007H1014.6V240.287C1013.84 241.527 1012.26 242.247 1009.96 242.247C1007.02 242.247 1005.8 241.107 1005.8 239.247ZM1010.76 240.507C1012.86 240.507 1014.5 239.767 1014.5 237.847V237.447L1010.74 237.587C1009.18 237.667 1008.48 238.007 1008.48 238.967V239.147C1008.48 240.067 1009.16 240.507 1010.76 240.507ZM1019.2 236.987C1019.2 233.207 1021.08 231.707 1025.08 231.707C1028.38 231.707 1030.34 232.687 1030.66 235.067H1028C1027.68 234.007 1026.88 233.547 1025.08 233.547C1022.88 233.547 1021.88 234.307 1021.88 236.287V237.647C1021.88 239.727 1023 240.407 1025.08 240.407C1026.96 240.407 1027.72 239.867 1028.04 238.907H1030.7C1030.34 241.127 1028.52 242.247 1025.08 242.247C1021.2 242.247 1019.2 240.967 1019.2 236.987ZM1035.67 233.927H1031.51V231.967H1042.47V233.927H1038.33V242.007H1035.67V233.927ZM1043.22 236.987C1043.22 233.247 1045.3 231.707 1049.04 231.707C1052.76 231.707 1054.88 233.107 1054.88 236.667V237.227H1045.84V237.627C1045.84 239.627 1046.94 240.487 1049.04 240.487C1050.84 240.487 1051.84 240.007 1052.18 238.927H1054.8C1054.24 241.227 1052.26 242.247 1049.04 242.247C1045.3 242.247 1043.22 240.787 1043.22 236.987ZM1049.04 233.447C1047.16 233.447 1045.94 234.107 1045.84 235.807H1052.26C1052.18 234.107 1051.14 233.447 1049.04 233.447ZM1057.03 231.967L1059.61 231.967V233.667C1060.43 232.307 1061.91 231.707 1064.01 231.707C1067.37 231.707 1069.31 233.207 1069.31 236.987C1069.31 240.747 1067.39 242.247 1064.01 242.247C1061.97 242.247 1060.53 241.707 1059.69 240.467V246.007H1057.03V231.967ZM1066.63 237.607V236.327C1066.63 234.267 1065.41 233.547 1063.15 233.547C1060.91 233.547 1059.75 234.247 1059.69 236.187V237.607C1059.69 239.627 1060.89 240.407 1063.15 240.407C1065.41 240.407 1066.63 239.707 1066.63 237.607ZM991.781 260.127C991.781 254.887 994.561 252.967 999.441 252.967C1003.84 252.967 1006.32 254.287 1006.72 257.687H1003.9C1003.54 255.707 1002.08 255.147 999.441 255.147C996.501 255.147 994.601 256.127 994.601 259.387V260.787C994.601 263.987 996.461 265.067 999.441 265.067C1001.98 265.067 1003.46 264.587 1003.92 262.687H1006.74C1006.24 265.947 1003.8 267.247 999.441 267.247C994.561 267.247 991.781 265.387 991.781 260.127ZM1019.3 253.207H1022.62L1016.2 259.847L1023 267.007H1019.4L1013.74 261.107H1011.78V267.007H1008.98V253.207H1011.78V258.827H1013.84L1019.3 253.207ZM1023.07 263.047H1025.89C1026.15 264.607 1027.67 265.147 1030.27 265.147C1033.05 265.147 1034.29 264.527 1034.29 263.207V262.727C1034.29 261.567 1033.27 260.967 1031.37 260.967H1027.63V258.927H1031.37C1033.01 258.927 1033.91 258.307 1033.91 257.247V256.827C1033.91 255.567 1032.75 255.067 1030.19 255.067C1027.81 255.067 1026.31 255.507 1026.05 257.007H1023.23C1023.51 254.107 1026.03 252.967 1030.19 252.967C1034.75 252.967 1036.75 254.207 1036.75 256.687C1036.75 258.287 1035.73 259.387 1034.07 259.767C1035.95 260.127 1037.11 261.227 1037.11 262.967C1037.11 265.827 1034.99 267.247 1030.27 267.247C1025.95 267.247 1023.37 266.067 1023.07 263.047ZM1050.79 256.647L1042.53 267.007H1039.51V253.207H1042.31V263.567L1050.57 253.207H1053.57V267.007H1050.79V256.647Z" fill="white"/>
<g clip-path="url(#clip7_2985_13870)">
<mask id="mask46_2985_13870" style="mask-type:luminance" maskUnits="userSpaceOnUse" x="1000" y="312" width="45" height="42">
<path d="M1044.99 312.999H1000.99V353.276H1044.99V312.999Z" fill="white"/>
</mask>
<g mask="url(#mask46_2985_13870)">
<path d="M1037.28 343.273H1008.7C1004.84 343.273 1001.74 340.152 1001.74 336.297V320.709C1001.74 316.854 1004.86 313.733 1008.7 313.733H1037.28C1041.13 313.733 1044.24 316.854 1044.24 320.709V336.297C1044.24 340.152 1041.11 343.273 1037.28 343.273Z" stroke="white" stroke-width="1.49224" stroke-miterlimit="10"/>
</g>
<mask id="mask47_2985_13870" style="mask-type:luminance" maskUnits="userSpaceOnUse" x="1000" y="312" width="45" height="42">
<path d="M1044.99 312.999H1000.99V353.276H1044.99V312.999Z" fill="white"/>
</mask>
<g mask="url(#mask47_2985_13870)">
<path d="M1012.33 352.524H1033.66" stroke="white" stroke-width="1.49224" stroke-miterlimit="10" stroke-linecap="round"/>
</g>
<mask id="mask48_2985_13870" style="mask-type:luminance" maskUnits="userSpaceOnUse" x="1000" y="312" width="45" height="42">
<path d="M1044.99 312.999H1000.99V353.276H1044.99V312.999Z" fill="white"/>
</mask>
<g mask="url(#mask48_2985_13870)">
<path d="M1017.71 352.148V343.273" stroke="white" stroke-width="1.49224" stroke-miterlimit="10" stroke-linecap="round"/>
</g>
<mask id="mask49_2985_13870" style="mask-type:luminance" maskUnits="userSpaceOnUse" x="1000" y="312" width="45" height="42">
<path d="M1044.99 312.999H1000.99V353.276H1044.99V312.999Z" fill="white"/>
</mask>
<g mask="url(#mask49_2985_13870)">
<path d="M1028.31 352.336V343.461" stroke="white" stroke-width="1.49224" stroke-miterlimit="10" stroke-linecap="round"/>
</g>
</g>
<path d="M1002.07 384.277V381.277H989.374V367.477H992.174V378.997H1000.05V367.477H1002.85V378.997H1004.67V384.277H1002.07ZM1005.8 376.257C1005.8 372.517 1007.88 370.977 1011.62 370.977C1015.34 370.977 1017.46 372.377 1017.46 375.937V376.497H1008.42V376.897C1008.42 378.897 1009.52 379.757 1011.62 379.757C1013.42 379.757 1014.42 379.277 1014.76 378.197H1017.38C1016.82 380.497 1014.84 381.517 1011.62 381.517C1007.88 381.517 1005.8 380.057 1005.8 376.257ZM1011.62 372.717C1009.74 372.717 1008.52 373.377 1008.42 375.077H1014.84C1014.76 373.377 1013.72 372.717 1011.62 372.717ZM1019.6 371.237H1022.26V375.197H1028.06V371.237H1030.72V381.277H1028.06V377.157H1022.26V381.277H1019.6V371.237ZM1036.59 373.197H1032.43V371.237H1043.39V373.197H1039.25V381.277H1036.59V373.197ZM1045.11 371.237H1047.69V372.937C1048.51 371.577 1049.99 370.977 1052.09 370.977C1055.45 370.977 1057.39 372.477 1057.39 376.257C1057.39 380.017 1055.47 381.517 1052.09 381.517C1050.05 381.517 1048.61 380.977 1047.77 379.737V385.277H1045.11V371.237ZM1054.71 376.877V375.597C1054.71 373.537 1053.49 372.817 1051.23 372.817C1048.99 372.817 1047.83 373.517 1047.77 375.457V376.877C1047.77 378.897 1048.97 379.677 1051.23 379.677C1053.49 379.677 1054.71 378.977 1054.71 376.877ZM955.463 396.237H958.243L961.963 403.757L965.563 396.237H968.003L962.563 407.417C961.543 409.557 960.643 410.277 958.523 410.277H956.923V408.337H958.243C959.443 408.337 959.903 408.097 960.423 406.957L960.663 406.457L955.463 396.237ZM969.478 396.237H980.378V406.277H977.718V398.197H972.138V406.277H969.478V396.237ZM983.13 396.237H985.71V397.937C986.53 396.577 988.01 395.977 990.11 395.977C993.47 395.977 995.41 397.477 995.41 401.257C995.41 405.017 993.49 406.517 990.11 406.517C988.07 406.517 986.63 405.977 985.79 404.737V410.277H983.13V396.237ZM992.73 401.877V400.597C992.73 398.537 991.51 397.817 989.25 397.817C987.01 397.817 985.85 398.517 985.79 400.457V401.877C985.79 403.897 986.99 404.677 989.25 404.677C991.51 404.677 992.73 403.977 992.73 401.877ZM997.023 403.517C997.023 401.617 998.203 400.557 1001.38 400.417L1005.72 400.257V399.937C1005.72 398.337 1004.8 397.737 1002.9 397.737C1001.22 397.737 1000.3 398.137 1000.04 399.217H997.383C997.703 397.077 999.463 395.977 1002.88 395.977C1006.56 395.977 1008.36 397.197 1008.36 399.937V406.277H1005.82V404.557C1005.06 405.797 1003.48 406.517 1001.18 406.517C998.243 406.517 997.023 405.377 997.023 403.517ZM1001.98 404.777C1004.08 404.777 1005.72 404.037 1005.72 402.117V401.717L1001.96 401.857C1000.4 401.937 999.703 402.277 999.703 403.237V403.417C999.703 404.337 1000.38 404.777 1001.98 404.777ZM1011 396.237H1018.04C1020.66 396.237 1021.66 397.197 1021.66 398.697C1021.66 399.737 1021.16 400.637 1019.68 400.977C1021.46 401.297 1022.06 402.297 1022.06 403.437C1022.06 405.357 1020.96 406.277 1018.46 406.277H1011V396.237ZM1019.36 403.397V403.017C1019.36 402.237 1018.86 401.837 1017.74 401.837H1013.62V404.617H1017.74C1018.86 404.617 1019.36 404.237 1019.36 403.397ZM1019.02 399.237V398.937C1019.02 398.277 1018.68 397.877 1017.62 397.877H1013.62V400.377H1017.62C1018.7 400.377 1019.02 399.897 1019.02 399.237ZM1023.14 406.277V404.057H1023.42C1024.74 404.057 1025.16 403.457 1025.16 400.597V396.237H1034.9V406.277H1032.24V398.197H1027.6V400.657C1027.6 405.077 1026.68 406.277 1023.7 406.277H1023.14ZM1037.08 401.257C1037.08 397.517 1039.16 395.977 1042.9 395.977C1046.62 395.977 1048.74 397.377 1048.74 400.937V401.497H1039.7V401.897C1039.7 403.897 1040.8 404.757 1042.9 404.757C1044.7 404.757 1045.7 404.277 1046.04 403.197H1048.66C1048.1 405.497 1046.12 406.517 1042.9 406.517C1039.16 406.517 1037.08 405.057 1037.08 401.257ZM1042.9 397.717C1041.02 397.717 1039.8 398.377 1039.7 400.077H1046.12C1046.04 398.377 1045 397.717 1042.9 397.717ZM1050.88 396.237H1053.54V400.197H1059.34V396.237H1062V406.277H1059.34V402.157H1053.54V406.277H1050.88V396.237ZM1064.77 396.237H1067.41V403.517L1073.17 396.237H1076.09V406.277H1073.45V398.997L1067.71 406.277H1064.77V396.237ZM1086.59 402.797H1083.23L1080.99 406.277H1078.15L1080.65 402.437C1079.09 402.037 1078.31 401.037 1078.31 399.517C1078.31 397.437 1079.59 396.237 1082.15 396.237H1089.25V406.277H1086.59V402.797ZM1086.59 397.997H1082.55C1081.57 397.997 1080.99 398.457 1080.99 399.297V399.777C1080.99 400.577 1081.55 401.017 1082.55 401.017H1086.59V397.997Z" fill="white"/>
<rect x="1129" y="130" width="174" height="311" rx="32" fill="white" fill-opacity="0.1"/>
<rect x="1129" y="130" width="174" height="311" rx="32" stroke="#8D8B8B" stroke-width="2"/>
<g clip-path="url(#clip8_2985_13870)">
<mask id="mask50_2985_13870" style="mask-type:luminance" maskUnits="userSpaceOnUse" x="1191" y="239" width="50" height="35">
<path d="M1240.5 239H1191.5V273.001H1240.5V239Z" fill="white"/>
</mask>
<g mask="url(#mask50_2985_13870)">
<path d="M1226.87 243.765C1230.85 243.803 1233.98 247.068 1233.9 251.141C1233.84 255.175 1230.64 258.306 1226.6 258.267C1222.68 258.21 1219.55 254.925 1219.61 250.853C1219.67 246.876 1222.9 243.726 1226.87 243.765Z" stroke="white" stroke-width="1.15466" stroke-miterlimit="10" stroke-linecap="round" stroke-linejoin="round"/>
</g>
<mask id="mask51_2985_13870" style="mask-type:luminance" maskUnits="userSpaceOnUse" x="1191" y="239" width="50" height="35">
<path d="M1240.5 239H1191.5V273.001H1240.5V239Z" fill="white"/>
</mask>
<g mask="url(#mask51_2985_13870)">
<path d="M1213.59 272.424H1239.93C1239.1 260.015 1227.27 256.365 1219.68 261.186L1218.41 262.089" stroke="white" stroke-width="1.15466" stroke-miterlimit="10" stroke-linecap="round" stroke-linejoin="round"/>
</g>
<mask id="mask52_2985_13870" style="mask-type:luminance" maskUnits="userSpaceOnUse" x="1191" y="239" width="50" height="35">
<path d="M1240.5 239H1191.5V273.001H1240.5V239Z" fill="white"/>
</mask>
<g mask="url(#mask52_2985_13870)">
<path d="M1207.26 239.577C1211.81 239.634 1215.36 243.361 1215.31 248.01C1215.23 252.62 1211.58 256.193 1206.97 256.154C1202.47 256.097 1198.9 252.332 1198.96 247.683C1199.04 243.131 1202.72 239.519 1207.26 239.577Z" stroke="white" stroke-width="1.15466" stroke-miterlimit="10" stroke-linecap="round" stroke-linejoin="round"/>
</g>
<mask id="mask53_2985_13870" style="mask-type:luminance" maskUnits="userSpaceOnUse" x="1191" y="239" width="50" height="35">
<path d="M1240.5 239H1191.5V273.001H1240.5V239Z" fill="white"/>
</mask>
<g mask="url(#mask53_2985_13870)">
<path d="M1192.07 272.424C1194.43 251.159 1220.83 251.985 1222.17 272.424H1192.07Z" stroke="white" stroke-width="1.15466" stroke-miterlimit="10" stroke-linecap="round" stroke-linejoin="round"/>
</g>
</g>
<path d="M1165.66 294.78V293.36C1165.66 290.32 1163.86 289.14 1160.3 289.14C1156.72 289.14 1154.94 290.32 1154.94 293.36V294.78C1154.94 297.86 1156.72 299.06 1160.3 299.06C1163.86 299.06 1165.66 297.88 1165.66 294.78ZM1152.12 294.04C1152.12 288.8 1154.96 286.96 1160.3 286.96C1165.64 286.96 1168.48 288.8 1168.48 294.04C1168.48 299.36 1165.64 301.24 1160.3 301.24C1154.96 301.24 1152.12 299.36 1152.12 294.04ZM1170.68 290.96H1181.58V301H1178.92V292.92H1173.34V301H1170.68V290.96ZM1183.75 295.98C1183.75 292.24 1185.83 290.7 1189.57 290.7C1193.29 290.7 1195.41 292.1 1195.41 295.66V296.22H1186.37V296.62C1186.37 298.62 1187.47 299.48 1189.57 299.48C1191.37 299.48 1192.37 299 1192.71 297.92H1195.33C1194.77 300.22 1192.79 301.24 1189.57 301.24C1185.83 301.24 1183.75 299.78 1183.75 295.98ZM1189.57 292.44C1187.69 292.44 1186.47 293.1 1186.37 294.8H1192.79C1192.71 293.1 1191.67 292.44 1189.57 292.44ZM1197.56 290.96H1200.14V292.66C1200.96 291.3 1202.44 290.7 1204.54 290.7C1207.9 290.7 1209.84 292.2 1209.84 295.98C1209.84 299.74 1207.92 301.24 1204.54 301.24C1202.5 301.24 1201.06 300.7 1200.22 299.46V305H1197.56V290.96ZM1207.16 296.6V295.32C1207.16 293.26 1205.94 292.54 1203.68 292.54C1201.44 292.54 1200.28 293.24 1200.22 295.18V296.6C1200.22 298.62 1201.42 299.4 1203.68 299.4C1205.94 299.4 1207.16 298.7 1207.16 296.6ZM1211.45 298.24C1211.45 296.34 1212.63 295.28 1215.81 295.14L1220.15 294.98V294.66C1220.15 293.06 1219.23 292.46 1217.33 292.46C1215.65 292.46 1214.73 292.86 1214.47 293.94H1211.81C1212.13 291.8 1213.89 290.7 1217.31 290.7C1220.99 290.7 1222.79 291.92 1222.79 294.66V301H1220.25V299.28C1219.49 300.52 1217.91 301.24 1215.61 301.24C1212.67 301.24 1211.45 300.1 1211.45 298.24ZM1216.41 299.5C1218.51 299.5 1220.15 298.76 1220.15 296.84V296.44L1216.39 296.58C1214.83 296.66 1214.13 297 1214.13 297.96V298.14C1214.13 299.06 1214.81 299.5 1216.41 299.5ZM1228.21 292.92H1224.05V290.96H1235.01V292.92H1230.87V301H1228.21V292.92ZM1245.38 296.56V295.34C1245.38 293.28 1244.2 292.54 1241.92 292.54C1239.62 292.54 1238.44 293.28 1238.44 295.34V296.58C1238.44 298.64 1239.62 299.4 1241.92 299.4C1244.2 299.4 1245.38 298.64 1245.38 296.56ZM1235.76 295.98C1235.76 292.04 1237.92 290.7 1241.92 290.7C1245.92 290.7 1248.06 292.04 1248.06 295.98C1248.06 299.96 1245.92 301.24 1241.92 301.24C1237.92 301.24 1235.76 299.96 1235.76 295.98ZM1250.25 290.96H1252.83V292.66C1253.65 291.3 1255.13 290.7 1257.23 290.7C1260.59 290.7 1262.53 292.2 1262.53 295.98C1262.53 299.74 1260.61 301.24 1257.23 301.24C1255.19 301.24 1253.75 300.7 1252.91 299.46V305H1250.25V290.96ZM1259.85 296.6V295.32C1259.85 293.26 1258.63 292.54 1256.37 292.54C1254.13 292.54 1252.97 293.24 1252.91 295.18V296.6C1252.91 298.62 1254.11 299.4 1256.37 299.4C1258.63 299.4 1259.85 298.7 1259.85 296.6ZM1264.7 301V290.96H1267.36V294.16H1271.82C1274.3 294.16 1275.56 295.34 1275.56 297.52C1275.56 299.76 1274.3 301 1271.82 301H1264.7ZM1272.88 297.74V297.28C1272.88 296.44 1272.38 295.96 1271.24 295.96H1267.36V299.2H1271.24C1272.38 299.2 1272.88 298.66 1272.88 297.74ZM1276.78 290.96H1279.44V301H1276.78V290.96ZM1184.78 319.12C1184.78 313.88 1187.56 311.96 1192.44 311.96C1196.84 311.96 1199.32 313.28 1199.72 316.68H1196.9C1196.54 314.7 1195.08 314.14 1192.44 314.14C1189.5 314.14 1187.6 315.12 1187.6 318.38V319.78C1187.6 322.98 1189.46 324.06 1192.44 324.06C1194.98 324.06 1196.46 323.58 1196.92 321.68H1199.74C1199.24 324.94 1196.8 326.24 1192.44 326.24C1187.56 326.24 1184.78 324.38 1184.78 319.12ZM1212.3 312.2H1215.62L1209.2 318.84L1216 326H1212.4L1206.74 320.1H1204.78V326H1201.98V312.2H1204.78V317.82H1206.84L1212.3 312.2ZM1216.07 322.04H1218.89C1219.15 323.6 1220.67 324.14 1223.27 324.14C1226.05 324.14 1227.29 323.52 1227.29 322.2V321.72C1227.29 320.56 1226.27 319.96 1224.37 319.96H1220.63V317.92H1224.37C1226.01 317.92 1226.91 317.3 1226.91 316.24V315.82C1226.91 314.56 1225.75 314.06 1223.19 314.06C1220.81 314.06 1219.31 314.5 1219.05 316H1216.23C1216.51 313.1 1219.03 311.96 1223.19 311.96C1227.75 311.96 1229.75 313.2 1229.75 315.68C1229.75 317.28 1228.73 318.38 1227.07 318.76C1228.95 319.12 1230.11 320.22 1230.11 321.96C1230.11 324.82 1227.99 326.24 1223.27 326.24C1218.95 326.24 1216.37 325.06 1216.07 322.04ZM1243.79 315.64L1235.53 326H1232.51V312.2H1235.31V322.56L1243.57 312.2H1246.57V326H1243.79V315.64Z" fill="white"/>
<path d="M784.154 225L781.116 216.978V225H779.324V215.34H782.376L785.33 223.25L788.312 215.34H791.266V225H789.32V216.936L786.268 225H784.154ZM799.54 221.892V221.038C799.54 219.596 798.714 219.078 797.118 219.078C795.508 219.078 794.682 219.596 794.682 221.038V221.906C794.682 223.348 795.508 223.88 797.118 223.88C798.714 223.88 799.54 223.348 799.54 221.892ZM792.806 221.486C792.806 218.728 794.318 217.79 797.118 217.79C799.918 217.79 801.416 218.728 801.416 221.486C801.416 224.272 799.918 225.168 797.118 225.168C794.318 225.168 792.806 224.272 792.806 221.486ZM802.946 217.972H804.808V220.744H808.868V217.972H810.73V225H808.868V222.116H804.808V225H802.946V217.972ZM812.667 217.972H814.515V223.068L818.547 217.972H820.591V225H818.743V219.904L814.725 225H812.667V217.972ZM824.695 219.344H821.783V217.972H829.455V219.344H826.557V225H824.695V219.344ZM836.714 221.892V221.038C836.714 219.596 835.888 219.078 834.292 219.078C832.682 219.078 831.856 219.596 831.856 221.038V221.906C831.856 223.348 832.682 223.88 834.292 223.88C835.888 223.88 836.714 223.348 836.714 221.892ZM829.98 221.486C829.98 218.728 831.492 217.79 834.292 217.79C837.092 217.79 838.59 218.728 838.59 221.486C838.59 224.272 837.092 225.168 834.292 225.168C831.492 225.168 829.98 224.272 829.98 221.486ZM840.12 217.972H841.926V219.162C842.5 218.21 843.536 217.79 845.006 217.79C847.358 217.79 848.716 218.84 848.716 221.486C848.716 224.118 847.372 225.168 845.006 225.168C843.578 225.168 842.57 224.79 841.982 223.922V227.8H840.12V217.972ZM846.84 221.92V221.024C846.84 219.582 845.986 219.078 844.404 219.078C842.836 219.078 842.024 219.568 841.982 220.926V221.92C841.982 223.334 842.822 223.88 844.404 223.88C845.986 223.88 846.84 223.39 846.84 221.92ZM850.237 217.972H852.085V223.068L856.117 217.972H858.161V225H856.313V219.904L852.295 225H850.237V217.972ZM860.095 217.972H861.957V220.744L866.017 220.744V217.972H867.879V225H866.017V222.116L861.957 222.116V225H860.095V217.972ZM869.816 217.972H875.878V219.344H871.678V225H869.816V217.972ZM774.14 235.972H775.988V241.068L780.02 235.972H782.064V243H780.216V237.904L776.198 243H774.14V235.972ZM786.164 235.972H788.11L790.714 241.236L793.234 235.972H794.942L791.134 243.798C790.42 245.296 789.79 245.8 788.306 245.8H787.186V244.442H788.11C788.95 244.442 789.272 244.274 789.636 243.476L789.804 243.126L786.164 235.972ZM795.974 235.972H803.604V243H801.742V237.344H797.836V243H795.974V235.972ZM805.53 235.972H807.336V237.162C807.91 236.21 808.946 235.79 810.416 235.79C812.768 235.79 814.126 236.84 814.126 239.486C814.126 242.118 812.782 243.168 810.416 243.168C808.988 243.168 807.98 242.79 807.392 241.922V245.8H805.53V235.972ZM812.25 239.92V239.024C812.25 237.582 811.396 237.078 809.814 237.078C808.246 237.078 807.434 237.568 807.392 238.926V239.92C807.392 241.334 808.232 241.88 809.814 241.88C811.396 241.88 812.25 241.39 812.25 239.92ZM815.256 241.068C815.256 239.738 816.082 238.996 818.308 238.898L821.346 238.786V238.562C821.346 237.442 820.702 237.022 819.372 237.022C818.196 237.022 817.552 237.302 817.37 238.058H815.508C815.732 236.56 816.964 235.79 819.358 235.79C821.934 235.79 823.194 236.644 823.194 238.562V243H821.416V241.796C820.884 242.664 819.778 243.168 818.168 243.168C816.11 243.168 815.256 242.37 815.256 241.068ZM818.728 241.95C820.198 241.95 821.346 241.432 821.346 240.088V239.808L818.714 239.906C817.622 239.962 817.132 240.2 817.132 240.872V240.998C817.132 241.642 817.608 241.95 818.728 241.95ZM825.04 235.972H829.968C831.802 235.972 832.502 236.644 832.502 237.694C832.502 238.422 832.152 239.052 831.116 239.29C832.362 239.514 832.782 240.214 832.782 241.012C832.782 242.356 832.012 243 830.262 243H825.04V235.972ZM830.892 240.984V240.718C830.892 240.172 830.542 239.892 829.758 239.892H826.874V241.838H829.758C830.542 241.838 830.892 241.572 830.892 240.984ZM830.654 238.072V237.862C830.654 237.4 830.416 237.12 829.674 237.12H826.874V238.87H829.674C830.43 238.87 830.654 238.534 830.654 238.072ZM833.541 243V241.446H833.737C834.661 241.446 834.955 241.026 834.955 239.024V235.972H841.773V243H839.911V237.344H836.663V239.066C836.663 242.16 836.019 243 833.933 243H833.541ZM843.296 239.486C843.296 236.868 844.752 235.79 847.37 235.79C849.974 235.79 851.458 236.77 851.458 239.262V239.654H845.13V239.934C845.13 241.334 845.9 241.936 847.37 241.936C848.63 241.936 849.33 241.6 849.568 240.844H851.402C851.01 242.454 849.624 243.168 847.37 243.168C844.752 243.168 843.296 242.146 843.296 239.486ZM847.37 237.008C846.054 237.008 845.2 237.47 845.13 238.66H849.624C849.568 237.47 848.84 237.008 847.37 237.008ZM852.958 235.972H854.82V238.744H858.88V235.972H860.742V243H858.88V240.116H854.82V243H852.958V235.972ZM862.679 235.972H864.527V241.068L868.559 235.972H870.603V243H868.755V237.904L864.737 243H862.679V235.972ZM872.13 239.486C872.13 236.868 873.586 235.79 876.204 235.79C878.808 235.79 880.292 236.77 880.292 239.262V239.654H873.964V239.934C873.964 241.334 874.734 241.936 876.204 241.936C877.464 241.936 878.164 241.6 878.402 240.844H880.236C879.844 242.454 878.458 243.168 876.204 243.168C873.586 243.168 872.13 242.146 872.13 239.486ZM876.204 237.008C874.888 237.008 874.034 237.47 873.964 238.66H878.458C878.402 237.47 877.674 237.008 876.204 237.008Z" fill="#FF0032"/>
<path d="M969.167 86.2H972.487L966.067 92.84L972.867 100H969.267L963.607 94.1H961.647V100H958.847V86.2H961.647V91.82H963.707L969.167 86.2ZM986.181 93.78V92.36C986.181 89.32 984.381 88.14 980.821 88.14C977.241 88.14 975.461 89.32 975.461 92.36V93.78C975.461 96.86 977.241 98.06 980.821 98.06C984.381 98.06 986.181 96.88 986.181 93.78ZM972.641 93.04C972.641 87.8 975.481 85.96 980.821 85.96C986.161 85.96 989.001 87.8 989.001 93.04C989.001 98.36 986.161 100.24 980.821 100.24C975.481 100.24 972.641 98.36 972.641 93.04ZM991.484 86.2H994.284V91.78H1002.46V86.2L1005.26 86.2V100H1002.46V94.06H994.284V100H991.484V86.2ZM1012.76 88.48H1007.12V86.2H1021.2V88.48H1015.56V100H1012.76V88.48ZM1021.63 86.2H1024.71L1029.55 93.86L1034.01 86.2H1036.75L1028.73 100H1025.97L1028.09 96.34L1021.63 86.2ZM1038.36 86.2H1047.06C1050.28 86.2 1051.74 87.86 1051.74 90.66C1051.74 93.5 1050.28 95.16 1047.06 95.16H1041.16V100H1038.36V86.2ZM1048.92 90.98V90.4C1048.92 89.22 1048.26 88.38 1046.68 88.38H1041.16V92.98H1046.68C1048.26 92.98 1048.92 92.18 1048.92 90.98ZM1056.14 86.2H1059.22L1064.06 93.86L1068.52 86.2H1071.26L1063.24 100H1060.48L1062.6 96.34L1056.14 86.2ZM1072.87 86.2H1086.35V100H1083.55V88.48H1075.67V100H1072.87V86.2ZM1089.47 86.2H1098.17C1101.39 86.2 1102.85 87.86 1102.85 90.66C1102.85 93.5 1101.39 95.16 1098.17 95.16H1092.27V100H1089.47V86.2ZM1100.03 90.98V90.4C1100.03 89.22 1099.37 88.38 1097.79 88.38H1092.27V92.98H1097.79C1099.37 92.98 1100.03 92.18 1100.03 90.98ZM1108.25 86.2H1112.09L1118.17 100H1115.25L1113.71 96.46H1106.33L1104.79 100H1102.15L1108.25 86.2ZM1110.01 88.02L1107.23 94.4H1112.81L1110.01 88.02ZM1119.82 86.2H1128.48C1131.14 86.2 1132.62 87.32 1132.62 89.56C1132.62 91.02 1132 92.26 1130.38 92.76C1132.18 93.2 1133.02 94.34 1133.02 96.04C1133.02 98.6 1131.56 100 1128.66 100H1119.82V86.2ZM1130.2 96.26V95.64C1130.2 94.52 1129.44 93.86 1127.94 93.86H1122.58V98.1H1127.94C1129.42 98.1 1130.2 97.46 1130.2 96.26ZM1129.78 90.22V89.74C1129.78 88.68 1129.12 88.1 1127.76 88.1H1122.58V92.04H1127.76C1129.1 92.04 1129.78 91.38 1129.78 90.22ZM1134.11 97.54H1134.53C1136.43 97.54 1136.73 96.02 1136.73 92V86.2H1148.73V100H1145.93V88.48H1139.33V92C1139.33 97.9 1138.55 100 1134.93 100H1134.11V97.54ZM1151.85 86.2H1163.69V88.38H1154.65V91.9H1161.61V94H1154.65V97.82H1163.77V100H1151.85V86.2ZM1166.17 86.2H1168.97V91.78H1177.15V86.2H1179.95V100H1177.15V94.06H1168.97V100H1166.17V86.2ZM1194.33 89.64L1186.07 100H1183.05V86.2H1185.85V96.56L1194.11 86.2H1197.11V100H1194.33V89.64ZM1210.35 94.86H1205.65L1202.47 100H1199.43L1202.77 94.66C1200.77 94.18 1199.73 92.78 1199.73 90.54C1199.73 87.86 1201.33 86.2 1204.53 86.2H1213.15V100H1210.35V94.86ZM1210.35 88.36H1204.97C1203.35 88.36 1202.55 89.06 1202.55 90.28V90.8C1202.55 92 1203.35 92.72 1204.97 92.72H1210.35V88.36ZM1220.36 93.12C1220.36 87.88 1223.14 85.96 1228.02 85.96C1232.42 85.96 1234.9 87.28 1235.3 90.68H1232.48C1232.12 88.7 1230.66 88.14 1228.02 88.14C1225.08 88.14 1223.18 89.12 1223.18 92.38V93.78C1223.18 96.98 1225.04 98.06 1228.02 98.06C1230.56 98.06 1232.04 97.58 1232.5 95.68H1235.32C1234.82 98.94 1232.38 100.24 1228.02 100.24C1223.14 100.24 1220.36 98.38 1220.36 93.12ZM1247.88 86.2H1251.2L1244.78 92.84L1251.58 100H1247.98L1242.32 94.1H1240.36V100H1237.56V86.2H1240.36V91.82H1242.42L1247.88 86.2ZM1251.64 96.04H1254.46C1254.72 97.6 1256.24 98.14 1258.84 98.14C1261.62 98.14 1262.86 97.52 1262.86 96.2V95.72C1262.86 94.56 1261.84 93.96 1259.94 93.96H1256.2V91.92H1259.94C1261.58 91.92 1262.48 91.3 1262.48 90.24V89.82C1262.48 88.56 1261.32 88.06 1258.76 88.06C1256.38 88.06 1254.88 88.5 1254.62 90H1251.8C1252.08 87.1 1254.6 85.96 1258.76 85.96C1263.32 85.96 1265.32 87.2 1265.32 89.68C1265.32 91.28 1264.3 92.38 1262.64 92.76C1264.52 93.12 1265.68 94.22 1265.68 95.96C1265.68 98.82 1263.56 100.24 1258.84 100.24C1254.52 100.24 1251.94 99.06 1251.64 96.04ZM1279.37 89.64L1271.11 100H1268.09V86.2H1270.89V96.56L1279.15 86.2H1282.15V100H1279.37V89.64Z" fill="white"/>
<path d="M756.293 265.293C755.902 265.683 755.902 266.317 756.293 266.707L762.657 273.071C763.047 273.462 763.681 273.462 764.071 273.071C764.462 272.681 764.462 272.047 764.071 271.657L758.414 266L764.071 260.343C764.462 259.953 764.462 259.319 764.071 258.929C763.681 258.538 763.047 258.538 762.657 258.929L756.293 265.293ZM900.707 266.707C901.098 266.317 901.098 265.683 900.707 265.293L894.343 258.929C893.953 258.538 893.319 258.538 892.929 258.929C892.538 259.319 892.538 259.953 892.929 260.343L898.586 266L892.929 271.657C892.538 272.047 892.538 272.681 892.929 273.071C893.319 273.462 893.953 273.462 894.343 273.071L900.707 266.707ZM757 267L758.986 267L758.986 265L757 265L757 267ZM762.958 267L766.931 267L766.931 265L762.958 265L762.958 267ZM770.903 267L774.875 267L774.875 265L770.903 265L770.903 267ZM778.847 267L782.819 267L782.819 265L778.847 265L778.847 267ZM786.792 267L790.764 267L790.764 265L786.792 265L786.792 267ZM794.736 267L798.708 267L798.708 265L794.736 265L794.736 267ZM802.681 267L806.653 267L806.653 265L802.681 265L802.681 267ZM810.625 267L814.597 267L814.597 265L810.625 265L810.625 267ZM818.569 267L822.542 267L822.542 265L818.569 265L818.569 267ZM826.514 267L830.486 267L830.486 265L826.514 265L826.514 267ZM834.458 267L838.431 267L838.431 265L834.458 265L834.458 267ZM842.403 267L846.375 267L846.375 265L842.403 265L842.403 267ZM850.347 267L854.319 267L854.319 265L850.347 265L850.347 267ZM858.292 267L862.264 267L862.264 265L858.292 265L858.292 267ZM866.236 267L870.208 267L870.208 265L866.236 265L866.236 267ZM874.181 267L878.153 267L878.153 265L874.181 265L874.181 267ZM882.125 267L886.097 267L886.097 265L882.125 265L882.125 267ZM890.069 267L894.042 267L894.042 265L890.069 265L890.069 267ZM898.014 267L900 267L900 265L898.014 265L898.014 267ZM756.293 265.293C755.902 265.683 755.902 266.317 756.293 266.707L762.657 273.071C763.047 273.462 763.681 273.462 764.071 273.071C764.462 272.681 764.462 272.047 764.071 271.657L758.414 266L764.071 260.343C764.462 259.953 764.462 259.319 764.071 258.929C763.681 258.538 763.047 258.538 762.657 258.929L756.293 265.293ZM900.707 266.707C901.098 266.317 901.098 265.683 900.707 265.293L894.343 258.929C893.953 258.538 893.319 258.538 892.929 258.929C892.538 259.319 892.538 259.953 892.929 260.343L898.586 266L892.929 271.657C892.538 272.047 892.538 272.681 892.929 273.071C893.319 273.462 893.953 273.462 894.343 273.071L900.707 266.707ZM757 267L758.986 267L758.986 265L757 265L757 267ZM762.958 267L766.931 267L766.931 265L762.958 265L762.958 267ZM770.903 267L774.875 267L774.875 265L770.903 265L770.903 267ZM778.847 267L782.819 267L782.819 265L778.847 265L778.847 267ZM786.792 267L790.764 267L790.764 265L786.792 265L786.792 267ZM794.736 267L798.708 267L798.708 265L794.736 265L794.736 267ZM802.681 267L806.653 267L806.653 265L802.681 265L802.681 267ZM810.625 267L814.597 267L814.597 265L810.625 265L810.625 267ZM818.569 267L822.542 267L822.542 265L818.569 265L818.569 267ZM826.514 267L830.486 267L830.486 265L826.514 265L826.514 267ZM834.458 267L838.431 267L838.431 265L834.458 265L834.458 267ZM842.403 267L846.375 267L846.375 265L842.403 265L842.403 267ZM850.347 267L854.319 267L854.319 265L850.347 265L850.347 267ZM858.292 267L862.264 267L862.264 265L858.292 265L858.292 267ZM866.236 267L870.208 267L870.208 265L866.236 265L866.236 267ZM874.181 267L878.153 267L878.153 265L874.181 265L874.181 267ZM882.125 267L886.097 267L886.097 265L882.125 265L882.125 267ZM890.069 267L894.042 267L894.042 265L890.069 265L890.069 267ZM898.014 267L900 267L900 265L898.014 265L898.014 267Z" fill="#FF0032"/>
<path d="M458.592 166.532C458.058 166.671 457.737 167.217 457.876 167.752L460.141 176.462C460.28 176.996 460.826 177.317 461.361 177.178C461.895 177.039 462.216 176.493 462.077 175.959L460.063 168.216L467.806 166.203C468.34 166.063 468.661 165.518 468.522 164.983C468.383 164.448 467.837 164.128 467.302 164.267L458.592 166.532ZM521.254 204.968C521.788 204.829 522.109 204.283 521.97 203.748L519.705 195.038C519.566 194.504 519.02 194.183 518.485 194.322C517.951 194.461 517.63 195.007 517.769 195.541L519.783 203.284L512.04 205.297C511.506 205.437 511.185 205.982 511.324 206.517C511.463 207.052 512.009 207.372 512.544 207.233L521.254 204.968ZM458.337 168.362L460.064 169.376L461.077 167.652L459.35 166.638L458.337 168.362ZM463.517 171.404L466.97 173.432L467.983 171.707L464.53 169.679L463.517 171.404ZM470.424 175.46L473.877 177.487L474.89 175.763L471.436 173.735L470.424 175.46ZM477.33 179.515L480.783 181.543L481.796 179.818L478.343 177.79L477.33 179.515ZM484.237 183.571L487.69 185.598L488.703 183.874L485.249 181.846L484.237 183.571ZM491.143 187.626L494.596 189.654L495.609 187.929L492.156 185.902L491.143 187.626ZM498.05 191.682L501.503 193.71L502.516 191.985L499.062 189.957L498.05 191.682ZM504.956 195.737L508.409 197.765L509.422 196.04L505.969 194.013L504.956 195.737ZM511.863 199.793L515.316 201.821L516.329 200.096L512.875 198.068L511.863 199.793ZM518.769 203.848L520.496 204.862L521.508 203.138L519.782 202.124L518.769 203.848ZM458.592 166.532C458.058 166.671 457.737 167.217 457.876 167.752L460.141 176.462C460.28 176.996 460.826 177.317 461.361 177.178C461.895 177.039 462.216 176.493 462.077 175.959L460.063 168.216L467.806 166.203C468.34 166.063 468.661 165.518 468.522 164.983C468.383 164.448 467.837 164.128 467.302 164.267L458.592 166.532ZM521.254 204.968C521.788 204.829 522.109 204.283 521.97 203.748L519.705 195.038C519.566 194.504 519.02 194.183 518.485 194.322C517.951 194.461 517.63 195.007 517.769 195.541L519.783 203.284L512.04 205.297C511.506 205.437 511.185 205.982 511.324 206.517C511.463 207.052 512.009 207.372 512.544 207.233L521.254 204.968ZM458.337 168.362L460.064 169.376L461.077 167.652L459.35 166.638L458.337 168.362ZM463.517 171.404L466.97 173.432L467.983 171.707L464.53 169.679L463.517 171.404ZM470.424 175.46L473.877 177.487L474.89 175.763L471.436 173.735L470.424 175.46ZM477.33 179.515L480.783 181.543L481.796 179.818L478.343 177.79L477.33 179.515ZM484.237 183.571L487.69 185.598L488.703 183.874L485.249 181.846L484.237 183.571ZM491.143 187.626L494.596 189.654L495.609 187.929L492.156 185.902L491.143 187.626ZM498.05 191.682L501.503 193.71L502.516 191.985L499.062 189.957L498.05 191.682ZM504.956 195.737L508.409 197.765L509.422 196.04L505.969 194.013L504.956 195.737ZM511.863 199.793L515.316 201.821L516.329 200.096L512.875 198.068L511.863 199.793ZM518.769 203.848L520.496 204.862L521.508 203.138L519.782 202.124L518.769 203.848Z" fill="#FF0032"/>
<path d="M458.592 351.468C458.058 351.329 457.737 350.783 457.876 350.248L460.141 341.538C460.28 341.004 460.826 340.683 461.361 340.822C461.895 340.961 462.216 341.507 462.077 342.041L460.063 349.784L467.806 351.797C468.34 351.937 468.661 352.482 468.522 353.017C468.383 353.552 467.837 353.872 467.302 353.733L458.592 351.468ZM521.254 313.032C521.788 313.171 522.109 313.717 521.97 314.252L519.705 322.962C519.566 323.496 519.02 323.817 518.485 323.678C517.951 323.539 517.63 322.993 517.769 322.459L519.783 314.716L512.04 312.703C511.506 312.563 511.185 312.018 511.324 311.483C511.463 310.948 512.009 310.628 512.544 310.767L521.254 313.032ZM458.337 349.638L460.064 348.624L461.077 350.348L459.35 351.362L458.337 349.638ZM463.517 346.596L466.97 344.568L467.983 346.293L464.53 348.321L463.517 346.596ZM470.424 342.54L473.877 340.513L474.89 342.237L471.436 344.265L470.424 342.54ZM477.33 338.485L480.783 336.457L481.796 338.182L478.343 340.21L477.33 338.485ZM484.237 334.429L487.69 332.402L488.703 334.126L485.249 336.154L484.237 334.429ZM491.143 330.374L494.596 328.346L495.609 330.071L492.156 332.098L491.143 330.374ZM498.05 326.318L501.503 324.29L502.516 326.015L499.062 328.043L498.05 326.318ZM504.956 322.263L508.409 320.235L509.422 321.96L505.969 323.987L504.956 322.263ZM511.863 318.207L515.316 316.179L516.329 317.904L512.875 319.932L511.863 318.207ZM518.769 314.152L520.496 313.138L521.508 314.862L519.782 315.876L518.769 314.152ZM458.592 351.468C458.058 351.329 457.737 350.783 457.876 350.248L460.141 341.538C460.28 341.004 460.826 340.683 461.361 340.822C461.895 340.961 462.216 341.507 462.077 342.041L460.063 349.784L467.806 351.797C468.34 351.937 468.661 352.482 468.522 353.017C468.383 353.552 467.837 353.872 467.302 353.733L458.592 351.468ZM521.254 313.032C521.788 313.171 522.109 313.717 521.97 314.252L519.705 322.962C519.566 323.496 519.02 323.817 518.485 323.678C517.951 323.539 517.63 322.993 517.769 322.459L519.783 314.716L512.04 312.703C511.506 312.563 511.185 312.018 511.324 311.483C511.463 310.948 512.009 310.628 512.544 310.767L521.254 313.032ZM458.337 349.638L460.064 348.624L461.077 350.348L459.35 351.362L458.337 349.638ZM463.517 346.596L466.97 344.568L467.983 346.293L464.53 348.321L463.517 346.596ZM470.424 342.54L473.877 340.513L474.89 342.237L471.436 344.265L470.424 342.54ZM477.33 338.485L480.783 336.457L481.796 338.182L478.343 340.21L477.33 338.485ZM484.237 334.429L487.69 332.402L488.703 334.126L485.249 336.154L484.237 334.429ZM491.143 330.374L494.596 328.346L495.609 330.071L492.156 332.098L491.143 330.374ZM498.05 326.318L501.503 324.29L502.516 326.015L499.062 328.043L498.05 326.318ZM504.956 322.263L508.409 320.235L509.422 321.96L505.969 323.987L504.956 322.263ZM511.863 318.207L515.316 316.179L516.329 317.904L512.875 319.932L511.863 318.207ZM518.769 314.152L520.496 313.138L521.508 314.862L519.782 315.876L518.769 314.152Z" fill="#FF0032"/>
<path fill-rule="evenodd" clip-rule="evenodd" d="M399.703 188.293C399.313 187.902 398.679 187.902 398.289 188.293L391.925 194.657C391.534 195.047 391.534 195.681 391.925 196.071C392.315 196.462 392.949 196.462 393.339 196.071L397.996 191.414L397.996 240H399.996L399.996 191.414L404.653 196.071C405.043 196.462 405.677 196.462 406.067 196.071C406.458 195.681 406.458 195.047 406.067 194.657L399.703 188.293ZM399.996 276H397.996L397.996 340.586L393.339 335.929C392.949 335.538 392.316 335.538 391.925 335.929C391.534 336.319 391.534 336.953 391.925 337.343L398.289 343.707C398.679 344.098 399.313 344.098 399.703 343.707L406.067 337.343C406.458 336.953 406.458 336.319 406.067 335.929C405.677 335.538 405.043 335.538 404.653 335.929L399.996 340.586L399.996 276Z" fill="#FF0032"/>
<defs>
<linearGradient id="paint0_linear_2985_13870" x1="1119.5" y1="51" x2="1119.5" y2="471" gradientUnits="userSpaceOnUse">
<stop stop-color="#AD1F1F"/>
<stop offset="1" stop-color="#AD1F1F" stop-opacity="0"/>
</linearGradient>
<clipPath id="clip0_2985_13870">
<rect width="61.5983" height="68" fill="white" transform="translate(160.201 371)"/>
</clipPath>
<clipPath id="clip1_2985_13870">
<rect width="40" height="16.6686" fill="white" transform="translate(359.5 362)"/>
</clipPath>
<clipPath id="clip2_2985_13870">
<rect width="61.5983" height="68" fill="white" transform="translate(160.201 134)"/>
</clipPath>
<clipPath id="clip3_2985_13870">
<rect width="40" height="16.6686" fill="white" transform="translate(359.5 125)"/>
</clipPath>
<clipPath id="clip4_2985_13870">
<rect width="68" height="68.9364" fill="white" transform="translate(609 256.532)"/>
</clipPath>
<clipPath id="clip5_2985_13870">
<rect width="32" height="41.0074" fill="white" transform="translate(985 173)"/>
</clipPath>
<clipPath id="clip6_2985_13870">
<rect width="32" height="41.0074" fill="white" transform="translate(1029 173)"/>
</clipPath>
<clipPath id="clip7_2985_13870">
<rect width="44" height="40.2769" fill="white" transform="translate(1001 313)"/>
</clipPath>
<clipPath id="clip8_2985_13870">
<rect width="49.0023" height="34" fill="white" transform="translate(1191.5 239)"/>
</clipPath>
</defs>
</svg>
