<?xml version="1.0" encoding="UTF-8"?>
<svg id="_Слой_2" data-name="Слой 2" xmlns="http://www.w3.org/2000/svg" viewBox="0 0 490 491.09">
  <defs>
    <style>
      .cls-1 {
        fill: #fff;
        stroke-width: 7px;
      }

      .cls-1, .cls-2 {
        stroke: #fff;
      }

      .cls-2 {
        fill: none;
        stroke-linecap: round;
        stroke-linejoin: round;
        stroke-width: 17px;
      }

      .cls-3 {
        fill: #e5213f;
      }

      .cls-3, .cls-4 {
        stroke-width: 0px;
      }

      .cls-4 {
        fill: #e5243c;
      }
    </style>
  </defs>
  <g id="_Слой_2-2" data-name=" Слой 2">
    <g>
      <path class="cls-3" d="M91.74,0H10.17S0,0,0,0v93.04c0,5.63,4.55,10.2,10.17,10.2h0c5.62,0,10.17-4.57,10.17-10.2V20.4s71.4,0,71.4,0c5.62,0,10.17-4.57,10.17-10.2h0C101.91,4.57,97.36,0,91.74,0Z"/>
      <path class="cls-3" d="M490,92.27V10.46s0-10.2,0-10.2h-92.77c-5.62,0-10.17,4.57-10.17,10.2h0c0,5.63,4.55,10.2,10.17,10.2h72.43s0,71.61,0,71.61c0,5.63,4.55,10.2,10.17,10.2h0c5.62,0,10.17-4.57,10.17-10.2Z"/>
      <path class="cls-3" d="M0,397.73v81.81s0,10.2,0,10.2h92.77c5.62,0,10.17-4.57,10.17-10.2h0c0-5.63-4.55-10.2-10.17-10.2H20.34s0-71.61,0-71.61c0-5.63-4.55-10.2-10.17-10.2h0C4.55,387.53,0,392.1,0,397.73Z"/>
    </g>
    <ellipse class="cls-2" cx="248.37" cy="251.18" rx="23.4" ry="23.47"/>
    <path class="cls-2" d="M311.01,253.73c-16.03-16.08-38.17-26.02-62.63-26.02s-46.6,9.94-62.63,26.02"/>
    <path class="cls-2" d="M185.74,255.65c16.03,16.08,38.17,26.02,62.63,26.02s46.6-9.94,62.63-26.02"/>
    <path class="cls-1" d="M389.05,249.16h-16.78s-.05-.02-.06-.05c-2.84-64.13-54.33-115.77-118.27-118.62-.03,0-.05-.03-.05-.06v-16.83c0-2.91-2.12-5.54-5.02-5.79-3.26-.28-6,2.29-6,5.5v17.12s-.02.05-.05.06c-63.94,2.85-115.43,54.49-118.27,118.62,0,.03-.03.05-.06.05h-16.78c-2.91,0-5.52,2.13-5.77,5.03-.28,3.27,2.28,6.02,5.49,6.02h17.07s.05.02.06.05c2.84,64.13,54.33,115.77,118.27,118.62.03,0,.05.03.05.06v16.83c0,2.91,2.12,5.54,5.02,5.79,3.26.28,6-2.29,6-5.5v-17.12s.02-.05.05-.06c63.94-2.85,115.43-54.49,118.27-118.62,0-.03.03-.05.06-.05h17.07c3.21,0,5.77-2.74,5.49-6.02-.25-2.9-2.87-5.03-5.77-5.03ZM347.79,254.72c-.02,3.03,2.42,5.49,5.44,5.49h7.9s.06.03.06.06c-2.82,58.03-49.38,104.73-107.24,107.56-.03,0-.06-.02-.06-.06v-8.63c0-3.01-2.44-5.45-5.44-5.45-.05,0-.09,0-.14,0-3,0-5.44,2.44-5.44,5.45v8.63s-.03.06-.06.06c-57.86-2.83-104.42-49.53-107.24-107.56,0-.03.02-.06.06-.06h7.9c3.02,0,5.46-2.47,5.44-5.49v-.14c-.02-3-2.45-5.42-5.43-5.42h-7.91s-.06-.03-.06-.06c2.82-58.03,49.38-104.73,107.24-107.56.03,0,.06.02.06.06v7.23c0,3.01,2.44,5.46,5.44,5.46h.14c3,0,5.44-2.44,5.44-5.46v-7.23s.03-.06.06-.06c57.86,2.83,104.42,49.53,107.24,107.56,0,.03-.02.06-.06.06h-7.91c-2.99,0-5.41,2.42-5.43,5.42v.14Z"/>
    <path class="cls-4" d="M397.75,491.09h81.57s10.17,0,10.17,0v-93.2c0-5.64-4.55-10.22-10.17-10.22h0c-5.62,0-10.17,4.57-10.17,10.22v72.76s-71.4,0-71.4,0c-5.62,0-10.17,4.57-10.17,10.22h0c0,5.64,4.55,10.22,10.17,10.22Z"/>
  </g>
</svg>