<?xml version="1.0" encoding="UTF-8"?>
<svg id="_Слой_2" data-name="Слой 2" xmlns="http://www.w3.org/2000/svg" viewBox="0 0 492.27 490.84">
  <defs>
    <style>
      .cls-1 {
        fill: none;
        stroke: #fff;
        stroke-linecap: round;
        stroke-linejoin: round;
        stroke-width: 17px;
      }

      .cls-2 {
        fill: #e5243c;
        stroke-width: 0px;
      }
    </style>
  </defs>
  <g id="_Слой_2-2" data-name=" Слой 2">
    <g>
      <polyline class="cls-1" points="187.38 197.03 196.92 206.57 216 187.49"/>
      <polyline class="cls-1" points="187.38 259.05 196.92 268.59 216 249.51"/>
      <polyline class="cls-1" points="187.38 321.06 196.92 330.61 216 311.52"/>
      <g>
        <path class="cls-1" d="M328.9,127.86h13.28c5.25,0,9.54,4.29,9.54,9.54v233.75c0,5.25-4.29,9.54-9.54,9.54h-190.82c-5.25,0-9.54-4.29-9.54-9.54v-233.75c0-5.25,4.29-9.54,9.54-9.54h14.91"/>
        <path class="cls-1" d="M289.7,113.55h-14.31v-9.54c0-5.27-4.27-9.54-9.54-9.54h-38.16c-5.27,0-9.54,4.27-9.54,9.54v9.54h-14.31c-5.27,0-9.54,4.27-9.54,9.54v14.31h104.95v-14.31c0-5.27-4.27-9.54-9.54-9.54Z"/>
      </g>
      <line class="cls-1" x1="250.05" y1="187.49" x2="310.94" y2="187.49"/>
      <line class="cls-1" x1="250.05" y1="211.34" x2="287.08" y2="211.34"/>
      <line class="cls-1" x1="250.05" y1="249.51" x2="310.94" y2="249.51"/>
      <line class="cls-1" x1="250.05" y1="273.36" x2="287.08" y2="273.36"/>
      <line class="cls-1" x1="250.05" y1="311.52" x2="310.94" y2="311.52"/>
      <line class="cls-1" x1="250.05" y1="335.38" x2="287.08" y2="335.38"/>
    </g>
    <g>
      <path class="cls-2" d="M92.17,0H10.22S0,0,0,0v93.2c0,5.64,4.57,10.22,10.22,10.22h0c5.64,0,10.22-4.57,10.22-10.22V20.43s71.73,0,71.73,0c5.64,0,10.22-4.57,10.22-10.22h0C102.38,4.57,97.81,0,92.17,0Z"/>
      <path class="cls-2" d="M492.27,92.42V10.47s0-10.22,0-10.22h-93.2c-5.64,0-10.22,4.57-10.22,10.22h0c0,5.64,4.57,10.22,10.22,10.22h72.76s0,71.73,0,71.73c0,5.64,4.57,10.22,10.22,10.22h0c5.64,0,10.22-4.57,10.22-10.22Z"/>
      <path class="cls-2" d="M400.1,490.84h81.95s10.22,0,10.22,0v-93.2c0-5.64-4.57-10.22-10.22-10.22h0c-5.64,0-10.22,4.57-10.22,10.22v72.76s-71.73,0-71.73,0c-5.64,0-10.22,4.57-10.22,10.22h0c0,5.64,4.57,10.22,10.22,10.22Z"/>
      <path class="cls-2" d="M0,398.41v81.95s0,10.22,0,10.22h93.2c5.64,0,10.22-4.57,10.22-10.22h0c0-5.64-4.57-10.22-10.22-10.22H20.43s0-71.73,0-71.73c0-5.64-4.57-10.22-10.22-10.22h0C4.57,388.2,0,392.77,0,398.41Z"/>
    </g>
  </g>
</svg>