<svg width="64" height="64" viewBox="0 0 64 64" fill="none" xmlns="http://www.w3.org/2000/svg">
<path d="M50.7523 52.5794C49.6213 52.5664 48.4902 52.5794 47.3722 52.5794C47.1772 52.5794 46.9822 52.5794 46.7872 52.5794C46.7482 52.5272 46.7222 52.4751 46.6832 52.4229C46.8132 52.3317 46.9692 52.2404 47.0862 52.1361C47.9442 51.3018 48.8153 50.4804 49.6603 49.633C50.9343 48.3423 51.3243 46.8039 50.7653 45.0569C50.5443 44.3659 50.3233 43.6619 50.1413 42.9579C49.4133 40.2461 48.6852 37.5344 47.9702 34.8226C47.5802 33.3755 46.6962 32.2804 45.4612 31.4721C43.6542 30.2857 41.6521 29.699 39.5331 29.4773C36.1271 29.1253 32.721 29.0471 29.302 29.2687C27.3 29.3991 25.3109 29.5816 23.3869 30.2596C20.6439 31.2243 18.6158 32.841 18.0828 35.8917C18.0568 36.009 18.0178 36.1134 17.9918 36.2307C17.2248 39.138 16.4968 42.0583 15.6648 44.9395C15.1318 46.8169 15.4828 48.3814 16.8998 49.7112C17.7708 50.5325 18.6548 51.3408 19.5258 52.1622C19.6428 52.2795 19.7598 52.3968 19.9678 52.6054C18.5118 52.6054 17.2118 52.6054 15.9118 52.6054C15.3918 52.6054 15.0798 52.8793 15.0668 53.3095C15.0538 53.7528 15.3788 54.0657 15.9118 54.0917C16.0418 54.1048 16.1718 54.0917 16.3148 54.0917C27.677 54.0917 39.0391 54.0917 50.4013 54.0917C50.5313 54.0917 50.6613 54.0917 50.8043 54.0917C51.3113 54.0526 51.6233 53.7527 51.6233 53.3355C51.5713 52.8792 51.2593 52.5794 50.7523 52.5794ZM44.9672 39.7637C44.6812 43.2708 44.3822 46.7909 44.0962 50.2979C44.0572 50.8324 44.0052 51.3539 43.9662 51.8884C43.9142 52.5663 43.9272 52.5663 43.2252 52.5663C38.5191 52.5663 33.8 52.5663 29.094 52.5663C27.118 52.5663 25.1419 52.5663 23.1789 52.5663C22.8799 52.5663 22.6979 52.5403 22.6719 52.1622C22.3469 48.0685 22.0089 43.9748 21.6709 39.8811C21.6579 39.7247 21.6579 39.5552 21.6449 39.3596H44.9932C44.9672 39.503 44.9802 39.6334 44.9672 39.7637ZM45.5002 51.4321C45.6302 49.8546 45.7602 48.2901 45.8902 46.7126C46.1112 44.1313 46.3322 41.5499 46.5402 38.9555C46.5662 38.6426 46.5532 38.4209 46.4882 38.2515H20.1239C20.0589 38.4079 20.0459 38.6165 20.0719 38.8772C20.3059 41.8758 20.5659 44.8744 20.8129 47.8729C20.9169 49.0593 21.0079 50.2457 21.1119 51.5886C19.8248 50.3631 18.6158 49.294 17.4978 48.1337C16.8868 47.4949 16.7438 46.6344 16.9778 45.7479C17.8488 42.4755 18.7978 39.2292 19.5778 35.9308C20.1368 33.558 21.7489 32.3977 23.8419 31.6415C25.7269 30.9636 27.6899 30.8202 29.666 30.742C29.809 30.742 30.03 30.8984 30.082 31.0288C30.459 31.8762 30.797 32.7497 31.135 33.6102C31.187 33.7536 31.226 33.9361 31.2 34.0925C31.096 34.7835 30.992 35.4745 30.875 36.1785H32.396C32.487 35.5788 32.578 34.9921 32.643 34.3924C32.695 33.9492 32.63 33.4667 32.5 33.0495C32.24 32.2673 31.889 31.5112 31.551 30.6638H35.0351C34.9181 30.9766 34.8141 31.2504 34.7101 31.5242C33.813 33.7275 33.8 33.7796 34.216 36.1785H35.7501C35.6721 35.6831 35.5941 35.2007 35.4901 34.7053C35.3731 34.1056 35.4511 33.5711 35.6981 33.0235C35.9971 32.3716 36.2311 31.7067 36.5171 31.0549C36.5691 30.9245 36.7641 30.768 36.8811 30.768C39.0131 30.8854 41.1581 31.0288 43.1472 31.9414C43.7712 32.2282 44.3822 32.5932 44.9412 32.9844C45.7732 33.558 46.2802 34.3924 46.5402 35.3702C47.3202 38.3166 48.1132 41.2761 48.9193 44.2225C49.0493 44.7049 49.2183 45.1742 49.3613 45.6435C49.6603 46.6474 49.4913 47.5861 48.7762 48.3423C47.7492 49.4244 46.6572 50.4413 45.5912 51.4843C45.5782 51.4582 45.5392 51.4451 45.5002 51.4321Z" fill="white"/>
<path d="M50.7523 52.5794C49.6213 52.5664 48.4902 52.5794 47.3722 52.5794C47.1772 52.5794 46.9822 52.5794 46.7872 52.5794C46.7482 52.5272 46.7222 52.4751 46.6832 52.4229C46.8132 52.3317 46.9692 52.2404 47.0862 52.1361C47.9442 51.3018 48.8153 50.4804 49.6603 49.633C50.9343 48.3423 51.3243 46.8039 50.7653 45.0569C50.5443 44.3659 50.3233 43.6619 50.1413 42.9579C49.4133 40.2461 48.6852 37.5344 47.9702 34.8226C47.5802 33.3755 46.6962 32.2804 45.4612 31.4721C43.6542 30.2857 41.6521 29.699 39.5331 29.4773C36.1271 29.1253 32.721 29.0471 29.302 29.2687C27.3 29.3991 25.3109 29.5816 23.3869 30.2596C20.6439 31.2243 18.6158 32.841 18.0828 35.8917C18.0568 36.009 18.0178 36.1134 17.9918 36.2307C17.2248 39.138 16.4968 42.0583 15.6648 44.9395C15.1318 46.8169 15.4828 48.3814 16.8998 49.7112C17.7708 50.5325 18.6548 51.3408 19.5258 52.1622C19.6428 52.2795 19.7598 52.3968 19.9678 52.6054C18.5118 52.6054 17.2118 52.6054 15.9118 52.6054C15.3918 52.6054 15.0798 52.8793 15.0668 53.3095C15.0538 53.7528 15.3788 54.0657 15.9118 54.0917C16.0418 54.1048 16.1718 54.0917 16.3148 54.0917C27.677 54.0917 39.0391 54.0917 50.4013 54.0917C50.5313 54.0917 50.6613 54.0917 50.8043 54.0917C51.3113 54.0526 51.6233 53.7527 51.6233 53.3355C51.5713 52.8792 51.2593 52.5794 50.7523 52.5794ZM44.9672 39.7637C44.6812 43.2708 44.3822 46.7909 44.0962 50.2979C44.0572 50.8324 44.0052 51.3539 43.9662 51.8884C43.9142 52.5663 43.9272 52.5663 43.2252 52.5663C38.5191 52.5663 33.8 52.5663 29.094 52.5663C27.118 52.5663 25.1419 52.5663 23.1789 52.5663C22.8799 52.5663 22.6979 52.5403 22.6719 52.1622C22.3469 48.0685 22.0089 43.9748 21.6709 39.8811C21.6579 39.7247 21.6579 39.5552 21.6449 39.3596H44.9932C44.9672 39.503 44.9802 39.6334 44.9672 39.7637ZM45.5002 51.4321C45.6302 49.8546 45.7602 48.2901 45.8902 46.7126C46.1112 44.1313 46.3322 41.5499 46.5402 38.9555C46.5662 38.6426 46.5532 38.4209 46.4882 38.2515H20.1239C20.0589 38.4079 20.0459 38.6165 20.0719 38.8772C20.3059 41.8758 20.5659 44.8744 20.8129 47.8729C20.9169 49.0593 21.0079 50.2457 21.1119 51.5886C19.8248 50.3631 18.6158 49.294 17.4978 48.1337C16.8868 47.4949 16.7438 46.6344 16.9778 45.7479C17.8488 42.4755 18.7978 39.2292 19.5778 35.9308C20.1368 33.558 21.7489 32.3977 23.8419 31.6415C25.7269 30.9636 27.6899 30.8202 29.666 30.742C29.809 30.742 30.03 30.8984 30.082 31.0288C30.459 31.8762 30.797 32.7497 31.135 33.6102C31.187 33.7536 31.226 33.9361 31.2 34.0925C31.096 34.7835 30.992 35.4745 30.875 36.1785H32.396C32.487 35.5788 32.578 34.9921 32.643 34.3924C32.695 33.9492 32.63 33.4667 32.5 33.0495C32.24 32.2673 31.889 31.5112 31.551 30.6638H35.0351C34.9181 30.9766 34.8141 31.2504 34.7101 31.5242C33.813 33.7275 33.8 33.7796 34.216 36.1785H35.7501C35.6721 35.6831 35.5941 35.2007 35.4901 34.7053C35.3731 34.1056 35.4511 33.5711 35.6981 33.0235C35.9971 32.3716 36.2311 31.7067 36.5171 31.0549C36.5691 30.9245 36.7641 30.768 36.8811 30.768C39.0131 30.8854 41.1581 31.0288 43.1472 31.9414C43.7712 32.2282 44.3822 32.5932 44.9412 32.9844C45.7732 33.558 46.2802 34.3924 46.5402 35.3702C47.3202 38.3166 48.1132 41.2761 48.9193 44.2225C49.0493 44.7049 49.2182 45.1742 49.3613 45.6435C49.6603 46.6474 49.4913 47.5861 48.7762 48.3423C47.7492 49.4244 46.6572 50.4413 45.5912 51.4843C45.5782 51.4582 45.5392 51.4451 45.5002 51.4321Z" stroke="white" stroke-width="0.456304" stroke-miterlimit="10"/>
<path d="M33.306 26.492C37.1329 26.492 40.2351 23.3809 40.2351 19.5431C40.2351 15.7054 37.1329 12.5942 33.306 12.5942C29.4792 12.5942 26.377 15.7054 26.377 19.5431C26.377 23.3809 29.4792 26.492 33.306 26.492Z" stroke="white" stroke-width="2.15284" stroke-miterlimit="10"/>
<path d="M11.9862 0H1.33903H0V1.32983V12.1508C0 12.8808 0.598002 13.4806 1.32601 13.4806C2.05402 13.4806 2.65204 12.8808 2.65204 12.1508V2.65965H11.9732C12.7012 2.65965 13.2992 2.05991 13.2992 1.32983C13.2992 0.599739 12.7142 0 11.9862 0Z" fill="#FF0032"/>
<path d="M64.0008 12.0595V1.38201V0.0522461H62.6748H51.8846C51.1566 0.0522461 50.5586 0.651922 50.5586 1.38201C50.5586 2.11209 51.1566 2.71183 51.8846 2.71183H61.3487V12.0595C61.3487 12.7896 61.9467 13.3893 62.6748 13.3893C63.4028 13.3893 64.0008 12.7896 64.0008 12.0595Z" fill="#FF0032"/>
<path d="M52.0135 63.9996H62.6607H63.9867V62.6698V51.8489C63.9867 51.1188 63.3887 50.519 62.6607 50.519C61.9327 50.519 61.3347 51.1188 61.3347 51.8489V61.34H52.0135C51.2855 61.34 50.6875 61.9397 50.6875 62.6698C50.6875 63.3999 51.2855 63.9996 52.0135 63.9996Z" fill="#FF0032"/>
<path d="M0 51.9535V62.6311V63.9608H1.32601H12.1162C12.8442 63.9608 13.4422 63.3612 13.4422 62.6311C13.4422 61.901 12.8442 61.3012 12.1162 61.3012H2.65204V51.9535C2.65204 51.2234 2.05402 50.6237 1.32601 50.6237C0.598002 50.6107 0 51.2104 0 51.9535Z" fill="#FF0032"/>
</svg>
