<svg width="124" height="124" viewBox="0 0 124 124" fill="none" xmlns="http://www.w3.org/2000/svg">
<path d="M38.152 98.4284C38.294 94.1934 39.5015 90.2163 41.4761 86.4564C43.9479 81.7599 48.0108 78.8687 53.2811 77.5927C58.9066 76.2218 64.5746 76.2218 70.2001 77.6742C76.3228 79.2487 80.4709 82.9544 82.8006 88.5603C84.1075 91.7366 85.1303 94.9943 85.1445 98.4556" stroke="#CFCECE" stroke-width="3" stroke-linecap="round" stroke-linejoin="round"/>
<path d="M86.6217 56.2277C82.9993 56.2277 80.0303 56.2277 77.0613 56.2277C76.5925 56.2277 76.3368 56.0919 76.0669 55.7254C74.1775 53.1329 71.6347 51.4226 68.3958 50.676C68.0264 50.5946 67.8276 50.4724 67.7849 50.0652C67.7423 49.6308 67.6997 49.1829 67.6997 48.7485C67.6997 45.2194 67.6997 41.6766 67.6997 38.1475C67.6997 34.0346 69.9158 31.3877 74.1065 30.4647C80.4991 29.0531 86.8916 27.6278 93.27 26.2026C98.0716 25.1302 102.561 28.4422 102.575 33.1387C102.603 38.5547 102.603 43.9706 102.575 49.3865C102.546 52.7664 99.5632 55.834 96.0401 56.1191C92.6876 56.3906 89.335 56.1462 86.6359 56.2277H86.6217Z" stroke="#CFCECE" stroke-width="3" stroke-linecap="round" stroke-linejoin="round"/>
<path d="M22 41.1065C22 38.5003 22 35.8942 22 33.3016C22 28.5915 26.3754 25.1573 31.1769 26.1889C37.811 27.6142 44.4166 29.1073 51.0365 30.614C54.6732 31.442 56.8893 34.211 56.8893 37.7945C56.8893 41.5137 56.8893 45.2329 56.8893 48.9521C56.8893 49.1557 56.8751 49.3729 56.8893 49.5765C56.9177 50.2145 56.6904 50.5267 55.9659 50.676C52.5991 51.3682 49.9285 53.1192 47.8828 55.739C47.6129 56.0919 47.3572 56.2548 46.8742 56.2548C41.2346 56.2412 35.5807 56.2548 29.941 56.2412C26.0913 56.2412 23.1649 54.1644 22.2415 50.8389C22.0852 50.2552 22 49.6579 22 49.0471C22 46.4002 22 43.7534 22 41.0929V41.1065Z" stroke="#CFCECE" stroke-width="3" stroke-linecap="round" stroke-linejoin="round"/>
<path d="M51.5052 64.6977C51.7041 59.4446 56.4772 55.3589 62.0317 55.5761C67.7282 55.7933 72.0467 60.2183 71.791 65.4442C71.5211 71.0502 66.5775 74.8373 61.1793 74.5658C55.4828 74.2807 51.1359 69.7743 51.491 64.7113L51.5052 64.6977Z" stroke="#CFCECE" stroke-width="3" stroke-linecap="round" stroke-linejoin="round"/>
<path d="M80.002 63.5167C85.8405 63.5167 89.7897 63.4896 95.6283 63.5574C99.336 63.6117 102.546 66.8016 102.561 70.3443C102.589 75.8824 102.589 81.4069 102.561 86.945C102.546 90.3791 99.2933 93.5011 95.6851 93.6911" stroke="#CFCECE" stroke-width="3" stroke-linecap="round" stroke-linejoin="round"/>
<path d="M44.0615 62.9603C38.2229 62.9603 34.7993 62.9331 28.9608 63.001C25.2531 63.0553 22.0426 66.2451 22.0284 69.7878C22 75.3259 22 80.8504 22.0284 86.3885C22.0426 89.8227 25.2957 92.9446 28.904 93.1347" stroke="#CFCECE" stroke-width="3" stroke-linecap="round" stroke-linejoin="round"/>
</svg>
