<?xml version="1.0" encoding="UTF-8"?>
<svg id="_Слой_2" data-name="Слой 2" xmlns="http://www.w3.org/2000/svg" viewBox="0 0 492.27 490.84">
  <defs>
    <style>
      .cls-1, .cls-2, .cls-3 {
        fill: none;
        stroke: #fff;
        stroke-width: 17px;
      }

      .cls-2 {
        stroke-miterlimit: 10;
      }

      .cls-3 {
        stroke-linecap: round;
      }

      .cls-4 {
        fill: #e5213f;
        stroke-width: 0px;
      }
    </style>
  </defs>
  <g id="_Слой_2-2" data-name=" Слой 2">
    <path class="cls-1" d="M377.87,222.77v131.95c0,9.07-7.24,16.42-16.18,16.42h-67.42v-148.37c0-9.07,7.24-16.42,16.18-16.42h51.24c8.93,0,16.18,7.35,16.18,16.42Z"/>
    <path class="cls-1" d="M294.28,371.14h-83.59v-107.02c0-9.07,7.24-16.42,16.18-16.42h67.42v123.45Z"/>
    <path class="cls-1" d="M210.69,371.14h-67.42c-8.93,0-16.18-7.35-16.18-16.42v-47.08c0-9.07,7.24-16.42,16.18-16.42h67.42v79.93Z"/>
    <path class="cls-3" d="M309.3,129.34l-177.26,96.76"/>
    <path class="cls-2" d="M322.13,152.14l-26.39-46.88c-3.24-6,.79-13.35,7.51-13.7l57.99-3.04c7.27-.38,12.08,7.6,8.42,13.97l-31.6,49.92c-3.58,6.23-12.51,6.08-15.93-.27Z"/>
    <g>
      <path class="cls-4" d="M92.17,0H10.22S0,0,0,0v93.2c0,5.64,4.57,10.22,10.22,10.22h0c5.64,0,10.22-4.57,10.22-10.22V20.43s71.73,0,71.73,0c5.64,0,10.22-4.57,10.22-10.22h0C102.38,4.57,97.81,0,92.17,0Z"/>
      <path class="cls-4" d="M492.27,92.42V10.47s0-10.22,0-10.22h-93.2c-5.64,0-10.22,4.57-10.22,10.22h0c0,5.64,4.57,10.22,10.22,10.22h72.76s0,71.73,0,71.73c0,5.64,4.57,10.22,10.22,10.22h0c5.64,0,10.22-4.57,10.22-10.22Z"/>
      <path class="cls-4" d="M400.1,490.84h81.95s10.22,0,10.22,0v-93.2c0-5.64-4.57-10.22-10.22-10.22h0c-5.64,0-10.22,4.57-10.22,10.22v72.76s-71.73,0-71.73,0c-5.64,0-10.22,4.57-10.22,10.22h0c0,5.64,4.57,10.22,10.22,10.22Z"/>
      <path class="cls-4" d="M0,398.41v81.95s0,10.22,0,10.22h93.2c5.64,0,10.22-4.57,10.22-10.22h0c0-5.64-4.57-10.22-10.22-10.22H20.43s0-71.73,0-71.73c0-5.64-4.57-10.22-10.22-10.22h0C4.57,388.2,0,392.77,0,398.41Z"/>
    </g>
  </g>
</svg>