<svg width="124" height="124" viewBox="0 0 124 124" fill="none" xmlns="http://www.w3.org/2000/svg">
<path d="M80 58V51.6158C80 45.7513 84.6938 41 90.4878 41C96.2817 41 100.976 45.7513 100.976 51.6158V58" stroke="#CFCECE" stroke-width="3"/>
<path d="M90.4999 72.1016C88.8454 72.1016 87.5 70.7561 87.5 69.1016C87.5 67.447 88.8454 66.1016 90.4999 66.1016C92.1544 66.1016 93.4998 67.447 93.4998 69.1016C93.518 70.7561 92.1726 72.1016 90.4999 72.1016Z" fill="#CFCECE"/>
<path d="M90.5 74.4353V75.0666V71.4805V74.4353Z" stroke="#CFCECE" stroke-width="3" stroke-linejoin="round"/>
<path d="M27.9885 61.7224V59.702V59.2221C27.9885 58.7318 27.5626 58.2687 27.0637 58.2687V58.2681L27.051 58.2694C26.5257 58.3249 26.1136 58.6934 26.1136 59.2221V62.6568V63.1366C26.1136 63.456 26.2862 63.773 26.5742 63.9465C26.7247 64.0372 26.8993 64.0647 27.0385 64.0647C27.202 64.0647 27.3485 64.0374 27.4953 63.951C27.7507 63.8427 28.0076 63.7344 28.2653 63.6257C29.1458 63.2543 30.0358 62.8789 30.9105 62.4885L30.9106 62.4887L30.9155 62.4862C30.9848 62.4514 31.061 62.4219 31.1438 62.3899L31.1465 62.3889C31.2254 62.3584 31.3106 62.3255 31.3904 62.2857C31.5062 62.2347 31.6023 62.1332 31.6727 62.0356C31.7452 61.935 31.8014 61.8232 31.8307 61.7349L31.831 61.735L31.8333 61.7261C31.89 61.4981 31.8634 61.2133 31.7456 61.0064C31.6317 60.8061 31.4308 60.6303 31.1927 60.5705L31.1927 60.5705L31.1896 60.5698C30.9291 60.5117 30.7011 60.5718 30.4924 60.6504L30.4923 60.6503L30.4874 60.6524L27.9885 61.7224Z" fill="#CFCECE" stroke="#CFCECE" stroke-width="0.24"/>
<path d="M22.8984 62.5922C23.7586 62.9185 24.6334 63.2448 25.5007 63.5601C25.3745 63.7132 25.2485 63.8662 25.1224 64.0192L25.1219 64.0199C24.7008 64.531 24.2798 65.0421 23.8525 65.5595C23.7893 65.6357 23.7324 65.7055 23.6758 65.775L23.6757 65.7751C23.6193 65.8444 23.5631 65.9133 23.5009 65.9884C23.3418 66.1749 23.2212 66.3783 23.2212 66.6462C23.2212 66.8833 23.3368 67.1402 23.5077 67.3118L23.5076 67.3119L23.5114 67.3154C23.6837 67.474 23.9246 67.573 24.1659 67.5837C24.409 67.5945 24.6615 67.5152 24.841 67.305L24.841 67.305L24.8422 67.3035C25.1463 66.9354 25.4467 66.5678 25.746 66.2016C26.29 65.5359 26.8303 64.8749 27.3817 64.2236L27.3824 64.2227C27.4456 64.1465 27.5025 64.0768 27.559 64.0075L27.5591 64.0073C27.6154 63.9384 27.6713 63.8698 27.7334 63.795C27.9523 63.547 28.0739 63.228 27.9588 62.8754C27.8693 62.5232 27.6041 62.3242 27.3068 62.2155C26.1746 61.7861 25.0171 61.3565 23.8846 60.9522L23.8846 60.9522L23.8823 60.9514C23.8099 60.9272 23.7309 60.8967 23.6485 60.8649L23.647 60.8643C23.567 60.8334 23.4839 60.8013 23.4065 60.7753C23.1627 60.6845 22.8743 60.7471 22.6778 60.8599C22.4739 60.9769 22.3035 61.2051 22.2448 61.4112L22.2446 61.4111L22.2428 61.4194C22.1873 61.6841 22.2208 61.9351 22.3373 62.1433C22.4535 62.3511 22.6477 62.5078 22.8984 62.5922Z" fill="#CFCECE" stroke="#CFCECE" stroke-width="0.24"/>
<path d="M28.8059 66.8729L28.8059 66.8729L28.8074 66.8748C28.8699 66.9501 28.9262 67.0191 28.9828 67.0886L28.983 67.0888C29.0395 67.1581 29.0963 67.2279 29.1596 67.3041C29.2396 67.4005 29.3597 67.4732 29.4764 67.5215C29.5939 67.57 29.7228 67.6 29.8304 67.6C30.0669 67.6 30.323 67.4838 30.4939 67.3122C30.6633 67.1421 30.7804 66.9108 30.7804 66.6466C30.7804 66.3794 30.6605 66.1761 30.502 65.99C29.8308 65.1265 29.1421 64.2631 28.4657 63.415C28.3309 63.246 28.1966 63.0776 28.063 62.9099L28.063 62.9099L28.0615 62.9081C27.999 62.8328 27.9427 62.7637 27.8861 62.6942L27.886 62.6941C27.8295 62.6247 27.7726 62.5549 27.7094 62.4787C27.6293 62.3823 27.5092 62.3096 27.3925 62.2614C27.2751 62.2128 27.1461 62.1828 27.0385 62.1828C26.802 62.1828 26.5459 62.2991 26.375 62.4707C26.2056 62.6408 26.0885 62.872 26.0885 63.1362H26.0878L26.0892 63.1494C26.1169 63.3995 26.2015 63.5984 26.3669 63.7929C27.0381 64.6562 27.7267 65.5196 28.4031 66.3677C28.5379 66.5367 28.6723 66.7052 28.8059 66.8729Z" fill="#CFCECE" stroke="#CFCECE" stroke-width="0.24"/>
<path d="M42.929 61.7224V59.702V59.2221C42.929 58.7318 42.5031 58.2687 42.0041 58.2687V58.2681L41.9915 58.2694C41.4661 58.3249 41.0541 58.6934 41.0541 59.2221V62.6568V63.1366C41.0541 63.456 41.2266 63.773 41.5146 63.9465C41.6651 64.0372 41.8398 64.0647 41.9789 64.0647C42.1424 64.0647 42.289 64.0374 42.4357 63.951C42.6912 63.8427 42.9481 63.7344 43.2057 63.6257C44.0863 63.2543 44.9763 62.8789 45.851 62.4885L45.851 62.4887L45.8559 62.4862C45.9253 62.4514 46.0014 62.4219 46.0842 62.3899L46.0869 62.3889C46.1659 62.3584 46.251 62.3255 46.3308 62.2857C46.4466 62.2347 46.5427 62.1332 46.6131 62.0356C46.6856 61.935 46.7418 61.8232 46.7711 61.7349L46.7715 61.735L46.7737 61.7261C46.8304 61.4981 46.8039 61.2133 46.6861 61.0064C46.5721 60.8061 46.3712 60.6303 46.1331 60.5705L46.1331 60.5705L46.13 60.5698C45.8695 60.5117 45.6416 60.5718 45.4328 60.6504L45.4328 60.6503L45.4279 60.6524L42.929 61.7224Z" fill="#CFCECE" stroke="#CFCECE" stroke-width="0.24"/>
<path d="M37.8383 62.5921L40.4459 63.5546L38.7929 65.5594C38.7929 65.5595 38.7928 65.5595 38.7928 65.5596C38.7296 65.6357 38.6727 65.7056 38.6162 65.7749L38.6161 65.7751C38.5597 65.8444 38.5036 65.9133 38.4413 65.9884C38.2822 66.1749 38.1616 66.3783 38.1616 66.6462C38.1616 66.8833 38.2772 67.1402 38.4481 67.3118L38.448 67.3119L38.4519 67.3154C38.6242 67.474 38.8651 67.573 39.1063 67.5837C39.3494 67.5945 39.6019 67.5152 39.7814 67.305L39.7814 67.305L39.7826 67.3035C40.0867 66.9354 40.3871 66.5678 40.6864 66.2016C41.2304 65.5359 41.7707 64.8749 42.3221 64.2236L42.3228 64.2227C42.386 64.1465 42.4429 64.0768 42.4994 64.0075L42.4995 64.0073C42.5558 63.9384 42.6117 63.8698 42.6738 63.795C42.8927 63.547 43.0143 63.228 42.8992 62.8754C42.8096 62.523 42.5442 62.324 42.2467 62.2153C42.2466 62.2153 42.2466 62.2153 42.2465 62.2152L38.8262 60.9526L38.8262 60.9526L38.8227 60.9514C38.7504 60.9272 38.6713 60.8967 38.5889 60.8649L38.5874 60.8643C38.5074 60.8334 38.4243 60.8013 38.3469 60.7753C38.1031 60.6845 37.8147 60.7471 37.6182 60.8599C37.4143 60.9769 37.2439 61.2051 37.1852 61.4112L37.185 61.4111L37.1832 61.4194C37.0698 61.9601 37.3569 62.4211 37.8383 62.5921Z" fill="#CFCECE" stroke="#CFCECE" stroke-width="0.24"/>
<path d="M43.7462 66.8729L43.7462 66.8729L43.7477 66.8748C43.8102 66.9501 43.8665 67.0191 43.9231 67.0886L43.9233 67.0888C43.9798 67.1582 44.0367 67.228 44.0999 67.3041C44.1799 67.4005 44.3 67.4732 44.4167 67.5215C44.5342 67.57 44.6631 67.6 44.7707 67.6C45.0072 67.6 45.2633 67.4838 45.4342 67.3122C45.6036 67.1421 45.7207 66.9108 45.7207 66.6466C45.7207 66.3794 45.6008 66.1761 45.4423 65.99C44.7711 65.1265 44.0823 64.263 43.4058 63.4148C43.2711 63.2459 43.1368 63.0775 43.0033 62.9099L43.0033 62.9099L43.0018 62.9081C42.9393 62.8328 42.883 62.7637 42.8264 62.6942L42.8263 62.6941C42.7698 62.6247 42.7129 62.5549 42.6497 62.4787C42.5696 62.3823 42.4495 62.3096 42.3328 62.2614C42.2154 62.2128 42.0864 62.1828 41.9788 62.1828C41.7423 62.1828 41.4862 62.2991 41.3153 62.4707C41.1459 62.6408 41.0288 62.872 41.0288 63.1362H41.0281L41.0295 63.1494C41.0572 63.3995 41.1418 63.5984 41.3072 63.7929C41.9784 64.6563 42.6671 65.5197 43.3435 66.3678C43.4783 66.5368 43.6126 66.7052 43.7462 66.8729Z" fill="#CFCECE" stroke="#CFCECE" stroke-width="0.24"/>
<path d="M57.9699 61.7224V59.702V59.2221C57.9699 58.7318 57.544 58.2687 57.045 58.2687V58.268L57.0317 58.2695C56.5348 58.3249 56.095 58.6911 56.095 59.2221V62.6568V63.1366C56.095 63.456 56.2675 63.773 56.5555 63.9465C56.706 64.0372 56.8807 64.0647 57.0198 64.0647C57.1833 64.0647 57.3299 64.0374 57.4766 63.951C57.7321 63.8427 57.9889 63.7344 58.2466 63.6257C59.1271 63.2543 60.0171 62.8789 60.8919 62.4885L60.8919 62.4887L60.8968 62.4862C60.9661 62.4514 61.0423 62.4219 61.1251 62.3899L61.1278 62.3889C61.2067 62.3584 61.2919 62.3255 61.3717 62.2857C61.4875 62.2347 61.5836 62.1332 61.654 62.0356C61.7265 61.935 61.7827 61.8232 61.812 61.7349L61.8124 61.735L61.8146 61.7261C61.8713 61.4981 61.8448 61.2133 61.727 61.0064C61.613 60.8061 61.4121 60.6303 61.174 60.5705L61.174 60.5705L61.1709 60.5698C60.9104 60.5117 60.6825 60.5718 60.4737 60.6504L60.4737 60.6503L60.4687 60.6524L57.9699 61.7224Z" fill="#CFCECE" stroke="#CFCECE" stroke-width="0.24"/>
<path d="M52.8792 62.5921L55.4868 63.5546L53.8338 65.5594C53.8338 65.5595 53.8337 65.5595 53.8337 65.5596C53.7705 65.6357 53.7137 65.7055 53.6572 65.7749L53.657 65.7751C53.6005 65.8444 53.5445 65.9133 53.4822 65.9884C53.3231 66.1749 53.2025 66.3783 53.2025 66.6462C53.2025 66.8833 53.3181 67.1402 53.489 67.3118L53.4889 67.3119L53.4927 67.3154C53.665 67.474 53.906 67.573 54.1472 67.5837C54.3903 67.5945 54.6428 67.5152 54.8223 67.305L54.8223 67.305L54.8235 67.3035C55.1276 66.9353 55.428 66.5678 55.7273 66.2016C56.2713 65.5359 56.8116 64.8749 57.363 64.2236L57.3637 64.2227C57.4269 64.1465 57.4838 64.0768 57.5403 64.0075L57.5404 64.0073C57.5967 63.9384 57.6526 63.8698 57.7147 63.795C57.9336 63.547 58.0552 63.228 57.94 62.8754C57.8505 62.523 57.5851 62.324 57.2876 62.2153C57.2875 62.2153 57.2874 62.2153 57.2874 62.2152L53.8671 60.9526L53.8671 60.9526L53.8636 60.9514C53.7912 60.9272 53.7122 60.8967 53.6298 60.8649L53.6283 60.8643C53.5483 60.8334 53.4652 60.8013 53.3878 60.7753C53.144 60.6845 52.8556 60.7471 52.6591 60.8599C52.4552 60.9769 52.2848 61.2051 52.2261 61.4112L52.2259 61.4111L52.2241 61.4194C52.1107 61.9601 52.3978 62.4211 52.8792 62.5921Z" fill="#CFCECE" stroke="#CFCECE" stroke-width="0.24"/>
<path d="M56.3437 63.7866L56.3436 63.7867L56.3467 63.7907C57.0183 64.6548 57.7075 65.5188 58.3844 66.3676C58.5193 66.5367 58.6537 66.7052 58.7874 66.8729L58.7874 66.8729L58.7889 66.8748C58.8514 66.9501 58.9076 67.0191 58.9643 67.0886L58.9644 67.0888C59.0209 67.1582 59.0778 67.228 59.141 67.3041C59.221 67.4005 59.3412 67.4732 59.4579 67.5215C59.5753 67.57 59.7043 67.6 59.8119 67.6C60.0484 67.6 60.3045 67.4838 60.4754 67.3122C60.6448 67.1421 60.7619 66.9108 60.7619 66.6466C60.7619 66.3794 60.6419 66.1761 60.4834 65.99C59.8123 65.1266 59.1236 64.2632 58.4472 63.4151C58.3124 63.246 58.1781 63.0776 58.0444 62.9099L58.0445 62.9099L58.0429 62.9081C57.9804 62.8328 57.9242 62.7637 57.8676 62.6942L57.8674 62.6941C57.8109 62.6247 57.754 62.5549 57.6908 62.4787C57.6108 62.3823 57.4907 62.3096 57.3739 62.2614C57.2565 62.2128 57.1276 62.1828 57.02 62.1828C56.7834 62.1828 56.5273 62.2991 56.3564 62.4707C56.1871 62.6408 56.0699 62.872 56.0699 63.1362H56.0692L56.0707 63.1494C56.0992 63.4071 56.2138 63.604 56.3437 63.7866Z" fill="#CFCECE" stroke="#CFCECE" stroke-width="0.24"/>
<mask id="path-13-outside-1_4062_23254" maskUnits="userSpaceOnUse" x="11.1088" y="48.8027" width="56" height="28" fill="black">
<rect fill="white" x="11.1088" y="48.8027" width="56" height="28"/>
<path d="M64.8422 49.8027H63.2324H58.9817H52.9452H45.9529H38.8349H32.4462H27.6673H25.303C22.6873 49.8027 20.0966 50.5351 17.9084 52.0251C15.0662 53.9444 13.0037 56.975 12.3497 60.3591C11.6958 63.7937 12.3749 67.4556 14.3619 70.3347C16.2986 73.1632 19.2917 75.2088 22.6621 75.8401C23.8191 76.0674 24.9761 76.0927 26.1582 76.0927H29.8807H35.5903H42.4568H49.6H56.215H61.4466H64.4146H64.817C65.4458 76.0927 66.0243 75.5371 65.9992 74.9057C65.974 74.2491 65.471 73.7188 64.817 73.7188H63.2324H59.032H53.071H46.1542H39.0864H32.6978H27.8686H25.3533H25.1773C25.0013 73.7188 24.8252 73.7188 24.6491 73.7188C24.4479 73.7188 24.2719 73.6935 24.0707 73.6935C23.9701 73.6935 23.8694 73.6683 23.7436 73.6683C23.6933 73.6683 23.5424 73.643 23.7184 73.6683C23.9196 73.6935 23.7185 73.6683 23.6682 73.6683C22.8633 73.542 22.0836 73.3399 21.3039 73.0621C21.2285 73.0369 21.1279 72.9864 21.0524 72.9611C21.0021 72.9359 20.9769 72.9359 20.9266 72.9106C20.7506 72.8349 21.0021 72.9359 21.0272 72.9611C20.8512 72.8601 20.6499 72.7843 20.4738 72.7086C20.1217 72.5318 19.7695 72.3298 19.4426 72.1277C19.2917 72.0267 19.1156 71.9257 18.9647 71.7994C18.8892 71.7489 18.8138 71.6984 18.7384 71.6479C18.6629 71.5974 18.3863 71.3448 18.663 71.5974C18.3863 71.3448 18.0845 71.1175 17.7826 70.8397C17.506 70.5619 17.2292 70.2841 16.9777 69.9811C16.8519 69.8296 16.7514 69.678 16.6256 69.5265C16.6256 69.5265 16.8016 69.7538 16.6758 69.6023C16.6507 69.577 16.6256 69.5265 16.6004 69.5013C16.525 69.4002 16.4747 69.3245 16.3993 69.2234C15.9465 68.5668 15.5944 67.885 15.2674 67.1778C15.192 67.0516 15.3679 67.4051 15.3176 67.2788C15.2925 67.2283 15.2926 67.2031 15.2674 67.1526C15.2171 67.0516 15.1919 66.9505 15.1667 66.8748C15.0912 66.6727 15.0158 66.496 14.9655 66.2939C14.8398 65.9151 14.7391 65.5363 14.6637 65.1575C14.6134 64.9554 14.5882 64.7534 14.5631 64.5766C14.5631 64.5261 14.5379 64.4756 14.5379 64.4251C14.5128 64.2736 14.5631 64.6776 14.5631 64.5261C14.5379 64.3998 14.538 64.2988 14.5129 64.1725C14.4877 63.7685 14.4625 63.3896 14.4625 62.9856C14.4625 62.5815 14.4876 62.1774 14.5379 61.7733C14.5379 61.7228 14.5379 61.6723 14.5631 61.6218C14.5882 61.4198 14.5631 61.6976 14.5379 61.7228C14.5631 61.6218 14.5631 61.5208 14.5883 61.4198C14.6134 61.2177 14.6637 61.0157 14.714 60.7884C14.7895 60.3843 14.9152 60.0055 15.0409 59.6015C15.0912 59.4247 15.1668 59.2479 15.2171 59.0711C15.2422 58.9953 15.2925 58.8943 15.3176 58.8186C15.3931 58.6418 15.2926 58.8943 15.2674 58.9196C15.2926 58.8691 15.3177 58.7933 15.3428 58.7428C15.6698 58.0104 16.0723 57.3285 16.525 56.6719C16.5753 56.5962 16.6255 56.5204 16.6758 56.4446C16.7261 56.3689 16.8268 56.2931 16.6256 56.5204C16.6508 56.4951 16.6759 56.4446 16.701 56.4194C16.8268 56.2678 16.9526 56.1163 17.1035 55.9648C17.355 55.687 17.6317 55.4092 17.9084 55.1314C18.0593 55.0051 18.185 54.8788 18.3359 54.7526C18.4114 54.6768 18.4868 54.6263 18.5622 54.5505C18.5874 54.5253 18.6378 54.5 18.663 54.4748C18.5875 54.5253 18.4617 54.6263 18.6126 54.5253C18.9396 54.298 19.2665 54.0707 19.5935 53.8687C19.9205 53.6666 20.2726 53.4898 20.5996 53.3131C20.7002 53.2626 20.7757 53.2373 20.8763 53.1868C20.9266 53.1615 20.9517 53.1615 21.0021 53.1363C21.1278 53.0605 20.7757 53.2373 20.9015 53.1868C21.1027 53.111 21.2787 53.0353 21.4799 52.9595C22.2345 52.6817 23.0143 52.5302 23.8191 52.3786C23.4419 52.4544 23.7939 52.3786 23.8945 52.3786C23.9952 52.3786 24.0958 52.3534 24.1712 52.3534C24.3976 52.3281 24.5989 52.3281 24.8252 52.3281C24.951 52.3281 25.0516 52.3281 25.1773 52.3281H25.3533H26.3091H30.1322H35.8669H42.6832H49.7761H56.3408H61.497H64.4398H64.817C65.4458 52.3281 66.0243 51.7725 65.9992 51.1412C65.9992 50.3583 65.4961 49.8027 64.8422 49.8027Z"/>
</mask>
<path d="M64.8422 49.8027H63.2324H58.9817H52.9452H45.9529H38.8349H32.4462H27.6673H25.303C22.6873 49.8027 20.0966 50.5351 17.9084 52.0251C15.0662 53.9444 13.0037 56.975 12.3497 60.3591C11.6958 63.7937 12.3749 67.4556 14.3619 70.3347C16.2986 73.1632 19.2917 75.2088 22.6621 75.8401C23.8191 76.0674 24.9761 76.0927 26.1582 76.0927H29.8807H35.5903H42.4568H49.6H56.215H61.4466H64.4146H64.817C65.4458 76.0927 66.0243 75.5371 65.9992 74.9057C65.974 74.2491 65.471 73.7188 64.817 73.7188H63.2324H59.032H53.071H46.1542H39.0864H32.6978H27.8686H25.3533H25.1773C25.0013 73.7188 24.8252 73.7188 24.6491 73.7188C24.4479 73.7188 24.2719 73.6935 24.0707 73.6935C23.9701 73.6935 23.8694 73.6683 23.7436 73.6683C23.6933 73.6683 23.5424 73.643 23.7184 73.6683C23.9196 73.6935 23.7185 73.6683 23.6682 73.6683C22.8633 73.542 22.0836 73.3399 21.3039 73.0621C21.2285 73.0369 21.1279 72.9864 21.0524 72.9611C21.0021 72.9359 20.9769 72.9359 20.9266 72.9106C20.7506 72.8349 21.0021 72.9359 21.0272 72.9611C20.8512 72.8601 20.6499 72.7843 20.4738 72.7086C20.1217 72.5318 19.7695 72.3298 19.4426 72.1277C19.2917 72.0267 19.1156 71.9257 18.9647 71.7994C18.8892 71.7489 18.8138 71.6984 18.7384 71.6479C18.6629 71.5974 18.3863 71.3448 18.663 71.5974C18.3863 71.3448 18.0845 71.1175 17.7826 70.8397C17.506 70.5619 17.2292 70.2841 16.9777 69.9811C16.8519 69.8296 16.7514 69.678 16.6256 69.5265C16.6256 69.5265 16.8016 69.7538 16.6758 69.6023C16.6507 69.577 16.6256 69.5265 16.6004 69.5013C16.525 69.4002 16.4747 69.3245 16.3993 69.2234C15.9465 68.5668 15.5944 67.885 15.2674 67.1778C15.192 67.0516 15.3679 67.4051 15.3176 67.2788C15.2925 67.2283 15.2926 67.2031 15.2674 67.1526C15.2171 67.0516 15.1919 66.9505 15.1667 66.8748C15.0912 66.6727 15.0158 66.496 14.9655 66.2939C14.8398 65.9151 14.7391 65.5363 14.6637 65.1575C14.6134 64.9554 14.5882 64.7534 14.5631 64.5766C14.5631 64.5261 14.5379 64.4756 14.5379 64.4251C14.5128 64.2736 14.5631 64.6776 14.5631 64.5261C14.5379 64.3998 14.538 64.2988 14.5129 64.1725C14.4877 63.7685 14.4625 63.3896 14.4625 62.9856C14.4625 62.5815 14.4876 62.1774 14.5379 61.7733C14.5379 61.7228 14.5379 61.6723 14.5631 61.6218C14.5882 61.4198 14.5631 61.6976 14.5379 61.7228C14.5631 61.6218 14.5631 61.5208 14.5883 61.4198C14.6134 61.2177 14.6637 61.0157 14.714 60.7884C14.7895 60.3843 14.9152 60.0055 15.0409 59.6015C15.0912 59.4247 15.1668 59.2479 15.2171 59.0711C15.2422 58.9953 15.2925 58.8943 15.3176 58.8186C15.3931 58.6418 15.2926 58.8943 15.2674 58.9196C15.2926 58.8691 15.3177 58.7933 15.3428 58.7428C15.6698 58.0104 16.0723 57.3285 16.525 56.6719C16.5753 56.5962 16.6255 56.5204 16.6758 56.4446C16.7261 56.3689 16.8268 56.2931 16.6256 56.5204C16.6508 56.4951 16.6759 56.4446 16.701 56.4194C16.8268 56.2678 16.9526 56.1163 17.1035 55.9648C17.355 55.687 17.6317 55.4092 17.9084 55.1314C18.0593 55.0051 18.185 54.8788 18.3359 54.7526C18.4114 54.6768 18.4868 54.6263 18.5622 54.5505C18.5874 54.5253 18.6378 54.5 18.663 54.4748C18.5875 54.5253 18.4617 54.6263 18.6126 54.5253C18.9396 54.298 19.2665 54.0707 19.5935 53.8687C19.9205 53.6666 20.2726 53.4898 20.5996 53.3131C20.7002 53.2626 20.7757 53.2373 20.8763 53.1868C20.9266 53.1615 20.9517 53.1615 21.0021 53.1363C21.1278 53.0605 20.7757 53.2373 20.9015 53.1868C21.1027 53.111 21.2787 53.0353 21.4799 52.9595C22.2345 52.6817 23.0143 52.5302 23.8191 52.3786C23.4419 52.4544 23.7939 52.3786 23.8945 52.3786C23.9952 52.3786 24.0958 52.3534 24.1712 52.3534C24.3976 52.3281 24.5989 52.3281 24.8252 52.3281C24.951 52.3281 25.0516 52.3281 25.1773 52.3281H25.3533H26.3091H30.1322H35.8669H42.6832H49.7761H56.3408H61.497H64.4398H64.817C65.4458 52.3281 66.0243 51.7725 65.9992 51.1412C65.9992 50.3583 65.4961 49.8027 64.8422 49.8027Z" fill="#CFCECE"/>
<path d="M64.8422 49.8027H63.2324H58.9817H52.9452H45.9529H38.8349H32.4462H27.6673H25.303C22.6873 49.8027 20.0966 50.5351 17.9084 52.0251C15.0662 53.9444 13.0037 56.975 12.3497 60.3591C11.6958 63.7937 12.3749 67.4556 14.3619 70.3347C16.2986 73.1632 19.2917 75.2088 22.6621 75.8401C23.8191 76.0674 24.9761 76.0927 26.1582 76.0927H29.8807H35.5903H42.4568H49.6H56.215H61.4466H64.4146H64.817C65.4458 76.0927 66.0243 75.5371 65.9992 74.9057C65.974 74.2491 65.471 73.7188 64.817 73.7188H63.2324H59.032H53.071H46.1542H39.0864H32.6978H27.8686H25.3533H25.1773C25.0013 73.7188 24.8252 73.7188 24.6491 73.7188C24.4479 73.7188 24.2719 73.6935 24.0707 73.6935C23.9701 73.6935 23.8694 73.6683 23.7436 73.6683C23.6933 73.6683 23.5424 73.643 23.7184 73.6683C23.9196 73.6935 23.7185 73.6683 23.6682 73.6683C22.8633 73.542 22.0836 73.3399 21.3039 73.0621C21.2285 73.0369 21.1279 72.9864 21.0524 72.9611C21.0021 72.9359 20.9769 72.9359 20.9266 72.9106C20.7506 72.8349 21.0021 72.9359 21.0272 72.9611C20.8512 72.8601 20.6499 72.7843 20.4738 72.7086C20.1217 72.5318 19.7695 72.3298 19.4426 72.1277C19.2917 72.0267 19.1156 71.9257 18.9647 71.7994C18.8892 71.7489 18.8138 71.6984 18.7384 71.6479C18.6629 71.5974 18.3863 71.3448 18.663 71.5974C18.3863 71.3448 18.0845 71.1175 17.7826 70.8397C17.506 70.5619 17.2292 70.2841 16.9777 69.9811C16.8519 69.8296 16.7514 69.678 16.6256 69.5265C16.6256 69.5265 16.8016 69.7538 16.6758 69.6023C16.6507 69.577 16.6256 69.5265 16.6004 69.5013C16.525 69.4002 16.4747 69.3245 16.3993 69.2234C15.9465 68.5668 15.5944 67.885 15.2674 67.1778C15.192 67.0516 15.3679 67.4051 15.3176 67.2788C15.2925 67.2283 15.2926 67.2031 15.2674 67.1526C15.2171 67.0516 15.1919 66.9505 15.1667 66.8748C15.0912 66.6727 15.0158 66.496 14.9655 66.2939C14.8398 65.9151 14.7391 65.5363 14.6637 65.1575C14.6134 64.9554 14.5882 64.7534 14.5631 64.5766C14.5631 64.5261 14.5379 64.4756 14.5379 64.4251C14.5128 64.2736 14.5631 64.6776 14.5631 64.5261C14.5379 64.3998 14.538 64.2988 14.5129 64.1725C14.4877 63.7685 14.4625 63.3896 14.4625 62.9856C14.4625 62.5815 14.4876 62.1774 14.5379 61.7733C14.5379 61.7228 14.5379 61.6723 14.5631 61.6218C14.5882 61.4198 14.5631 61.6976 14.5379 61.7228C14.5631 61.6218 14.5631 61.5208 14.5883 61.4198C14.6134 61.2177 14.6637 61.0157 14.714 60.7884C14.7895 60.3843 14.9152 60.0055 15.0409 59.6015C15.0912 59.4247 15.1668 59.2479 15.2171 59.0711C15.2422 58.9953 15.2925 58.8943 15.3176 58.8186C15.3931 58.6418 15.2926 58.8943 15.2674 58.9196C15.2926 58.8691 15.3177 58.7933 15.3428 58.7428C15.6698 58.0104 16.0723 57.3285 16.525 56.6719C16.5753 56.5962 16.6255 56.5204 16.6758 56.4446C16.7261 56.3689 16.8268 56.2931 16.6256 56.5204C16.6508 56.4951 16.6759 56.4446 16.701 56.4194C16.8268 56.2678 16.9526 56.1163 17.1035 55.9648C17.355 55.687 17.6317 55.4092 17.9084 55.1314C18.0593 55.0051 18.185 54.8788 18.3359 54.7526C18.4114 54.6768 18.4868 54.6263 18.5622 54.5505C18.5874 54.5253 18.6378 54.5 18.663 54.4748C18.5875 54.5253 18.4617 54.6263 18.6126 54.5253C18.9396 54.298 19.2665 54.0707 19.5935 53.8687C19.9205 53.6666 20.2726 53.4898 20.5996 53.3131C20.7002 53.2626 20.7757 53.2373 20.8763 53.1868C20.9266 53.1615 20.9517 53.1615 21.0021 53.1363C21.1278 53.0605 20.7757 53.2373 20.9015 53.1868C21.1027 53.111 21.2787 53.0353 21.4799 52.9595C22.2345 52.6817 23.0143 52.5302 23.8191 52.3786C23.4419 52.4544 23.7939 52.3786 23.8945 52.3786C23.9952 52.3786 24.0958 52.3534 24.1712 52.3534C24.3976 52.3281 24.5989 52.3281 24.8252 52.3281C24.951 52.3281 25.0516 52.3281 25.1773 52.3281H25.3533H26.3091H30.1322H35.8669H42.6832H49.7761H56.3408H61.497H64.4398H64.817C65.4458 52.3281 66.0243 51.7725 65.9992 51.1412C65.9992 50.3583 65.4961 49.8027 64.8422 49.8027Z" stroke="#CFCECE" stroke-width="0.48" mask="url(#path-13-outside-1_4062_23254)"/>
<path fill-rule="evenodd" clip-rule="evenodd" d="M100.531 59.3152C102.845 59.3152 104.726 61.2203 104.726 63.5556V76.4447C104.726 78.78 102.845 80.6848 100.531 80.6848H80.4694C78.1553 80.6848 76.2742 78.78 76.2742 76.4447V63.5556C76.2742 61.2203 78.1552 59.3152 80.4694 59.3152H100.531ZM100.531 56H80.4694C76.348 56 73 59.3827 73 63.5556V76.4447C73 80.6175 76.3479 84 80.4694 84H100.531C104.652 84 108 80.6175 108 76.4447V63.5556C108 59.3827 104.652 56 100.531 56Z" fill="#CFCECE"/>
</svg>
