<?xml version="1.0" encoding="UTF-8"?>
<svg id="_Слой_2" data-name="Слой 2" xmlns="http://www.w3.org/2000/svg" viewBox="0 0 490 490">
  <defs>
    <style>
      .cls-1 {
        fill: none;
        stroke-miterlimit: 10;
        stroke-width: 17px;
      }

      .cls-1, .cls-2 {
        stroke: #fff;
      }

      .cls-2 {
        fill: #fff;
        stroke-linejoin: round;
        stroke-width: 8px;
      }

      .cls-3 {
        fill: #e5213f;
        stroke-width: 0px;
      }
    </style>
  </defs>
  <g id="_Слой_2-2" data-name=" Слой 2">
    <g>
      <path class="cls-2" d="M245.25,94.16c-3.75,2.81-7.44,5.71-11.3,8.36-4.11,2.83-8.41,5.38-12.87,7.63-1.09.55-2.2,1.09-3.31,1.6-.54.25-1.08.49-1.62.73-.27.12-.54.24-.81.36-.22.1-1.42.57-.37.16-2.29.9-4.55,1.82-6.88,2.62-2.36.81-4.76,1.54-7.17,2.19-2.24.6-4.49,1.18-6.42,2.56-3.93,2.82-6.33,7.16-6.37,12.03-.03,3.89,0,7.78,0,11.66s0,7.95,0,11.93c0,8.23,1.06,16.5,3.15,24.47,2.14,8.17,5.39,16.1,9.59,23.42,4.18,7.31,9.37,14.1,15.31,20.08,6.02,6.05,12.9,11.33,20.31,15.58,4.19,2.4,8.59,4.54,12.95,6.64,1.41.68,2.63.64,4.02-.04.31-.15.62-.31.92-.46,1.15-.57,2.29-1.15,3.44-1.72,2.09-1.04,4.19-2.06,6.24-3.17,7.55-4.05,14.56-9.17,20.77-15.07,6.11-5.81,11.46-12.48,15.84-19.68,4.39-7.21,7.83-15.05,10.18-23.14,2.4-8.25,3.68-16.87,3.81-25.46.06-3.88.01-7.76.01-11.63,0-4.38,0-8.76,0-13.14,0-3.85-1.39-7.51-4.03-10.33-1.7-1.81-3.93-3.14-6.3-3.87-2.22-.69-4.5-1.19-6.72-1.89-2.38-.74-4.74-1.57-7.07-2.47-.55-.21-1.1-.43-1.65-.66-.27-.11-.55-.23-.82-.34-.2-.08-.66-.3.21.09-.15-.07-.31-.13-.47-.2-1.16-.5-2.32-1.02-3.47-1.56-4.47-2.11-8.81-4.52-12.96-7.22-4.68-3.03-9.07-6.49-13.53-9.83-3.62-2.71-8.92-2.92-12.63-.23-.83.6-1.48,1.26-1.76,2.28-.25.92-.14,2.13.39,2.95,1.03,1.6,3.5,2.63,5.23,1.37.43-.31.91-.52,1.36-.8-.07.04-.88.31-.29.14.11-.03.21-.07.32-.1.14-.04.28-.08.43-.11.33-.07.72.01-.26.01.37,0,1.21-.22,1.52,0,.06.04-.9-.17-.48-.06.1.03.22.04.32.07.14.03.28.07.42.11.15.04.75.3.17.03-.58-.27.19.11.35.19.23.13.45.28.67.43.07.05.13.1.2.15.27.2.54.4.81.6,1.99,1.49,3.98,2.99,5.97,4.48,6.88,5.16,14.23,9.61,22.1,13.11,4.75,2.11,9.61,3.96,14.6,5.42,1.18.35,2.37.68,3.56.98.45.12.91.22,1.36.36.23.07.45.15.68.23.25.09.55.31-.35-.15.12.06.25.11.37.17.42.21.83.44,1.22.7.27.18.88.78.03-.01.19.18.4.34.6.52.34.32.64.66.94,1.01.41.48-.56-.78-.06-.07.15.22.29.44.43.66.12.2.23.4.33.61.08.16.4.89.14.26-.27-.63.03.12.09.29.08.25.16.51.22.77.06.23.11.46.15.69.16.89-.06-.76,0-.11.03.35.05.69.05,1.04,0,.37,0,.74,0,1.1v21.14c0,2.08-.02,4.16-.13,6.25-.11,2.07-.29,4.13-.53,6.19-.03.25-.06.49-.09.74-.02.14-.03.28-.06.42-.01.06.13-.91.06-.49-.08.53-.15,1.05-.23,1.58-.16,1.05-.35,2.09-.55,3.13-.77,4.04-1.82,8.02-3.12,11.92-.65,1.95-1.37,3.88-2.16,5.79-.08.19-.16.39-.24.58.47-1.15.08-.2-.02.05-.21.48-.42.96-.63,1.43-.42.92-.85,1.83-1.29,2.74-1.8,3.65-3.84,7.18-6.1,10.56-1.14,1.71-2.36,3.36-3.59,5-.03.04.53-.68.28-.36-.09.11-.17.22-.26.33-.15.19-.3.38-.45.57-.33.41-.66.81-.99,1.22-.64.78-1.3,1.55-1.97,2.3-2.71,3.07-5.63,5.95-8.72,8.63-.8.69-1.61,1.37-2.43,2.03-.38.31-.77.62-1.16.92-.66.52.53-.4.02-.01-.22.17-.45.34-.68.51-1.64,1.23-3.33,2.41-5.05,3.54-5.02,3.27-10.39,5.86-15.73,8.53-.58.29-1.16.58-1.74.87h3.86c-3.84-1.92-7.73-3.76-11.49-5.82-3.56-1.95-6.99-4.14-10.26-6.55-.37-.27-.74-.55-1.1-.82-.11-.08-.82-.63-.29-.22.51.4-.21-.17-.36-.29-.8-.63-1.59-1.28-2.37-1.94-1.5-1.27-2.96-2.58-4.38-3.94-2.87-2.76-5.56-5.7-8.05-8.8-.28-.35-.56-.71-.84-1.06-.29-.37.5.66.21.28-.06-.08-.13-.17-.19-.25-.17-.22-.34-.44-.5-.67-.58-.78-1.15-1.57-1.71-2.37-1.14-1.62-2.22-3.28-3.25-4.98-2.06-3.39-3.91-6.91-5.52-10.53-.18-.41-.36-.83-.54-1.25-.25-.59.34.83.02.05-.11-.26-.21-.52-.32-.77-.38-.94-.74-1.88-1.09-2.83-.67-1.84-1.29-3.7-1.85-5.58-1.14-3.85-2.03-7.77-2.66-11.74-.07-.45-.14-.91-.21-1.37-.02-.14-.04-.28-.06-.42-.06-.43.07.55.06.49-.04-.28-.07-.56-.11-.85-.12-.99-.23-1.98-.32-2.97-.18-2.03-.3-4.07-.35-6.11-.09-3.78-.03-7.57-.03-11.35v-13.73c0-.35,0-.69,0-1.04,0-.24.02-.48.04-.72.07-.83-.15.76-.02.11.09-.46.19-.92.33-1.37.07-.22.15-.44.23-.66.16-.44-.36.79-.16.36.04-.09.08-.18.13-.27.22-.44.46-.87.74-1.28.05-.08.11-.16.17-.24.35-.52-.23.32-.24.3-.02-.03.34-.41.38-.45.33-.37.68-.71,1.06-1.03.66-.56-.59.4-.07.05.19-.13.38-.26.58-.39.17-.1,1.14-.79,1.33-.71.04.02-.82.32-.44.19.1-.03.19-.07.29-.11.23-.08.46-.15.69-.22.51-.14,1.02-.26,1.53-.4,1.15-.3,2.29-.62,3.43-.96,9.46-2.81,18.61-6.86,27.03-12.01,5.18-3.17,9.98-6.87,14.84-10.51.49-.37.98-.73,1.47-1.1.83-.62,1.47-1.25,1.76-2.28.25-.92.14-2.13-.39-2.95-1.02-1.58-3.52-2.65-5.23-1.37Z"/>
      <path class="cls-2" d="M224.59,169.31c2.04,2.02,4.07,4.04,6.11,6.06,3.25,3.22,6.5,6.44,9.74,9.66.75.74,1.49,1.48,2.24,2.22,1.46,1.45,3.94,1.47,5.41,0,1.19-1.2,2.37-2.39,3.56-3.59,2.85-2.88,5.7-5.75,8.56-8.63,3.47-3.5,6.93-6.99,10.4-10.49,2.98-3.01,5.97-6.02,8.95-9.03,1.45-1.46,2.93-2.9,4.35-4.39.02-.02.04-.04.06-.06,1.41-1.42,1.53-4.01,0-5.41-1.52-1.4-3.9-1.52-5.41,0-1.19,1.2-2.37,2.39-3.56,3.59-2.85,2.88-5.7,5.75-8.56,8.63-3.47,3.5-6.93,6.99-10.4,10.49-2.98,3.01-5.97,6.02-8.95,9.03-1.45,1.46-2.95,2.89-4.35,4.39-.02.02-.04.04-.06.06h5.41c-2.04-2.02-4.07-4.04-6.11-6.06-3.25-3.22-6.5-6.44-9.74-9.66-.75-.74-1.49-1.48-2.24-2.22-1.42-1.41-4.01-1.53-5.41,0-1.4,1.52-1.52,3.9,0,5.41h0Z"/>
    </g>
    <path class="cls-3" d="M97.06,0H0v96.76c0,5.95,4.83,10.78,10.78,10.78h0c5.95,0,10.78-4.83,10.78-10.78V21.56h75.5c5.95,0,10.78-4.83,10.78-10.78h0C107.84,4.83,103.01,0,97.06,0Z"/>
    <path class="cls-3" d="M392.94,489.96h97.06v-96.76c0-5.95-4.83-10.78-10.78-10.78h0c-5.95,0-10.78,4.83-10.78,10.78v75.2h-75.5c-5.95,0-10.78,4.83-10.78,10.78h0c0,5.95,4.83,10.78,10.78,10.78Z"/>
    <path class="cls-3" d="M96.76,468.44H21.56v-75.5c0-5.95-4.83-10.78-10.78-10.78h0C4.83,382.16,0,386.98,0,392.94v97.06h96.76c5.95,0,10.78-4.83,10.78-10.78s-4.83-10.78-10.78-10.78Z"/>
    <path class="cls-3" d="M488.12,0h-94.9c-5.95,0-10.78,4.83-10.78,10.78s4.83,10.78,10.78,10.78h75.2v75.5c0,5.95,4.83,10.78,10.78,10.78h0c5.95,0,10.78-4.83,10.78-10.78V0h-1.85Z"/>
    <path class="cls-1" d="M330.25,145.77h12.64c24.88,0,45.05,20.17,45.05,45.06v110.81"/>
    <path class="cls-1" d="M113.04,301.63v-110.81c0-24.88,20.17-45.06,45.05-45.06h13.89"/>
    <path class="cls-1" d="M293.1,329.14c0,8.48-7.1,14.71-16.78,14.71h-47.73c-6.92.14-16.09-3.32-16.09-14.71H83.08c0,25.92,13.71,41.41,30.63,41.41h268.92c16.92,0,30.63-12.73,30.63-41.41h-120.16Z"/>
  </g>
</svg>