<?xml version="1.0" encoding="UTF-8"?>
<svg id="_Слой_2" data-name="Слой 2" xmlns="http://www.w3.org/2000/svg" viewBox="0 0 492.27 490.84">
  <defs>
    <style>
      .cls-1 {
        fill: none;
        stroke-miterlimit: 10;
      }

      .cls-1, .cls-2 {
        stroke: #fff;
        stroke-width: 17px;
      }

      .cls-2 {
        fill: #fff;
        stroke-linejoin: round;
      }

      .cls-3 {
        fill: #e6263d;
        stroke-width: 0px;
      }
    </style>
  </defs>
  <g id="_Слой_1-2" data-name="Слой 1">
    <g>
      <path class="cls-3" d="M92.17,0H10.22S0,0,0,0v93.2c0,5.64,4.57,10.22,10.22,10.22h0c5.64,0,10.22-4.57,10.22-10.22V20.43s71.73,0,71.73,0c5.64,0,10.22-4.57,10.22-10.22h0C102.38,4.57,97.81,0,92.17,0Z"/>
      <path class="cls-3" d="M492.27,92.42V10.47s0-10.22,0-10.22h-93.2c-5.64,0-10.22,4.57-10.22,10.22h0c0,5.64,4.57,10.22,10.22,10.22h72.76s0,71.73,0,71.73c0,5.64,4.57,10.22,10.22,10.22h0c5.64,0,10.22-4.57,10.22-10.22Z"/>
      <path class="cls-3" d="M400.1,490.84h81.95s10.22,0,10.22,0v-93.2c0-5.64-4.57-10.22-10.22-10.22h0c-5.64,0-10.22,4.57-10.22,10.22v72.76s-71.73,0-71.73,0c-5.64,0-10.22,4.57-10.22,10.22h0c0,5.64,4.57,10.22,10.22,10.22Z"/>
      <path class="cls-3" d="M0,398.41v81.95s0,10.22,0,10.22h93.2c5.64,0,10.22-4.57,10.22-10.22h0c0-5.64-4.57-10.22-10.22-10.22H20.43s0-71.73,0-71.73c0-5.64-4.57-10.22-10.22-10.22h0C4.57,388.2,0,392.77,0,398.41Z"/>
    </g>
    <path class="cls-2" d="M355.71,211.94c.12.58.24,1.17.35,1.75.02.12.05.24.07.36.06.33.12.67.18,1,.21,1.22.4,2.45.57,3.68.58,4.2.9,8.42.99,12.66l6.62.08c-.14-7.29-.98-14.55-2.49-21.7-2.13-10.09-5.69-19.82-10.43-28.97-4.81-9.28-10.95-17.84-18.1-25.45-7.33-7.8-15.82-14.5-25.04-19.93-8.91-5.25-18.56-9.27-28.54-11.95-9.5-2.55-19.35-3.8-29.18-3.81-9.67-.01-19.34,1.27-28.69,3.69-9.38,2.43-18.44,6.1-26.9,10.8-8.51,4.73-16.39,10.61-23.42,17.35-7.23,6.94-13.49,14.89-18.65,23.48-1.28,2.13-2.48,4.29-3.62,6.5-.79,1.54-.19,3.72,1.43,4.46,1.64.75,3.61.22,4.46-1.43,1.14-2.2,2.34-4.37,3.62-6.5.63-1.05,1.28-2.09,1.95-3.12.32-.49.64-.98.97-1.47.16-.24.33-.49.49-.73.06-.09.22-.32.31-.46,2.73-3.91,5.72-7.63,8.94-11.15,3.18-3.47,6.59-6.71,10.16-9.77.09-.07.2-.17.27-.23.22-.18.44-.36.65-.54.47-.38.95-.77,1.43-1.14.96-.75,1.93-1.49,2.91-2.21,1.88-1.38,3.81-2.7,5.77-3.96,3.93-2.51,8.01-4.69,12.18-6.75.01,0,.02,0,.03-.01.07-.03.14-.07.21-.1.25-.12.51-.23.76-.35.55-.25,1.1-.49,1.65-.73,1.06-.46,2.13-.91,3.21-1.33,2.15-.85,4.33-1.64,6.53-2.36,4.4-1.44,8.89-2.6,13.44-3.48.09-.02.49-.09.6-.11.16-.03.42-.07.48-.09.59-.1,1.19-.2,1.78-.3,1.15-.18,2.3-.34,3.45-.49,2.31-.29,4.62-.51,6.94-.65,4.67-.29,9.35-.29,14.01.02.25.02.5.03.75.05.12.01.24.02.36.03.61.05,1.22.11,1.83.17,1.17.12,2.34.25,3.51.41,2.35.31,4.69.7,7.01,1.16,4.76.95,9.45,2.21,14.04,3.78.28.09.55.19.83.29.04.02.06.02.09.03.03.01.09.03.17.06.6.22,1.19.44,1.78.66,1.14.44,2.28.89,3.41,1.37,2.28.96,4.53,1.99,6.74,3.1,4.67,2.34,9.17,5,13.47,7.96.11.08.29.2.37.26.25.18.51.36.76.54.55.39,1.09.79,1.63,1.2,1.03.77,2.05,1.56,3.05,2.37,1.99,1.61,3.93,3.28,5.8,5.02,1.86,1.73,3.66,3.52,5.39,5.37.86.92,1.71,1.86,2.54,2.81.4.45.79.91,1.18,1.37.03.03.04.05.06.07.06.07.11.13.17.2.22.27.45.54.67.82,3.15,3.88,6.03,7.98,8.63,12.25,1.29,2.13,2.51,4.29,3.65,6.5.57,1.1,1.12,2.21,1.66,3.33.04.09.09.18.13.27,0,.01,0,.02.02.04.12.27.25.54.37.81.27.59.53,1.18.78,1.77,1.99,4.59,3.66,9.32,5.01,14.14.67,2.39,1.26,4.79,1.77,7.22Z"/>
    <path class="cls-1" d="M389.31,237.46l-16.36,26.67c-2.2,5.09-9.19,5.79-12.25,1.22l-23.89-21.44c-2.82-4.22-.2-9.98,4.89-10.73l40.26-5.23c5.38-.8,9.51,4.53,7.36,9.51Z"/>
    <path class="cls-2" d="M148.25,280.18c-.12-.58-.24-1.17-.35-1.75-.02-.12-.05-.24-.07-.36-.06-.33-.12-.67-.18-1-.21-1.22-.4-2.45-.57-3.68-.58-4.2-.9-8.42-.99-12.66l-6.62-.08c.14,7.29.98,14.55,2.49,21.7,2.13,10.09,5.69,19.82,10.43,28.97,4.81,9.28,10.95,17.84,18.1,25.45,7.33,7.8,15.82,14.5,25.04,19.93,8.91,5.25,18.56,9.27,28.54,11.95,9.5,2.55,19.35,3.8,29.18,3.81,9.67.01,19.34-1.27,28.69-3.69,9.38-2.43,18.44-6.1,26.9-10.8,8.51-4.73,16.39-10.61,23.42-17.35,7.23-6.94,13.49-14.89,18.65-23.48,1.28-2.13,2.48-4.29,3.62-6.5.79-1.54.19-3.72-1.43-4.46-1.64-.75-3.61-.22-4.46,1.43-1.14,2.2-2.34,4.37-3.62,6.5-.63,1.05-1.28,2.09-1.95,3.12-.32.49-.64.98-.97,1.47-.16.24-.33.49-.49.73-.06.09-.22.32-.31.46-2.73,3.91-5.72,7.63-8.94,11.15-3.18,3.47-6.59,6.71-10.16,9.77-.09.07-.2.17-.27.23-.22.18-.44.36-.65.54-.47.38-.95.77-1.43,1.14-.96.75-1.93,1.49-2.91,2.21-1.88,1.38-3.81,2.7-5.77,3.96-3.93,2.51-8.01,4.69-12.18,6.75-.01,0-.02,0-.03.01-.07.03-.14.07-.21.1-.25.12-.51.23-.76.35-.55.25-1.1.49-1.65.73-1.06.46-2.13.91-3.21,1.33-2.15.85-4.33,1.64-6.53,2.36-4.4,1.44-8.89,2.6-13.44,3.48-.09.02-.49.09-.6.11-.16.03-.42.07-.48.09-.59.1-1.19.2-1.78.3-1.15.18-2.3.34-3.45.49-2.31.29-4.62.51-6.94.65-4.67.29-9.35.29-14.01-.02-.25-.02-.5-.03-.75-.05-.12-.01-.24-.02-.36-.03-.61-.05-1.22-.11-1.83-.17-1.17-.12-2.34-.25-3.51-.41-2.35-.31-4.69-.7-7.01-1.16-4.76-.95-9.45-2.21-14.04-3.78-.28-.09-.55-.19-.83-.29-.04-.02-.06-.02-.09-.03-.03-.01-.09-.03-.17-.06-.6-.22-1.19-.44-1.78-.66-1.14-.44-2.28-.89-3.41-1.37-2.28-.96-4.53-1.99-6.74-3.1-4.67-2.34-9.17-5-13.47-7.96-.11-.08-.29-.2-.37-.26-.25-.18-.51-.36-.76-.54-.55-.39-1.09-.79-1.63-1.2-1.03-.77-2.05-1.56-3.05-2.37-1.99-1.61-3.93-3.28-5.8-5.02-1.86-1.73-3.66-3.52-5.39-5.37-.86-.92-1.71-1.86-2.54-2.81-.4-.45-.79-.91-1.18-1.37-.03-.03-.04-.05-.06-.07-.06-.07-.11-.13-.17-.2-.22-.27-.45-.54-.67-.82-3.15-3.88-6.03-7.98-8.63-12.25-1.29-2.13-2.51-4.29-3.65-6.5-.57-1.1-1.12-2.21-1.66-3.33-.04-.09-.09-.18-.13-.27,0-.01,0-.02-.02-.04-.12-.27-.25-.54-.37-.81-.27-.59-.53-1.18-.78-1.77-1.99-4.59-3.66-9.32-5.01-14.14-.67-2.39-1.26-4.79-1.77-7.22Z"/>
    <path class="cls-1" d="M114.65,254.66l16.36-26.67c2.2-5.09,9.19-5.79,12.25-1.22l23.89,21.44c2.82,4.22.2,9.98-4.89,10.73l-40.26,5.23c-5.38.8-9.51-4.53-7.36-9.51Z"/>
  </g>
</svg>