<?xml version="1.0" encoding="UTF-8"?>
<svg id="_Слой_2" data-name="Слой 2" xmlns="http://www.w3.org/2000/svg" viewBox="0 0 492.27 490.84">
  <defs>
    <style>
      .cls-1, .cls-2, .cls-3 {
        fill: none;
        stroke: #fff;
        stroke-width: 17px;
      }

      .cls-2 {
        stroke-miterlimit: 10;
      }

      .cls-3 {
        stroke-linecap: round;
      }

      .cls-4 {
        fill: #e5213f;
        stroke-width: 0px;
      }
    </style>
  </defs>
  <g id="_Слой_2-2" data-name=" Слой 2">
    <path class="cls-1" d="M127.1,222.77v131.95c0,9.07,7.24,16.42,16.18,16.42h67.42v-148.37c0-9.07-7.24-16.42-16.18-16.42h-51.24c-8.93,0-16.18,7.35-16.18,16.42Z"/>
    <path class="cls-1" d="M210.69,371.14h83.59s0-107.02,0-107.02c0-9.07-7.24-16.42-16.18-16.42h-67.42v123.45Z"/>
    <path class="cls-1" d="M294.28,371.14h67.42c8.93,0,16.18-7.35,16.18-16.42v-47.08c0-9.07-7.24-16.42-16.18-16.42h-67.42v79.93Z"/>
    <path class="cls-3" d="M310.14,177.1l-194.83-53.17"/>
    <path class="cls-2" d="M303.58,202.43l13.49-52.08c1.83-6.57,9.83-9.07,14.91-4.66l43.9,38.02c5.51,4.77,3.44,13.85-3.62,15.9l-57.38,14.06c-6.9,2.01-13.23-4.29-11.29-11.24Z"/>
    <g>
      <path class="cls-4" d="M92.17,0H10.22S0,0,0,0v93.2c0,5.64,4.57,10.22,10.22,10.22h0c5.64,0,10.22-4.57,10.22-10.22V20.43s71.73,0,71.73,0c5.64,0,10.22-4.57,10.22-10.22h0C102.38,4.57,97.81,0,92.17,0Z"/>
      <path class="cls-4" d="M492.27,92.42V10.47s0-10.22,0-10.22h-93.2c-5.64,0-10.22,4.57-10.22,10.22h0c0,5.64,4.57,10.22,10.22,10.22h72.76s0,71.73,0,71.73c0,5.64,4.57,10.22,10.22,10.22h0c5.64,0,10.22-4.57,10.22-10.22Z"/>
      <path class="cls-4" d="M400.1,490.84h81.95s10.22,0,10.22,0v-93.2c0-5.64-4.57-10.22-10.22-10.22h0c-5.64,0-10.22,4.57-10.22,10.22v72.76s-71.73,0-71.73,0c-5.64,0-10.22,4.57-10.22,10.22h0c0,5.64,4.57,10.22,10.22,10.22Z"/>
      <path class="cls-4" d="M0,398.41v81.95s0,10.22,0,10.22h93.2c5.64,0,10.22-4.57,10.22-10.22h0c0-5.64-4.57-10.22-10.22-10.22H20.43s0-71.73,0-71.73c0-5.64-4.57-10.22-10.22-10.22h0C4.57,388.2,0,392.77,0,398.41Z"/>
    </g>
  </g>
</svg>