<?xml version="1.0" encoding="utf-8"?>
<!-- Generator: Adobe Illustrator 28.2.0, SVG Export Plug-In . SVG Version: 6.00 Build 0)  -->
<svg version="1.1" id="Слой_1" xmlns="http://www.w3.org/2000/svg" xmlns:xlink="http://www.w3.org/1999/xlink" x="0px" y="0px"
	 viewBox="0 0 48 48" style="enable-background:new 0 0 48 48;" xml:space="preserve">
<style type="text/css">
	.st0{fill:none;stroke:#FFFFFF;stroke-width:17;stroke-miterlimit:10;}
	.st1{fill:none;stroke:#FFFFFF;stroke-width:17.3326;stroke-linecap:round;stroke-miterlimit:10;}
	.st2{fill:none;stroke:#FFFFFF;stroke-width:17.926;stroke-miterlimit:10;}
	.st3{fill:none;stroke:#FFFFFF;stroke-width:17;stroke-linecap:round;stroke-linejoin:round;stroke-miterlimit:10;}
	.st4{fill:#E6263D;}
	.st5{fill:#FFFFFF;stroke:#FFFFFF;stroke-width:0.6857;stroke-linejoin:round;}
	.st6{fill:#E62340;}
	.st7{fill:#FFFFFF;stroke:#FFFFFF;stroke-width:0.6857;}
	.st8{fill:#FFFFFF;stroke:#FFFFFF;stroke-width:0.7837;}
	.st9{fill:#FFFFFF;stroke:#FFFFFF;stroke-width:8;stroke-linejoin:round;}
	.st10{fill:none;stroke:#FFFFFF;stroke-width:17;stroke-linecap:round;stroke-miterlimit:10;}
</style>
<path class="st0" d="M-1061.4-173.1h182.8c24.6,0,44.6,20,44.6,44.6v112.9"/>
<line class="st1" x1="-987.7" y1="-162.7" x2="-939.8" y2="-162.7"/>
<path class="st0" d="M-971.4,49.2l132.1,0c16.7,0,30.3-12.6,30.3-41l0,0h-118.9c0,8.4-7,14.6-16.6,14.6h-26.4"/>
<line class="st2" x1="-1144.8" y1="12.9" x2="-1144.8" y2="12.9"/>
<g>
	<path class="st3" d="M-964.9-126.4c13.3,0.2,23.7,10.9,23.5,24.3c-0.2,13.3-10.9,23.6-24.4,23.5c-13.2-0.1-23.6-11-23.4-24.4
		C-989-116.2-978.2-126.5-964.9-126.4z"/>
	<path class="st3" d="M-1007.7-31.6c6.9-61.3,84-59,88,0H-1007.7z"/>
</g>
<g>
	<path class="st3" d="M-1103.3-154.4c28.1,0.3,50.1,23.1,49.7,51.4c-0.4,28.1-23.1,49.9-51.5,49.6c-27.9-0.3-49.9-23.3-49.5-51.7
		C-1154.1-132.7-1131.3-154.7-1103.3-154.4z"/>
	<path class="st3" d="M-1193.8,46c14.6-129.7,177.7-124.7,186,0H-1193.8z"/>
</g>
<g>
	<path class="st4" d="M-1147.6-305.9h-81.9h-10.2v10.2v83c0,5.6,4.6,10.2,10.2,10.2l0,0c5.6,0,10.2-4.6,10.2-10.2v-72.8h71.7
		c5.6,0,10.2-4.6,10.2-10.2v0C-1137.4-301.4-1142-305.9-1147.6-305.9z"/>
	<path class="st4" d="M-747.5-213.5v-81.9v-10.2h-10.2h-83c-5.6,0-10.2,4.6-10.2,10.2l0,0c0,5.6,4.6,10.2,10.2,10.2h72.8v71.7
		c0,5.6,4.6,10.2,10.2,10.2h0C-752.1-203.3-747.5-207.9-747.5-213.5z"/>
	<path class="st4" d="M-839.7,184.9h81.9h10.2v-10.2v-83c0-5.6-4.6-10.2-10.2-10.2h0c-5.6,0-10.2,4.6-10.2,10.2v72.8h-71.7
		c-5.6,0-10.2,4.6-10.2,10.2v0C-849.9,180.3-845.3,184.9-839.7,184.9z"/>
	<path class="st4" d="M-1239.8,92.5v81.9v10.2h10.2h83c5.6,0,10.2-4.6,10.2-10.2v0c0-5.6-4.6-10.2-10.2-10.2h-72.8V92.5
		c0-5.6-4.6-10.2-10.2-10.2l0,0C-1235.2,82.3-1239.8,86.8-1239.8,92.5z"/>
</g>
<g>
	<g>
		<path class="st5" d="M23.3,22c-0.4,0.3-0.7,0.6-1.1,0.8c-0.4,0.3-0.8,0.5-1.3,0.8c-0.1,0.1-0.2,0.1-0.3,0.2c-0.1,0-0.1,0-0.2,0.1
			c0,0-0.1,0-0.1,0c0,0-0.1,0.1,0,0c-0.2,0.1-0.5,0.2-0.7,0.3c-0.2,0.1-0.5,0.2-0.7,0.2c-0.2,0.1-0.4,0.1-0.6,0.3
			c-0.4,0.3-0.6,0.7-0.6,1.2c0,0.4,0,0.8,0,1.2c0,0.4,0,0.8,0,1.2c0,0.8,0.1,1.6,0.3,2.4c0.2,0.8,0.5,1.6,1,2.3
			c0.4,0.7,0.9,1.4,1.5,2c0.6,0.6,1.3,1.1,2,1.6c0.4,0.2,0.9,0.5,1.3,0.7c0.1,0.1,0.3,0.1,0.4,0c0,0,0.1,0,0.1,0
			c0.1-0.1,0.2-0.1,0.3-0.2c0.2-0.1,0.4-0.2,0.6-0.3c0.8-0.4,1.4-0.9,2.1-1.5c0.6-0.6,1.1-1.2,1.6-2c0.4-0.7,0.8-1.5,1-2.3
			c0.2-0.8,0.4-1.7,0.4-2.5c0-0.4,0-0.8,0-1.2c0-0.4,0-0.9,0-1.3c0-0.4-0.1-0.8-0.4-1c-0.2-0.2-0.4-0.3-0.6-0.4
			c-0.2-0.1-0.4-0.1-0.7-0.2c-0.2-0.1-0.5-0.2-0.7-0.2c-0.1,0-0.1,0-0.2-0.1c0,0-0.1,0-0.1,0c0,0-0.1,0,0,0c0,0,0,0,0,0
			c-0.1-0.1-0.2-0.1-0.3-0.2c-0.4-0.2-0.9-0.5-1.3-0.7c-0.5-0.3-0.9-0.6-1.3-1C24.2,21.8,23.7,21.8,23.3,22
			c-0.1,0.1-0.1,0.1-0.2,0.2c0,0.1,0,0.2,0,0.3c0.1,0.2,0.3,0.3,0.5,0.1c0,0,0.1-0.1,0.1-0.1c0,0-0.1,0,0,0c0,0,0,0,0,0c0,0,0,0,0,0
			c0,0,0.1,0,0,0c0,0,0.1,0,0.2,0c0,0-0.1,0,0,0c0,0,0,0,0,0c0,0,0,0,0,0c0,0,0.1,0,0,0c-0.1,0,0,0,0,0c0,0,0,0,0.1,0c0,0,0,0,0,0
			c0,0,0.1,0,0.1,0.1c0.2,0.1,0.4,0.3,0.6,0.4c0.7,0.5,1.4,1,2.2,1.3c0.5,0.2,1,0.4,1.5,0.5c0.1,0,0.2,0.1,0.4,0.1c0,0,0.1,0,0.1,0
			c0,0,0,0,0.1,0c0,0,0.1,0,0,0c0,0,0,0,0,0c0,0,0.1,0,0.1,0.1c0,0,0.1,0.1,0,0c0,0,0,0,0.1,0.1c0,0,0.1,0.1,0.1,0.1
			c0,0-0.1-0.1,0,0c0,0,0,0,0,0.1c0,0,0,0,0,0.1c0,0,0,0.1,0,0c0-0.1,0,0,0,0c0,0,0,0.1,0,0.1c0,0,0,0,0,0.1c0,0.1,0-0.1,0,0
			c0,0,0,0.1,0,0.1c0,0,0,0.1,0,0.1c0,0.2,0,0.4,0,0.6c0,0.5,0,1,0,1.5c0,0.2,0,0.4,0,0.6c0,0.2,0,0.4-0.1,0.6c0,0,0,0,0,0.1
			c0,0,0,0,0,0c0,0,0-0.1,0,0c0,0.1,0,0.1,0,0.2c0,0.1,0,0.2-0.1,0.3c-0.1,0.4-0.2,0.8-0.3,1.2c-0.1,0.2-0.1,0.4-0.2,0.6
			c0,0,0,0,0,0.1c0-0.1,0,0,0,0c0,0,0,0.1-0.1,0.1c0,0.1-0.1,0.2-0.1,0.3c-0.2,0.4-0.4,0.7-0.6,1.1c-0.1,0.2-0.2,0.3-0.4,0.5
			c0,0,0.1-0.1,0,0c0,0,0,0,0,0c0,0,0,0,0,0.1c0,0-0.1,0.1-0.1,0.1c-0.1,0.1-0.1,0.2-0.2,0.2c-0.3,0.3-0.6,0.6-0.9,0.9
			c-0.1,0.1-0.2,0.1-0.2,0.2c0,0-0.1,0.1-0.1,0.1c-0.1,0.1,0.1,0,0,0c0,0,0,0-0.1,0.1c-0.2,0.1-0.3,0.2-0.5,0.4
			c-0.5,0.3-1,0.6-1.6,0.9c-0.1,0-0.1,0.1-0.2,0.1c0.1,0,0.3,0,0.4,0c-0.4-0.2-0.8-0.4-1.1-0.6c-0.4-0.2-0.7-0.4-1-0.7
			c0,0-0.1-0.1-0.1-0.1c0,0-0.1-0.1,0,0c0.1,0,0,0,0,0c-0.1-0.1-0.2-0.1-0.2-0.2c-0.1-0.1-0.3-0.3-0.4-0.4c-0.3-0.3-0.6-0.6-0.8-0.9
			c0,0-0.1-0.1-0.1-0.1c0,0,0.1,0.1,0,0c0,0,0,0,0,0c0,0,0,0-0.1-0.1c-0.1-0.1-0.1-0.2-0.2-0.2c-0.1-0.2-0.2-0.3-0.3-0.5
			c-0.2-0.3-0.4-0.7-0.5-1.1c0,0,0-0.1-0.1-0.1c0-0.1,0,0.1,0,0c0,0,0-0.1,0-0.1c0-0.1-0.1-0.2-0.1-0.3c-0.1-0.2-0.1-0.4-0.2-0.6
			c-0.1-0.4-0.2-0.8-0.3-1.2c0,0,0-0.1,0-0.1c0,0,0,0,0,0c0,0,0,0.1,0,0c0,0,0-0.1,0-0.1c0-0.1,0-0.2,0-0.3c0-0.2,0-0.4,0-0.6
			c0-0.4,0-0.8,0-1.1c0-0.5,0-0.9,0-1.4c0,0,0-0.1,0-0.1c0,0,0,0,0-0.1c0-0.1,0,0.1,0,0c0,0,0-0.1,0-0.1c0,0,0,0,0-0.1
			c0,0,0,0.1,0,0c0,0,0,0,0,0c0,0,0-0.1,0.1-0.1c0,0,0,0,0,0c0-0.1,0,0,0,0c0,0,0,0,0,0c0,0,0.1-0.1,0.1-0.1c0.1-0.1-0.1,0,0,0
			c0,0,0,0,0.1,0c0,0,0.1-0.1,0.1-0.1c0,0-0.1,0,0,0c0,0,0,0,0,0c0,0,0,0,0.1,0c0.1,0,0.1,0,0.2,0c0.1,0,0.2-0.1,0.3-0.1
			c0.9-0.3,1.9-0.7,2.7-1.2c0.5-0.3,1-0.7,1.5-1.1c0,0,0.1-0.1,0.1-0.1c0.1-0.1,0.1-0.1,0.2-0.2c0-0.1,0-0.2,0-0.3
			C23.7,22,23.5,21.9,23.3,22z"/>
	</g>
	<g>
		<path class="st5" d="M21.3,29.6c0.2,0.2,0.4,0.4,0.6,0.6c0.3,0.3,0.6,0.6,1,1c0.1,0.1,0.1,0.1,0.2,0.2c0.1,0.1,0.4,0.1,0.5,0
			c0.1-0.1,0.2-0.2,0.4-0.4c0.3-0.3,0.6-0.6,0.9-0.9c0.3-0.3,0.7-0.7,1-1c0.3-0.3,0.6-0.6,0.9-0.9c0.1-0.1,0.3-0.3,0.4-0.4
			c0,0,0,0,0,0c0.1-0.1,0.2-0.4,0-0.5c-0.2-0.1-0.4-0.2-0.5,0c-0.1,0.1-0.2,0.2-0.4,0.4c-0.3,0.3-0.6,0.6-0.9,0.9
			c-0.3,0.3-0.7,0.7-1,1c-0.3,0.3-0.6,0.6-0.9,0.9c-0.1,0.1-0.3,0.3-0.4,0.4c0,0,0,0,0,0c0.2,0,0.4,0,0.5,0
			c-0.2-0.2-0.4-0.4-0.6-0.6c-0.3-0.3-0.6-0.6-1-1c-0.1-0.1-0.1-0.1-0.2-0.2c-0.1-0.1-0.4-0.2-0.5,0C21.1,29.2,21.1,29.4,21.3,29.6
			L21.3,29.6z"/>
	</g>
</g>
<g>
	<path class="st6" d="M9,0L1,0H0v1v8.1c0,0.6,0.4,1,1,1h0c0.6,0,1-0.4,1-1V2h7c0.6,0,1-0.4,1-1v0C10,0.4,9.5,0,9,0z"/>
	<path class="st6" d="M48,9.1V1V0h-1h-8.1c-0.6,0-1,0.4-1,1v0c0,0.6,0.4,1,1,1H46v7c0,0.6,0.4,1,1,1l0,0C47.6,10.1,48,9.6,48,9.1z"
		/>
	<path class="st6" d="M39,48.1h8h1v-1V39c0-0.6-0.4-1-1-1l0,0c-0.6,0-1,0.4-1,1v7.1h-7c-0.6,0-1,0.4-1,1v0
		C38,47.6,38.5,48.1,39,48.1z"/>
	<path class="st6" d="M0,39l0,8v1h1h8.1c0.6,0,1-0.4,1-1v0c0-0.6-0.4-1-1-1H2v-7c0-0.6-0.4-1-1-1h0C0.4,38,0,38.5,0,39z"/>
</g>
<g>
	<path class="st7" d="M9.9,18c0.3,0,0.5,0,0.8,0c0.7,0,1.4,0,2.1,0c1,0,2.1,0,3.1,0c1.3,0,2.5,0,3.8,0c1.4,0,2.8,0,4.1,0
		c1.4,0,2.8,0,4.2,0c1.3,0,2.6,0,3.9,0c1.1,0,2.2,0,3.3,0c0.8,0,1.6,0,2.4,0c0.4,0,0.7,0,1.1,0c0,0,0,0,0,0c0.2,0,0.4-0.2,0.4-0.4
		c0-0.2-0.2-0.4-0.4-0.4c-0.3,0-0.5,0-0.8,0c-0.7,0-1.4,0-2.1,0c-1,0-2.1,0-3.1,0c-1.3,0-2.5,0-3.8,0c-1.4,0-2.8,0-4.1,0
		c-1.4,0-2.8,0-4.2,0c-1.3,0-2.6,0-3.9,0c-1.1,0-2.2,0-3.3,0c-0.8,0-1.6,0-2.4,0c-0.4,0-0.7,0-1.1,0c0,0,0,0,0,0
		c-0.2,0-0.4,0.2-0.4,0.4C9.5,17.8,9.7,18,9.9,18L9.9,18z"/>
</g>
<g>
	<path class="st8" d="M12.8,15.4C12.8,15.4,12.8,15.4,12.8,15.4c0.1,0,0.1,0,0.2,0c0.1,0,0.1,0,0.1-0.1c0,0,0.1-0.1,0.1-0.1
		c0-0.1,0-0.1,0-0.2c0,0,0-0.1,0-0.1c0-0.1-0.1-0.1-0.1-0.2c0,0-0.1,0-0.1-0.1c-0.1,0-0.1-0.1-0.2-0.1c0,0,0,0,0,0
		c-0.1,0-0.1,0-0.2,0c-0.1,0-0.1,0-0.1,0.1c0,0-0.1,0.1-0.1,0.1c0,0.1,0,0.1,0,0.2c0,0,0,0.1,0,0.1c0,0.1,0.1,0.1,0.1,0.2
		c0,0,0.1,0,0.1,0.1C12.7,15.4,12.7,15.4,12.8,15.4L12.8,15.4z"/>
</g>
<g>
	<path class="st8" d="M15.7,15.4L15.7,15.4c0.1,0,0.1,0,0.2,0c0.1,0,0.1,0,0.1-0.1c0,0,0.1-0.1,0.1-0.1c0-0.1,0-0.1,0-0.2
		c0,0,0-0.1,0-0.1c0-0.1-0.1-0.1-0.1-0.2c0,0-0.1,0-0.1-0.1c-0.1,0-0.1-0.1-0.2-0.1h0c-0.1,0-0.1,0-0.2,0c-0.1,0-0.1,0-0.1,0.1
		c0,0-0.1,0.1-0.1,0.1c0,0.1,0,0.1,0,0.2c0,0,0,0.1,0,0.1c0,0.1,0.1,0.1,0.1,0.2c0,0,0.1,0,0.1,0.1C15.5,15.4,15.6,15.4,15.7,15.4
		L15.7,15.4z"/>
</g>
<g>
	<path class="st8" d="M18.6,15.4C18.6,15.4,18.6,15.4,18.6,15.4c0.1,0,0.1,0,0.2,0c0.1,0,0.1,0,0.1-0.1c0,0,0.1-0.1,0.1-0.1
		c0-0.1,0-0.1,0-0.2c0,0,0-0.1,0-0.1c0-0.1-0.1-0.1-0.1-0.2c0,0-0.1,0-0.1-0.1c-0.1,0-0.1-0.1-0.2-0.1c0,0,0,0,0,0
		c-0.1,0-0.1,0-0.2,0c-0.1,0-0.1,0-0.1,0.1c0,0-0.1,0.1-0.1,0.1c0,0.1,0,0.1,0,0.2c0,0,0,0.1,0,0.1c0,0.1,0.1,0.1,0.1,0.2
		c0,0,0.1,0,0.1,0.1C18.4,15.4,18.5,15.4,18.6,15.4L18.6,15.4z"/>
</g>
<path class="st7" d="M39.2,31c0-1.2,0-2.3,0-3.5c0-1.8,0-3.5,0-5.3c0-1.7,0-3.4,0-5.1c0-1,0-2.1,0-3.1c0-0.1,0-0.2,0-0.2
	c0-0.5-0.2-0.9-0.5-1.3c-0.3-0.3-0.8-0.5-1.3-0.5c-0.1,0-0.1,0-0.2,0c-0.7,0-1.5,0-2.2,0c-1.4,0-2.8,0-4.2,0c-1.7,0-3.5,0-5.2,0
	c-1.8,0-3.6,0-5.4,0c-1.6,0-3.2,0-4.8,0c-1.1,0-2.2,0-3.3,0c-0.3,0-0.5,0-0.8,0c-0.5,0-1.1,0.1-1.5,0.6c-0.3,0.3-0.5,0.8-0.5,1.2
	c0,0.1,0,0.2,0,0.2c0,0.4,0,0.8,0,1.2c0,1.5,0,2.9,0,4.4c0,1.8,0,3.6,0,5.4c0,1.5,0,3,0,4.6c0,0.5,0,0.9,0,1.4c0,0.3,0,0.6,0.1,0.9
	c0.2,0.7,0.8,1.2,1.6,1.3c0.2,0,0.4,0,0.5,0c0.8,0,2.9,0,3.7,0c0.2,0,0.4,0,0.7,0v-0.9c-1.1,0-3.3,0-4.4,0c-0.1,0-0.2,0-0.3,0
	c0,0-0.1,0-0.1,0c0,0-0.1,0-0.1,0c-0.1,0-0.1,0-0.2,0c0,0-0.1,0-0.1,0c0,0-0.1,0-0.1,0c0,0-0.1,0-0.1-0.1c0,0,0,0,0,0c0,0,0,0,0,0
	c-0.1-0.1-0.1-0.1-0.2-0.2c0,0,0,0,0,0c0,0,0,0,0,0c0,0,0-0.1-0.1-0.1c0,0,0-0.1,0-0.1c0,0,0,0,0,0c0-0.1,0-0.1,0-0.2
	c0,0,0-0.1,0-0.1c0-0.2,0-0.4,0-0.5c0-1.2,0-2.3,0-3.5c0-1.7,0-3.5,0-5.2c0-1.7,0-3.4,0-5.1c0-1,0-2,0-3.1c0-0.1,0-0.2,0-0.2
	c0,0,0,0,0,0c0,0,0,0,0,0c0,0,0,0,0,0c0,0,0-0.1,0-0.1c0,0,0,0,0,0c0-0.1,0-0.1,0-0.2c0,0,0,0,0,0c0,0,0,0,0,0c0,0,0-0.1,0.1-0.1
	c0,0,0,0,0-0.1c0,0,0-0.1,0-0.1c0,0,0.1-0.1,0.1-0.1c0,0,0.1,0,0.1,0c0,0,0.1,0,0.1-0.1c0,0,0.1,0,0,0c0,0,0,0,0.1,0
	c0,0,0.1,0,0.1,0c0,0,0.1,0,0.1,0c0,0,0.1,0,0.1,0c0,0,0,0,0,0c0.1,0,0.1,0,0.2,0c0.8,0,1.5,0,2.3,0c1.4,0,2.8,0,4.2,0
	c1.7,0,3.4,0,5.1,0c1.8,0,3.6,0,5.4,0c1.6,0,3.2,0,4.7,0c1.1,0,2.2,0,3.3,0c0.3,0,0.6,0,0.8,0c0.1,0,0.1,0,0.2,0c0,0,0,0,0.1,0
	c0,0,0.1,0,0.1,0c0,0,0.1,0,0.1,0c0,0,0.1,0,0.1,0c0,0,0,0,0,0c0.1,0,0.1,0.1,0.2,0.1c0,0,0,0,0,0c0,0,0,0,0,0c0,0,0.1,0.1,0.1,0.1
	c0,0,0,0,0.1,0.1c0,0,0,0,0,0c0,0,0,0,0,0c0,0.1,0.1,0.1,0.1,0.2c0,0,0,0.1,0,0.1c0,0,0,0.1,0,0.1c0,0,0,0.1,0,0.1c0,0,0,0,0,0
	c0,0.1,0,0.2,0,0.3c0,0.4,0,0.8,0,1.2c0,1.4,0,2.9,0,4.3c0,1.8,0,3.6,0,5.4c0,1.5,0,3,0,4.5c0,0.7,0,1.3,0,2c0,0,0,0,0,0
	c0,0,0,0,0,0c0,0,0,0.1,0,0.1c0,0,0,0,0,0.1c0,0,0,0,0,0c0,0,0,0,0,0c0,0.1-0.1,0.1-0.1,0.2c0,0,0,0.1,0,0.1c0,0-0.1,0.1-0.1,0.1
	c0,0,0,0-0.1,0.1c0,0-0.1,0-0.1,0c0,0-0.1,0-0.1,0.1c0,0-0.1,0-0.1,0c-0.1,0-0.1,0-0.2,0c0,0-0.1,0-0.1,0c0,0-0.1,0-0.1,0
	c-0.2,0-0.3,0-0.5,0c-0.8,0-1.6,0-2.5,0c-0.3,0-2.4,0-2.7,0v0.9c1.1,0,4.1,0,5.3,0c0.2,0,0.5,0,0.7,0c0.7-0.1,1.3-0.7,1.4-1.4
	C39.3,31.5,39.2,31.2,39.2,31z"/>
<g>
	<g>
		<path class="st9" d="M-1617.1-670.6c-3.7,2.8-7.4,5.7-11.3,8.4c-4.1,2.8-8.4,5.4-12.9,7.6c-1.1,0.6-2.2,1.1-3.3,1.6
			c-0.5,0.2-1.1,0.5-1.6,0.7c-0.3,0.1-0.5,0.2-0.8,0.4c-0.2,0.1-1.4,0.6-0.4,0.2c-2.3,0.9-4.6,1.8-6.9,2.6c-2.4,0.8-4.8,1.5-7.2,2.2
			c-2.2,0.6-4.5,1.2-6.4,2.6c-3.9,2.8-6.3,7.2-6.4,12c0,3.9,0,7.8,0,11.7c0,4,0,8,0,11.9c0,8.2,1.1,16.5,3.1,24.5
			c2.1,8.2,5.4,16.1,9.6,23.4c4.2,7.3,9.4,14.1,15.3,20.1c6,6.1,12.9,11.3,20.3,15.6c4.2,2.4,8.6,4.5,12.9,6.6c1.4,0.7,2.6,0.6,4,0
			c0.3-0.2,0.6-0.3,0.9-0.5c1.1-0.6,2.3-1.1,3.4-1.7c2.1-1,4.2-2.1,6.2-3.2c7.5-4.1,14.6-9.2,20.8-15.1c6.1-5.8,11.5-12.5,15.8-19.7
			c4.4-7.2,7.8-15,10.2-23.1c2.4-8.2,3.7-16.9,3.8-25.5c0.1-3.9,0-7.8,0-11.6c0-4.4,0-8.8,0-13.1c0-3.9-1.4-7.5-4-10.3
			c-1.7-1.8-3.9-3.1-6.3-3.9c-2.2-0.7-4.5-1.2-6.7-1.9c-2.4-0.7-4.7-1.6-7.1-2.5c-0.6-0.2-1.1-0.4-1.6-0.7c-0.3-0.1-0.5-0.2-0.8-0.3
			c-0.2-0.1-0.7-0.3,0.2,0.1c-0.2-0.1-0.3-0.1-0.5-0.2c-1.2-0.5-2.3-1-3.5-1.6c-4.5-2.1-8.8-4.5-13-7.2c-4.7-3-9.1-6.5-13.5-9.8
			C-1608.1-673.1-1613.4-673.3-1617.1-670.6c-0.8,0.6-1.5,1.3-1.8,2.3c-0.3,0.9-0.1,2.1,0.4,2.9c1,1.6,3.5,2.6,5.2,1.4
			c0.4-0.3,0.9-0.5,1.4-0.8c-0.1,0-0.9,0.3-0.3,0.1c0.1,0,0.2-0.1,0.3-0.1c0.1,0,0.3-0.1,0.4-0.1c0.3-0.1,0.7,0-0.3,0
			c0.4,0,1.2-0.2,1.5,0c0.1,0-0.9-0.2-0.5-0.1c0.1,0,0.2,0,0.3,0.1c0.1,0,0.3,0.1,0.4,0.1c0.1,0,0.8,0.3,0.2,0
			c-0.6-0.3,0.2,0.1,0.3,0.2c0.2,0.1,0.5,0.3,0.7,0.4c0.1,0,0.1,0.1,0.2,0.1c0.3,0.2,0.5,0.4,0.8,0.6c2,1.5,4,3,6,4.5
			c6.9,5.2,14.2,9.6,22.1,13.1c4.7,2.1,9.6,4,14.6,5.4c1.2,0.3,2.4,0.7,3.6,1c0.5,0.1,0.9,0.2,1.4,0.4c0.2,0.1,0.5,0.2,0.7,0.2
			c0.3,0.1,0.6,0.3-0.3-0.2c0.1,0.1,0.2,0.1,0.4,0.2c0.4,0.2,0.8,0.4,1.2,0.7c0.3,0.2,0.9,0.8,0,0c0.2,0.2,0.4,0.3,0.6,0.5
			c0.3,0.3,0.6,0.7,0.9,1c0.4,0.5-0.6-0.8-0.1-0.1c0.2,0.2,0.3,0.4,0.4,0.7c0.1,0.2,0.2,0.4,0.3,0.6c0.1,0.2,0.4,0.9,0.1,0.3
			c-0.3-0.6,0,0.1,0.1,0.3c0.1,0.3,0.2,0.5,0.2,0.8c0.1,0.2,0.1,0.5,0.1,0.7c0.2,0.9-0.1-0.8,0-0.1c0,0.3,0,0.7,0,1
			c0,0.4,0,0.7,0,1.1c0,2.1,0,4.2,0,6.2c0,5,0,9.9,0,14.9c0,2.1,0,4.2-0.1,6.2c-0.1,2.1-0.3,4.1-0.5,6.2c0,0.2-0.1,0.5-0.1,0.7
			c0,0.1,0,0.3-0.1,0.4c0,0.1,0.1-0.9,0.1-0.5c-0.1,0.5-0.2,1.1-0.2,1.6c-0.2,1-0.3,2.1-0.5,3.1c-0.8,4-1.8,8-3.1,11.9
			c-0.7,2-1.4,3.9-2.2,5.8c-0.1,0.2-0.2,0.4-0.2,0.6c0.5-1.2,0.1-0.2,0,0c-0.2,0.5-0.4,1-0.6,1.4c-0.4,0.9-0.8,1.8-1.3,2.7
			c-1.8,3.6-3.8,7.2-6.1,10.6c-1.1,1.7-2.4,3.4-3.6,5c0,0,0.5-0.7,0.3-0.4c-0.1,0.1-0.2,0.2-0.3,0.3c-0.2,0.2-0.3,0.4-0.5,0.6
			c-0.3,0.4-0.7,0.8-1,1.2c-0.6,0.8-1.3,1.5-2,2.3c-2.7,3.1-5.6,6-8.7,8.6c-0.8,0.7-1.6,1.4-2.4,2c-0.4,0.3-0.8,0.6-1.2,0.9
			c-0.7,0.5,0.5-0.4,0,0c-0.2,0.2-0.4,0.3-0.7,0.5c-1.6,1.2-3.3,2.4-5.1,3.5c-5,3.3-10.4,5.9-15.7,8.5c-0.6,0.3-1.2,0.6-1.7,0.9
			c1.3,0,2.6,0,3.9,0c-3.8-1.9-7.7-3.8-11.5-5.8c-3.6-2-7-4.1-10.3-6.5c-0.4-0.3-0.7-0.5-1.1-0.8c-0.1-0.1-0.8-0.6-0.3-0.2
			c0.5,0.4-0.2-0.2-0.4-0.3c-0.8-0.6-1.6-1.3-2.4-1.9c-1.5-1.3-3-2.6-4.4-3.9c-2.9-2.8-5.6-5.7-8.1-8.8c-0.3-0.4-0.6-0.7-0.8-1.1
			c-0.3-0.4,0.5,0.7,0.2,0.3c-0.1-0.1-0.1-0.2-0.2-0.2c-0.2-0.2-0.3-0.4-0.5-0.7c-0.6-0.8-1.2-1.6-1.7-2.4c-1.1-1.6-2.2-3.3-3.3-5
			c-2.1-3.4-3.9-6.9-5.5-10.5c-0.2-0.4-0.4-0.8-0.5-1.2c-0.3-0.6,0.3,0.8,0,0c-0.1-0.3-0.2-0.5-0.3-0.8c-0.4-0.9-0.7-1.9-1.1-2.8
			c-0.7-1.8-1.3-3.7-1.8-5.6c-1.1-3.8-2-7.8-2.7-11.7c-0.1-0.5-0.1-0.9-0.2-1.4c0-0.1,0-0.3-0.1-0.4c-0.1-0.4,0.1,0.5,0.1,0.5
			c0-0.3-0.1-0.6-0.1-0.8c-0.1-1-0.2-2-0.3-3c-0.2-2-0.3-4.1-0.4-6.1c-0.1-3.8,0-7.6,0-11.4c0-4.6,0-9.2,0-13.7c0-0.3,0-0.7,0-1
			c0-0.2,0-0.5,0-0.7c0.1-0.8-0.1,0.8,0,0.1c0.1-0.5,0.2-0.9,0.3-1.4c0.1-0.2,0.2-0.4,0.2-0.7c0.2-0.4-0.4,0.8-0.2,0.4
			c0-0.1,0.1-0.2,0.1-0.3c0.2-0.4,0.5-0.9,0.7-1.3c0.1-0.1,0.1-0.2,0.2-0.2c0.3-0.5-0.2,0.3-0.2,0.3c0,0,0.3-0.4,0.4-0.5
			c0.3-0.4,0.7-0.7,1.1-1c0.7-0.6-0.6,0.4-0.1,0c0.2-0.1,0.4-0.3,0.6-0.4c0.2-0.1,1.1-0.8,1.3-0.7c0,0-0.8,0.3-0.4,0.2
			c0.1,0,0.2-0.1,0.3-0.1c0.2-0.1,0.5-0.2,0.7-0.2c0.5-0.1,1-0.3,1.5-0.4c1.1-0.3,2.3-0.6,3.4-1c9.5-2.8,18.6-6.9,27-12
			c5.2-3.2,10-6.9,14.8-10.5c0.5-0.4,1-0.7,1.5-1.1c0.8-0.6,1.5-1.2,1.8-2.3c0.3-0.9,0.1-2.1-0.4-2.9
			C-1612.9-670.8-1615.4-671.9-1617.1-670.6z"/>
	</g>
	<g>
		<path class="st9" d="M-1637.8-595.5c2,2,4.1,4,6.1,6.1c3.2,3.2,6.5,6.4,9.7,9.7c0.7,0.7,1.5,1.5,2.2,2.2c1.5,1.4,3.9,1.5,5.4,0
			c1.2-1.2,2.4-2.4,3.6-3.6c2.9-2.9,5.7-5.8,8.6-8.6c3.5-3.5,6.9-7,10.4-10.5c3-3,6-6,9-9c1.5-1.5,2.9-2.9,4.4-4.4c0,0,0,0,0.1-0.1
			c1.4-1.4,1.5-4,0-5.4c-1.5-1.4-3.9-1.5-5.4,0c-1.2,1.2-2.4,2.4-3.6,3.6c-2.9,2.9-5.7,5.8-8.6,8.6c-3.5,3.5-6.9,7-10.4,10.5
			c-3,3-6,6-9,9c-1.4,1.5-2.9,2.9-4.4,4.4c0,0,0,0-0.1,0.1c1.8,0,3.6,0,5.4,0c-2-2-4.1-4-6.1-6.1c-3.2-3.2-6.5-6.4-9.7-9.7
			c-0.7-0.7-1.5-1.5-2.2-2.2c-1.4-1.4-4-1.5-5.4,0C-1639.2-599.4-1639.3-597-1637.8-595.5L-1637.8-595.5z"/>
	</g>
</g>
<path class="st0" d="M-1526.9-638.8h8.3c24.9,0,45.1,20.2,45.1,45.1v100.8c0,24.9-20.2,45.1-45.1,45.1h-184.8
	c-24.9,0-45.1-20.2-45.1-45.1v-100.8c0-24.9,20.2-45.1,45.1-45.1h9"/>
<line class="st10" x1="-1679.9" y1="-388.1" x2="-1542.1" y2="-388.1"/>
<line class="st10" x1="-1645.2" y1="-390.5" x2="-1645.2" y2="-447.8"/>
<line class="st10" x1="-1576.6" y1="-389.3" x2="-1576.6" y2="-446.6"/>
<g>
	<path class="st6" d="M-1760.6-761.9h-96.5h-0.3h-0.2v1.9v94.9c0,6,4.8,10.8,10.8,10.8l0,0c6,0,10.8-4.8,10.8-10.8v-75.2h75.5
		c6,0,10.8-4.8,10.8-10.8l0,0C-1749.8-757-1754.6-761.9-1760.6-761.9z"/>
	<path class="st6" d="M-1464.7-271.9h96.5h0.3h0.2v-1.9v-94.9c0-6-4.8-10.8-10.8-10.8l0,0c-6,0-10.8,4.8-10.8,10.8v75.2h-75.5
		c-6,0-10.8,4.8-10.8,10.8l0,0C-1475.5-276.7-1470.6-271.9-1464.7-271.9z"/>
	<path class="st6" d="M-1760.9-293.4h-75.2v-75.5c0-6-4.8-10.8-10.8-10.8h0c-6,0-10.8,4.8-10.8,10.8v95.8v1.1v0.2h1.9h0.7h94.2
		c6,0,10.8-4.8,10.8-10.8C-1750.1-288.6-1754.9-293.4-1760.9-293.4z"/>
	<path class="st6" d="M-1369.5-761.9h-0.1h-94.8c-6,0-10.8,4.8-10.8,10.8c0,6,4.8,10.8,10.8,10.8h75.2v75.5c0,6,4.8,10.8,10.8,10.8
		h0c6,0,10.8-4.8,10.8-10.8v-96.7v-0.1v-0.2H-1369.5z"/>
</g>
<path class="st6" d="M-1368.7-761.2"/>
</svg>
