<?xml version="1.0" encoding="utf-8"?>
<!-- Generator: Adobe Illustrator 28.2.0, SVG Export Plug-In . SVG Version: 6.00 Build 0)  -->
<svg version="1.1" id="Слой_1" xmlns="http://www.w3.org/2000/svg" xmlns:xlink="http://www.w3.org/1999/xlink" x="0px" y="0px"
	 viewBox="0 0 48 48" style="enable-background:new 0 0 48 48;" xml:space="preserve">
<style type="text/css">
	.st0{fill:none;stroke:#FFFFFF;stroke-width:1.6593;stroke-miterlimit:10;}
	.st1{fill:none;stroke:#FFFFFF;stroke-width:1.6917;stroke-linecap:round;stroke-miterlimit:10;}
	.st2{fill:none;stroke:#FFFFFF;stroke-width:1.7496;stroke-miterlimit:10;}
	.st3{fill:none;stroke:#FFFFFF;stroke-width:1.6593;stroke-linecap:round;stroke-linejoin:round;stroke-miterlimit:10;}
	.st4{fill:#E6263D;}
	.st5{fill:#FFFFFF;stroke:#FFFFFF;stroke-width:0.6857;stroke-linejoin:round;}
	.st6{fill:#E62340;}
	.st7{fill:#FFFFFF;stroke:#FFFFFF;stroke-width:0.6857;}
	.st8{fill:#FFFFFF;stroke:#FFFFFF;stroke-width:0.7837;}
	.st9{fill:#FFFFFF;stroke:#FFFFFF;stroke-width:0.7837;stroke-linejoin:round;}
	.st10{fill:none;stroke:#FFFFFF;stroke-width:1.6653;stroke-miterlimit:10;}
	.st11{fill:none;stroke:#FFFFFF;stroke-width:1.6653;stroke-linecap:round;stroke-miterlimit:10;}
</style>
<path class="st0" d="M-305.4-10.8h17.8c2.4,0,4.4,1.9,4.4,4.4v11"/>
<line class="st1" x1="-298.2" y1="-9.8" x2="-293.5" y2="-9.8"/>
<path class="st0" d="M-296.6,10.9l12.9,0c1.6,0,3-1.2,3-4l0,0h-11.6c0,0.8-0.7,1.4-1.6,1.4h-2.6"/>
<line class="st2" x1="-313.6" y1="7.4" x2="-313.6" y2="7.4"/>
<g>
	<path class="st3" d="M-296-6.2c1.3,0,2.3,1.1,2.3,2.4c0,1.3-1.1,2.3-2.4,2.3c-1.3,0-2.3-1.1-2.3-2.4C-298.3-5.2-297.3-6.2-296-6.2z
		"/>
	<path class="st3" d="M-300.2,3c0.7-6,8.2-5.8,8.6,0H-300.2z"/>
</g>
<g>
	<path class="st3" d="M-309.5-9c2.7,0,4.9,2.3,4.9,5c0,2.7-2.3,4.9-5,4.8c-2.7,0-4.9-2.3-4.8-5C-314.5-6.9-312.2-9-309.5-9z"/>
	<path class="st3" d="M-318.3,10.6c1.4-12.7,17.3-12.2,18.2,0H-318.3z"/>
</g>
<g>
	<path class="st4" d="M-313.8-23.8h-8h-1v1v8.1c0,0.6,0.4,1,1,1l0,0c0.6,0,1-0.4,1-1v-7.1h7c0.6,0,1-0.4,1-1v0
		C-312.8-23.3-313.3-23.8-313.8-23.8z"/>
	<path class="st4" d="M-274.8-14.7v-8v-1h-1h-8.1c-0.6,0-1,0.4-1,1v0c0,0.6,0.4,1,1,1h7.1v7c0,0.6,0.4,1,1,1l0,0
		C-275.2-13.7-274.8-14.2-274.8-14.7z"/>
	<path class="st4" d="M-283.8,24.2h8h1v-1v-8.1c0-0.6-0.4-1-1-1l0,0c-0.6,0-1,0.4-1,1v7.1h-7c-0.6,0-1,0.4-1,1v0
		C-284.8,23.7-284.3,24.2-283.8,24.2z"/>
	<path class="st4" d="M-322.8,15.1v8v1h1h8.1c0.6,0,1-0.4,1-1v0c0-0.6-0.4-1-1-1h-7.1v-7c0-0.6-0.4-1-1-1l0,0
		C-322.4,14.1-322.8,14.6-322.8,15.1z"/>
</g>
<g>
	<g>
		<path class="st5" d="M-388.8,35.3c-0.4,0.3-0.7,0.6-1.1,0.8c-0.4,0.3-0.8,0.5-1.3,0.8c-0.1,0.1-0.2,0.1-0.3,0.2
			c-0.1,0-0.1,0-0.2,0.1c0,0-0.1,0-0.1,0c0,0-0.1,0.1,0,0c-0.2,0.1-0.5,0.2-0.7,0.3c-0.2,0.1-0.5,0.2-0.7,0.2
			c-0.2,0.1-0.4,0.1-0.6,0.3c-0.4,0.3-0.6,0.7-0.6,1.2c0,0.4,0,0.8,0,1.2c0,0.4,0,0.8,0,1.2c0,0.8,0.1,1.6,0.3,2.4
			c0.2,0.8,0.5,1.6,1,2.3c0.4,0.7,0.9,1.4,1.5,2c0.6,0.6,1.3,1.1,2,1.6c0.4,0.2,0.9,0.5,1.3,0.7c0.1,0.1,0.3,0.1,0.4,0
			c0,0,0.1,0,0.1,0c0.1-0.1,0.2-0.1,0.3-0.2c0.2-0.1,0.4-0.2,0.6-0.3c0.8-0.4,1.4-0.9,2.1-1.5c0.6-0.6,1.1-1.2,1.6-2
			c0.4-0.7,0.8-1.5,1-2.3c0.2-0.8,0.4-1.7,0.4-2.5c0-0.4,0-0.8,0-1.2c0-0.4,0-0.9,0-1.3c0-0.4-0.1-0.8-0.4-1
			c-0.2-0.2-0.4-0.3-0.6-0.4c-0.2-0.1-0.4-0.1-0.7-0.2c-0.2-0.1-0.5-0.2-0.7-0.2c-0.1,0-0.1,0-0.2-0.1c0,0-0.1,0-0.1,0
			c0,0-0.1,0,0,0c0,0,0,0,0,0c-0.1-0.1-0.2-0.1-0.3-0.2c-0.4-0.2-0.9-0.5-1.3-0.7c-0.5-0.3-0.9-0.6-1.3-1
			C-387.9,35-388.4,35-388.8,35.3c-0.1,0.1-0.1,0.1-0.2,0.2c0,0.1,0,0.2,0,0.3c0.1,0.2,0.3,0.3,0.5,0.1c0,0,0.1-0.1,0.1-0.1
			c0,0-0.1,0,0,0c0,0,0,0,0,0c0,0,0,0,0,0c0,0,0.1,0,0,0c0,0,0.1,0,0.2,0c0,0-0.1,0,0,0c0,0,0,0,0,0c0,0,0,0,0,0c0,0,0.1,0,0,0
			c-0.1,0,0,0,0,0c0,0,0,0,0.1,0c0,0,0,0,0,0c0,0,0.1,0,0.1,0.1c0.2,0.1,0.4,0.3,0.6,0.4c0.7,0.5,1.4,1,2.2,1.3
			c0.5,0.2,1,0.4,1.5,0.5c0.1,0,0.2,0.1,0.4,0.1c0,0,0.1,0,0.1,0c0,0,0,0,0.1,0c0,0,0.1,0,0,0c0,0,0,0,0,0c0,0,0.1,0,0.1,0.1
			c0,0,0.1,0.1,0,0c0,0,0,0,0.1,0.1c0,0,0.1,0.1,0.1,0.1c0,0-0.1-0.1,0,0c0,0,0,0,0,0.1c0,0,0,0,0,0.1c0,0,0,0.1,0,0c0-0.1,0,0,0,0
			c0,0,0,0.1,0,0.1c0,0,0,0,0,0.1c0,0.1,0-0.1,0,0c0,0,0,0.1,0,0.1c0,0,0,0.1,0,0.1c0,0.2,0,0.4,0,0.6c0,0.5,0,1,0,1.5
			c0,0.2,0,0.4,0,0.6c0,0.2,0,0.4-0.1,0.6c0,0,0,0,0,0.1c0,0,0,0,0,0c0,0,0-0.1,0,0c0,0.1,0,0.1,0,0.2c0,0.1,0,0.2-0.1,0.3
			c-0.1,0.4-0.2,0.8-0.3,1.2c-0.1,0.2-0.1,0.4-0.2,0.6c0,0,0,0,0,0.1c0-0.1,0,0,0,0c0,0,0,0.1-0.1,0.1c0,0.1-0.1,0.2-0.1,0.3
			c-0.2,0.4-0.4,0.7-0.6,1.1c-0.1,0.2-0.2,0.3-0.4,0.5c0,0,0.1-0.1,0,0c0,0,0,0,0,0c0,0,0,0,0,0.1c0,0-0.1,0.1-0.1,0.1
			c-0.1,0.1-0.1,0.2-0.2,0.2c-0.3,0.3-0.6,0.6-0.9,0.9c-0.1,0.1-0.2,0.1-0.2,0.2c0,0-0.1,0.1-0.1,0.1c-0.1,0.1,0.1,0,0,0
			c0,0,0,0-0.1,0.1c-0.2,0.1-0.3,0.2-0.5,0.4c-0.5,0.3-1,0.6-1.6,0.9c-0.1,0-0.1,0.1-0.2,0.1c0.1,0,0.3,0,0.4,0
			c-0.4-0.2-0.8-0.4-1.1-0.6c-0.4-0.2-0.7-0.4-1-0.7c0,0-0.1-0.1-0.1-0.1c0,0-0.1-0.1,0,0c0.1,0,0,0,0,0c-0.1-0.1-0.2-0.1-0.2-0.2
			c-0.1-0.1-0.3-0.3-0.4-0.4c-0.3-0.3-0.6-0.6-0.8-0.9c0,0-0.1-0.1-0.1-0.1c0,0,0.1,0.1,0,0c0,0,0,0,0,0c0,0,0,0-0.1-0.1
			c-0.1-0.1-0.1-0.2-0.2-0.2c-0.1-0.2-0.2-0.3-0.3-0.5c-0.2-0.3-0.4-0.7-0.5-1.1c0,0,0-0.1-0.1-0.1c0-0.1,0,0.1,0,0c0,0,0-0.1,0-0.1
			c0-0.1-0.1-0.2-0.1-0.3c-0.1-0.2-0.1-0.4-0.2-0.6c-0.1-0.4-0.2-0.8-0.3-1.2c0,0,0-0.1,0-0.1c0,0,0,0,0,0c0,0,0,0.1,0,0
			c0,0,0-0.1,0-0.1c0-0.1,0-0.2,0-0.3c0-0.2,0-0.4,0-0.6c0-0.4,0-0.8,0-1.1c0-0.5,0-0.9,0-1.4c0,0,0-0.1,0-0.1c0,0,0,0,0-0.1
			c0-0.1,0,0.1,0,0c0,0,0-0.1,0-0.1c0,0,0,0,0-0.1c0,0,0,0.1,0,0c0,0,0,0,0,0c0,0,0-0.1,0.1-0.1c0,0,0,0,0,0c0-0.1,0,0,0,0
			c0,0,0,0,0,0c0,0,0.1-0.1,0.1-0.1c0.1-0.1-0.1,0,0,0c0,0,0,0,0.1,0c0,0,0.1-0.1,0.1-0.1c0,0-0.1,0,0,0c0,0,0,0,0,0c0,0,0,0,0.1,0
			c0.1,0,0.1,0,0.2,0c0.1,0,0.2-0.1,0.3-0.1c0.9-0.3,1.9-0.7,2.7-1.2c0.5-0.3,1-0.7,1.5-1.1c0,0,0.1-0.1,0.1-0.1
			c0.1-0.1,0.1-0.1,0.2-0.2c0-0.1,0-0.2,0-0.3C-388.4,35.3-388.6,35.2-388.8,35.3z"/>
	</g>
	<g>
		<path class="st5" d="M-390.8,42.8c0.2,0.2,0.4,0.4,0.6,0.6c0.3,0.3,0.6,0.6,1,1c0.1,0.1,0.1,0.1,0.2,0.2c0.1,0.1,0.4,0.1,0.5,0
			c0.1-0.1,0.2-0.2,0.4-0.4c0.3-0.3,0.6-0.6,0.9-0.9c0.3-0.3,0.7-0.7,1-1c0.3-0.3,0.6-0.6,0.9-0.9c0.1-0.1,0.3-0.3,0.4-0.4
			c0,0,0,0,0,0c0.1-0.1,0.2-0.4,0-0.5c-0.2-0.1-0.4-0.2-0.5,0c-0.1,0.1-0.2,0.2-0.4,0.4c-0.3,0.3-0.6,0.6-0.9,0.9
			c-0.3,0.3-0.7,0.7-1,1c-0.3,0.3-0.6,0.6-0.9,0.9c-0.1,0.1-0.3,0.3-0.4,0.4c0,0,0,0,0,0c0.2,0,0.4,0,0.5,0
			c-0.2-0.2-0.4-0.4-0.6-0.6c-0.3-0.3-0.6-0.6-1-1c-0.1-0.1-0.1-0.1-0.2-0.2c-0.1-0.1-0.4-0.2-0.5,0C-391,42.4-391,42.7-390.8,42.8
			L-390.8,42.8z"/>
	</g>
</g>
<g>
	<path class="st6" d="M-403.1,13.2h-8h-1v1v8.1c0,0.6,0.4,1,1,1l0,0c0.6,0,1-0.4,1-1v-7.1h7c0.6,0,1-0.4,1-1v0
		C-402.1,13.7-402.6,13.2-403.1,13.2z"/>
	<path class="st6" d="M-364.1,22.3v-8v-1h-1h-8.1c-0.6,0-1,0.4-1,1v0c0,0.6,0.4,1,1,1h7.1v7c0,0.6,0.4,1,1,1h0
		C-364.5,23.3-364.1,22.9-364.1,22.3z"/>
	<path class="st6" d="M-373.1,61.3h8h1v-1v-8.1c0-0.6-0.4-1-1-1h0c-0.6,0-1,0.4-1,1v7.1h-7c-0.6,0-1,0.4-1,1l0,0
		C-374.1,60.9-373.6,61.3-373.1,61.3z"/>
	<path class="st6" d="M-412.1,52.3v8v1h1h8.1c0.6,0,1-0.4,1-1l0,0c0-0.6-0.4-1-1-1h-7.1v-7c0-0.6-0.4-1-1-1l0,0
		C-411.7,51.3-412.1,51.7-412.1,52.3z"/>
</g>
<g>
	<path class="st7" d="M-402.2,31.2c0.3,0,0.5,0,0.8,0c0.7,0,1.4,0,2.1,0c1,0,2.1,0,3.1,0c1.3,0,2.5,0,3.8,0c1.4,0,2.8,0,4.1,0
		c1.4,0,2.8,0,4.2,0c1.3,0,2.6,0,3.9,0c1.1,0,2.2,0,3.3,0c0.8,0,1.6,0,2.4,0c0.4,0,0.7,0,1.1,0c0,0,0,0,0,0c0.2,0,0.4-0.2,0.4-0.4
		c0-0.2-0.2-0.4-0.4-0.4c-0.3,0-0.5,0-0.8,0c-0.7,0-1.4,0-2.1,0c-1,0-2.1,0-3.1,0c-1.3,0-2.5,0-3.8,0c-1.4,0-2.8,0-4.1,0
		c-1.4,0-2.8,0-4.2,0c-1.3,0-2.6,0-3.9,0c-1.1,0-2.2,0-3.3,0c-0.8,0-1.6,0-2.4,0c-0.4,0-0.7,0-1.1,0c0,0,0,0,0,0
		c-0.2,0-0.4,0.2-0.4,0.4C-402.6,31-402.4,31.2-402.2,31.2L-402.2,31.2z"/>
</g>
<g>
	<path class="st8" d="M-399.3,28.7C-399.3,28.7-399.3,28.7-399.3,28.7c0.1,0,0.1,0,0.2,0c0.1,0,0.1,0,0.1-0.1c0,0,0.1-0.1,0.1-0.1
		c0-0.1,0-0.1,0-0.2c0,0,0-0.1,0-0.1c0-0.1-0.1-0.1-0.1-0.2c0,0-0.1,0-0.1-0.1c-0.1,0-0.1-0.1-0.2-0.1c0,0,0,0,0,0
		c-0.1,0-0.1,0-0.2,0c-0.1,0-0.1,0-0.1,0.1c0,0-0.1,0.1-0.1,0.1c0,0.1,0,0.1,0,0.2c0,0,0,0.1,0,0.1c0,0.1,0.1,0.1,0.1,0.2
		c0,0,0.1,0,0.1,0.1C-399.4,28.7-399.4,28.7-399.3,28.7L-399.3,28.7z"/>
</g>
<g>
	<path class="st8" d="M-396.4,28.7L-396.4,28.7c0.1,0,0.1,0,0.2,0c0.1,0,0.1,0,0.1-0.1c0,0,0.1-0.1,0.1-0.1c0-0.1,0-0.1,0-0.2
		c0,0,0-0.1,0-0.1c0-0.1-0.1-0.1-0.1-0.2c0,0-0.1,0-0.1-0.1c-0.1,0-0.1-0.1-0.2-0.1l0,0c-0.1,0-0.1,0-0.2,0c-0.1,0-0.1,0-0.1,0.1
		c0,0-0.1,0.1-0.1,0.1c0,0.1,0,0.1,0,0.2c0,0,0,0.1,0,0.1c0,0.1,0.1,0.1,0.1,0.2c0,0,0.1,0,0.1,0.1
		C-396.6,28.7-396.5,28.7-396.4,28.7L-396.4,28.7z"/>
</g>
<g>
	<path class="st8" d="M-393.5,28.7C-393.5,28.7-393.5,28.7-393.5,28.7c0.1,0,0.1,0,0.2,0c0.1,0,0.1,0,0.1-0.1c0,0,0.1-0.1,0.1-0.1
		c0-0.1,0-0.1,0-0.2c0,0,0-0.1,0-0.1c0-0.1-0.1-0.1-0.1-0.2c0,0-0.1,0-0.1-0.1c-0.1,0-0.1-0.1-0.2-0.1c0,0,0,0,0,0
		c-0.1,0-0.1,0-0.2,0c-0.1,0-0.1,0-0.1,0.1c0,0-0.1,0.1-0.1,0.1c0,0.1,0,0.1,0,0.2c0,0,0,0.1,0,0.1c0,0.1,0.1,0.1,0.1,0.2
		c0,0,0.1,0,0.1,0.1C-393.7,28.7-393.6,28.7-393.5,28.7L-393.5,28.7z"/>
</g>
<path class="st7" d="M-372.9,44.2c0-1.2,0-2.3,0-3.5c0-1.8,0-3.5,0-5.3c0-1.7,0-3.4,0-5.1c0-1,0-2.1,0-3.1c0-0.1,0-0.2,0-0.2
	c0-0.5-0.2-0.9-0.5-1.3c-0.3-0.3-0.8-0.5-1.3-0.5c-0.1,0-0.1,0-0.2,0c-0.7,0-1.5,0-2.2,0c-1.4,0-2.8,0-4.2,0c-1.7,0-3.5,0-5.2,0
	c-1.8,0-3.6,0-5.4,0c-1.6,0-3.2,0-4.8,0c-1.1,0-2.2,0-3.3,0c-0.3,0-0.5,0-0.8,0c-0.5,0-1.1,0.1-1.5,0.6c-0.3,0.3-0.5,0.8-0.5,1.2
	c0,0.1,0,0.2,0,0.2c0,0.4,0,0.8,0,1.2c0,1.5,0,2.9,0,4.4c0,1.8,0,3.6,0,5.4c0,1.5,0,3,0,4.6c0,0.5,0,0.9,0,1.4c0,0.3,0,0.6,0.1,0.9
	c0.2,0.7,0.8,1.2,1.6,1.3c0.2,0,0.4,0,0.5,0c0.8,0,2.9,0,3.7,0c0.2,0,0.4,0,0.7,0v-0.9c-1.1,0-3.3,0-4.4,0c-0.1,0-0.2,0-0.3,0
	c0,0-0.1,0-0.1,0c0,0-0.1,0-0.1,0c-0.1,0-0.1,0-0.2,0c0,0-0.1,0-0.1,0c0,0-0.1,0-0.1,0c0,0-0.1,0-0.1-0.1c0,0,0,0,0,0c0,0,0,0,0,0
	c-0.1-0.1-0.1-0.1-0.2-0.2c0,0,0,0,0,0c0,0,0,0,0,0c0,0,0-0.1-0.1-0.1c0,0,0-0.1,0-0.1c0,0,0,0,0,0c0-0.1,0-0.1,0-0.2
	c0,0,0-0.1,0-0.1c0-0.2,0-0.4,0-0.5c0-1.2,0-2.3,0-3.5c0-1.7,0-3.5,0-5.2c0-1.7,0-3.4,0-5.1c0-1,0-2,0-3.1c0-0.1,0-0.2,0-0.2
	c0,0,0,0,0,0c0,0,0,0,0,0c0,0,0,0,0,0c0,0,0-0.1,0-0.1c0,0,0,0,0,0c0-0.1,0-0.1,0-0.2c0,0,0,0,0,0c0,0,0,0,0,0c0,0,0-0.1,0.1-0.1
	c0,0,0,0,0-0.1c0,0,0-0.1,0-0.1c0,0,0.1-0.1,0.1-0.1c0,0,0.1,0,0.1,0c0,0,0.1,0,0.1-0.1c0,0,0.1,0,0,0c0,0,0,0,0.1,0
	c0,0,0.1,0,0.1,0c0,0,0.1,0,0.1,0c0,0,0.1,0,0.1,0c0,0,0,0,0,0c0.1,0,0.1,0,0.2,0c0.8,0,1.5,0,2.3,0c1.4,0,2.8,0,4.2,0
	c1.7,0,3.4,0,5.1,0c1.8,0,3.6,0,5.4,0c1.6,0,3.2,0,4.7,0c1.1,0,2.2,0,3.3,0c0.3,0,0.6,0,0.8,0c0.1,0,0.1,0,0.2,0c0,0,0,0,0.1,0
	c0,0,0.1,0,0.1,0c0,0,0.1,0,0.1,0c0,0,0.1,0,0.1,0c0,0,0,0,0,0c0.1,0,0.1,0.1,0.2,0.1c0,0,0,0,0,0c0,0,0,0,0,0c0,0,0.1,0.1,0.1,0.1
	c0,0,0,0,0.1,0.1c0,0,0,0,0,0c0,0,0,0,0,0c0,0.1,0.1,0.1,0.1,0.2c0,0,0,0.1,0,0.1c0,0,0,0.1,0,0.1c0,0,0,0.1,0,0.1c0,0,0,0,0,0
	c0,0.1,0,0.2,0,0.3c0,0.4,0,0.8,0,1.2c0,1.4,0,2.9,0,4.3c0,1.8,0,3.6,0,5.4c0,1.5,0,3,0,4.5c0,0.7,0,1.3,0,2c0,0,0,0,0,0
	c0,0,0,0,0,0c0,0,0,0.1,0,0.1c0,0,0,0,0,0.1c0,0,0,0,0,0c0,0,0,0,0,0c0,0.1-0.1,0.1-0.1,0.2c0,0,0,0.1,0,0.1c0,0-0.1,0.1-0.1,0.1
	c0,0,0,0-0.1,0.1c0,0-0.1,0-0.1,0c0,0-0.1,0-0.1,0.1c0,0-0.1,0-0.1,0c-0.1,0-0.1,0-0.2,0c0,0-0.1,0-0.1,0c0,0-0.1,0-0.1,0
	c-0.2,0-0.3,0-0.5,0c-0.8,0-1.6,0-2.5,0c-0.3,0-2.4,0-2.7,0v0.9c1.1,0,4.1,0,5.3,0c0.2,0,0.5,0,0.7,0c0.7-0.1,1.3-0.7,1.4-1.4
	C-372.9,44.8-372.9,44.5-372.9,44.2z"/>
<g>
	<g>
		<path class="st9" d="M23.6,8.9c-0.4,0.3-0.7,0.6-1.1,0.8c-0.4,0.3-0.8,0.5-1.3,0.7c-0.1,0.1-0.2,0.1-0.3,0.2c-0.1,0-0.1,0-0.2,0.1
			c0,0-0.1,0-0.1,0c0,0-0.1,0.1,0,0c-0.2,0.1-0.4,0.2-0.7,0.3c-0.2,0.1-0.5,0.2-0.7,0.2c-0.2,0.1-0.4,0.1-0.6,0.3
			c-0.4,0.3-0.6,0.7-0.6,1.2c0,0.4,0,0.8,0,1.1c0,0.4,0,0.8,0,1.2c0,0.8,0.1,1.6,0.3,2.4c0.2,0.8,0.5,1.6,0.9,2.3
			c0.4,0.7,0.9,1.4,1.5,2c0.6,0.6,1.3,1.1,2,1.5c0.4,0.2,0.8,0.4,1.3,0.7c0.1,0.1,0.3,0.1,0.4,0c0,0,0.1,0,0.1,0
			c0.1-0.1,0.2-0.1,0.3-0.2c0.2-0.1,0.4-0.2,0.6-0.3c0.7-0.4,1.4-0.9,2-1.5c0.6-0.6,1.1-1.2,1.6-1.9c0.4-0.7,0.8-1.5,1-2.3
			c0.2-0.8,0.4-1.7,0.4-2.5c0-0.4,0-0.8,0-1.1c0-0.4,0-0.9,0-1.3c0-0.4-0.1-0.7-0.4-1c-0.2-0.2-0.4-0.3-0.6-0.4
			c-0.2-0.1-0.4-0.1-0.7-0.2c-0.2-0.1-0.5-0.2-0.7-0.2c-0.1,0-0.1,0-0.2-0.1c0,0-0.1,0-0.1,0c0,0-0.1,0,0,0c0,0,0,0,0,0
			c-0.1,0-0.2-0.1-0.3-0.2c-0.4-0.2-0.9-0.4-1.3-0.7c-0.5-0.3-0.9-0.6-1.3-1C24.4,8.7,23.9,8.7,23.6,8.9c-0.1,0.1-0.1,0.1-0.2,0.2
			c0,0.1,0,0.2,0,0.3c0.1,0.2,0.3,0.3,0.5,0.1c0,0,0.1-0.1,0.1-0.1c0,0-0.1,0,0,0c0,0,0,0,0,0c0,0,0,0,0,0c0,0,0.1,0,0,0
			c0,0,0.1,0,0.1,0c0,0-0.1,0,0,0c0,0,0,0,0,0c0,0,0,0,0,0c0,0,0.1,0,0,0c-0.1,0,0,0,0,0c0,0,0,0,0.1,0c0,0,0,0,0,0
			c0,0,0.1,0,0.1,0.1c0.2,0.1,0.4,0.3,0.6,0.4c0.7,0.5,1.4,0.9,2.2,1.3c0.5,0.2,0.9,0.4,1.4,0.5c0.1,0,0.2,0.1,0.3,0.1
			c0,0,0.1,0,0.1,0c0,0,0,0,0.1,0c0,0,0.1,0,0,0c0,0,0,0,0,0c0,0,0.1,0,0.1,0.1c0,0,0.1,0.1,0,0c0,0,0,0,0.1,0.1
			c0,0,0.1,0.1,0.1,0.1c0,0-0.1-0.1,0,0c0,0,0,0,0,0.1c0,0,0,0,0,0.1c0,0,0,0.1,0,0c0-0.1,0,0,0,0c0,0,0,0,0,0.1c0,0,0,0,0,0.1
			c0,0.1,0-0.1,0,0c0,0,0,0.1,0,0.1c0,0,0,0.1,0,0.1c0,0.2,0,0.4,0,0.6c0,0.5,0,1,0,1.5c0,0.2,0,0.4,0,0.6c0,0.2,0,0.4-0.1,0.6
			c0,0,0,0,0,0.1c0,0,0,0,0,0c0,0,0-0.1,0,0c0,0.1,0,0.1,0,0.2c0,0.1,0,0.2-0.1,0.3c-0.1,0.4-0.2,0.8-0.3,1.2
			c-0.1,0.2-0.1,0.4-0.2,0.6c0,0,0,0,0,0.1c0-0.1,0,0,0,0c0,0,0,0.1-0.1,0.1c0,0.1-0.1,0.2-0.1,0.3c-0.2,0.4-0.4,0.7-0.6,1
			c-0.1,0.2-0.2,0.3-0.4,0.5c0,0,0.1-0.1,0,0c0,0,0,0,0,0c0,0,0,0,0,0.1c0,0-0.1,0.1-0.1,0.1c-0.1,0.1-0.1,0.2-0.2,0.2
			c-0.3,0.3-0.6,0.6-0.9,0.8c-0.1,0.1-0.2,0.1-0.2,0.2c0,0-0.1,0.1-0.1,0.1c-0.1,0.1,0.1,0,0,0c0,0,0,0-0.1,0.1
			c-0.2,0.1-0.3,0.2-0.5,0.3c-0.5,0.3-1,0.6-1.5,0.8c-0.1,0-0.1,0.1-0.2,0.1c0.1,0,0.3,0,0.4,0c-0.4-0.2-0.8-0.4-1.1-0.6
			c-0.3-0.2-0.7-0.4-1-0.6c0,0-0.1-0.1-0.1-0.1c0,0-0.1-0.1,0,0c0.1,0,0,0,0,0c-0.1-0.1-0.2-0.1-0.2-0.2c-0.1-0.1-0.3-0.3-0.4-0.4
			c-0.3-0.3-0.5-0.6-0.8-0.9c0,0-0.1-0.1-0.1-0.1c0,0,0,0.1,0,0c0,0,0,0,0,0c0,0,0,0,0-0.1c-0.1-0.1-0.1-0.2-0.2-0.2
			c-0.1-0.2-0.2-0.3-0.3-0.5c-0.2-0.3-0.4-0.7-0.5-1c0,0,0-0.1-0.1-0.1c0-0.1,0,0.1,0,0c0,0,0-0.1,0-0.1c0-0.1-0.1-0.2-0.1-0.3
			c-0.1-0.2-0.1-0.4-0.2-0.5c-0.1-0.4-0.2-0.8-0.3-1.1c0,0,0-0.1,0-0.1c0,0,0,0,0,0c0,0,0,0.1,0,0c0,0,0-0.1,0-0.1
			c0-0.1,0-0.2,0-0.3c0-0.2,0-0.4,0-0.6c0-0.4,0-0.7,0-1.1c0-0.4,0-0.9,0-1.3c0,0,0-0.1,0-0.1c0,0,0,0,0-0.1c0-0.1,0,0.1,0,0
			c0,0,0-0.1,0-0.1c0,0,0,0,0-0.1c0,0,0,0.1,0,0c0,0,0,0,0,0c0,0,0-0.1,0.1-0.1c0,0,0,0,0,0c0-0.1,0,0,0,0c0,0,0,0,0,0
			c0,0,0.1-0.1,0.1-0.1c0.1-0.1-0.1,0,0,0c0,0,0,0,0.1,0c0,0,0.1-0.1,0.1-0.1c0,0-0.1,0,0,0c0,0,0,0,0,0c0,0,0,0,0.1,0
			c0,0,0.1,0,0.2,0c0.1,0,0.2-0.1,0.3-0.1c0.9-0.3,1.8-0.7,2.6-1.2c0.5-0.3,1-0.7,1.5-1c0,0,0.1-0.1,0.1-0.1
			c0.1-0.1,0.1-0.1,0.2-0.2c0-0.1,0-0.2,0-0.3C24,8.9,23.7,8.8,23.6,8.9z"/>
	</g>
	<g>
		<path class="st9" d="M21.5,16.3c0.2,0.2,0.4,0.4,0.6,0.6c0.3,0.3,0.6,0.6,1,0.9c0.1,0.1,0.1,0.1,0.2,0.2c0.1,0.1,0.4,0.1,0.5,0
			c0.1-0.1,0.2-0.2,0.3-0.4c0.3-0.3,0.6-0.6,0.8-0.8c0.3-0.3,0.7-0.7,1-1c0.3-0.3,0.6-0.6,0.9-0.9c0.1-0.1,0.3-0.3,0.4-0.4
			c0,0,0,0,0,0c0.1-0.1,0.1-0.4,0-0.5c-0.1-0.1-0.4-0.1-0.5,0c-0.1,0.1-0.2,0.2-0.3,0.4c-0.3,0.3-0.6,0.6-0.8,0.8
			c-0.3,0.3-0.7,0.7-1,1c-0.3,0.3-0.6,0.6-0.9,0.9c-0.1,0.1-0.3,0.3-0.4,0.4c0,0,0,0,0,0c0.2,0,0.4,0,0.5,0
			c-0.2-0.2-0.4-0.4-0.6-0.6c-0.3-0.3-0.6-0.6-1-0.9c-0.1-0.1-0.1-0.1-0.2-0.2c-0.1-0.1-0.4-0.1-0.5,0
			C21.4,15.9,21.4,16.2,21.5,16.3L21.5,16.3z"/>
	</g>
</g>
<path class="st10" d="M32.4,12.1h0.8c2.4,0,4.4,2,4.4,4.4v9.9c0,2.4-2,4.4-4.4,4.4H15.1c-2.4,0-4.4-2-4.4-4.4v-9.9
	c0-2.4,2-4.4,4.4-4.4H16"/>
<line class="st11" x1="17.4" y1="36.6" x2="30.9" y2="36.6"/>
<line class="st11" x1="20.8" y1="36.4" x2="20.8" y2="30.8"/>
<line class="st11" x1="27.5" y1="36.5" x2="27.5" y2="30.9"/>
<g>
	<path class="st6" d="M9.5,0H0.1h0h0v0.2v9.3c0,0.6,0.5,1.1,1.1,1.1l0,0c0.6,0,1.1-0.5,1.1-1.1V2.1h7.4c0.6,0,1.1-0.5,1.1-1.1l0,0
		C10.6,0.5,10.1,0,9.5,0z"/>
	<path class="st6" d="M38.5,48h9.5h0h0v-0.2v-9.3c0-0.6-0.5-1.1-1.1-1.1l0,0c-0.6,0-1.1,0.5-1.1,1.1v7.4h-7.4
		c-0.6,0-1.1,0.5-1.1,1.1l0,0C37.4,47.5,37.9,48,38.5,48z"/>
	<path class="st6" d="M9.5,45.9H2.1v-7.4c0-0.6-0.5-1.1-1.1-1.1h0c-0.6,0-1.1,0.5-1.1,1.1v9.4V48v0h0.2h0.1h9.2
		c0.6,0,1.1-0.5,1.1-1.1C10.5,46.4,10.1,45.9,9.5,45.9z"/>
	<path class="st6" d="M47.8,0L47.8,0h-9.3c-0.6,0-1.1,0.5-1.1,1.1c0,0.6,0.5,1.1,1.1,1.1h7.4v7.4c0,0.6,0.5,1.1,1.1,1.1h0
		c0.6,0,1.1-0.5,1.1-1.1V0v0v0H47.8z"/>
</g>
<path class="st6" d="M47.9,0.1"/>
</svg>
