<svg width="124" height="124" viewBox="0 0 124 124" fill="none" xmlns="http://www.w3.org/2000/svg">
<path d="M38.9393 29.9442L46.2695 36.9339" stroke="#CFCECE" stroke-width="3" stroke-miterlimit="10" stroke-linecap="round"/>
<path d="M25.4863 25.9675L39.9336 39.7704" stroke="#CFCECE" stroke-width="3" stroke-miterlimit="10" stroke-linecap="round"/>
<path d="M25.0887 34.4637L36.9789 45.8101" stroke="#CFCECE" stroke-width="3" stroke-miterlimit="10" stroke-linecap="round"/>
<path d="M47.9458 53.7091C51.5783 53.7091 54.523 50.8957 54.523 47.4252C54.523 43.9547 51.5783 41.1412 47.9458 41.1412C44.3133 41.1412 41.3685 43.9547 41.3685 47.4252C41.3685 50.8957 44.3133 53.7091 47.9458 53.7091Z" stroke="#CFCECE" stroke-width="3" stroke-miterlimit="10" stroke-linecap="round"/>
<path d="M73.999 25.9946L76.7265 28.6005" stroke="#CFCECE" stroke-width="3" stroke-miterlimit="10" stroke-linecap="round"/>
<path d="M59.4807 21L70.4049 31.4371" stroke="#CFCECE" stroke-width="3" stroke-miterlimit="10" stroke-linecap="round"/>
<path d="M59.3245 29.7269L67.4359 37.4767" stroke="#CFCECE" stroke-width="3" stroke-miterlimit="10" stroke-linecap="round"/>
<path d="M78.4169 45.3758C82.0494 45.3758 84.9941 42.5623 84.9941 39.0918C84.9941 35.6213 82.0494 32.8079 78.4169 32.8079C74.7843 32.8079 71.8396 35.6213 71.8396 39.0918C71.8396 42.5623 74.7843 45.3758 78.4169 45.3758Z" stroke="#CFCECE" stroke-width="3" stroke-miterlimit="10" stroke-linecap="round"/>
<path d="M21.2957 50.6417L39.1665 67.7156" stroke="#CFCECE" stroke-width="3" stroke-miterlimit="10" stroke-linecap="round"/>
<path d="M27.333 65.2863L32.8448 70.5387" stroke="#CFCECE" stroke-width="3" stroke-miterlimit="10" stroke-linecap="round"/>
<path d="M18 65.2455L29.876 76.5919" stroke="#CFCECE" stroke-width="3" stroke-miterlimit="10" stroke-linecap="round"/>
<path d="M40.8572 84.4774C44.4897 84.4774 47.4344 81.664 47.4344 78.1934C47.4344 74.7229 44.4897 71.9095 40.8572 71.9095C37.2246 71.9095 34.2799 74.7229 34.2799 78.1934C34.2799 81.664 37.2246 84.4774 40.8572 84.4774Z" stroke="#CFCECE" stroke-width="3" stroke-miterlimit="10" stroke-linecap="round"/>
<path d="M78 76.8318L82.8718 83L94 72" stroke="#CFCECE" stroke-width="3" stroke-linecap="round" stroke-linejoin="round"/>
<path d="M82.2362 55.058L83.2163 56.1937L83.2266 56.1846L82.2362 55.058ZM67.6035 61.4841L67.7176 62.9798L67.7203 62.9796L67.6035 61.4841ZM84.9536 102L84.9726 100.5L84.9536 102ZM82.1836 101.038L83.0318 99.8013L83.0242 99.7961L82.1836 101.038ZM72.3278 92.6959L71.2238 93.7114L72.3278 92.6959ZM66.1405 61.8369L66.7235 63.219L66.7235 63.219L66.1405 61.8369ZM63.6208 64.8035L65.0861 65.1241L65.0868 65.1209L63.6208 64.8035ZM64.6613 80.2896L66.0769 79.7936V79.7936L64.6613 80.2896ZM84.9939 54L85.0135 52.5001L84.9939 52.4999L84.9743 52.5001L84.9939 54ZM87.7638 55.058L86.7734 56.1846L86.7838 56.1936L87.7638 55.058ZM102.396 61.4841L102.28 62.9796L102.282 62.9798L102.396 61.4841ZM87.8164 101.038L86.9758 99.7961L86.9682 99.8013L87.8164 101.038ZM97.6722 92.6959L98.7762 93.7114L97.6722 92.6959ZM103.859 61.8369L103.276 63.219V63.219L103.859 61.8369ZM106.379 64.8035L104.913 65.1209L104.914 65.1241L106.379 64.8035ZM105.339 80.2896L103.923 79.7936V79.7936L105.339 80.2896ZM81.2563 53.9223C78.5339 56.2716 73.7403 59.5005 67.4868 59.9887L67.7203 62.9796C74.8714 62.4213 80.254 58.7498 83.2162 56.1936L81.2563 53.9223ZM81.3354 102.276C81.7692 102.573 82.2596 102.895 82.8573 103.128C83.477 103.369 84.1404 103.489 84.9346 103.499L84.9726 100.5C84.4766 100.493 84.1778 100.423 83.9463 100.333C83.6929 100.234 83.4434 100.083 83.0318 99.8013L81.3354 102.276ZM71.2238 93.7114C73.8779 96.5967 77.202 99.4792 81.3431 102.281L83.0242 99.7961C79.0573 97.1123 75.9141 94.3789 73.4318 91.6804L71.2238 93.7114ZM67.4895 59.9885C66.8143 60.04 66.1622 60.1998 65.5576 60.4548L66.7235 63.219C67.0302 63.0896 67.3656 63.0066 67.7176 62.9798L67.4895 59.9885ZM65.5576 60.4548C63.8936 61.1567 62.5637 62.5969 62.1547 64.4861L65.0868 65.1209C65.2701 64.2741 65.8744 63.5771 66.7235 63.219L65.5576 60.4548ZM62.1555 64.4829C61.381 68.0221 60.8434 73.9298 63.2457 80.7856L66.0769 79.7936C63.9047 73.5943 64.3966 68.2753 65.0861 65.1241L62.1555 64.4829ZM63.2457 80.7856C64.6831 84.8878 67.1619 89.2956 71.2238 93.7114L73.4318 91.6804C69.6393 87.5575 67.376 83.5012 66.0769 79.7936L63.2457 80.7856ZM84.9743 52.5001C83.6421 52.5175 82.3134 52.993 81.2459 53.9314L83.2266 56.1846C83.7362 55.7366 84.3691 55.5083 85.0135 55.4999L84.9743 52.5001ZM86.7838 56.1936C89.746 58.7498 95.1286 62.4213 102.28 62.9796L102.513 59.9887C96.2597 59.5005 91.4661 56.2716 88.7437 53.9223L86.7838 56.1936ZM86.9682 99.8013C86.2639 100.284 85.7591 100.51 84.9726 100.5L84.9346 103.499C86.568 103.52 87.6782 102.952 88.6646 102.276L86.9682 99.8013ZM96.5682 91.6804C94.0859 94.3789 90.9427 97.1123 86.9758 99.7961L88.6569 102.281C92.798 99.4792 96.1221 96.5967 98.7762 93.7114L96.5682 91.6804ZM102.282 62.9798C102.634 63.0066 102.97 63.0896 103.276 63.219L104.442 60.4548C103.838 60.1998 103.186 60.04 102.511 59.9885L102.282 62.9798ZM103.276 63.219C104.126 63.5771 104.73 64.2741 104.913 65.1209L107.845 64.4861C107.436 62.5969 106.106 61.1567 104.442 60.4548L103.276 63.219ZM104.914 65.1241C105.603 68.2753 106.095 73.5943 103.923 79.7936L106.754 80.7856C109.157 73.9298 108.619 68.0221 107.845 64.4829L104.914 65.1241ZM103.923 79.7936C102.624 83.5012 100.361 87.5575 96.5682 91.6804L98.7762 93.7114C102.838 89.2956 105.317 84.8878 106.754 80.7856L103.923 79.7936ZM84.9743 55.4999C85.6234 55.5083 86.2672 55.7396 86.7734 56.1846L88.7541 53.9314C87.6832 52.9901 86.3411 52.5174 85.0135 52.5001L84.9743 55.4999Z" fill="#CFCECE"/>
</svg>
