<?xml version="1.0" encoding="UTF-8"?>
<svg id="_Слой_2" data-name="Слой 2" xmlns="http://www.w3.org/2000/svg" viewBox="0 0 492.27 490.84">
  <defs>
    <style>
      .cls-1 {
        stroke-linejoin: round;
      }

      .cls-1, .cls-2 {
        fill: none;
        stroke: #fff;
        stroke-width: 17px;
      }

      .cls-3 {
        fill: #e62340;
        stroke-width: 0px;
      }
    </style>
  </defs>
  <g id="_Слой_1-2" data-name="Слой 1">
    <g>
      <path class="cls-2" d="M235.39,341.77l-77.65-77.66,24.73-24.74c45.42-45.41,98.8-82.04,157.49-108.08l17.51-7.76c11.72-5.2,23.7,6.77,18.5,18.5l-7.76,17.5c-26.02,58.7-62.67,112.09-108.09,157.5l-24.73,24.74Z"/>
      <path class="cls-1" d="M198.98,344.2l-43.69-43.68c-13.24,19.64-22.06,41.92-25.85,65.31l-.82,5.07,5.06-.82c23.38-3.8,45.66-12.62,65.31-25.87Z"/>
      <path class="cls-2" d="M157.74,264.11l-16.97-16.97c-7.45-7.45-6.03-19.96,2.97-25.44,16.87-10.26,43.05-20.26,69.8-8.55"/>
      <path class="cls-2" d="M235.39,341.77l16.74,16.75c7.64,7.64,20.39,6.03,25.96-3.23,10.16-16.88,19.86-42.83,8.27-69.33"/>
      <ellipse class="cls-2" cx="296.48" cy="203.96" rx="16.12" ry="16.15" transform="translate(-57.38 269.38) rotate(-45)"/>
      <path class="cls-3" d="M92.17,0H10.22S0,0,0,0v93.2c0,5.64,4.57,10.22,10.22,10.22h0c5.64,0,10.22-4.57,10.22-10.22V20.43s71.73,0,71.73,0c5.64,0,10.22-4.57,10.22-10.22h0C102.38,4.57,97.81,0,92.17,0Z"/>
      <path class="cls-3" d="M492.27,92.42V10.47s0-10.22,0-10.22h-93.2c-5.64,0-10.22,4.57-10.22,10.22h0c0,5.64,4.57,10.22,10.22,10.22h72.76s0,71.73,0,71.73c0,5.64,4.57,10.22,10.22,10.22h0c5.64,0,10.22-4.57,10.22-10.22Z"/>
      <path class="cls-3" d="M400.1,490.84h81.95s10.22,0,10.22,0v-93.2c0-5.64-4.57-10.22-10.22-10.22h0c-5.64,0-10.22,4.57-10.22,10.22v72.76s-71.73,0-71.73,0c-5.64,0-10.22,4.57-10.22,10.22h0c0,5.64,4.57,10.22,10.22,10.22Z"/>
      <path class="cls-3" d="M0,398.41v81.95s0,10.22,0,10.22h93.2c5.64,0,10.22-4.57,10.22-10.22h0c0-5.64-4.57-10.22-10.22-10.22H20.43s0-71.73,0-71.73c0-5.64-4.57-10.22-10.22-10.22h0C4.57,388.2,0,392.77,0,398.41Z"/>
    </g>
  </g>
</svg>