<?xml version="1.0" encoding="UTF-8"?>
<svg id="_Слой_2" data-name="Слой 2" xmlns="http://www.w3.org/2000/svg" viewBox="0 0 492.27 490.84">
  <defs>
    <style>
      .cls-1 {
        fill: none;
        stroke: #fff;
        stroke-linecap: round;
        stroke-linejoin: round;
        stroke-width: 17px;
      }

      .cls-2 {
        fill: #e5243c;
        stroke-width: 0px;
      }
    </style>
  </defs>
  <g id="_Слой_2-2" data-name=" Слой 2">
    <polyline class="cls-1" points="197.79 226.29 262.16 283.2 393.15 169.39"/>
    <path class="cls-1" d="M362.44,248.1v92.73c0,5.25-3.55,9.54-7.88,9.54h-193.07c-4.33,0-7.88-4.29-7.88-9.54v-190.82c0-5.25,3.55-9.54,7.88-9.54h193.07c4.33,0,7.88,4.29,7.88,9.54v3.5"/>
    <g>
      <path class="cls-2" d="M92.17,0H10.22S0,0,0,0v93.2c0,5.64,4.57,10.22,10.22,10.22h0c5.64,0,10.22-4.57,10.22-10.22V20.43s71.73,0,71.73,0c5.64,0,10.22-4.57,10.22-10.22h0C102.38,4.57,97.81,0,92.17,0Z"/>
      <path class="cls-2" d="M492.27,92.42V10.47s0-10.22,0-10.22h-93.2c-5.64,0-10.22,4.57-10.22,10.22h0c0,5.64,4.57,10.22,10.22,10.22h72.76s0,71.73,0,71.73c0,5.64,4.57,10.22,10.22,10.22h0c5.64,0,10.22-4.57,10.22-10.22Z"/>
      <path class="cls-2" d="M400.1,490.84h81.95s10.22,0,10.22,0v-93.2c0-5.64-4.57-10.22-10.22-10.22h0c-5.64,0-10.22,4.57-10.22,10.22v72.76s-71.73,0-71.73,0c-5.64,0-10.22,4.57-10.22,10.22h0c0,5.64,4.57,10.22,10.22,10.22Z"/>
      <path class="cls-2" d="M0,398.41v81.95s0,10.22,0,10.22h93.2c5.64,0,10.22-4.57,10.22-10.22h0c0-5.64-4.57-10.22-10.22-10.22H20.43s0-71.73,0-71.73c0-5.64-4.57-10.22-10.22-10.22h0C4.57,388.2,0,392.77,0,398.41Z"/>
    </g>
  </g>
</svg>