<svg width="64" height="64" viewBox="0 0 64 64" fill="none" xmlns="http://www.w3.org/2000/svg">
<path d="M32.0394 12.3011C31.5562 12.6667 31.0729 13.0454 30.5635 13.398C30.028 13.7636 29.4663 14.1032 28.8786 14.3904C28.7349 14.4688 28.5913 14.5341 28.4476 14.5994C28.3823 14.6255 28.304 14.6647 28.2387 14.6908C28.1995 14.7039 28.1734 14.7169 28.1342 14.743C28.1081 14.7561 27.9513 14.8214 28.0819 14.7691C27.7815 14.8867 27.481 15.0042 27.1806 15.1087C26.8671 15.2131 26.5538 15.3045 26.2403 15.3959C25.953 15.4743 25.6525 15.5527 25.4043 15.7355C24.8949 16.1011 24.5814 16.6757 24.5684 17.3025C24.5684 17.8118 24.5684 18.3211 24.5684 18.8303C24.5684 19.3527 24.5684 19.875 24.5684 20.3843C24.5684 21.4551 24.7121 22.539 24.9733 23.5836C25.2476 24.6544 25.6786 25.6861 26.2272 26.6393C26.7757 27.5926 27.4549 28.4806 28.2255 29.2641C29.0092 30.0607 29.9105 30.7397 30.8771 31.3012C31.4256 31.6146 32.0003 31.8889 32.5619 32.1631C32.7447 32.2545 32.9015 32.2414 33.0843 32.1631C33.1235 32.15 33.1628 32.1239 33.2019 32.0978C33.3456 32.0194 33.5023 31.9542 33.646 31.8758C33.9202 31.7452 34.1946 31.6016 34.4558 31.4579C35.4354 30.9225 36.3627 30.2565 37.1725 29.4861C37.9692 28.7287 38.6746 27.8538 39.2363 26.9136C39.811 25.9733 40.255 24.9548 40.5684 23.897C40.8819 22.8263 41.0518 21.6902 41.0649 20.5671C41.0779 20.0578 41.0649 19.5485 41.0649 19.0523C41.0649 18.4778 41.0649 17.9032 41.0649 17.3417C41.0649 16.8324 40.882 16.3623 40.5424 15.9966C40.3204 15.7616 40.0329 15.5918 39.7194 15.4874C39.4321 15.396 39.1318 15.3307 38.8444 15.2392C38.531 15.1478 38.2305 15.0303 37.917 14.9128C37.8387 14.8867 37.7733 14.8606 37.695 14.8214C37.6558 14.8083 37.6297 14.7953 37.5905 14.7822C37.5644 14.7691 37.4991 14.743 37.6166 14.7953C37.5905 14.7822 37.5774 14.7822 37.5513 14.7691C37.3946 14.7038 37.2509 14.6386 37.0942 14.5602C36.5064 14.286 35.9448 13.9726 35.3962 13.62C34.7823 13.2282 34.2076 12.7712 33.6329 12.3403C33.215 11.9746 32.5227 11.9485 32.0394 12.3011C31.9349 12.3794 31.8435 12.4708 31.8044 12.6014C31.7652 12.719 31.7914 12.8756 31.8567 12.9801C31.9873 13.1891 32.3137 13.3196 32.5357 13.1629C32.588 13.1238 32.6533 13.0977 32.7187 13.0585C32.7056 13.0585 32.6011 13.0977 32.6795 13.0715C32.6926 13.0715 32.7056 13.0585 32.7187 13.0585C32.7317 13.0585 32.7579 13.0454 32.7709 13.0454C32.8101 13.0323 32.8623 13.0454 32.7317 13.0454C32.7839 13.0454 32.8884 13.0193 32.9276 13.0454C32.9406 13.0454 32.81 13.0193 32.8623 13.0324C32.8753 13.0324 32.8885 13.0323 32.9016 13.0454C32.9146 13.0454 32.9407 13.0585 32.9537 13.0585C32.9668 13.0585 33.0582 13.0977 32.9799 13.0585C32.9015 13.0193 33.006 13.0715 33.019 13.0846C33.0452 13.0976 33.0844 13.1238 33.1105 13.1368C33.1236 13.1368 33.1236 13.1499 33.1366 13.1499C33.1758 13.176 33.2019 13.2021 33.2411 13.2282C33.5023 13.4241 33.7636 13.62 34.0248 13.8159C34.926 14.4949 35.8794 15.0695 36.9113 15.5265C37.5252 15.8008 38.1652 16.0489 38.8183 16.2317C38.975 16.2709 39.1317 16.3231 39.2885 16.3623C39.3538 16.3753 39.4061 16.3884 39.4714 16.4145C39.4975 16.4276 39.5367 16.4406 39.5628 16.4406C39.602 16.4537 39.6411 16.4798 39.5235 16.4145C39.5366 16.4276 39.5497 16.4276 39.5758 16.4406C39.6281 16.4667 39.6803 16.4929 39.7326 16.532C39.7718 16.5582 39.8501 16.6365 39.7326 16.532C39.7587 16.5582 39.7848 16.5712 39.8109 16.5973C39.8501 16.6365 39.8893 16.6887 39.9285 16.7279C39.9808 16.7932 39.8501 16.6235 39.9154 16.7149C39.9284 16.741 39.9546 16.7671 39.9677 16.8063C39.9807 16.8324 39.9938 16.8585 40.0068 16.8846C40.0199 16.9107 40.0591 17.0021 40.02 16.9238C39.9808 16.8454 40.0199 16.9368 40.033 16.963C40.046 17.0021 40.0591 17.0283 40.0591 17.0674C40.0722 17.0936 40.0721 17.1327 40.0721 17.1588C40.0983 17.2764 40.0591 17.0544 40.0721 17.1458C40.0721 17.185 40.0721 17.2372 40.0721 17.2764C40.0721 17.3286 40.0721 17.3678 40.0721 17.42V18.2296V20.1754C40.0721 20.4496 40.0722 20.7238 40.0591 20.985C40.0461 21.2592 40.0199 21.5204 39.9938 21.7946C39.9938 21.8207 39.9807 21.8599 39.9807 21.886C39.9807 21.8991 39.9807 21.9252 39.9677 21.9383C39.9677 21.9513 39.9807 21.8207 39.9807 21.873C39.9676 21.9383 39.9547 22.0166 39.9547 22.0819C39.9285 22.2125 39.9155 22.3561 39.8893 22.4867C39.7849 23.0091 39.6542 23.5314 39.4844 24.0407C39.3929 24.3019 39.3015 24.55 39.197 24.7981C39.1839 24.8242 39.171 24.8503 39.171 24.8764C39.184 24.8503 39.2363 24.7197 39.171 24.8764C39.1449 24.9417 39.1187 25.007 39.0925 25.0592C39.0403 25.1768 38.9881 25.2943 38.9228 25.4118C38.6877 25.8819 38.4265 26.352 38.1261 26.796C37.9824 27.018 37.8125 27.24 37.6558 27.449C37.6558 27.449 37.7211 27.3575 37.695 27.3967C37.6819 27.4098 37.6689 27.4228 37.6558 27.4359C37.6427 27.462 37.6166 27.4881 37.5905 27.5143C37.5513 27.5665 37.4991 27.6187 37.4599 27.6709C37.3815 27.7754 37.2901 27.8668 37.1986 27.9713C36.846 28.3761 36.4672 28.7548 36.0623 29.0943C35.9578 29.1857 35.8534 29.2771 35.7489 29.3555C35.6967 29.3947 35.6444 29.4339 35.5921 29.473C35.5007 29.5383 35.6574 29.4208 35.5921 29.473C35.566 29.4991 35.5399 29.5122 35.5007 29.5383C35.2917 29.695 35.0697 29.8517 34.8346 29.9954C34.1815 30.4263 33.4762 30.7658 32.784 31.1053C32.7056 31.1445 32.6272 31.1837 32.5619 31.2229H33.0713C32.575 30.9748 32.0656 30.7266 31.5693 30.4655C31.0991 30.2043 30.655 29.9301 30.224 29.6167C30.1718 29.5775 30.1325 29.5514 30.0802 29.5122C30.0672 29.4992 29.9758 29.4339 30.0411 29.4861C30.1064 29.5383 30.0149 29.46 29.9888 29.4469C29.8843 29.3686 29.7799 29.2772 29.6754 29.1988C29.4795 29.029 29.2835 28.8593 29.1007 28.6895C28.7219 28.3239 28.3693 27.9452 28.0427 27.5404C28.0036 27.4881 27.9644 27.449 27.9383 27.3967C27.8991 27.3445 28.0035 27.4881 27.9643 27.4359L27.9383 27.4098C27.9122 27.3837 27.8991 27.3575 27.873 27.3184C27.7946 27.2139 27.7162 27.1094 27.6509 27.005C27.5072 26.796 27.3636 26.574 27.2199 26.352C26.9456 25.9081 26.7105 25.451 26.5015 24.9809C26.4754 24.9287 26.4493 24.8764 26.4362 24.8242C26.397 24.7458 26.4754 24.9287 26.4362 24.8242C26.4232 24.785 26.41 24.7589 26.3969 24.7197C26.3447 24.6022 26.3056 24.4716 26.2533 24.3541C26.1619 24.119 26.0835 23.8709 26.0182 23.6228C25.8746 23.1266 25.757 22.6042 25.6656 22.095C25.6525 22.0297 25.6525 21.9774 25.6394 21.9121C25.6394 21.8991 25.6395 21.873 25.6264 21.8599C25.6133 21.8077 25.6394 21.9252 25.6394 21.9252C25.6394 21.886 25.6264 21.8469 25.6264 21.8207C25.6133 21.6902 25.6003 21.5596 25.5872 21.429C25.5611 21.1678 25.548 20.8936 25.5349 20.6324C25.5219 20.1362 25.5349 19.64 25.5349 19.1437V17.3547C25.5349 17.3155 25.5349 17.2633 25.5349 17.2241C25.5349 17.198 25.5349 17.1588 25.5349 17.1327C25.548 17.0283 25.5219 17.2372 25.5349 17.1458C25.548 17.0805 25.561 17.0283 25.5741 16.963C25.5872 16.9368 25.6003 16.9107 25.6003 16.8716C25.6264 16.8193 25.548 16.976 25.5741 16.9238C25.5741 16.9107 25.5872 16.8977 25.5872 16.8846C25.6134 16.8324 25.6524 16.7671 25.6786 16.7149C25.6916 16.7018 25.6917 16.6887 25.7047 16.6887C25.757 16.6234 25.6786 16.7279 25.6786 16.7279C25.6786 16.7279 25.7178 16.6757 25.7309 16.6626C25.77 16.6104 25.8222 16.5712 25.8745 16.532C25.9659 16.4537 25.7962 16.5843 25.8615 16.532C25.8876 16.519 25.9137 16.4929 25.9398 16.4798C25.9659 16.4667 26.0836 16.3753 26.1097 16.3884C26.1097 16.3884 26.0052 16.4276 26.0574 16.4145C26.0705 16.4145 26.0835 16.4015 26.0966 16.4015C26.1227 16.3884 26.1619 16.3753 26.188 16.3753C26.2533 16.3623 26.3186 16.3362 26.3839 16.3231C26.5276 16.2839 26.6844 16.2448 26.8281 16.1925C28.0689 15.8269 29.2575 15.2915 30.3546 14.6255C31.0338 14.2076 31.6607 13.7245 32.2877 13.2544C32.353 13.2021 32.4183 13.1629 32.4836 13.1107C32.5881 13.0323 32.6795 12.954 32.7187 12.8104C32.7578 12.6928 32.7317 12.5361 32.6664 12.4317C32.588 12.275 32.2615 12.1313 32.0394 12.3011Z" fill="white"/>
<path d="M32.0394 12.3011C31.5562 12.6667 31.0729 13.0454 30.5635 13.398C30.028 13.7636 29.4663 14.1032 28.8786 14.3904C28.7349 14.4688 28.5913 14.5341 28.4476 14.5994C28.3823 14.6255 28.304 14.6647 28.2387 14.6908C28.1995 14.7039 28.1734 14.7169 28.1342 14.743C28.1081 14.7561 27.9513 14.8214 28.0819 14.7691C27.7815 14.8867 27.481 15.0042 27.1806 15.1087C26.8671 15.2131 26.5538 15.3045 26.2403 15.3959C25.953 15.4743 25.6525 15.5527 25.4043 15.7355C24.8949 16.1011 24.5814 16.6757 24.5684 17.3025C24.5684 17.8118 24.5684 18.3211 24.5684 18.8303C24.5684 19.3527 24.5684 19.875 24.5684 20.3843C24.5684 21.4551 24.7121 22.539 24.9733 23.5836C25.2476 24.6544 25.6786 25.6861 26.2272 26.6393C26.7757 27.5926 27.4549 28.4806 28.2255 29.2641C29.0092 30.0607 29.9105 30.7397 30.8771 31.3012C31.4256 31.6146 32.0003 31.8889 32.5619 32.1631C32.7447 32.2545 32.9015 32.2414 33.0843 32.1631C33.1235 32.15 33.1628 32.1239 33.2019 32.0978C33.3456 32.0194 33.5023 31.9542 33.646 31.8758C33.9202 31.7452 34.1946 31.6016 34.4558 31.4579C35.4354 30.9225 36.3627 30.2565 37.1725 29.4861C37.9692 28.7287 38.6746 27.8538 39.2363 26.9136C39.811 25.9733 40.255 24.9548 40.5684 23.897C40.8819 22.8262 41.0518 21.6902 41.0649 20.5671C41.0779 20.0578 41.0649 19.5485 41.0649 19.0523C41.0649 18.4778 41.0649 17.9032 41.0649 17.3417C41.0649 16.8324 40.882 16.3623 40.5424 15.9966C40.3204 15.7616 40.0329 15.5918 39.7194 15.4874C39.4321 15.396 39.1318 15.3307 38.8444 15.2392C38.531 15.1478 38.2305 15.0303 37.917 14.9128C37.8387 14.8867 37.7733 14.8606 37.695 14.8214C37.6558 14.8083 37.6297 14.7953 37.5905 14.7822C37.5644 14.7691 37.4991 14.743 37.6166 14.7953C37.5905 14.7822 37.5775 14.7822 37.5513 14.7691C37.3946 14.7038 37.2509 14.6386 37.0942 14.5602C36.5064 14.286 35.9448 13.9726 35.3962 13.62C34.7823 13.2282 34.2076 12.7712 33.6329 12.3403C33.215 11.9746 32.5227 11.9485 32.0394 12.3011ZM32.0394 12.3011C31.9349 12.3794 31.8435 12.4708 31.8044 12.6014C31.7652 12.719 31.7914 12.8756 31.8567 12.9801C31.9873 13.1891 32.3137 13.3196 32.5357 13.1629C32.588 13.1238 32.6533 13.0977 32.7187 13.0585M32.0394 12.3011C32.2615 12.1313 32.588 12.275 32.6664 12.4317C32.7317 12.5361 32.7578 12.6928 32.7187 12.8104C32.6795 12.954 32.5881 13.0323 32.4836 13.1107C32.4183 13.1629 32.353 13.2021 32.2877 13.2544C31.6607 13.7245 31.0338 14.2076 30.3546 14.6255C29.2575 15.2915 28.0689 15.8269 26.8281 16.1925C26.6844 16.2448 26.5276 16.2839 26.3839 16.3231C26.3186 16.3362 26.2533 16.3623 26.188 16.3753C26.1619 16.3753 26.1227 16.3884 26.0966 16.4015C26.0835 16.4015 26.0705 16.4145 26.0574 16.4145C26.0052 16.4276 26.1097 16.3884 26.1097 16.3884C26.0836 16.3753 25.9659 16.4667 25.9398 16.4798C25.9137 16.4929 25.8876 16.519 25.8615 16.532C25.7962 16.5843 25.9659 16.4537 25.8745 16.532C25.8222 16.5712 25.77 16.6104 25.7309 16.6626C25.7178 16.6757 25.6786 16.7279 25.6786 16.7279C25.6786 16.7279 25.757 16.6234 25.7047 16.6887C25.6917 16.6887 25.6916 16.7018 25.6786 16.7149C25.6524 16.7671 25.6134 16.8324 25.5872 16.8846C25.5872 16.8977 25.5741 16.9107 25.5741 16.9238C25.548 16.976 25.6264 16.8193 25.6003 16.8716C25.6003 16.9107 25.5872 16.9368 25.5741 16.963C25.561 17.0283 25.548 17.0805 25.5349 17.1458C25.5219 17.2372 25.548 17.0283 25.5349 17.1327C25.5349 17.1588 25.5349 17.198 25.5349 17.2241C25.5349 17.2633 25.5349 17.3155 25.5349 17.3547V19.1437C25.5349 19.64 25.5219 20.1362 25.5349 20.6324C25.548 20.8936 25.5611 21.1678 25.5872 21.429C25.6003 21.5596 25.6133 21.6902 25.6264 21.8207C25.6264 21.8469 25.6394 21.886 25.6394 21.9252C25.6394 21.9252 25.6133 21.8077 25.6264 21.8599C25.6395 21.873 25.6394 21.8991 25.6394 21.9121C25.6525 21.9774 25.6525 22.0297 25.6656 22.095C25.757 22.6042 25.8746 23.1266 26.0182 23.6228C26.0835 23.8709 26.1619 24.119 26.2533 24.3541C26.3056 24.4716 26.3447 24.6022 26.3969 24.7197C26.41 24.7589 26.4232 24.785 26.4362 24.8242M32.7187 13.0585C32.7056 13.0585 32.6011 13.0977 32.6795 13.0715C32.6926 13.0715 32.7056 13.0585 32.7187 13.0585ZM32.7187 13.0585C32.7317 13.0585 32.7579 13.0454 32.7709 13.0454C32.8101 13.0323 32.8623 13.0454 32.7317 13.0454C32.7839 13.0454 32.8884 13.0193 32.9276 13.0454C32.9406 13.0454 32.81 13.0193 32.8623 13.0324C32.8753 13.0324 32.8885 13.0323 32.9016 13.0454C32.9146 13.0454 32.9407 13.0585 32.9537 13.0585C32.9668 13.0585 33.0582 13.0977 32.9799 13.0585C32.9015 13.0193 33.006 13.0715 33.019 13.0846C33.0452 13.0976 33.0844 13.1238 33.1105 13.1368C33.1236 13.1368 33.1236 13.1499 33.1366 13.1499C33.1758 13.176 33.2019 13.2021 33.2411 13.2282C33.5023 13.4241 33.7636 13.62 34.0248 13.8159C34.926 14.4949 35.8794 15.0695 36.9113 15.5265C37.5252 15.8008 38.1652 16.0489 38.8183 16.2317C38.975 16.2709 39.1317 16.3231 39.2885 16.3623C39.3538 16.3753 39.4061 16.3884 39.4714 16.4145C39.4975 16.4276 39.5367 16.4406 39.5628 16.4406C39.602 16.4537 39.6411 16.4798 39.5235 16.4145C39.5366 16.4276 39.5497 16.4276 39.5758 16.4406C39.6281 16.4667 39.6803 16.4929 39.7326 16.532M39.7326 16.532C39.7718 16.5582 39.8501 16.6365 39.7326 16.532ZM39.7326 16.532C39.7587 16.5582 39.7848 16.5712 39.8109 16.5973C39.8501 16.6365 39.8893 16.6887 39.9285 16.7279C39.9808 16.7932 39.8501 16.6235 39.9154 16.7149C39.9284 16.741 39.9546 16.7671 39.9677 16.8063C39.9807 16.8324 39.9938 16.8585 40.0068 16.8846C40.0199 16.9107 40.0591 17.0021 40.02 16.9238C39.9808 16.8454 40.0199 16.9368 40.033 16.963C40.046 17.0021 40.0591 17.0283 40.0591 17.0674C40.0722 17.0936 40.0721 17.1327 40.0721 17.1588C40.0983 17.2764 40.0591 17.0544 40.0721 17.1458C40.0721 17.185 40.0721 17.2372 40.0721 17.2764C40.0721 17.3286 40.0721 17.3678 40.0721 17.42V18.2296V20.1754C40.0721 20.4496 40.0722 20.7238 40.0591 20.985C40.0461 21.2592 40.0199 21.5204 39.9938 21.7946C39.9938 21.8207 39.9807 21.8599 39.9807 21.886C39.9807 21.8991 39.9807 21.9252 39.9677 21.9383C39.9677 21.9513 39.9807 21.8207 39.9807 21.873C39.9676 21.9383 39.9547 22.0166 39.9547 22.0819C39.9285 22.2125 39.9155 22.3561 39.8893 22.4867C39.7849 23.0091 39.6542 23.5314 39.4844 24.0407C39.3929 24.3019 39.3015 24.55 39.197 24.7981C39.1839 24.8242 39.171 24.8503 39.171 24.8764M39.171 24.8764C39.184 24.8503 39.2363 24.7197 39.171 24.8764ZM39.171 24.8764C39.1449 24.9417 39.1187 25.007 39.0925 25.0592C39.0403 25.1768 38.9881 25.2943 38.9228 25.4118C38.6877 25.8819 38.4265 26.352 38.1261 26.796C37.9824 27.018 37.8125 27.24 37.6558 27.449C37.6558 27.449 37.7211 27.3575 37.695 27.3967C37.6819 27.4098 37.6689 27.4228 37.6558 27.4359C37.6427 27.462 37.6166 27.4881 37.5905 27.5143C37.5513 27.5665 37.4991 27.6187 37.4599 27.6709C37.3815 27.7754 37.2901 27.8668 37.1986 27.9713C36.846 28.3761 36.4672 28.7548 36.0623 29.0943C35.9578 29.1857 35.8534 29.2771 35.7489 29.3555C35.6967 29.3947 35.6444 29.4339 35.5921 29.473M35.5921 29.473C35.5007 29.5383 35.6574 29.4208 35.5921 29.473ZM35.5921 29.473C35.566 29.4991 35.5399 29.5122 35.5007 29.5383C35.2917 29.695 35.0697 29.8517 34.8346 29.9954C34.1815 30.4263 33.4762 30.7658 32.784 31.1053C32.7056 31.1445 32.6272 31.1837 32.5619 31.2229H33.0713C32.575 30.9748 32.0656 30.7266 31.5693 30.4655C31.0991 30.2043 30.655 29.9301 30.224 29.6167C30.1718 29.5775 30.1325 29.5514 30.0802 29.5122C30.0672 29.4992 29.9758 29.4339 30.0411 29.4861C30.1064 29.5383 30.0149 29.46 29.9888 29.4469C29.8843 29.3686 29.7799 29.2772 29.6754 29.1988C29.4795 29.029 29.2835 28.8593 29.1007 28.6895C28.7219 28.3239 28.3693 27.9452 28.0427 27.5404C28.0036 27.4881 27.9644 27.449 27.9383 27.3967C27.8991 27.3445 28.0035 27.4881 27.9643 27.4359L27.9383 27.4098C27.9122 27.3837 27.8991 27.3575 27.873 27.3184C27.7946 27.2139 27.7162 27.1094 27.6509 27.005C27.5072 26.796 27.3636 26.574 27.2199 26.352C26.9456 25.9081 26.7105 25.451 26.5015 24.9809C26.4754 24.9287 26.4493 24.8764 26.4362 24.8242M26.4362 24.8242C26.397 24.7458 26.4754 24.9287 26.4362 24.8242Z" stroke="white" stroke-width="0.914286" stroke-linejoin="round"/>
<path d="M29.3354 22.1081L30.1323 22.9047L31.3992 24.1714C31.4907 24.2628 31.595 24.3673 31.6865 24.4587C31.8824 24.6546 32.1959 24.6546 32.3918 24.4587C32.5486 24.302 32.7053 24.1453 32.862 23.9886C33.2408 23.6099 33.6066 23.2312 33.9853 22.8655C34.4425 22.4085 34.8865 21.9514 35.3436 21.4944C35.7355 21.1026 36.1273 20.7109 36.5192 20.3191C36.7151 20.1233 36.898 19.9404 37.0939 19.7445C37.0939 19.7445 37.0938 19.7446 37.1069 19.7315C37.2898 19.5487 37.3028 19.2092 37.1069 19.0263C36.911 18.8435 36.5976 18.8305 36.4017 19.0263C36.2449 19.183 36.0881 19.3397 35.9314 19.4964C35.5526 19.8751 35.187 20.2538 34.8082 20.6195C34.351 21.0765 33.9069 21.5336 33.4497 21.9906C33.0579 22.3824 32.6661 22.7741 32.2742 23.1659C32.0783 23.3618 31.8955 23.5446 31.6996 23.7405C31.6996 23.7405 31.6995 23.7405 31.6865 23.7535H32.3918C32.1306 23.4923 31.8564 23.2312 31.5951 22.9569C31.1772 22.5391 30.7461 22.1212 30.3282 21.6903C30.2367 21.5989 30.1322 21.4944 30.0408 21.403C29.8579 21.2202 29.5183 21.2071 29.3354 21.403C29.1526 21.6119 29.1395 21.9123 29.3354 22.1081Z" fill="white"/>
<path d="M29.3354 22.1081L30.1323 22.9047L31.3992 24.1714C31.4907 24.2628 31.595 24.3673 31.6865 24.4587C31.8824 24.6546 32.1959 24.6546 32.3918 24.4587C32.5486 24.302 32.7053 24.1453 32.862 23.9886C33.2408 23.6099 33.6066 23.2312 33.9853 22.8655C34.4425 22.4085 34.8865 21.9514 35.3436 21.4944C35.7355 21.1026 36.1273 20.7109 36.5192 20.3191C36.7151 20.1233 36.898 19.9404 37.0939 19.7445C37.0939 19.7445 37.0938 19.7446 37.1069 19.7315C37.2898 19.5487 37.3028 19.2092 37.1069 19.0263C36.911 18.8435 36.5976 18.8305 36.4017 19.0263C36.2449 19.183 36.0881 19.3397 35.9314 19.4964C35.5526 19.8751 35.187 20.2538 34.8082 20.6195C34.351 21.0765 33.9069 21.5336 33.4497 21.9906C33.0579 22.3824 32.6661 22.7741 32.2742 23.1659C32.0783 23.3618 31.8955 23.5446 31.6996 23.7405C31.6996 23.7405 31.6995 23.7405 31.6865 23.7535H32.3918C32.1306 23.4923 31.8564 23.2312 31.5951 22.9569C31.1772 22.5391 30.7461 22.1212 30.3282 21.6903C30.2367 21.5989 30.1322 21.4944 30.0408 21.403C29.8579 21.2202 29.5183 21.2071 29.3354 21.403C29.1526 21.6119 29.1395 21.9123 29.3354 22.1081Z" stroke="white" stroke-width="0.914286" stroke-linejoin="round"/>
<path d="M12.6831 0H0.0789783H0.03982H0.0136719V0.248099V12.6406C0.0136719 13.4241 0.640716 14.051 1.42439 14.051C2.20807 14.051 2.83499 13.4241 2.83499 12.6406V2.82064H12.6963C13.4799 2.82064 14.1069 2.19382 14.1069 1.41031C14.0807 0.639858 13.4537 0 12.6831 0Z" fill="#FF0032"/>
<path d="M51.3183 63.987H63.9224H63.9616H63.9877V63.7389V51.3464C63.9877 50.5629 63.3607 49.936 62.577 49.936C61.7933 49.936 61.1664 50.5629 61.1664 51.3464V61.1664H51.3051C50.5214 61.1664 49.8945 61.7932 49.8945 62.5767C49.8945 63.3602 50.5476 63.987 51.3183 63.987Z" fill="#FF0032"/>
<path d="M12.6433 61.1792H2.82119V51.32C2.82119 50.5365 2.19427 49.9097 1.41059 49.9097C0.626916 49.9097 0 50.5365 0 51.32V63.83V63.9737V63.9998H0.248215H0.339542H12.6433C13.427 63.9998 14.0539 63.373 14.0539 62.5895C14.0408 61.806 13.4139 61.1792 12.6433 61.1792Z" fill="#FF0032"/>
<path d="M63.751 0H63.738H51.3559C50.5722 0 49.9453 0.626799 49.9453 1.41031C49.9453 2.19382 50.5722 2.82064 51.3559 2.82064H61.178V12.6798C61.178 13.4633 61.8049 14.0901 62.5886 14.0901C63.3723 14.0901 63.9992 13.4633 63.9992 12.6798V0.0522213V0.039166V0.0130553H63.751V0Z" fill="#FF0032"/>
<path d="M43.1406 19.0391H44.7864C48.0387 19.0391 50.677 21.6769 50.677 24.9285V39.3973" stroke="white" stroke-width="1.94286" stroke-miterlimit="10"/>
<path d="M14.7598 39.3973V24.9285C14.7598 21.6769 17.3981 19.0391 20.6504 19.0391H22.4659" stroke="white" stroke-width="1.94286" stroke-miterlimit="10"/>
<path d="M38.2822 42.9888C38.2822 44.099 37.3549 44.9088 36.0879 44.9088H29.8577C28.9565 44.9218 27.7549 44.4777 27.7549 42.9888H10.8535C10.8535 46.3716 12.643 48.3961 14.8503 48.3961H49.9721C52.1794 48.3961 53.9689 46.7373 53.9689 42.9888H38.2822Z" stroke="white" stroke-width="1.94286" stroke-miterlimit="10"/>
</svg>
