<svg width="64" height="64" viewBox="0 0 64 64" fill="none" xmlns="http://www.w3.org/2000/svg">
<path d="M11.9863 0H1.33901H0V1.3301V12.1532C0 12.8835 0.598039 13.4833 1.32606 13.4833C2.05407 13.4833 2.65211 12.8835 2.65211 12.1532V2.66013H11.9732C12.7012 2.66013 13.2993 2.06033 13.2993 1.3301C13.2993 0.599862 12.7143 0 11.9863 0Z" fill="#FF0032"/>
<path d="M64.0008 12.0488V1.36916V0.0390625H62.6748H51.8845C51.1565 0.0390625 50.5586 0.638925 50.5586 1.36916C50.5586 2.0994 51.1565 2.69926 51.8845 2.69926H61.3488V12.0488C61.3488 12.7791 61.9468 13.3789 62.6748 13.3789C63.4028 13.3789 64.0008 12.7921 64.0008 12.0488Z" fill="#FF0032"/>
<path d="M52.0134 63.9999H62.6607H63.9868V62.6698V51.8467C63.9868 51.1165 63.3887 50.5166 62.6607 50.5166C61.9327 50.5166 61.3347 51.1165 61.3347 51.8467V61.3397H52.0134C51.2854 61.3397 50.6875 61.9396 50.6875 62.6698C50.6875 63.4131 51.2854 63.9999 52.0134 63.9999Z" fill="#FF0032"/>
<path d="M0 51.9511V62.6308V63.9609H1.32606H12.1163C12.8443 63.9609 13.4424 63.361 13.4424 62.6308C13.4424 61.9006 12.8443 61.3008 12.1163 61.3008H2.65211V51.9511C2.65211 51.2209 2.05407 50.6211 1.32606 50.6211C0.598039 50.6211 0 51.2209 0 51.9511Z" fill="#FF0032"/>
<path d="M49.4526 29.7046C49.6996 30.9434 49.8426 32.2213 49.8426 33.5253C49.8426 43.9964 41.3794 52.4984 30.9272 52.4984C20.4749 52.4984 12.0117 44.0094 12.0117 33.5253C12.0117 23.0543 20.4749 14.5522 30.9272 14.5522C34.2812 14.5522 37.4273 15.4259 40.1574 16.9646" stroke="white" stroke-width="1.93969" stroke-linecap="round" stroke-linejoin="round"/>
<path d="M49.8941 24.3323L52.2342 28.1139C52.5202 28.5964 52.2213 29.2223 51.6623 29.2745L46.9041 29.7309C46.3061 29.783 45.877 29.1441 46.163 28.6094L48.5941 24.3714C48.8541 23.8368 49.5821 23.8238 49.8941 24.3323Z" stroke="white" stroke-width="1.75131" stroke-miterlimit="10"/>
<path d="M26.8848 42.5886V23.6807H32.748C33.775 23.6807 34.5679 23.7459 35.1139 23.8632C35.8809 24.0197 36.5181 24.3326 37.0381 24.776C37.5581 25.2194 37.974 25.8453 38.2861 26.6537C38.5981 27.4622 38.754 28.3489 38.754 29.3139C38.754 30.9699 38.3381 32.3783 37.4931 33.5258C36.6481 34.6733 35.14 35.7686 32.943 35.7686L29.7059 35.7947L29.6669 42.6016C29.6669 43.0319 29.3158 43.384 28.8738 43.384H27.6779C27.2358 43.384 26.8848 43.0319 26.8848 42.5886ZM29.5759 32.939H31.8509C33.1769 32.939 34.1259 32.626 34.6849 32.0132C35.244 31.3872 35.517 30.5266 35.517 29.3921C35.517 28.5706 35.348 27.8795 35.023 27.2927C34.698 26.7189 34.256 26.3278 33.723 26.1452C33.372 26.0278 32.7349 25.9757 31.7989 25.9757H29.6409L29.5759 32.939Z" fill="white"/>
<path d="M27.6387 35.7947H26.1178C25.6238 35.7947 25.2207 35.3905 25.2207 34.895V33.8387C25.2207 33.3432 25.6238 32.939 26.1178 32.939H27.6387C28.1327 32.939 28.5358 33.3432 28.5358 33.8387V34.895C28.5358 35.3905 28.1327 35.7947 27.6387 35.7947Z" fill="white"/>
<path d="M36.0239 40.5701H26.1697C25.6497 40.5701 25.2207 40.1398 25.2207 39.6182V38.6662C25.2207 38.1446 25.6497 37.7144 26.1697 37.7144H36.0239C36.5439 37.7144 36.973 38.1446 36.973 38.6662V39.6182C36.973 40.1528 36.5569 40.5701 36.0239 40.5701Z" fill="white"/>
</svg>
