<svg width="1333" height="522" viewBox="0 0 1333 522" fill="none" xmlns="http://www.w3.org/2000/svg">
<mask id="path-1-inside-1_3256_765" fill="white">
<path d="M0 175C0 152.909 17.9086 135 40 135H428C450.091 135 468 152.909 468 175V454C468 476.091 450.091 494 428 494H40C17.9086 494 0 476.091 0 454V175Z"/>
</mask>
<path d="M0 175C0 152.909 17.9086 135 40 135H428C450.091 135 468 152.909 468 175V454C468 476.091 450.091 494 428 494H40C17.9086 494 0 476.091 0 454V175Z" fill="white" fill-opacity="0.1"/>
<path d="M40 137H428V133H40V137ZM466 175V454H470V175H466ZM428 492H40V496H428V492ZM2 454V175H-2V454H2ZM40 492C19.0132 492 2 474.987 2 454H-2C-2 477.196 16.804 496 40 496V492ZM466 454C466 474.987 448.987 492 428 492V496C451.196 496 470 477.196 470 454H466ZM428 137C448.987 137 466 154.013 466 175H470C470 151.804 451.196 133 428 133V137ZM40 133C16.804 133 -2 151.804 -2 175H2C2 154.013 19.0132 137 40 137V133Z" fill="#8D8B8B" mask="url(#path-1-inside-1_3256_765)"/>
<g clip-path="url(#clip0_3256_765)">
<path d="M110.463 341.754C110.672 342.766 111.02 343.59 111.498 344.235C111.981 344.876 112.612 345.386 113.391 345.748C114.17 346.114 115.122 346.376 116.249 346.529C117.376 346.681 118.703 346.76 120.234 346.76C123.388 346.76 125.681 346.393 127.121 345.661C128.561 344.928 129.279 343.738 129.279 342.094C129.279 340.996 128.927 340.159 128.222 339.579C127.517 338.999 126.586 338.559 125.433 338.253C124.276 337.948 122.958 337.739 121.474 337.612C119.986 337.49 118.481 337.36 116.95 337.224C115.418 337.089 113.909 336.876 112.421 336.588C110.937 336.3 109.619 335.838 108.462 335.201C107.304 334.565 106.373 333.706 105.673 332.629C104.964 331.552 104.616 330.135 104.616 328.374C104.616 325.069 105.93 322.671 108.553 321.184C111.176 319.697 114.887 318.956 119.69 318.956C124.493 318.956 128.126 319.667 130.675 321.092C133.229 322.518 134.665 324.886 134.995 328.19H128.561C128.444 327.301 128.148 326.569 127.682 325.984C127.217 325.4 126.608 324.934 125.864 324.58C125.111 324.227 124.219 323.983 123.184 323.844C122.148 323.708 120.987 323.639 119.695 323.639C116.693 323.639 114.461 323.966 112.991 324.624C111.52 325.278 110.785 326.473 110.785 328.212C110.785 329.25 111.137 330.043 111.842 330.593C112.551 331.142 113.478 331.561 114.631 331.848C115.788 332.136 117.106 332.346 118.594 332.463C120.082 332.585 121.596 332.716 123.14 332.851C124.685 332.986 126.203 333.209 127.682 333.514C129.17 333.819 130.488 334.281 131.646 334.9C132.798 335.524 133.729 336.379 134.434 337.473C135.139 338.567 135.491 339.976 135.491 341.702C135.491 345.133 134.26 347.61 131.798 349.14C129.335 350.675 125.481 351.438 120.23 351.438C117.559 351.438 115.257 351.255 113.321 350.893C111.385 350.531 109.763 349.96 108.462 349.188C107.157 348.416 106.143 347.414 105.425 346.184C104.703 344.955 104.237 343.477 104.029 341.75H110.463V341.754Z" fill="#D9D9D9"/>
<path d="M167.334 319.505V324.467H146.873V332.476H162.622V337.255H146.873V345.944H167.512V350.906H140.53V319.51H167.329L167.334 319.505Z" fill="#D9D9D9"/>
<path d="M170.836 335.249C170.836 332.276 171.219 329.751 171.993 327.676C172.763 325.6 173.89 323.913 175.374 322.627C176.857 321.336 178.671 320.403 180.821 319.828C182.97 319.252 185.436 318.965 188.221 318.965C193.211 318.965 197.1 319.789 199.889 321.445C202.673 323.098 204.292 325.853 204.748 329.703H198.344C197.918 327.458 196.878 325.936 195.212 325.13C193.546 324.327 191.214 323.926 188.221 323.926C186.559 323.926 185.041 324.079 183.679 324.384C182.322 324.689 181.16 325.208 180.207 325.954C179.254 326.695 178.519 327.689 178.006 328.931C177.492 330.178 177.236 331.726 177.236 333.571V336.758C177.236 338.576 177.492 340.111 178.006 341.353C178.519 342.596 179.254 343.599 180.207 344.357C181.16 345.116 182.313 345.661 183.661 345.997C185.01 346.328 186.528 346.498 188.225 346.498C189.678 346.498 190.97 346.424 192.106 346.271C193.241 346.119 194.229 345.84 195.082 345.43C195.926 345.02 196.626 344.466 197.17 343.769C197.714 343.071 198.118 342.177 198.392 341.083H204.796C204.222 344.784 202.547 347.44 199.78 349.044C197.009 350.653 193.154 351.455 188.225 351.455C185.436 351.455 182.974 351.172 180.825 350.614C178.676 350.051 176.862 349.136 175.378 347.863C173.895 346.59 172.768 344.92 171.998 342.857C171.223 340.795 170.841 338.262 170.841 335.258L170.836 335.249Z" fill="#D9D9D9"/>
<path d="M209.363 319.505H215.719V337.979C215.719 339.618 215.924 340.991 216.333 342.099C216.742 343.206 217.355 344.087 218.169 344.737C218.987 345.391 220 345.853 221.214 346.123C222.424 346.398 223.816 346.533 225.391 346.533C226.965 346.533 228.358 346.398 229.567 346.123C230.776 345.848 231.79 345.386 232.608 344.737C233.426 344.087 234.039 343.206 234.448 342.099C234.857 340.991 235.062 339.618 235.062 337.979V319.505H241.057V338.162C241.057 342.744 239.76 346.101 237.172 348.238C234.588 350.378 230.655 351.447 225.391 351.447C220.126 351.447 216.02 350.378 213.357 348.238C210.695 346.101 209.363 342.74 209.363 338.162V319.505Z" fill="#D9D9D9"/>
<path d="M266.525 319.505C270.035 319.505 272.707 320.347 274.538 322.03C276.37 323.713 277.283 326.119 277.283 329.241C277.283 331.726 276.731 333.754 275.626 335.315C274.521 336.88 272.889 337.961 270.74 338.572L278.415 350.902H271.332L264.023 339.117H253.216V350.902H246.856V319.505H266.516H266.525ZM270.884 328.744C270.884 327.379 270.492 326.294 269.705 325.487C268.917 324.685 267.573 324.284 265.663 324.284H253.225V334.294H265.663C267.538 334.294 268.878 333.893 269.679 333.091C270.479 332.289 270.879 331.216 270.879 329.882V328.744H270.884Z" fill="#D9D9D9"/>
<path d="M289.817 319.505V350.902H283.457V319.505H289.817Z" fill="#D9D9D9"/>
<path d="M294.036 324.694V319.505H325.999V324.694H313.196V350.902H306.836V324.694H294.032H294.036Z" fill="#D9D9D9"/>
<path d="M327.776 319.505H335.037L346.209 333.34L356.698 319.505H363.146L349.115 337.843V350.902H342.755V337.843L327.776 319.505Z" fill="#D9D9D9"/>
<path d="M123.629 277.767C130.603 277.767 134.357 281.264 134.357 287.477C134.357 292.425 132.095 295.595 127.84 296.776L135.493 309.072H128.432L121.145 297.321H110.373V309.072H104.034V277.767H123.633H123.629ZM127.975 286.975C127.975 284.298 126.526 282.528 122.772 282.528H110.369V292.508H122.772C126.483 292.508 127.975 290.738 127.975 288.109V286.975Z" fill="#EE3C3C"/>
<path d="M167.333 277.767V282.715H146.873V290.699H162.626V295.464H146.873V304.127H167.516V309.076H140.534V277.771H167.333V277.767Z" fill="#EE3C3C"/>
<path d="M190.029 277.767C200.44 277.767 205.965 282.031 205.965 293.419C205.965 304.808 200.44 309.072 190.029 309.072H172.553V277.767H190.029ZM199.54 294.688V291.919C199.54 285.475 196.055 282.933 189.668 282.933H178.896V303.892H189.668C196.051 303.892 199.54 301.307 199.54 294.684V294.688Z" fill="#EE3C3C"/>
</g>
<rect x="864" y="135" width="468" height="169.5" rx="40" fill="white" fill-opacity="0.1"/>
<rect x="864" y="135" width="468" height="169.5" rx="40" stroke="#8D8B8B" stroke-width="2"/>
<path d="M904 196.383L931.013 188.5L958 196.383V212.551C958 229.543 947.125 244.629 931.004 250.001C914.878 244.629 904 229.54 904 212.543V196.383Z" stroke="white" stroke-width="4" stroke-linejoin="round"/>
<path d="M919 217L928 226L946 208" stroke="white" stroke-width="4" stroke-linecap="round" stroke-linejoin="round"/>
<path d="M1004.98 196.496L993.412 211H989.184V191.68H993.104V206.184L1004.67 191.68H1008.87V211H1004.98V196.496ZM1013.25 191.68H1030.49V194.704H1017.11V199.352H1025.45C1029.82 199.352 1031.81 201.452 1031.81 205.092C1031.81 208.788 1029.82 211 1025.45 211H1013.25V191.68ZM1027.83 205.54V204.756C1027.83 203.216 1026.91 202.152 1024.61 202.152H1017.11V208.116H1024.61C1026.88 208.116 1027.83 207.108 1027.83 205.54ZM1034.34 202.096H1044.2V205.372H1034.34V202.096ZM1046.8 203.972C1046.8 198.68 1049.43 196.58 1055.03 196.58C1059.65 196.58 1062.4 197.952 1062.84 201.284H1059.12C1058.67 199.8 1057.55 199.156 1055.03 199.156C1051.95 199.156 1050.55 200.22 1050.55 202.992V204.896C1050.55 207.808 1052.12 208.76 1055.03 208.76C1057.66 208.76 1058.73 208.004 1059.18 206.66H1062.9C1062.4 209.768 1059.85 211.336 1055.03 211.336C1049.6 211.336 1046.8 209.544 1046.8 203.972ZM1064.2 211V207.892H1064.59C1066.44 207.892 1067.03 207.052 1067.03 203.048V196.944H1080.67V211H1076.94V199.688H1070.45V203.132C1070.45 209.32 1069.16 211 1064.99 211H1064.2ZM1082.73 196.944H1086.63L1091.83 207.472L1096.87 196.944H1100.29L1092.67 212.596C1091.25 215.592 1089.99 216.6 1087.02 216.6H1084.78V213.884H1086.63C1088.31 213.884 1088.95 213.548 1089.68 211.952L1090.01 211.252L1082.73 196.944ZM1121.79 196.944H1125.79L1120.11 203.636L1126.38 211H1122.04L1117.14 205.26H1115.23V211H1111.51V205.26H1109.58L1104.71 211H1100.42L1106.58 203.748L1100.81 196.944H1104.96L1109.69 202.544H1111.51V196.944H1115.23V202.544H1117.05L1121.79 196.944ZM1127.72 203.104C1127.72 193.332 1130.15 190.812 1137.69 190.616C1141.24 190.56 1142.92 190.476 1143.85 190.308V193.332C1142.98 193.472 1141.33 193.584 1137.83 193.64C1132.67 193.724 1131.3 194.928 1130.99 200.108C1132.14 198.148 1134.27 197.084 1137.55 197.084C1142.36 197.084 1144.94 199.072 1144.94 204.112C1144.94 209.208 1142.05 211.336 1136.31 211.336C1130.66 211.336 1127.72 209.236 1127.72 203.104ZM1141.19 204.756V203.552C1141.19 200.696 1139.62 199.66 1136.31 199.66C1133.07 199.66 1131.44 200.668 1131.44 203.552V204.756C1131.44 207.696 1133.07 208.76 1136.31 208.76C1139.62 208.76 1141.19 207.696 1141.19 204.756ZM1147.21 207.136C1147.21 204.476 1148.86 202.992 1153.31 202.796L1159.39 202.572V202.124C1159.39 199.884 1158.1 199.044 1155.44 199.044C1153.09 199.044 1151.8 199.604 1151.43 201.116H1147.71C1148.16 198.12 1150.62 196.58 1155.41 196.58C1160.56 196.58 1163.08 198.288 1163.08 202.124V211H1159.53V208.592C1158.46 210.328 1156.25 211.336 1153.03 211.336C1148.91 211.336 1147.21 209.74 1147.21 207.136ZM1154.15 208.9C1157.09 208.9 1159.39 207.864 1159.39 205.176V204.616L1154.12 204.812C1151.94 204.924 1150.96 205.4 1150.96 206.744V206.996C1150.96 208.284 1151.91 208.9 1154.15 208.9ZM987.812 241.772H991.564C991.76 243.34 993.3 243.956 995.904 243.956C998.732 243.956 999.936 243.424 999.936 242.024V241.632C999.936 240.428 998.928 239.84 996.744 239.84H993.58V237.572H996.632C998.76 237.572 999.6 237.068 999.6 235.948V235.584C999.6 234.436 998.564 233.988 995.932 233.988C993.272 233.988 991.984 234.576 991.732 235.948H987.98C988.288 232.784 991.396 231.58 995.904 231.58C1000.66 231.58 1003.32 232.756 1003.32 235.472C1003.32 236.872 1002.65 238.02 1000.41 238.524C1002.6 239 1003.69 240.232 1003.69 241.94C1003.69 244.964 1001.17 246.336 995.904 246.336C990.976 246.336 988.12 245.048 987.812 241.772ZM1005.95 242.136C1005.95 239.476 1007.6 237.992 1012.05 237.796L1018.13 237.572V237.124C1018.13 234.884 1016.84 234.044 1014.18 234.044C1011.83 234.044 1010.54 234.604 1010.18 236.116H1006.45C1006.9 233.12 1009.36 231.58 1014.15 231.58C1019.3 231.58 1021.82 233.288 1021.82 237.124V246H1018.27V243.592C1017.2 245.328 1014.99 246.336 1011.77 246.336C1007.66 246.336 1005.95 244.74 1005.95 242.136ZM1012.89 243.9C1015.83 243.9 1018.13 242.864 1018.13 240.176V239.616L1012.86 239.812C1010.68 239.924 1009.7 240.4 1009.7 241.744V241.996C1009.7 243.284 1010.65 243.9 1012.89 243.9ZM1036.8 231.944H1041L1034.53 238.636L1041.73 246H1037.08L1031.48 240.26H1029.24V246H1025.52V231.944H1029.24V237.516H1031.4L1036.8 231.944ZM1042.29 242.136C1042.29 239.476 1043.94 237.992 1048.39 237.796L1054.47 237.572V237.124C1054.47 234.884 1053.18 234.044 1050.52 234.044C1048.17 234.044 1046.88 234.604 1046.52 236.116H1042.79C1043.24 233.12 1045.7 231.58 1050.49 231.58C1055.64 231.58 1058.16 233.288 1058.16 237.124V246H1054.61V243.592C1053.54 245.328 1051.33 246.336 1048.11 246.336C1044 246.336 1042.29 244.74 1042.29 242.136ZM1049.23 243.9C1052.17 243.9 1054.47 242.864 1054.47 240.176V239.616L1049.2 239.812C1047.02 239.924 1046.04 240.4 1046.04 241.744V241.996C1046.04 243.284 1046.99 243.9 1049.23 243.9ZM1060.74 241.772H1064.49C1064.69 243.34 1066.23 243.956 1068.83 243.956C1071.66 243.956 1072.86 243.424 1072.86 242.024V241.632C1072.86 240.428 1071.85 239.84 1069.67 239.84H1066.51V237.572H1069.56C1071.69 237.572 1072.53 237.068 1072.53 235.948V235.584C1072.53 234.436 1071.49 233.988 1068.86 233.988C1066.2 233.988 1064.91 234.576 1064.66 235.948H1060.91C1061.21 232.784 1064.32 231.58 1068.83 231.58C1073.59 231.58 1076.25 232.756 1076.25 235.472C1076.25 236.872 1075.58 238.02 1073.34 238.524C1075.52 239 1076.61 240.232 1076.61 241.94C1076.61 244.964 1074.09 246.336 1068.83 246.336C1063.9 246.336 1061.05 245.048 1060.74 241.772ZM1090.19 240.596C1088.99 240.792 1087.39 240.876 1085.91 240.876C1080.73 240.876 1078.71 239.28 1078.71 235.164V231.944H1082.43V234.996C1082.43 237.488 1083.61 238.132 1086.69 238.132C1088.01 238.132 1089.21 238.048 1090.19 237.88V231.944H1093.91V246H1090.19V240.596ZM1097.79 231.944H1101.48V242.136L1109.55 231.944H1113.64V246H1109.94V235.808L1101.9 246H1097.79V231.944ZM1128.79 231.944H1132.99L1126.52 238.636L1133.71 246H1129.07L1123.47 240.26H1121.23V246H1117.5V231.944H1121.23V237.516H1123.38L1128.79 231.944ZM1134.27 242.136C1134.27 239.476 1135.93 237.992 1140.38 237.796L1146.45 237.572V237.124C1146.45 234.884 1145.17 234.044 1142.51 234.044C1140.15 234.044 1138.87 234.604 1138.5 236.116H1134.78C1135.23 233.12 1137.69 231.58 1142.48 231.58C1147.63 231.58 1150.15 233.288 1150.15 237.124V246H1146.59V243.592C1145.53 245.328 1143.32 246.336 1140.1 246.336C1135.98 246.336 1134.27 244.74 1134.27 242.136ZM1141.22 243.9C1144.16 243.9 1146.45 242.864 1146.45 240.176V239.616L1141.19 239.812C1139.01 239.924 1138.03 240.4 1138.03 241.744V241.996C1138.03 243.284 1138.98 243.9 1141.22 243.9Z" fill="white"/>
<rect x="864" y="325" width="468" height="169.5" rx="40" fill="white" fill-opacity="0.1"/>
<rect x="864" y="325" width="468" height="169.5" rx="40" stroke="#8D8B8B" stroke-width="2"/>
<path d="M943.728 410.728C946.985 407.471 949 402.971 949 398C949 388.059 940.941 380 931 380C921.059 380 913 388.059 913 398C913 402.971 915.015 407.471 918.272 410.728" stroke="white" stroke-width="4" stroke-linecap="round"/>
<path d="M904 440L905.5 432.5L922 420.5L931 429.5L940 420.5L956.5 432.5L958 440" stroke="white" stroke-width="4" stroke-linecap="round" stroke-linejoin="round"/>
<path d="M914.5 405.51C914.519 399.344 915.522 394.84 917.51 391.999C920.491 387.737 922.59 388.051 924.118 388.714C925.646 389.378 926.544 393.716 929.095 394.966C931.647 396.216 938.176 396.37 940.413 397.874C942.649 399.378 947.764 402.176 946.489 406.952" stroke="white" stroke-width="4"/>
<path d="M988.288 391.368C988.288 384.032 992.18 381.344 999.012 381.344C1005.17 381.344 1008.64 383.192 1009.2 387.952H1005.26C1004.75 385.18 1002.71 384.396 999.012 384.396C994.896 384.396 992.236 385.768 992.236 390.332V392.292C992.236 396.772 994.84 398.284 999.012 398.284C1002.57 398.284 1004.64 397.612 1005.28 394.952H1009.23C1008.53 399.516 1005.12 401.336 999.012 401.336C992.18 401.336 988.288 398.732 988.288 391.368ZM1024.78 394.784V393.076C1024.78 390.192 1023.12 389.156 1019.93 389.156C1016.71 389.156 1015.06 390.192 1015.06 393.076V394.812C1015.06 397.696 1016.71 398.76 1019.93 398.76C1023.12 398.76 1024.78 397.696 1024.78 394.784ZM1011.31 393.972C1011.31 388.456 1014.33 386.58 1019.93 386.58C1025.53 386.58 1028.53 388.456 1028.53 393.972C1028.53 399.544 1025.53 401.336 1019.93 401.336C1014.33 401.336 1011.31 399.544 1011.31 393.972ZM1035.41 389.688H1029.58V386.944H1044.93V389.688H1039.13V401H1035.41V389.688ZM1047.34 386.944H1050.95V389.324C1052.1 387.42 1054.17 386.58 1057.11 386.58C1061.81 386.58 1064.53 388.68 1064.53 393.972C1064.53 399.236 1061.84 401.336 1057.11 401.336C1054.25 401.336 1052.24 400.58 1051.06 398.844V406.6H1047.34V386.944ZM1060.78 394.84V393.048C1060.78 390.164 1059.07 389.156 1055.91 389.156C1052.77 389.156 1051.15 390.136 1051.06 392.852V394.84C1051.06 397.668 1052.74 398.76 1055.91 398.76C1059.07 398.76 1060.78 397.78 1060.78 394.84ZM1065.34 386.944H1069.24L1074.44 397.472L1079.48 386.944H1082.9L1075.28 402.596C1073.86 405.592 1072.6 406.6 1069.63 406.6H1067.39V403.884H1069.24C1070.92 403.884 1071.56 403.548 1072.29 401.952L1072.62 401.252L1065.34 386.944ZM1082.49 404.92V398.284H1084.2C1085.07 396.856 1085.49 394.672 1085.49 391.592V386.944H1099.71V398.256H1102.01V404.92H1098.56V401H1085.93V404.92H1082.49ZM1095.99 389.688H1088.87V391.592C1088.87 394.672 1088.45 396.884 1087.75 398.256H1095.99V389.688ZM1104.49 386.944H1108.21V392.488H1116.33V386.944H1120.05V401H1116.33V395.232H1108.21V401H1104.49V386.944ZM1123.93 386.944H1127.62V397.136L1135.69 386.944H1139.78V401H1136.08V390.808L1128.04 401H1123.93V386.944ZM1154.93 386.944H1159.13L1152.66 393.636L1159.85 401H1155.21L1149.61 395.26H1147.37V401H1143.64V386.944H1147.37V392.516H1149.52L1154.93 386.944ZM1161.58 386.944H1165.28V397.136L1173.34 386.944H1177.43V401H1173.73V390.808L1165.7 401H1161.58V386.944ZM987.812 431.772H991.564C991.76 433.34 993.3 433.956 995.904 433.956C998.732 433.956 999.936 433.424 999.936 432.024V431.632C999.936 430.428 998.928 429.84 996.744 429.84H993.58V427.572H996.632C998.76 427.572 999.6 427.068 999.6 425.948V425.584C999.6 424.436 998.564 423.988 995.932 423.988C993.272 423.988 991.984 424.576 991.732 425.948H987.98C988.288 422.784 991.396 421.58 995.904 421.58C1000.66 421.58 1003.32 422.756 1003.32 425.472C1003.32 426.872 1002.65 428.02 1000.41 428.524C1002.6 429 1003.69 430.232 1003.69 431.94C1003.69 434.964 1001.17 436.336 995.904 436.336C990.976 436.336 988.12 435.048 987.812 431.772ZM1005.95 432.136C1005.95 429.476 1007.6 427.992 1012.05 427.796L1018.13 427.572V427.124C1018.13 424.884 1016.84 424.044 1014.18 424.044C1011.83 424.044 1010.54 424.604 1010.18 426.116H1006.45C1006.9 423.12 1009.36 421.58 1014.15 421.58C1019.3 421.58 1021.82 423.288 1021.82 427.124V436H1018.27V433.592C1017.2 435.328 1014.99 436.336 1011.77 436.336C1007.66 436.336 1005.95 434.74 1005.95 432.136ZM1012.89 433.9C1015.83 433.9 1018.13 432.864 1018.13 430.176V429.616L1012.86 429.812C1010.68 429.924 1009.7 430.4 1009.7 431.744V431.996C1009.7 433.284 1010.65 433.9 1012.89 433.9ZM1036.8 421.944H1041L1034.53 428.636L1041.73 436H1037.08L1031.48 430.26H1029.24V436H1025.52V421.944H1029.24V427.516H1031.4L1036.8 421.944ZM1042.29 432.136C1042.29 429.476 1043.94 427.992 1048.39 427.796L1054.47 427.572V427.124C1054.47 424.884 1053.18 424.044 1050.52 424.044C1048.17 424.044 1046.88 424.604 1046.52 426.116H1042.79C1043.24 423.12 1045.7 421.58 1050.49 421.58C1055.64 421.58 1058.16 423.288 1058.16 427.124V436H1054.61V433.592C1053.54 435.328 1051.33 436.336 1048.11 436.336C1044 436.336 1042.29 434.74 1042.29 432.136ZM1049.23 433.9C1052.17 433.9 1054.47 432.864 1054.47 430.176V429.616L1049.2 429.812C1047.02 429.924 1046.04 430.4 1046.04 431.744V431.996C1046.04 433.284 1046.99 433.9 1049.23 433.9ZM1060.74 431.772H1064.49C1064.69 433.34 1066.23 433.956 1068.83 433.956C1071.66 433.956 1072.86 433.424 1072.86 432.024V431.632C1072.86 430.428 1071.85 429.84 1069.67 429.84H1066.51V427.572H1069.56C1071.69 427.572 1072.53 427.068 1072.53 425.948V425.584C1072.53 424.436 1071.49 423.988 1068.86 423.988C1066.2 423.988 1064.91 424.576 1064.66 425.948H1060.91C1061.21 422.784 1064.32 421.58 1068.83 421.58C1073.59 421.58 1076.25 422.756 1076.25 425.472C1076.25 426.872 1075.58 428.02 1073.34 428.524C1075.52 429 1076.61 430.232 1076.61 431.94C1076.61 434.964 1074.09 436.336 1068.83 436.336C1063.9 436.336 1061.05 435.048 1060.74 431.772ZM1090.19 430.596C1088.99 430.792 1087.39 430.876 1085.91 430.876C1080.73 430.876 1078.71 429.28 1078.71 425.164V421.944H1082.43V424.996C1082.43 427.488 1083.61 428.132 1086.69 428.132C1088.01 428.132 1089.21 428.048 1090.19 427.88V421.944H1093.91V436H1090.19V430.596ZM1097.79 421.944H1101.48V432.136L1109.55 421.944H1113.64V436H1109.94V425.808L1101.9 436H1097.79V421.944ZM1128.79 421.944H1132.99L1126.52 428.636L1133.71 436H1129.07L1123.47 430.26H1121.23V436H1117.5V421.944H1121.23V427.516H1123.38L1128.79 421.944ZM1134.27 432.136C1134.27 429.476 1135.93 427.992 1140.38 427.796L1146.45 427.572V427.124C1146.45 424.884 1145.17 424.044 1142.51 424.044C1140.15 424.044 1138.87 424.604 1138.5 426.116H1134.78C1135.23 423.12 1137.69 421.58 1142.48 421.58C1147.63 421.58 1150.15 423.288 1150.15 427.124V436H1146.59V433.592C1145.53 435.328 1143.32 436.336 1140.1 436.336C1135.98 436.336 1134.27 434.74 1134.27 432.136ZM1141.22 433.9C1144.16 433.9 1146.45 432.864 1146.45 430.176V429.616L1141.19 429.812C1139.01 429.924 1138.03 430.4 1138.03 431.744V431.996C1138.03 433.284 1138.98 433.9 1141.22 433.9Z" fill="white"/>
<path fill-rule="evenodd" clip-rule="evenodd" d="M546 413H468V415H546V413ZM785 415H861.586L856.929 419.657C856.538 420.048 856.538 420.681 856.929 421.071C857.319 421.462 857.953 421.462 858.343 421.071L864.707 414.707C865.098 414.317 865.098 413.684 864.707 413.293L858.343 406.929C857.953 406.539 857.319 406.539 856.929 406.929C856.538 407.32 856.538 407.953 856.929 408.343L861.586 413H785V415Z" fill="white"/>
<path d="M522.858 362.48H517.218V360.2H531.298V362.48H525.658V374H522.858V362.48ZM531.423 363.96H534.003V365.66C534.823 364.3 536.303 363.7 538.403 363.7C541.763 363.7 543.703 365.2 543.703 368.98C543.703 372.74 541.783 374.24 538.403 374.24C536.363 374.24 534.923 373.7 534.083 372.46V378H531.423V363.96ZM541.023 369.6V368.32C541.023 366.26 539.803 365.54 537.543 365.54C535.303 365.54 534.143 366.24 534.083 368.18V369.6C534.083 371.62 535.283 372.4 537.543 372.4C539.803 372.4 541.023 371.7 541.023 369.6ZM545.296 368.98C545.296 365.24 547.376 363.7 551.116 363.7C554.836 363.7 556.956 365.1 556.956 368.66V369.22H547.916V369.62C547.916 371.62 549.016 372.48 551.116 372.48C552.916 372.48 553.916 372 554.256 370.92H556.876C556.316 373.22 554.336 374.24 551.116 374.24C547.376 374.24 545.296 372.78 545.296 368.98ZM551.116 365.44C549.236 365.44 548.016 366.1 547.916 367.8H554.336C554.256 366.1 553.216 365.44 551.116 365.44ZM559.099 363.96H561.759V367.92H567.559V363.96H570.219V374H567.559V369.88H561.759V374H559.099V363.96ZM572.985 363.96H575.625V371.24L581.385 363.96H584.305V374H581.665V366.72L575.925 374H572.985V363.96ZM587.068 363.96H589.648V365.66C590.468 364.3 591.948 363.7 594.048 363.7C597.408 363.7 599.348 365.2 599.348 368.98C599.348 372.74 597.428 374.24 594.048 374.24C592.008 374.24 590.568 373.7 589.728 372.46V378H587.068V363.96ZM596.668 369.6V368.32C596.668 366.26 595.448 365.54 593.188 365.54C590.948 365.54 589.788 366.24 589.728 368.18V369.6C589.728 371.62 590.928 372.4 593.188 372.4C595.448 372.4 596.668 371.7 596.668 369.6ZM610.561 369.56V368.34C610.561 366.28 609.381 365.54 607.101 365.54C604.801 365.54 603.621 366.28 603.621 368.34V369.58C603.621 371.64 604.801 372.4 607.101 372.4C609.381 372.4 610.561 371.64 610.561 369.56ZM600.941 368.98C600.941 365.04 603.101 363.7 607.101 363.7C611.101 363.7 613.241 365.04 613.241 368.98C613.241 372.96 611.101 374.24 607.101 374.24C603.101 374.24 600.941 372.96 600.941 368.98ZM615.427 363.96H622.467C625.087 363.96 626.087 364.92 626.087 366.42C626.087 367.46 625.587 368.36 624.107 368.7C625.887 369.02 626.487 370.02 626.487 371.16C626.487 373.08 625.387 374 622.887 374H615.427V363.96ZM623.787 371.12V370.74C623.787 369.96 623.287 369.56 622.167 369.56H618.047V372.34H622.167C623.287 372.34 623.787 371.96 623.787 371.12ZM623.447 366.96V366.66C623.447 366 623.107 365.6 622.047 365.6H618.047V368.1H622.047C623.127 368.1 623.447 367.62 623.447 366.96ZM637.709 369.56V368.34C637.709 366.28 636.529 365.54 634.249 365.54C631.949 365.54 630.769 366.28 630.769 368.34V369.58C630.769 371.64 631.949 372.4 634.249 372.4C636.529 372.4 637.709 371.64 637.709 369.56ZM628.089 368.98C628.089 365.04 630.249 363.7 634.249 363.7C638.249 363.7 640.389 365.04 640.389 368.98C640.389 372.96 638.249 374.24 634.249 374.24C630.249 374.24 628.089 372.96 628.089 368.98ZM650.117 370.14C649.257 370.28 648.117 370.34 647.057 370.34C643.357 370.34 641.917 369.2 641.917 366.26V363.96H644.577V366.14C644.577 367.92 645.417 368.38 647.617 368.38C648.557 368.38 649.417 368.32 650.117 368.2V363.96H652.777V374H650.117V370.14ZM655.544 363.96H658.204V367.92H664.004V363.96H666.664V374H664.004V369.88H658.204V374H655.544V363.96ZM669.431 374V363.96H672.091V367.16H676.551C679.031 367.16 680.291 368.34 680.291 370.52C680.291 372.76 679.031 374 676.551 374H669.431ZM677.611 370.74V370.28C677.611 369.44 677.111 368.96 675.971 368.96H672.091V372.2H675.971C677.111 372.2 677.611 371.66 677.611 370.74ZM681.511 363.96H684.171V374H681.511V363.96ZM686.331 368.98C686.331 365.24 688.411 363.7 692.151 363.7C695.871 363.7 697.991 365.1 697.991 368.66V369.22H688.951V369.62C688.951 371.62 690.051 372.48 692.151 372.48C693.951 372.48 694.951 372 695.291 370.92H697.911C697.351 373.22 695.371 374.24 692.151 374.24C688.411 374.24 686.331 372.78 686.331 368.98ZM692.151 365.44C690.271 365.44 689.051 366.1 688.951 367.8H695.371C695.291 366.1 694.251 365.44 692.151 365.44ZM704.86 363.96H707.44V365.66C708.26 364.3 709.74 363.7 711.84 363.7C715.2 363.7 717.14 365.2 717.14 368.98C717.14 372.74 715.22 374.24 711.84 374.24C709.8 374.24 708.36 373.7 707.52 372.46V378H704.86V363.96ZM714.46 369.6V368.32C714.46 366.26 713.24 365.54 710.98 365.54C708.74 365.54 707.58 366.24 707.52 368.18V369.6C707.52 371.62 708.72 372.4 710.98 372.4C713.24 372.4 714.46 371.7 714.46 369.6ZM718.754 371.24C718.754 369.34 719.934 368.28 723.114 368.14L727.454 367.98V367.66C727.454 366.06 726.534 365.46 724.634 365.46C722.954 365.46 722.034 365.86 721.774 366.94H719.114C719.434 364.8 721.194 363.7 724.614 363.7C728.294 363.7 730.094 364.92 730.094 367.66V374H727.554V372.28C726.794 373.52 725.214 374.24 722.914 374.24C719.974 374.24 718.754 373.1 718.754 371.24ZM723.714 372.5C725.814 372.5 727.454 371.76 727.454 369.84V369.44L723.694 369.58C722.134 369.66 721.434 370 721.434 370.96V371.14C721.434 372.06 722.114 372.5 723.714 372.5ZM732.152 368.98C732.152 365.2 734.032 363.7 738.032 363.7C741.332 363.7 743.292 364.68 743.612 367.06H740.952C740.632 366 739.832 365.54 738.032 365.54C735.832 365.54 734.832 366.3 734.832 368.28V369.64C734.832 371.72 735.952 372.4 738.032 372.4C739.912 372.4 740.672 371.86 740.992 370.9H743.652C743.292 373.12 741.472 374.24 738.032 374.24C734.152 374.24 732.152 372.96 732.152 368.98ZM745.101 368.98C745.101 365.2 746.981 363.7 750.981 363.7C754.281 363.7 756.241 364.68 756.561 367.06H753.901C753.581 366 752.781 365.54 750.981 365.54C748.781 365.54 747.781 366.3 747.781 368.28V369.64C747.781 371.72 748.901 372.4 750.981 372.4C752.861 372.4 753.621 371.86 753.941 370.9H756.601C756.241 373.12 754.421 374.24 750.981 374.24C747.101 374.24 745.101 372.96 745.101 368.98ZM758.63 374V363.96H761.29V367.16H765.75C768.23 367.16 769.49 368.34 769.49 370.52C769.49 372.76 768.23 374 765.75 374H758.63ZM766.81 370.74V370.28C766.81 369.44 766.31 368.96 765.17 368.96H761.29V372.2H765.17C766.31 372.2 766.81 371.66 766.81 370.74ZM770.71 363.96H773.37V374H770.71V363.96ZM775.07 374V371.78H775.35C776.67 371.78 777.09 371.18 777.09 368.32V363.96H786.83V374H784.17V365.92H779.53V368.38C779.53 372.8 778.61 374 775.63 374H775.07ZM797.647 363.96H800.647L796.027 368.74L801.167 374H797.847L793.847 369.9H792.247V374H789.587V363.96H792.247V367.94H793.787L797.647 363.96ZM802.4 363.96H805.04V371.24L810.8 363.96H813.72V374H811.08V366.72L805.34 374H802.4V363.96Z" fill="white"/>
<path d="M646.769 41.78V40.36C646.769 37.32 644.969 36.14 641.409 36.14C637.829 36.14 636.049 37.32 636.049 40.36V41.78C636.049 44.86 637.829 46.06 641.409 46.06C644.969 46.06 646.769 44.88 646.769 41.78ZM633.229 41.04C633.229 35.8 636.069 33.96 641.409 33.96C646.749 33.96 649.589 35.8 649.589 41.04C649.589 46.36 646.749 48.24 641.409 48.24C636.069 48.24 633.229 46.36 633.229 41.04ZM654.992 39.92H650.832V37.96H661.792V39.92H657.652V48H654.992V39.92ZM671.113 44.14C670.253 44.28 669.113 44.34 668.053 44.34C664.353 44.34 662.913 43.2 662.913 40.26V37.96H665.573V40.14C665.573 41.92 666.413 42.38 668.613 42.38C669.553 42.38 670.413 42.32 671.113 42.2V37.96H673.773V48H671.113V44.14ZM675.96 42.98C675.96 39.24 678.04 37.7 681.78 37.7C685.5 37.7 687.62 39.1 687.62 42.66V43.22H678.58V43.62C678.58 45.62 679.68 46.48 681.78 46.48C683.58 46.48 684.58 46 684.92 44.92H687.54C686.98 47.22 685 48.24 681.78 48.24C678.04 48.24 675.96 46.78 675.96 42.98ZM681.78 39.44C679.9 39.44 678.68 40.1 678.58 41.8H685C684.92 40.1 683.88 39.44 681.78 39.44ZM692.55 39.92H688.39V37.96H699.35V39.92H695.21V48H692.55V39.92Z" fill="white"/>
<path d="M556.369 405.2H559.169V410.78H567.349V405.2H570.149V419H567.349V413.06H559.169V419H556.369V405.2ZM572.367 416.24C572.367 414.34 573.547 413.28 576.727 413.14L581.067 412.98V412.66C581.067 411.06 580.147 410.46 578.247 410.46C576.567 410.46 575.647 410.86 575.387 411.94H572.727C573.047 409.8 574.807 408.7 578.227 408.7C581.907 408.7 583.707 409.92 583.707 412.66V419H581.167V417.28C580.407 418.52 578.827 419.24 576.527 419.24C573.587 419.24 572.367 418.1 572.367 416.24ZM577.327 417.5C579.427 417.5 581.067 416.76 581.067 414.84V414.44L577.307 414.58C575.747 414.66 575.047 415 575.047 415.96V416.14C575.047 417.06 575.727 417.5 577.327 417.5ZM585.545 415.98H588.225C588.365 417.1 589.465 417.54 591.325 417.54C593.345 417.54 594.205 417.16 594.205 416.16V415.88C594.205 415.02 593.485 414.6 591.925 414.6H589.665V412.98H591.845C593.365 412.98 593.965 412.62 593.965 411.82V411.56C593.965 410.74 593.225 410.42 591.345 410.42C589.445 410.42 588.525 410.84 588.345 411.82H585.665C585.885 409.56 588.105 408.7 591.325 408.7C594.725 408.7 596.625 409.54 596.625 411.48C596.625 412.48 596.145 413.3 594.545 413.66C596.105 414 596.885 414.88 596.885 416.1C596.885 418.26 595.085 419.24 591.325 419.24C587.805 419.24 585.765 418.32 585.545 415.98ZM599.06 408.96H601.72V412.92H607.52V408.96H610.18V419H607.52V414.88H601.72V419H599.06V408.96ZM612.386 416.24C612.386 414.34 613.566 413.28 616.746 413.14L621.086 412.98V412.66C621.086 411.06 620.166 410.46 618.266 410.46C616.586 410.46 615.666 410.86 615.406 411.94H612.746C613.066 409.8 614.826 408.7 618.246 408.7C621.926 408.7 623.726 409.92 623.726 412.66V419H621.186V417.28C620.426 418.52 618.846 419.24 616.546 419.24C613.606 419.24 612.386 418.1 612.386 416.24ZM617.346 417.5C619.446 417.5 621.086 416.76 621.086 414.84V414.44L617.326 414.58C615.766 414.66 615.066 415 615.066 415.96V416.14C615.066 417.06 615.746 417.5 617.346 417.5ZM633.906 415.14C633.046 415.28 631.906 415.34 630.846 415.34C627.146 415.34 625.706 414.2 625.706 411.26V408.96H628.366V411.14C628.366 412.92 629.206 413.38 631.406 413.38C632.346 413.38 633.206 413.32 633.906 413.2V408.96H636.566V419H633.906V415.14ZM638.753 413.98C638.753 410.24 640.833 408.7 644.573 408.7C648.293 408.7 650.413 410.1 650.413 413.66V414.22H641.373V414.62C641.373 416.62 642.473 417.48 644.573 417.48C646.373 417.48 647.373 417 647.713 415.92H650.333C649.773 418.22 647.793 419.24 644.573 419.24C640.833 419.24 638.753 417.78 638.753 413.98ZM644.573 410.44C642.693 410.44 641.473 411.1 641.373 412.8H647.793C647.713 411.1 646.673 410.44 644.573 410.44ZM652.556 408.96H655.216V412.92H661.016V408.96H663.676V419H661.016V414.88H655.216V419H652.556V408.96ZM666.443 408.96H669.083V416.24L674.843 408.96H677.763V419H675.123V411.72L669.383 419H666.443V408.96ZM679.945 413.98C679.945 410.24 682.025 408.7 685.765 408.7C689.485 408.7 691.605 410.1 691.605 413.66V414.22H682.565V414.62C682.565 416.62 683.665 417.48 685.765 417.48C687.565 417.48 688.565 417 688.905 415.92H691.525C690.965 418.22 688.985 419.24 685.765 419.24C682.025 419.24 679.945 417.78 679.945 413.98ZM685.765 410.44C683.885 410.44 682.665 411.1 682.565 412.8H688.985C688.905 411.1 687.865 410.44 685.765 410.44ZM706.534 408.96H709.534L704.914 413.74L710.054 419H706.734L702.734 414.9H701.134V419H698.474V408.96H701.134V412.94H702.674L706.534 408.96ZM710.006 408.96H712.786L716.506 416.48L720.106 408.96H722.546L717.106 420.14C716.086 422.28 715.186 423 713.066 423H711.466V421.06H712.786C713.986 421.06 714.446 420.82 714.966 419.68L715.206 419.18L710.006 408.96ZM724.021 408.96H726.601V410.66C727.421 409.3 728.901 408.7 731.001 408.7C734.361 408.7 736.301 410.2 736.301 413.98C736.301 417.74 734.381 419.24 731.001 419.24C728.961 419.24 727.521 418.7 726.681 417.46V423H724.021V408.96ZM733.621 414.6V413.32C733.621 411.26 732.401 410.54 730.141 410.54C727.901 410.54 726.741 411.24 726.681 413.18V414.6C726.681 416.62 727.881 417.4 730.141 417.4C732.401 417.4 733.621 416.7 733.621 414.6ZM737.894 413.98C737.894 410.2 739.774 408.7 743.774 408.7C747.074 408.7 749.034 409.68 749.354 412.06H746.694C746.374 411 745.574 410.54 743.774 410.54C741.574 410.54 740.574 411.3 740.574 413.28V414.64C740.574 416.72 741.694 417.4 743.774 417.4C745.654 417.4 746.414 416.86 746.734 415.9H749.394C749.034 418.12 747.214 419.24 743.774 419.24C739.894 419.24 737.894 417.96 737.894 413.98ZM760.463 414.56V413.34C760.463 411.28 759.283 410.54 757.003 410.54C754.703 410.54 753.523 411.28 753.523 413.34V414.58C753.523 416.64 754.703 417.4 757.003 417.4C759.283 417.4 760.463 416.64 760.463 414.56ZM750.843 413.98C750.843 410.04 753.003 408.7 757.003 408.7C761.003 408.7 763.143 410.04 763.143 413.98C763.143 417.96 761.003 419.24 757.003 419.24C753.003 419.24 750.843 417.96 750.843 413.98ZM765.329 408.96H772.369C774.989 408.96 775.989 409.92 775.989 411.42C775.989 412.46 775.489 413.36 774.009 413.7C775.789 414.02 776.389 415.02 776.389 416.16C776.389 418.08 775.289 419 772.789 419H765.329V408.96ZM773.689 416.12V415.74C773.689 414.96 773.189 414.56 772.069 414.56H767.949V417.34H772.069C773.189 417.34 773.689 416.96 773.689 416.12ZM773.349 411.96V411.66C773.349 411 773.009 410.6 771.949 410.6H767.949V413.1H771.949C773.029 413.1 773.349 412.62 773.349 411.96Z" fill="white"/>
<path d="M601.373 451.12C601.373 445.88 604.153 443.96 609.033 443.96C613.433 443.96 615.913 445.28 616.313 448.68H613.493C613.133 446.7 611.673 446.14 609.033 446.14C606.093 446.14 604.193 447.12 604.193 450.38V451.78C604.193 454.98 606.053 456.06 609.033 456.06C611.573 456.06 613.053 455.58 613.513 453.68H616.333C615.833 456.94 613.393 458.24 609.033 458.24C604.153 458.24 601.373 456.38 601.373 451.12ZM621.496 449.92H617.336V447.96H628.296V449.92H624.156V458H621.496V449.92ZM629.105 455.24C629.105 453.34 630.285 452.28 633.465 452.14L637.805 451.98V451.66C637.805 450.06 636.885 449.46 634.985 449.46C633.305 449.46 632.385 449.86 632.125 450.94H629.465C629.785 448.8 631.545 447.7 634.965 447.7C638.645 447.7 640.445 448.92 640.445 451.66V458H637.905V456.28C637.145 457.52 635.565 458.24 633.265 458.24C630.325 458.24 629.105 457.1 629.105 455.24ZM634.065 456.5C636.165 456.5 637.805 455.76 637.805 453.84V453.44L634.045 453.58C632.485 453.66 631.785 454 631.785 454.96V455.14C631.785 456.06 632.465 456.5 634.065 456.5ZM645.871 449.92H641.711V447.96H652.671V449.92H648.531V458H645.871V449.92ZM654.392 447.96H657.032V455.24L662.792 447.96H665.712V458H663.072V450.72L657.332 458H654.392V447.96ZM667.894 452.98C667.894 449.2 669.774 447.7 673.774 447.7C677.074 447.7 679.034 448.68 679.354 451.06H676.694C676.374 450 675.574 449.54 673.774 449.54C671.574 449.54 670.574 450.3 670.574 452.28V453.64C670.574 455.72 671.694 456.4 673.774 456.4C675.654 456.4 676.414 455.86 676.734 454.9H679.394C679.034 457.12 677.214 458.24 673.774 458.24C669.894 458.24 667.894 456.96 667.894 452.98ZM684.367 449.92H680.207V447.96H691.167V449.92H687.027V458H684.367V449.92ZM692.888 447.96H695.528V455.24L701.288 447.96H704.208V458H701.568V450.72L695.828 458H692.888V447.96ZM715.03 447.96H718.03L713.41 452.74L718.55 458H715.23L711.23 453.9H709.63V458H706.97V447.96H709.63V451.94H711.17L715.03 447.96ZM718.949 455.24C718.949 453.34 720.129 452.28 723.309 452.14L727.649 451.98V451.66C727.649 450.06 726.729 449.46 724.829 449.46C723.149 449.46 722.229 449.86 721.969 450.94H719.309C719.629 448.8 721.389 447.7 724.809 447.7C728.489 447.7 730.289 448.92 730.289 451.66V458H727.749V456.28C726.989 457.52 725.409 458.24 723.109 458.24C720.169 458.24 718.949 457.1 718.949 455.24ZM723.909 456.5C726.009 456.5 727.649 455.76 727.649 453.84V453.44L723.889 453.58C722.329 453.66 721.629 454 721.629 454.96V455.14C721.629 456.06 722.309 456.5 723.909 456.5Z" fill="white"/>
<path fill-rule="evenodd" clip-rule="evenodd" d="M511 368H468V370H511V368ZM821 370H861.586L856.929 374.657C856.538 375.048 856.538 375.681 856.929 376.071C857.319 376.462 857.953 376.462 858.343 376.071L864.707 369.707C865.098 369.317 865.098 368.684 864.707 368.293L858.343 361.929C857.953 361.539 857.319 361.539 856.929 361.929C856.538 362.32 856.538 362.953 856.929 363.343L861.586 368H821V370Z" fill="#FF0032"/>
<path fill-rule="evenodd" clip-rule="evenodd" d="M591 452H470.414L475.071 447.343C475.462 446.953 475.462 446.32 475.071 445.929C474.681 445.539 474.047 445.539 473.657 445.929L467.293 452.293C466.902 452.684 466.902 453.317 467.293 453.707L473.657 460.071C474.047 460.462 474.681 460.462 475.071 460.071C475.462 459.681 475.462 459.048 475.071 458.657L470.414 454H591V452ZM741 454H864V452H741V454Z" fill="white"/>
<path d="M234 75V74C233.448 74 233 74.4477 233 75H234ZM1098 75H1099C1099 74.4477 1098.55 74 1098 74V75ZM1097.29 135.707C1097.68 136.098 1098.32 136.098 1098.71 135.707L1105.07 129.343C1105.46 128.953 1105.46 128.319 1105.07 127.929C1104.68 127.538 1104.05 127.538 1103.66 127.929L1098 133.586L1092.34 127.929C1091.95 127.538 1091.32 127.538 1090.93 127.929C1090.54 128.319 1090.54 128.953 1090.93 129.343L1097.29 135.707ZM235 135V133.125H233V135H235ZM235 129.375V125.625H233V129.375H235ZM235 121.875V118.125H233V121.875H235ZM235 114.375V110.625H233V114.375H235ZM235 106.875V103.125H233V106.875H235ZM235 99.375V95.625H233V99.375H235ZM235 91.875V88.125H233V91.875H235ZM235 84.375V80.625H233V84.375H235ZM235 76.875V75H233V76.875H235ZM234 76H236V74H234V76ZM240 76H244V74H240V76ZM248 76H252V74H248V76ZM256 76H260V74H256V76ZM264 76H268V74H264V76ZM272 76H276V74H272V76ZM280 76H284V74H280V76ZM288 76H292V74H288V76ZM296 76H300V74H296V76ZM304 76H308V74H304V76ZM312 76H316V74H312V76ZM320 76H324V74H320V76ZM328 76H332V74H328V76ZM336 76H340V74H336V76ZM344 76H348V74H344V76ZM352 76H356V74H352V76ZM360 76H364V74H360V76ZM368 76H372V74H368V76ZM376 76H380V74H376V76ZM384 76H388V74H384V76ZM392 76H396V74H392V76ZM400 76H404V74H400V76ZM408 76H412V74H408V76ZM416 76H420V74H416V76ZM424 76H428V74H424V76ZM432 76H436V74H432V76ZM440 76H444V74H440V76ZM448 76H452V74H448V76ZM456 76H460V74H456V76ZM464 76H468V74H464V76ZM472 76H476V74H472V76ZM480 76H484V74H480V76ZM488 76H492V74H488V76ZM496 76H500V74H496V76ZM504 76H508V74H504V76ZM512 76H516V74H512V76ZM520 76H524V74H520V76ZM528 76H532V74H528V76ZM536 76H540V74H536V76ZM544 76H548V74H544V76ZM552 76H556V74H552V76ZM560 76H564V74H560V76ZM568 76H572V74H568V76ZM576 76H580V74H576V76ZM584 76H588V74H584V76ZM592 76H596V74H592V76ZM600 76H604V74H600V76ZM608 76H612V74H608V76ZM616 76H620V74H616V76ZM624 76H628V74H624V76ZM632 76H636V74H632V76ZM640 76H644V74H640V76ZM648 76H652V74H648V76ZM656 76H660V74H656V76ZM664 76H668V74H664V76ZM672 76H676V74H672V76ZM680 76H684V74H680V76ZM688 76H692V74H688V76ZM696 76H700V74H696V76ZM704 76H708V74H704V76ZM712 76H716V74H712V76ZM720 76H724V74H720V76ZM728 76H732V74H728V76ZM736 76H740V74H736V76ZM744 76H748V74H744V76ZM752 76H756V74H752V76ZM760 76H764V74H760V76ZM768 76H772V74H768V76ZM776 76H780V74H776V76ZM784 76H788V74H784V76ZM792 76H796V74H792V76ZM800 76H804V74H800V76ZM808 76H812V74H808V76ZM816 76H820V74H816V76ZM824 76H828V74H824V76ZM832 76H836V74H832V76ZM840 76H844V74H840V76ZM848 76H852V74H848V76ZM856 76H860V74H856V76ZM864 76H868V74H864V76ZM872 76H876V74H872V76ZM880 76H884V74H880V76ZM888 76H892V74H888V76ZM896 76H900V74H896V76ZM904 76H908V74H904V76ZM912 76H916V74H912V76ZM920 76H924V74H920V76ZM928 76H932V74H928V76ZM936 76H940V74H936V76ZM944 76H948V74H944V76ZM952 76H956V74H952V76ZM960 76H964V74H960V76ZM968 76H972V74H968V76ZM976 76H980V74H976V76ZM984 76H988V74H984V76ZM992 76H996V74H992V76ZM1000 76H1004V74H1000V76ZM1008 76H1012V74H1008V76ZM1016 76H1020V74H1016V76ZM1024 76H1028V74H1024V76ZM1032 76H1036V74H1032V76ZM1040 76H1044V74H1040V76ZM1048 76H1052V74H1048V76ZM1056 76H1060V74H1056V76ZM1064 76H1068V74H1064V76ZM1072 76H1076V74H1072V76ZM1080 76H1084V74H1080V76ZM1088 76H1092V74H1088V76ZM1096 76H1098V74H1096V76ZM1097 75V76.875H1099V75H1097ZM1097 80.625V84.375H1099V80.625H1097ZM1097 88.125V91.875H1099V88.125H1097ZM1097 95.625V99.375H1099V95.625H1097ZM1097 103.125V106.875H1099V103.125H1097ZM1097 110.625V114.375H1099V110.625H1097ZM1097 118.125V121.875H1099V118.125H1097ZM1097 125.625V129.375H1099V125.625H1097ZM1097 133.125V135H1099V133.125H1097ZM234 75V74C233.448 74 233 74.4477 233 75H234ZM1098 75H1099C1099 74.4477 1098.55 74 1098 74V75ZM1097.29 135.707C1097.68 136.098 1098.32 136.098 1098.71 135.707L1105.07 129.343C1105.46 128.953 1105.46 128.319 1105.07 127.929C1104.68 127.538 1104.05 127.538 1103.66 127.929L1098 133.586L1092.34 127.929C1091.95 127.538 1091.32 127.538 1090.93 127.929C1090.54 128.319 1090.54 128.953 1090.93 129.343L1097.29 135.707ZM235 135V133.125H233V135H235ZM235 129.375V125.625H233V129.375H235ZM235 121.875V118.125H233V121.875H235ZM235 114.375V110.625H233V114.375H235ZM235 106.875V103.125H233V106.875H235ZM235 99.375V95.625H233V99.375H235ZM235 91.875V88.125H233V91.875H235ZM235 84.375V80.625H233V84.375H235ZM235 76.875V75H233V76.875H235ZM234 76H236V74H234V76ZM240 76H244V74H240V76ZM248 76H252V74H248V76ZM256 76H260V74H256V76ZM264 76H268V74H264V76ZM272 76H276V74H272V76ZM280 76H284V74H280V76ZM288 76H292V74H288V76ZM296 76H300V74H296V76ZM304 76H308V74H304V76ZM312 76H316V74H312V76ZM320 76H324V74H320V76ZM328 76H332V74H328V76ZM336 76H340V74H336V76ZM344 76H348V74H344V76ZM352 76H356V74H352V76ZM360 76H364V74H360V76ZM368 76H372V74H368V76ZM376 76H380V74H376V76ZM384 76H388V74H384V76ZM392 76H396V74H392V76ZM400 76H404V74H400V76ZM408 76H412V74H408V76ZM416 76H420V74H416V76ZM424 76H428V74H424V76ZM432 76H436V74H432V76ZM440 76H444V74H440V76ZM448 76H452V74H448V76ZM456 76H460V74H456V76ZM464 76H468V74H464V76ZM472 76H476V74H472V76ZM480 76H484V74H480V76ZM488 76H492V74H488V76ZM496 76H500V74H496V76ZM504 76H508V74H504V76ZM512 76H516V74H512V76ZM520 76H524V74H520V76ZM528 76H532V74H528V76ZM536 76H540V74H536V76ZM544 76H548V74H544V76ZM552 76H556V74H552V76ZM560 76H564V74H560V76ZM568 76H572V74H568V76ZM576 76H580V74H576V76ZM584 76H588V74H584V76ZM592 76H596V74H592V76ZM600 76H604V74H600V76ZM608 76H612V74H608V76ZM616 76H620V74H616V76ZM624 76H628V74H624V76ZM632 76H636V74H632V76ZM640 76H644V74H640V76ZM648 76H652V74H648V76ZM656 76H660V74H656V76ZM664 76H668V74H664V76ZM672 76H676V74H672V76ZM680 76H684V74H680V76ZM688 76H692V74H688V76ZM696 76H700V74H696V76ZM704 76H708V74H704V76ZM712 76H716V74H712V76ZM720 76H724V74H720V76ZM728 76H732V74H728V76ZM736 76H740V74H736V76ZM744 76H748V74H744V76ZM752 76H756V74H752V76ZM760 76H764V74H760V76ZM768 76H772V74H768V76ZM776 76H780V74H776V76ZM784 76H788V74H784V76ZM792 76H796V74H792V76ZM800 76H804V74H800V76ZM808 76H812V74H808V76ZM816 76H820V74H816V76ZM824 76H828V74H824V76ZM832 76H836V74H832V76ZM840 76H844V74H840V76ZM848 76H852V74H848V76ZM856 76H860V74H856V76ZM864 76H868V74H864V76ZM872 76H876V74H872V76ZM880 76H884V74H880V76ZM888 76H892V74H888V76ZM896 76H900V74H896V76ZM904 76H908V74H904V76ZM912 76H916V74H912V76ZM920 76H924V74H920V76ZM928 76H932V74H928V76ZM936 76H940V74H936V76ZM944 76H948V74H944V76ZM952 76H956V74H952V76ZM960 76H964V74H960V76ZM968 76H972V74H968V76ZM976 76H980V74H976V76ZM984 76H988V74H984V76ZM992 76H996V74H992V76ZM1000 76H1004V74H1000V76ZM1008 76H1012V74H1008V76ZM1016 76H1020V74H1016V76ZM1024 76H1028V74H1024V76ZM1032 76H1036V74H1032V76ZM1040 76H1044V74H1040V76ZM1048 76H1052V74H1048V76ZM1056 76H1060V74H1056V76ZM1064 76H1068V74H1064V76ZM1072 76H1076V74H1072V76ZM1080 76H1084V74H1080V76ZM1088 76H1092V74H1088V76ZM1096 76H1098V74H1096V76ZM1097 75V76.875H1099V75H1097ZM1097 80.625V84.375H1099V80.625H1097ZM1097 88.125V91.875H1099V88.125H1097ZM1097 95.625V99.375H1099V95.625H1097ZM1097 103.125V106.875H1099V103.125H1097ZM1097 110.625V114.375H1099V110.625H1097ZM1097 118.125V121.875H1099V118.125H1097ZM1097 125.625V129.375H1099V125.625H1097ZM1097 133.125V135H1099V133.125H1097Z" fill="white"/>
<defs>
<clipPath id="clip0_3256_765">
<rect width="259" height="109" fill="white" transform="translate(104 260)"/>
</clipPath>
</defs>
</svg>
