<?xml version="1.0" encoding="UTF-8"?>
<svg id="_Слой_2" data-name="Слой 2" xmlns="http://www.w3.org/2000/svg" viewBox="0 0 492.27 490.84">
  <defs>
    <style>
      .cls-1 {
        stroke-width: 15.35px;
      }

      .cls-1, .cls-2 {
        fill: none;
        stroke: #fff;
        stroke-linejoin: round;
      }

      .cls-2 {
        stroke-linecap: round;
        stroke-width: 17px;
      }

      .cls-3 {
        fill: #fff;
      }

      .cls-3, .cls-4 {
        stroke-width: 0px;
      }

      .cls-4 {
        fill: #e5243c;
      }
    </style>
  </defs>
  <g id="_Слой_2-2" data-name=" Слой 2">
    <g>
      <path class="cls-4" d="M92.17,0H10.22S0,0,0,0v93.2c0,5.64,4.57,10.22,10.22,10.22h0c5.64,0,10.22-4.57,10.22-10.22V20.43s71.73,0,71.73,0c5.64,0,10.22-4.57,10.22-10.22h0C102.38,4.57,97.81,0,92.17,0Z"/>
      <path class="cls-4" d="M492.27,92.42V10.47s0-10.22,0-10.22h-93.2c-5.64,0-10.22,4.57-10.22,10.22h0c0,5.64,4.57,10.22,10.22,10.22h72.76s0,71.73,0,71.73c0,5.64,4.57,10.22,10.22,10.22h0c5.64,0,10.22-4.57,10.22-10.22Z"/>
      <path class="cls-4" d="M400.1,490.84h81.95s10.22,0,10.22,0v-93.2c0-5.64-4.57-10.22-10.22-10.22h0c-5.64,0-10.22,4.57-10.22,10.22v72.76s-71.73,0-71.73,0c-5.64,0-10.22,4.57-10.22,10.22h0c0,5.64,4.57,10.22,10.22,10.22Z"/>
      <path class="cls-4" d="M0,398.41v81.95s0,10.22,0,10.22h93.2c5.64,0,10.22-4.57,10.22-10.22h0c0-5.64-4.57-10.22-10.22-10.22H20.43s0-71.73,0-71.73c0-5.64-4.57-10.22-10.22-10.22h0C4.57,388.2,0,392.77,0,398.41Z"/>
    </g>
    <path class="cls-2" d="M380.43,227.82c1.94,9.47,2.96,19.27,2.96,29.32,0,80.34-65.13,145.46-145.46,145.46s-145.46-65.13-145.46-145.46S157.59,111.67,237.92,111.67c25.78,0,49.99,6.7,70.98,18.46"/>
    <path class="cls-1" d="M383.79,186.63l17.98,28.97c2.21,3.71-.14,8.48-4.39,8.88l-36.64,3.49c-4.6.44-7.86-4.48-5.71-8.62l18.66-32.46c2.1-4.04,7.76-4.19,10.1-.26Z"/>
    <path class="cls-3" d="M206.79,326.6v-145.02h45.1c7.94,0,14,.48,18.19,1.43,5.87,1.22,10.79,3.55,14.76,6.98,3.97,3.43,7.16,8.24,9.58,14.42,2.42,6.18,3.63,12.98,3.63,20.38,0,12.71-3.24,23.46-9.71,32.26-6.47,8.8-18.06,17.23-34.97,17.23l-24.86.18-.32,52.18c-.02,3.35-2.74,6.05-6.09,6.05h-9.24c-3.36,0-6.09-2.73-6.09-6.09ZM227.5,252.61h17.52c10.22,0,17.48-2.38,21.78-7.13,4.29-4.75,6.44-11.45,6.44-20.08,0-6.25-1.26-11.6-3.79-16.05-2.53-4.45-5.86-7.39-9.99-8.82-2.66-.88-7.58-1.33-14.76-1.33h-16.58l-.62,53.4Z"/>
    <rect class="cls-3" x="194.02" y="252.61" width="25.48" height="21.86" rx="6.9" ry="6.9"/>
    <rect class="cls-3" x="194.05" y="279.08" width="90.36" height="21.86" rx="7.27" ry="7.27"/>
  </g>
</svg>