<svg width="128" height="128" viewBox="0 0 128 128" fill="none" xmlns="http://www.w3.org/2000/svg">
<path d="M2 26L2 2L26 2" stroke="#FF0032" stroke-width="3" stroke-linecap="round"/>
<path d="M2 102L2 126L26 126" stroke="#FF0032" stroke-width="3" stroke-linecap="round"/>
<path d="M126 26L126 2L102 2" stroke="#FF0032" stroke-width="3" stroke-linecap="round"/>
<path d="M126 102L126 126L102 126" stroke="#FF0032" stroke-width="3" stroke-linecap="round"/>
<path d="M40.582 78.4507L63.0764 91.1708L85.5172 78.4507V53.4392L63.0764 66.0521L40.582 52.368V78.4507Z" stroke="#CFCECE" stroke-width="3" stroke-miterlimit="10" stroke-linecap="round" stroke-linejoin="round"/>
<path d="M40.582 52.368L63.0764 39.648L85.5172 53.4392" stroke="#CFCECE" stroke-width="3" stroke-miterlimit="10" stroke-linecap="round" stroke-linejoin="round"/>
<path d="M63.2188 44.2765C63.2188 42.0524 63.2188 34.9505 63.2188 32.7264" stroke="#CFCECE" stroke-width="3" stroke-miterlimit="10" stroke-linecap="round" stroke-linejoin="round"/>
<path d="M63.1595 98.1332C63.1863 94.7858 63.1328 69.3994 63.1328 66.052" stroke="#CFCECE" stroke-width="3" stroke-miterlimit="10" stroke-linecap="round" stroke-linejoin="round"/>
<path d="M68.4102 101.508L64.6878 108.095C64.2058 108.925 63.0274 108.979 62.4919 108.176L57.9128 101.427C57.3504 100.57 57.9395 99.4189 58.9839 99.3921L67.3924 99.3385C68.41 99.3385 68.919 100.624 68.4102 101.508Z" stroke="#CFCECE" stroke-width="3" stroke-miterlimit="10"/>
<path d="M35.7656 49.0742L54.7521 60.9909" stroke="#CFCECE" stroke-width="3" stroke-miterlimit="10" stroke-linecap="round" stroke-linejoin="round"/>
<path d="M35.7656 82.2267L40.5858 78.4509" stroke="#CFCECE" stroke-width="3" stroke-miterlimit="10" stroke-linecap="round" stroke-linejoin="round"/>
<path d="M85.4648 78.7187L90.6065 81.9589" stroke="#CFCECE" stroke-width="3" stroke-miterlimit="10" stroke-linecap="round" stroke-linejoin="round"/>
<path d="M71.9961 60.9909L91.3039 49.6098" stroke="#CFCECE" stroke-width="3" stroke-miterlimit="10" stroke-linecap="round" stroke-linejoin="round"/>
<path d="M29.8472 50.8414C32.5241 50.8414 34.6941 48.6714 34.6941 45.9945C34.6941 43.3176 32.5241 41.1475 29.8472 41.1475C27.1702 41.1475 25 43.3176 25 45.9945C25 48.6714 27.1702 50.8414 29.8472 50.8414Z" stroke="#CFCECE" stroke-width="3" stroke-miterlimit="10" stroke-linecap="round" stroke-linejoin="round"/>
<path d="M30.9485 91.1708C33.6254 91.1708 35.7954 89.0007 35.7954 86.3237C35.7954 83.6468 33.6254 81.4768 30.9485 81.4768C28.2715 81.4768 26.1016 83.6468 26.1016 86.3237C26.1016 89.0007 28.2715 91.1708 30.9485 91.1708Z" stroke="#CFCECE" stroke-width="3" stroke-miterlimit="10" stroke-linecap="round" stroke-linejoin="round"/>
<path d="M96.1516 51.4039C98.8285 51.4039 100.998 49.2338 100.998 46.5569C100.998 43.88 98.8285 41.71 96.1516 41.71C93.4747 41.71 91.3047 43.88 91.3047 46.5569C91.3047 49.2338 93.4747 51.4039 96.1516 51.4039Z" stroke="#CFCECE" stroke-width="3" stroke-miterlimit="10" stroke-linecap="round" stroke-linejoin="round"/>
<path d="M95.4565 90.0195C98.1335 90.0195 100.303 87.8494 100.303 85.1724C100.303 82.4955 98.1335 80.3254 95.4565 80.3254C92.7796 80.3254 90.6094 82.4955 90.6094 85.1724C90.6094 87.8494 92.7796 90.0195 95.4565 90.0195Z" stroke="#CFCECE" stroke-width="3" stroke-miterlimit="10" stroke-linecap="round" stroke-linejoin="round"/>
<path d="M65.4635 23.8754L68.8108 30.6504C69.2125 31.5074 68.5964 32.525 67.6591 32.525H59.4915C58.4739 32.525 57.858 31.3736 58.4204 30.4899L63.1067 23.5005C63.6691 22.6436 65.035 22.9649 65.4635 23.8754Z" stroke="#CFCECE" stroke-width="3" stroke-miterlimit="10"/>
</svg>
