<svg width="56" height="56" viewBox="0 0 56 56" fill="none" xmlns="http://www.w3.org/2000/svg">
<path d="M27.4866 10.4228C27.0637 10.7428 26.6408 11.0743 26.1951 11.3828C25.7265 11.7028 25.2351 12 24.7208 12.2514C24.5951 12.32 24.4694 12.3771 24.3437 12.4343C24.2865 12.4571 24.2179 12.4914 24.1608 12.5142C24.1265 12.5257 24.1036 12.5371 24.0693 12.56C24.0465 12.5714 23.9093 12.6285 24.0236 12.5828C23.7607 12.6857 23.4979 12.7885 23.235 12.88C22.9607 12.9714 22.6864 13.0514 22.4121 13.1314C22.1607 13.2 21.8978 13.2685 21.6807 13.4285C21.2349 13.7485 20.9606 14.2514 20.9492 14.8C20.9492 15.2457 20.9492 15.6914 20.9492 16.1371C20.9492 16.5942 20.9492 17.0514 20.9492 17.4971C20.9492 18.4342 21.0749 19.3828 21.3035 20.2971C21.5435 21.2342 21.9207 22.1371 22.4007 22.9714C22.8807 23.8057 23.475 24.5828 24.1493 25.2685C24.8351 25.9657 25.6237 26.5599 26.4694 27.0514C26.9494 27.3257 27.4523 27.5657 27.9438 27.8057C28.1038 27.8857 28.2409 27.8742 28.4009 27.8057C28.4352 27.7942 28.4695 27.7714 28.5038 27.7485C28.6295 27.6799 28.7666 27.6228 28.8924 27.5542C29.1324 27.4399 29.3724 27.3142 29.601 27.1885C30.4582 26.7199 31.2696 26.1371 31.9782 25.4628C32.6754 24.7999 33.2925 24.0342 33.7839 23.2114C34.2868 22.3885 34.6754 21.4971 34.9497 20.5714C35.224 19.6342 35.3726 18.64 35.384 17.6571C35.3954 17.2114 35.384 16.7657 35.384 16.3314C35.384 15.8285 35.384 15.3257 35.384 14.8342C35.384 14.3885 35.224 13.9771 34.9268 13.6571C34.7326 13.4514 34.4811 13.3028 34.2068 13.2114C33.9554 13.1314 33.6925 13.0743 33.4411 12.9943C33.1668 12.9143 32.904 12.8114 32.6297 12.7085C32.5611 12.6857 32.5039 12.6628 32.4468 12.6285C32.4125 12.6171 32.3896 12.6057 32.3553 12.5943C32.3325 12.5828 32.2753 12.56 32.3782 12.6057C32.3553 12.5943 32.3439 12.5943 32.3211 12.5828C32.1839 12.5257 32.0582 12.4685 31.921 12.4C31.4067 12.16 30.9153 11.8857 30.4353 11.5771C29.8981 11.2343 29.3952 10.8342 28.8924 10.4571C28.5152 10.1371 27.9095 10.1143 27.4866 10.4228C27.3952 10.4914 27.3152 10.5714 27.2809 10.6857C27.2466 10.7885 27.2694 10.9257 27.3266 11.0171C27.4409 11.2 27.7266 11.3143 27.9209 11.1771C27.9666 11.1428 28.0238 11.12 28.0809 11.0857C28.0695 11.0857 27.9781 11.12 28.0466 11.0971C28.0581 11.0971 28.0695 11.0857 28.0809 11.0857C28.0923 11.0857 28.1152 11.0742 28.1266 11.0742C28.1609 11.0628 28.2066 11.0742 28.0923 11.0742C28.1381 11.0742 28.2295 11.0514 28.2638 11.0742C28.2752 11.0742 28.1609 11.0514 28.2066 11.0628C28.2181 11.0628 28.2295 11.0628 28.2409 11.0742C28.2523 11.0742 28.2752 11.0857 28.2867 11.0857C28.2981 11.0857 28.378 11.12 28.3095 11.0857C28.2409 11.0514 28.3324 11.0971 28.3438 11.1085C28.3667 11.12 28.4009 11.1428 28.4238 11.1543C28.4352 11.1543 28.4352 11.1657 28.4466 11.1657C28.4809 11.1885 28.5038 11.2114 28.5381 11.2343C28.7666 11.4057 28.9952 11.5771 29.2238 11.7485C30.0124 12.3428 30.8467 12.8457 31.7496 13.2457C32.2868 13.4857 32.8468 13.7028 33.4183 13.8628C33.5554 13.8971 33.6926 13.9428 33.8297 13.9771C33.8869 13.9885 33.9326 14 33.9897 14.0228C34.0126 14.0343 34.0468 14.0457 34.0697 14.0457C34.104 14.0571 34.1383 14.08 34.0354 14.0228C34.0468 14.0343 34.0583 14.0342 34.0811 14.0457C34.1268 14.0685 34.1726 14.0914 34.2183 14.1257C34.2526 14.1485 34.3211 14.2171 34.2183 14.1257C34.2411 14.1485 34.264 14.16 34.2869 14.1828C34.3212 14.2171 34.3554 14.2628 34.3897 14.2971C34.4354 14.3543 34.3211 14.2057 34.3783 14.2857C34.3897 14.3085 34.4126 14.3314 34.424 14.3657C34.4354 14.3885 34.4469 14.4114 34.4583 14.4342C34.4697 14.4571 34.504 14.5371 34.4697 14.4685C34.4354 14.4 34.4697 14.48 34.4811 14.5028C34.4926 14.5371 34.504 14.56 34.504 14.5943C34.5154 14.6171 34.5154 14.6514 34.5154 14.6742C34.5383 14.7771 34.504 14.5828 34.5154 14.6628C34.5154 14.6971 34.5154 14.7428 34.5154 14.7771C34.5154 14.8228 34.5154 14.8571 34.5154 14.9028V15.6114V17.3142C34.5154 17.5542 34.5154 17.7942 34.504 18.0228C34.4926 18.2628 34.4697 18.4914 34.4469 18.7314C34.4469 18.7542 34.4354 18.7885 34.4354 18.8114C34.4354 18.8228 34.4354 18.8457 34.424 18.8571C34.424 18.8685 34.4354 18.7542 34.4354 18.8C34.424 18.8571 34.4125 18.9257 34.4125 18.9828C34.3897 19.0971 34.3783 19.2228 34.3554 19.3371C34.264 19.7942 34.1497 20.2514 34.0011 20.6971C33.9211 20.9257 33.8411 21.1428 33.7497 21.3599C33.7383 21.3828 33.7268 21.4057 33.7268 21.4285C33.7382 21.4057 33.7839 21.2914 33.7268 21.4285C33.7039 21.4857 33.6811 21.5428 33.6583 21.5885C33.6126 21.6914 33.5668 21.7942 33.5097 21.8971C33.3039 22.3085 33.0754 22.72 32.8125 23.1085C32.6868 23.3028 32.5382 23.4971 32.4011 23.68C32.4011 23.68 32.4582 23.5999 32.4354 23.6342C32.4239 23.6457 32.4125 23.6571 32.4011 23.6685C32.3782 23.6914 32.3668 23.7142 32.3439 23.7371C32.3097 23.7828 32.2639 23.8285 32.2297 23.8742C32.1611 23.9657 32.0811 24.0457 32.0011 24.1371C31.6925 24.4914 31.361 24.8228 31.0067 25.1199C30.9153 25.1999 30.8239 25.2799 30.7324 25.3485C30.6867 25.3828 30.641 25.4171 30.5953 25.4514C30.5153 25.5085 30.6524 25.4057 30.5953 25.4514C30.5724 25.4742 30.5496 25.4857 30.5153 25.5085C30.3324 25.6457 30.1381 25.7828 29.9324 25.9085C29.361 26.2857 28.7438 26.5828 28.138 26.8799C28.0695 26.9142 28.0009 26.9485 27.9438 26.9828H28.3895C27.9552 26.7657 27.5095 26.5485 27.0752 26.3199C26.6637 26.0914 26.2751 25.8514 25.8979 25.5771C25.8522 25.5428 25.818 25.5199 25.7723 25.4857C25.7608 25.4742 25.6808 25.4171 25.738 25.4628C25.7951 25.5085 25.7151 25.4399 25.6922 25.4285C25.6008 25.3599 25.5094 25.28 25.418 25.2114C25.2465 25.0628 25.0751 24.9142 24.9151 24.7657C24.5837 24.4457 24.2751 24.1142 23.9893 23.7599C23.9551 23.7142 23.9207 23.6799 23.8979 23.6342C23.8636 23.5885 23.955 23.7142 23.9208 23.6685C23.9093 23.6571 23.9093 23.6457 23.8979 23.6457C23.875 23.6228 23.8636 23.6 23.8407 23.5657C23.7722 23.4742 23.7036 23.3828 23.6465 23.2914C23.5208 23.1085 23.395 22.9142 23.2693 22.72C23.0293 22.3314 22.8236 21.9314 22.6407 21.52C22.6178 21.4742 22.595 21.4285 22.5835 21.3828C22.5493 21.3142 22.6178 21.4742 22.5835 21.3828C22.5721 21.3485 22.5607 21.3257 22.5493 21.2914C22.5036 21.1885 22.4693 21.0742 22.4235 20.9714C22.3435 20.7657 22.275 20.5485 22.2178 20.3314C22.0921 19.8971 21.9892 19.44 21.9092 18.9942C21.8978 18.9371 21.8978 18.8914 21.8864 18.8342C21.8864 18.8228 21.8864 18.8 21.875 18.7885C21.8635 18.7428 21.8864 18.8457 21.8864 18.8457C21.8864 18.8114 21.875 18.7771 21.875 18.7542C21.8635 18.64 21.8521 18.5257 21.8407 18.4114C21.8178 18.1828 21.8064 17.9428 21.795 17.7142C21.7835 17.28 21.795 16.8457 21.795 16.4114V14.8457C21.795 14.8114 21.795 14.7657 21.795 14.7314C21.795 14.7085 21.795 14.6743 21.795 14.6514C21.8064 14.56 21.7835 14.7428 21.795 14.6628C21.8064 14.6057 21.8178 14.56 21.8293 14.5028C21.8407 14.48 21.8521 14.4571 21.8521 14.4228C21.875 14.3771 21.8064 14.5143 21.8293 14.4685C21.8293 14.4571 21.8407 14.4457 21.8407 14.4342C21.8635 14.3885 21.8978 14.3314 21.9207 14.2857C21.9321 14.2742 21.9321 14.2628 21.9436 14.2628C21.9778 14.2057 21.9207 14.2971 21.9207 14.2971C21.9207 14.2971 21.955 14.2514 21.9664 14.24C22.0007 14.1943 22.0464 14.16 22.0921 14.1257C22.1721 14.0571 22.0235 14.1714 22.0807 14.1257C22.1035 14.1143 22.1264 14.0914 22.1493 14.08C22.1721 14.0685 22.275 13.9885 22.2978 14C22.2978 14 22.2064 14.0343 22.2521 14.0228C22.2635 14.0228 22.275 14.0114 22.2864 14.0114C22.3093 14 22.3435 13.9885 22.3664 13.9885C22.4235 13.9771 22.4807 13.9542 22.5378 13.9428C22.6636 13.9085 22.8007 13.8742 22.9264 13.8285C24.0122 13.5085 25.0522 13.04 26.0122 12.4571C26.6065 12.0914 27.1552 11.6685 27.7038 11.2571C27.7609 11.2114 27.8181 11.1771 27.8752 11.1314C27.9666 11.0628 28.0466 10.9943 28.0809 10.8685C28.1152 10.7657 28.0923 10.6285 28.0352 10.5371C27.9666 10.4 27.6809 10.2743 27.4866 10.4228Z" fill="white"/>
<path d="M27.4866 10.4228C27.0637 10.7428 26.6408 11.0743 26.1951 11.3828C25.7265 11.7028 25.2351 12 24.7208 12.2514C24.5951 12.32 24.4694 12.3771 24.3437 12.4343C24.2865 12.4571 24.2179 12.4914 24.1608 12.5142C24.1265 12.5257 24.1036 12.5371 24.0693 12.56C24.0465 12.5714 23.9093 12.6285 24.0236 12.5828C23.7607 12.6857 23.4979 12.7885 23.235 12.88C22.9607 12.9714 22.6864 13.0514 22.4121 13.1314C22.1607 13.2 21.8978 13.2685 21.6807 13.4285C21.2349 13.7485 20.9606 14.2514 20.9492 14.8C20.9492 15.2457 20.9492 15.6914 20.9492 16.1371C20.9492 16.5942 20.9492 17.0514 20.9492 17.4971C20.9492 18.4342 21.0749 19.3828 21.3035 20.2971C21.5435 21.2342 21.9207 22.1371 22.4007 22.9714C22.8807 23.8057 23.475 24.5828 24.1493 25.2685C24.8351 25.9657 25.6237 26.5599 26.4694 27.0514C26.9494 27.3257 27.4523 27.5657 27.9438 27.8057C28.1038 27.8857 28.2409 27.8742 28.4009 27.8057C28.4352 27.7942 28.4695 27.7714 28.5038 27.7485C28.6295 27.6799 28.7666 27.6228 28.8924 27.5542C29.1324 27.4399 29.3724 27.3142 29.601 27.1885C30.4582 26.7199 31.2696 26.1371 31.9782 25.4628C32.6754 24.7999 33.2925 24.0342 33.7839 23.2114C34.2868 22.3885 34.6754 21.4971 34.9497 20.5714C35.224 19.6342 35.3726 18.64 35.384 17.6571C35.3954 17.2114 35.384 16.7657 35.384 16.3314C35.384 15.8285 35.384 15.3257 35.384 14.8342C35.384 14.3885 35.224 13.9771 34.9268 13.6571C34.7326 13.4514 34.4811 13.3028 34.2068 13.2114C33.9554 13.1314 33.6925 13.0743 33.4411 12.9943C33.1668 12.9143 32.904 12.8114 32.6297 12.7085C32.5611 12.6857 32.5039 12.6628 32.4468 12.6285C32.4125 12.6171 32.3896 12.6057 32.3553 12.5943C32.3325 12.5828 32.2753 12.56 32.3782 12.6057C32.3553 12.5943 32.3439 12.5943 32.3211 12.5828C32.1839 12.5257 32.0582 12.4685 31.921 12.4C31.4067 12.16 30.9153 11.8857 30.4353 11.5771C29.8981 11.2343 29.3952 10.8342 28.8924 10.4571C28.5152 10.1371 27.9095 10.1143 27.4866 10.4228ZM27.4866 10.4228C27.3952 10.4914 27.3152 10.5714 27.2809 10.6857C27.2466 10.7885 27.2694 10.9257 27.3266 11.0171C27.4409 11.2 27.7266 11.3143 27.9209 11.1771C27.9666 11.1428 28.0238 11.12 28.0809 11.0857M27.4866 10.4228C27.6809 10.2743 27.9666 10.4 28.0352 10.5371C28.0923 10.6285 28.1152 10.7657 28.0809 10.8685C28.0466 10.9943 27.9666 11.0628 27.8752 11.1314C27.8181 11.1771 27.7609 11.2114 27.7038 11.2571C27.1552 11.6685 26.6065 12.0914 26.0122 12.4571C25.0522 13.04 24.0122 13.5085 22.9264 13.8285C22.8007 13.8742 22.6636 13.9085 22.5378 13.9428C22.4807 13.9542 22.4235 13.9771 22.3664 13.9885C22.3435 13.9885 22.3093 14 22.2864 14.0114C22.275 14.0114 22.2635 14.0228 22.2521 14.0228C22.2064 14.0343 22.2978 14 22.2978 14C22.275 13.9885 22.1721 14.0685 22.1493 14.08C22.1264 14.0914 22.1035 14.1143 22.0807 14.1257C22.0235 14.1714 22.1721 14.0571 22.0921 14.1257C22.0464 14.16 22.0007 14.1943 21.9664 14.24C21.955 14.2514 21.9207 14.2971 21.9207 14.2971C21.9207 14.2971 21.9778 14.2057 21.9436 14.2628C21.9321 14.2628 21.9321 14.2742 21.9207 14.2857C21.8978 14.3314 21.8635 14.3885 21.8407 14.4342C21.8407 14.4457 21.8293 14.4571 21.8293 14.4685C21.8064 14.5143 21.875 14.3771 21.8521 14.4228C21.8521 14.4571 21.8407 14.48 21.8293 14.5028C21.8178 14.56 21.8064 14.6057 21.795 14.6628C21.7835 14.7428 21.8064 14.56 21.795 14.6514C21.795 14.6743 21.795 14.7085 21.795 14.7314C21.795 14.7657 21.795 14.8114 21.795 14.8457V16.4114C21.795 16.8457 21.7835 17.28 21.795 17.7142C21.8064 17.9428 21.8178 18.1828 21.8407 18.4114C21.8521 18.5257 21.8635 18.64 21.875 18.7542C21.875 18.7771 21.8864 18.8114 21.8864 18.8457C21.8864 18.8457 21.8635 18.7428 21.875 18.7885C21.8864 18.8 21.8864 18.8228 21.8864 18.8342C21.8978 18.8914 21.8978 18.9371 21.9092 18.9942C21.9892 19.44 22.0921 19.8971 22.2178 20.3314C22.275 20.5485 22.3435 20.7657 22.4235 20.9714C22.4693 21.0742 22.5036 21.1885 22.5493 21.2914C22.5607 21.3257 22.5721 21.3485 22.5835 21.3828M28.0809 11.0857C28.0695 11.0857 27.9781 11.12 28.0466 11.0971C28.0581 11.0971 28.0695 11.0857 28.0809 11.0857ZM28.0809 11.0857C28.0923 11.0857 28.1152 11.0742 28.1266 11.0742C28.1609 11.0628 28.2066 11.0742 28.0923 11.0742C28.1381 11.0742 28.2295 11.0514 28.2638 11.0742C28.2752 11.0742 28.1609 11.0514 28.2066 11.0628C28.2181 11.0628 28.2295 11.0628 28.2409 11.0742C28.2523 11.0742 28.2752 11.0857 28.2867 11.0857C28.2981 11.0857 28.378 11.12 28.3095 11.0857C28.2409 11.0514 28.3324 11.0971 28.3438 11.1085C28.3667 11.12 28.4009 11.1428 28.4238 11.1543C28.4352 11.1543 28.4352 11.1657 28.4466 11.1657C28.4809 11.1885 28.5038 11.2114 28.5381 11.2343C28.7666 11.4057 28.9952 11.5771 29.2238 11.7485C30.0124 12.3428 30.8467 12.8457 31.7496 13.2457C32.2868 13.4857 32.8468 13.7028 33.4183 13.8628C33.5554 13.8971 33.6926 13.9428 33.8297 13.9771C33.8869 13.9885 33.9326 14 33.9897 14.0228C34.0126 14.0343 34.0468 14.0457 34.0697 14.0457C34.104 14.0571 34.1383 14.08 34.0354 14.0228C34.0468 14.0343 34.0583 14.0342 34.0811 14.0457C34.1268 14.0685 34.1726 14.0914 34.2183 14.1257M34.2183 14.1257C34.2526 14.1485 34.3211 14.2171 34.2183 14.1257ZM34.2183 14.1257C34.2411 14.1485 34.264 14.16 34.2869 14.1828C34.3212 14.2171 34.3554 14.2628 34.3897 14.2971C34.4354 14.3543 34.3211 14.2057 34.3783 14.2857C34.3897 14.3085 34.4126 14.3314 34.424 14.3657C34.4354 14.3885 34.4469 14.4114 34.4583 14.4342C34.4697 14.4571 34.504 14.5371 34.4697 14.4685C34.4354 14.4 34.4697 14.48 34.4811 14.5028C34.4926 14.5371 34.504 14.56 34.504 14.5943C34.5154 14.6171 34.5154 14.6514 34.5154 14.6742C34.5383 14.7771 34.504 14.5828 34.5154 14.6628C34.5154 14.6971 34.5154 14.7428 34.5154 14.7771C34.5154 14.8228 34.5154 14.8571 34.5154 14.9028V15.6114V17.3142C34.5154 17.5542 34.5154 17.7942 34.504 18.0228C34.4926 18.2628 34.4697 18.4914 34.4469 18.7314C34.4469 18.7542 34.4354 18.7885 34.4354 18.8114C34.4354 18.8228 34.4354 18.8457 34.424 18.8571C34.424 18.8685 34.4354 18.7542 34.4354 18.8C34.424 18.8571 34.4125 18.9257 34.4125 18.9828C34.3897 19.0971 34.3783 19.2228 34.3554 19.3371C34.264 19.7942 34.1497 20.2514 34.0011 20.6971C33.9211 20.9257 33.8411 21.1428 33.7497 21.3599C33.7383 21.3828 33.7268 21.4057 33.7268 21.4285M33.7268 21.4285C33.7382 21.4057 33.7839 21.2914 33.7268 21.4285ZM33.7268 21.4285C33.7039 21.4857 33.6811 21.5428 33.6583 21.5885C33.6126 21.6914 33.5668 21.7942 33.5097 21.8971C33.3039 22.3085 33.0754 22.72 32.8125 23.1085C32.6868 23.3028 32.5382 23.4971 32.4011 23.68C32.4011 23.68 32.4582 23.5999 32.4354 23.6342C32.4239 23.6457 32.4125 23.6571 32.4011 23.6685C32.3782 23.6914 32.3668 23.7142 32.3439 23.7371C32.3097 23.7828 32.2639 23.8285 32.2297 23.8742C32.1611 23.9657 32.0811 24.0457 32.0011 24.1371C31.6925 24.4914 31.361 24.8228 31.0067 25.1199C30.9153 25.1999 30.8239 25.2799 30.7324 25.3485C30.6867 25.3828 30.641 25.4171 30.5953 25.4514M30.5953 25.4514C30.5153 25.5085 30.6524 25.4057 30.5953 25.4514ZM30.5953 25.4514C30.5724 25.4742 30.5496 25.4857 30.5153 25.5085C30.3324 25.6457 30.1381 25.7828 29.9324 25.9085C29.361 26.2857 28.7438 26.5828 28.138 26.8799C28.0695 26.9142 28.0009 26.9485 27.9438 26.9828H28.3895C27.9552 26.7657 27.5095 26.5485 27.0752 26.3199C26.6637 26.0914 26.2751 25.8514 25.8979 25.5771C25.8522 25.5428 25.818 25.5199 25.7723 25.4857C25.7608 25.4742 25.6808 25.4171 25.738 25.4628C25.7951 25.5085 25.7151 25.4399 25.6922 25.4285C25.6008 25.3599 25.5094 25.28 25.418 25.2114C25.2465 25.0628 25.0751 24.9142 24.9151 24.7657C24.5837 24.4457 24.2751 24.1142 23.9893 23.7599C23.9551 23.7142 23.9207 23.6799 23.8979 23.6342C23.8636 23.5885 23.955 23.7142 23.9208 23.6685C23.9093 23.6571 23.9093 23.6457 23.8979 23.6457C23.875 23.6228 23.8636 23.6 23.8407 23.5657C23.7722 23.4742 23.7036 23.3828 23.6465 23.2914C23.5208 23.1085 23.395 22.9142 23.2693 22.72C23.0293 22.3314 22.8236 21.9314 22.6407 21.52C22.6178 21.4742 22.595 21.4285 22.5835 21.3828M22.5835 21.3828C22.5493 21.3142 22.6178 21.4742 22.5835 21.3828Z" stroke="white" stroke-width="0.914285" stroke-linejoin="round"/>
<path d="M25.1204 19.0171C25.349 19.2456 25.589 19.4742 25.8176 19.7142C26.1833 20.0799 26.5605 20.4457 26.9262 20.8228C27.0062 20.9028 27.0976 20.9942 27.1776 21.0742C27.3491 21.2456 27.6234 21.2456 27.7948 21.0742C27.9319 20.9371 28.0691 20.7999 28.2062 20.6628C28.5377 20.3314 28.8577 19.9999 29.1892 19.6799C29.5892 19.2799 29.9777 18.8799 30.3778 18.4799C30.7206 18.1371 31.0635 17.7942 31.4064 17.4514C31.5778 17.2799 31.7378 17.1199 31.9092 16.9485C31.9092 16.9485 31.9092 16.9485 31.9207 16.9371C32.0807 16.7771 32.0921 16.4799 31.9207 16.3199C31.7492 16.1599 31.4749 16.1485 31.3035 16.3199C31.1664 16.4571 31.0292 16.5942 30.8921 16.7314C30.5606 17.0628 30.2406 17.3942 29.9092 17.7142C29.5091 18.1142 29.1206 18.5142 28.7206 18.9142C28.3777 19.2571 28.0348 19.5999 27.6919 19.9428C27.5319 20.1142 27.3605 20.2742 27.1891 20.4456C27.1891 20.4456 27.1891 20.4456 27.1776 20.4571H27.7948C27.5662 20.2285 27.3262 19.9999 27.0976 19.7599C26.7319 19.3942 26.3548 19.0285 25.989 18.6514C25.909 18.5714 25.8176 18.4799 25.7376 18.3999C25.5776 18.2399 25.2804 18.2285 25.1204 18.3999C24.9604 18.5714 24.949 18.8456 25.1204 19.0171Z" fill="white"/>
<path d="M25.1204 19.0171C25.349 19.2456 25.589 19.4742 25.8176 19.7142C26.1833 20.0799 26.5605 20.4457 26.9262 20.8228C27.0062 20.9028 27.0976 20.9942 27.1776 21.0742C27.3491 21.2456 27.6234 21.2456 27.7948 21.0742C27.9319 20.9371 28.0691 20.7999 28.2062 20.6628C28.5377 20.3314 28.8577 19.9999 29.1892 19.6799C29.5892 19.2799 29.9777 18.8799 30.3778 18.4799C30.7206 18.1371 31.0635 17.7942 31.4064 17.4514C31.5778 17.2799 31.7378 17.1199 31.9092 16.9485C31.9092 16.9485 31.9092 16.9485 31.9207 16.9371C32.0807 16.7771 32.0921 16.4799 31.9207 16.3199C31.7492 16.1599 31.4749 16.1485 31.3035 16.3199C31.1664 16.4571 31.0292 16.5942 30.8921 16.7314C30.5606 17.0628 30.2406 17.3942 29.9092 17.7142C29.5091 18.1142 29.1206 18.5142 28.7206 18.9142C28.3777 19.2571 28.0348 19.5999 27.6919 19.9428C27.5319 20.1142 27.3605 20.2742 27.1891 20.4456C27.1891 20.4456 27.1891 20.4456 27.1776 20.4571H27.7948C27.5662 20.2285 27.3262 19.9999 27.0976 19.7599C26.7319 19.3942 26.3548 19.0285 25.989 18.6514C25.909 18.5714 25.8176 18.4799 25.7376 18.3999C25.5776 18.2399 25.2804 18.2285 25.1204 18.3999C24.9604 18.5714 24.949 18.8456 25.1204 19.0171Z" stroke="white" stroke-width="0.914285" stroke-linejoin="round"/>
<path d="M37.8071 14.0684H38.7557C41.6015 14.0684 43.9102 16.377 43.9102 19.2227V30.7427C43.9102 33.5884 41.6015 35.897 38.7557 35.897H17.635C14.7891 35.897 12.4805 33.5884 12.4805 30.7427V19.2227C12.4805 16.377 14.7891 14.0684 17.635 14.0684H18.6636" stroke="white" stroke-width="1.94285" stroke-miterlimit="10"/>
<path d="M20.3203 42.7198H36.0694" stroke="white" stroke-width="1.94285" stroke-miterlimit="10" stroke-linecap="round"/>
<path d="M24.2852 42.4458V35.8858" stroke="white" stroke-width="1.94285" stroke-miterlimit="10" stroke-linecap="round"/>
<path d="M32.1289 42.5829V36.0229" stroke="white" stroke-width="1.94285" stroke-miterlimit="10" stroke-linecap="round"/>
<path d="M11.0978 0H0.0688637H0.034599H0.0117188V0.217145V11.0628C0.0117188 11.7486 0.560344 12.2971 1.24608 12.2971C1.93182 12.2971 2.48039 11.7486 2.48039 11.0628V2.46858H11.1093C11.795 2.46858 12.3436 1.92 12.3436 1.23429C12.3436 0.548576 11.7721 0 11.0978 0Z" fill="#FF0032"/>
<path d="M44.9177 55.9886H55.9467H55.9809H56.0038V55.7714V44.9257C56.0038 44.24 55.4552 43.6914 54.7694 43.6914C54.0837 43.6914 53.5351 44.24 53.5351 44.9257V53.52H44.9062C44.2205 53.52 43.6719 54.0686 43.6719 54.7543C43.6833 55.44 44.2319 55.9886 44.9177 55.9886Z" fill="#FF0032"/>
<path d="M11.0632 53.5314H2.46862V44.9028C2.46862 44.2171 1.92005 43.6685 1.23431 43.6685C0.548569 43.6685 0 44.2171 0 44.9028V55.8514V55.9771V55.9999H0.21714H0.297109H11.0632C11.749 55.9999 12.2975 55.4514 12.2975 54.7656C12.2975 54.0799 11.7375 53.5314 11.0632 53.5314Z" fill="#FF0032"/>
<path d="M55.7835 0H55.7721H44.9374C44.2517 0 43.7031 0.548576 43.7031 1.23429C43.7031 1.92 44.2517 2.46858 44.9374 2.46858H53.5321V11.0971C53.5321 11.7829 54.0806 12.3314 54.7664 12.3314C55.4521 12.3314 56.0007 11.7829 56.0007 11.0971V0.045717V0.0342912V0.0114397H55.7835V0Z" fill="#FF0032"/>
</svg>
