<?xml version="1.0" encoding="UTF-8"?>
<svg id="_Слой_2" data-name="Слой 2" xmlns="http://www.w3.org/2000/svg" viewBox="0 0 492.27 490.84">
  <defs>
    <style>
      .cls-1 {
        fill: #fff;
        stroke-width: 4px;
      }

      .cls-1, .cls-2 {
        stroke: #fff;
        stroke-miterlimit: 10;
      }

      .cls-2 {
        fill: none;
        stroke-width: 18.87px;
      }

      .cls-3 {
        fill: #e5243c;
        stroke-width: 0px;
      }
    </style>
  </defs>
  <g id="_Слой_2-2" data-name=" Слой 2">
    <g>
      <path class="cls-1" d="M390.39,403.22c-8.67-.1-17.35-.04-26.03-.05-1.5,0-3,0-4.5,0-.27-.42-.53-.83-.8-1.25,1.03-.74,2.18-1.36,3.08-2.22,6.63-6.36,13.31-12.67,19.77-19.2,9.84-9.95,12.82-21.66,8.52-35.12-1.71-5.34-3.38-10.69-4.84-16.1-5.63-20.78-11.15-41.58-16.75-62.37-3-11.13-9.79-19.47-19.31-25.7-13.86-9.06-29.35-13.63-45.6-15.29-26.18-2.67-52.45-3.3-78.74-1.65-15.41.97-30.73,2.42-45.47,7.6-21.08,7.41-36.69,19.82-40.78,43.2-.15.87-.47,1.72-.7,2.58-5.92,22.28-11.5,44.66-17.86,66.81-4.12,14.37-1.35,26.39,9.45,36.58,6.68,6.3,13.47,12.5,20.19,18.76.95.88,1.82,1.83,3.41,3.44-11.15,0-21.2-.04-31.24.02-4.01.02-6.41,2.12-6.54,5.43-.13,3.4,2.42,5.78,6.5,6.01,1.02.06,2.04.02,3.06.02,87.4,0,174.79,0,262.19,0,1.02,0,2.05.04,3.06-.03,3.87-.27,6.32-2.56,6.3-5.83-.02-3.32-2.41-5.6-6.37-5.65ZM345.92,304.93c-2.24,26.95-4.49,53.89-6.74,80.83-.34,4.07-.72,8.13-1,12.2-.35,5.21-.32,5.21-5.73,5.21-36.23,0-72.46,0-108.69,0-15.18,0-30.36-.03-45.54.03-2.33,0-3.71-.23-3.94-3.15-2.5-31.4-5.14-62.79-7.73-94.19-.1-1.24-.14-2.49-.22-3.98h179.6c0,1.1.07,2.07-.01,3.04ZM350.05,394.42c1-12.05,1.98-24.11,2.99-36.16,1.66-19.82,3.39-39.63,4.96-59.46.19-2.36.07-4.1-.43-5.39h-202.76c-.47,1.2-.6,2.78-.44,4.82,1.84,23,3.82,45.99,5.74,68.99.76,9.09,1.49,18.19,2.33,28.51-9.91-9.36-19.23-17.61-27.85-26.54-4.74-4.91-5.82-11.54-4.03-18.28,6.68-25.1,13.96-50.05,19.96-75.3,4.32-18.2,16.74-27.13,32.83-32.93,14.46-5.21,29.59-6.29,44.76-6.95,1.07-.05,2.75,1.17,3.21,2.21,2.87,6.53,5.5,13.16,8.11,19.79.44,1.13.7,2.5.53,3.68-.79,5.31-1.63,10.62-2.49,16h11.72c.73-4.56,1.42-9.1,1.93-13.65.38-3.38-.08-7.09-1.14-10.33-1.97-6.02-4.66-11.79-7.3-18.3h26.84c-.93,2.44-1.68,4.54-2.52,6.6-6.9,16.94-7.03,17.29-3.78,35.68h11.75c-.59-3.78-1.22-7.55-1.96-11.29-.91-4.6-.34-8.69,1.63-12.9,2.32-4.95,4.11-10.15,6.35-15.14.44-.99,1.91-2.23,2.84-2.18,16.44.87,32.89,1.96,48.16,8.95,4.83,2.21,9.45,5,13.83,8.02,6.44,4.43,10.29,10.77,12.31,18.33,6.03,22.64,12.13,45.26,18.25,67.87,1,3.68,2.33,7.27,3.42,10.93,2.3,7.7.97,14.91-4.49,20.67-7.87,8.31-16.29,16.09-24.47,24.1-.27-.11-.54-.22-.81-.33Z"/>
      <circle class="cls-2" cx="256.2" cy="149.82" r="53.28"/>
    </g>
    <g>
      <path class="cls-3" d="M92.17,0H10.22S0,0,0,0v93.2c0,5.64,4.57,10.22,10.22,10.22h0c5.64,0,10.22-4.57,10.22-10.22V20.43s71.73,0,71.73,0c5.64,0,10.22-4.57,10.22-10.22h0C102.38,4.57,97.81,0,92.17,0Z"/>
      <path class="cls-3" d="M492.27,92.42V10.47s0-10.22,0-10.22h-93.2c-5.64,0-10.22,4.57-10.22,10.22h0c0,5.64,4.57,10.22,10.22,10.22h72.76s0,71.73,0,71.73c0,5.64,4.57,10.22,10.22,10.22h0c5.64,0,10.22-4.57,10.22-10.22Z"/>
      <path class="cls-3" d="M400.1,490.84h81.95s10.22,0,10.22,0v-93.2c0-5.64-4.57-10.22-10.22-10.22h0c-5.64,0-10.22,4.57-10.22,10.22v72.76s-71.73,0-71.73,0c-5.64,0-10.22,4.57-10.22,10.22h0c0,5.64,4.57,10.22,10.22,10.22Z"/>
      <path class="cls-3" d="M0,398.41v81.95s0,10.22,0,10.22h93.2c5.64,0,10.22-4.57,10.22-10.22h0c0-5.64-4.57-10.22-10.22-10.22H20.43s0-71.73,0-71.73c0-5.64-4.57-10.22-10.22-10.22h0C4.57,388.2,0,392.77,0,398.41Z"/>
    </g>
  </g>
</svg>