<?xml version="1.0" encoding="UTF-8"?>
<svg id="_Слой_2" data-name="Слой 2" xmlns="http://www.w3.org/2000/svg" viewBox="0 0 492.27 490.84">
  <defs>
    <style>
      .cls-1 {
        fill: #e5213f;
        stroke-width: 0px;
      }

      .cls-2 {
        fill: #fff;
        stroke: #fff;
        stroke-width: 4px;
      }
    </style>
  </defs>
  <g id="_Слой_2-2" data-name=" Слой 2">
    <g>
      <path class="cls-2" d="M235.94,107.35c-7.37,5.53-14.66,11.24-22.25,16.47-8.1,5.58-16.57,10.6-25.35,15.03-2.15,1.09-4.33,2.14-6.52,3.15-1.06.49-2.12.97-3.18,1.44-.53.24-1.07.47-1.6.7-.43.19-2.79,1.13-.73.32-4.5,1.77-8.96,3.58-13.54,5.15-4.66,1.6-9.37,3.03-14.12,4.31-4.42,1.19-8.85,2.32-12.63,5.03-7.73,5.55-12.47,14.09-12.54,23.7-.06,7.65,0,15.31,0,22.96s0,15.66,0,23.5c.01,16.21,2.09,32.5,6.2,48.18,4.21,16.08,10.62,31.7,18.88,46.12,8.24,14.39,18.45,27.77,30.15,39.53,11.86,11.92,25.41,22.32,39.99,30.68,8.26,4.74,16.92,8.95,25.5,13.08,2.78,1.34,5.18,1.26,7.92-.08.61-.3,1.21-.61,1.82-.91,2.26-1.13,4.52-2.26,6.78-3.39,4.11-2.05,8.25-4.06,12.29-6.23,14.86-7.98,28.68-18.06,40.9-29.68,12.02-11.44,22.56-24.58,31.19-38.76,8.64-14.19,15.41-29.63,20.06-45.57,4.73-16.24,7.25-33.23,7.5-50.14.12-7.63.02-15.28.02-22.91,0-8.63,0-17.25,0-25.88,0-7.59-2.73-14.79-7.94-20.34-3.36-3.57-7.75-6.17-12.41-7.63-4.37-1.36-8.86-2.35-13.24-3.72-4.69-1.47-9.34-3.09-13.92-4.87-1.09-.42-2.17-.85-3.25-1.29-.54-.22-1.08-.44-1.62-.67-.39-.16-1.29-.6.42.18-.3-.14-.61-.26-.92-.39-2.29-.99-4.57-2.01-6.83-3.08-8.81-4.16-17.34-8.91-25.51-14.21-9.21-5.97-17.87-12.77-26.64-19.35-7.12-5.34-17.57-5.74-24.87-.45-1.63,1.18-2.91,2.49-3.46,4.5-.5,1.8-.27,4.2.76,5.8,2.03,3.15,6.89,5.17,10.3,2.7.85-.62,1.8-1.02,2.67-1.57-.14.09-1.74.61-.58.28.21-.06.41-.13.62-.19.28-.08.56-.15.84-.21.65-.14,1.42.02-.52.02.72,0,2.39-.44,3,0,.11.08-1.77-.34-.94-.11.21.06.42.08.63.13.28.07.56.14.83.22.29.09,1.48.59.33.06-1.15-.53.38.21.68.38.45.26.89.54,1.31.85.13.1.26.19.39.29.53.39,1.06.79,1.59,1.19,3.92,2.94,7.84,5.88,11.76,8.82,13.55,10.16,28.02,18.92,43.51,25.82,9.35,4.16,18.93,7.79,28.75,10.68,2.32.68,4.66,1.33,7,1.94.89.23,1.8.44,2.68.7.45.14.89.3,1.34.45.5.18,1.09.62-.69-.3.23.12.48.22.72.34.83.4,1.63.86,2.4,1.37.54.36,1.74,1.53.05-.02.38.35.8.67,1.18,1.02.66.62,1.27,1.29,1.86,1.98.81.94-1.1-1.54-.12-.13.3.43.58.86.84,1.31.23.39.45.79.66,1.19.16.31.8,1.75.27.52-.52-1.23.06.23.17.57.17.5.31,1,.44,1.51.11.45.21.9.29,1.36.32,1.75-.11-1.51-.02-.22.05.68.09,1.36.1,2.05,0,.72,0,1.45,0,2.17v41.63c0,4.1-.04,8.2-.25,12.3-.21,4.07-.56,8.13-1.05,12.18-.06.49-.12.97-.18,1.46-.04.28-.06.56-.11.83-.02.12.25-1.8.13-.96-.15,1.04-.3,2.07-.46,3.11-.32,2.06-.68,4.12-1.08,6.17-1.53,7.95-3.58,15.79-6.15,23.46-1.29,3.85-2.71,7.65-4.25,11.4-.16.38-.32.76-.47,1.14.93-2.27.16-.39-.05.1-.41.94-.82,1.89-1.25,2.82-.82,1.81-1.67,3.61-2.55,5.39-3.54,7.19-7.56,14.14-12.01,20.8-2.25,3.36-4.64,6.61-7.07,9.84-.06.08,1.05-1.35.55-.71-.17.22-.34.43-.51.65-.3.38-.59.75-.89,1.13-.64.8-1.29,1.6-1.95,2.39-1.27,1.53-2.56,3.05-3.88,4.54-5.34,6.04-11.08,11.72-17.17,17-1.57,1.36-3.16,2.69-4.78,4-.76.61-1.52,1.22-2.28,1.81-1.3,1.02,1.04-.79.04-.03-.44.34-.89.67-1.33,1.01-3.24,2.43-6.56,4.75-9.95,6.96-9.88,6.44-20.45,11.54-30.97,16.8-1.14.57-2.28,1.14-3.42,1.71h7.6c-7.55-3.78-15.22-7.4-22.62-11.46-7.01-3.85-13.76-8.16-20.21-12.89-.73-.54-1.45-1.08-2.17-1.62-.21-.16-1.62-1.24-.56-.43,1.01.78-.42-.33-.72-.57-1.58-1.25-3.14-2.52-4.67-3.81-2.96-2.5-5.83-5.09-8.62-7.77-5.65-5.43-10.95-11.22-15.85-17.33-.56-.7-1.11-1.4-1.66-2.1-.58-.74.99,1.29.42.55-.12-.16-.25-.33-.37-.49-.33-.44-.66-.87-.99-1.31-1.15-1.54-2.27-3.09-3.37-4.66-2.24-3.2-4.37-6.46-6.4-9.8-4.06-6.67-7.69-13.6-10.86-20.74-.36-.82-.72-1.63-1.07-2.45-.5-1.15.68,1.63.04.09-.21-.51-.42-1.02-.62-1.52-.75-1.85-1.46-3.71-2.15-5.58-1.33-3.62-2.54-7.28-3.64-10.98-2.25-7.58-4-15.3-5.23-23.11-.14-.9-.28-1.79-.41-2.69-.04-.28-.08-.55-.12-.83-.12-.84.14,1.08.13.96-.08-.55-.14-1.11-.21-1.66-.24-1.95-.45-3.9-.63-5.85-.36-4-.59-8.02-.69-12.04-.18-7.45-.05-14.91-.05-22.36v-27.03c0-.68,0-1.37,0-2.05,0-.47.03-.95.08-1.42.14-1.64-.29,1.5-.04.21.18-.91.37-1.81.65-2.69.14-.44.3-.86.45-1.3.31-.88-.71,1.55-.31.72.09-.18.16-.35.25-.53.42-.87.91-1.72,1.45-2.53.11-.16.22-.32.33-.48.69-1.03-.45.63-.48.59-.04-.05.68-.81.75-.89.65-.73,1.34-1.41,2.08-2.04,1.3-1.11-1.17.78-.14.09.38-.25.75-.52,1.14-.76.33-.2,2.24-1.56,2.62-1.39.08.04-1.61.62-.87.38.19-.06.38-.14.57-.21.45-.16.9-.3,1.35-.43,1-.28,2.02-.52,3.02-.78,2.26-.59,4.51-1.22,6.76-1.89,18.63-5.54,36.65-13.51,53.23-23.66,10.21-6.24,19.66-13.53,29.21-20.7.96-.72,1.93-1.45,2.89-2.17,1.63-1.22,2.9-2.46,3.46-4.5.5-1.8.27-4.2-.76-5.8-2-3.11-6.93-5.23-10.3-2.7Z"/>
      <path class="cls-2" d="M195.26,255.33c4.01,3.98,8.02,7.95,12.03,11.93,6.4,6.34,12.79,12.68,19.19,19.03,1.47,1.46,2.94,2.92,4.42,4.38,2.88,2.85,7.77,2.9,10.65,0,2.34-2.36,4.68-4.72,7.01-7.07,5.62-5.66,11.23-11.33,16.85-16.99,6.83-6.89,13.65-13.77,20.48-20.66,5.88-5.93,11.75-11.85,17.63-17.78,2.86-2.88,5.78-5.71,8.57-8.65.04-.04.08-.08.12-.12,2.78-2.8,3-7.89,0-10.65-2.99-2.75-7.68-2.99-10.65,0-2.34,2.36-4.68,4.72-7.01,7.07-5.62,5.66-11.23,11.33-16.85,16.99-6.83,6.89-13.65,13.77-20.48,20.66-5.88,5.93-11.75,11.85-17.63,17.78-2.85,2.88-5.8,5.69-8.57,8.65-.04.04-.08.08-.12.12h10.65c-4.01-3.98-8.02-7.95-12.03-11.93-6.4-6.34-12.79-12.68-19.19-19.03-1.47-1.46-2.94-2.92-4.42-4.38-2.8-2.78-7.89-3-10.65,0-2.75,2.99-2.99,7.68,0,10.65h0Z"/>
    </g>
    <path class="cls-1" d="M92.17,0H10.22S0,0,0,0v93.2c0,5.64,4.57,10.22,10.22,10.22h0c5.64,0,10.22-4.57,10.22-10.22V20.43s71.73,0,71.73,0c5.64,0,10.22-4.57,10.22-10.22h0C102.38,4.57,97.81,0,92.17,0Z"/>
    <path class="cls-1" d="M492.27,92.42V10.47s0-10.22,0-10.22h-93.2c-5.64,0-10.22,4.57-10.22,10.22h0c0,5.64,4.57,10.22,10.22,10.22h72.76s0,71.73,0,71.73c0,5.64,4.57,10.22,10.22,10.22h0c5.64,0,10.22-4.57,10.22-10.22Z"/>
    <path class="cls-1" d="M400.1,490.84h81.95s10.22,0,10.22,0v-93.2c0-5.64-4.57-10.22-10.22-10.22h0c-5.64,0-10.22,4.57-10.22,10.22v72.76s-71.73,0-71.73,0c-5.64,0-10.22,4.57-10.22,10.22h0c0,5.64,4.57,10.22,10.22,10.22Z"/>
    <path class="cls-1" d="M0,398.41v81.95s0,10.22,0,10.22h93.2c5.64,0,10.22-4.57,10.22-10.22h0c0-5.64-4.57-10.22-10.22-10.22H20.43s0-71.73,0-71.73c0-5.64-4.57-10.22-10.22-10.22h0C4.57,388.2,0,392.77,0,398.41Z"/>
  </g>
</svg>