<?xml version="1.0" encoding="UTF-8"?>
<svg id="_Слой_2" data-name="Слой 2" xmlns="http://www.w3.org/2000/svg" viewBox="0 0 492.27 490.84">
  <defs>
    <style>
      .cls-1 {
        fill: none;
        stroke: #fff;
        stroke-linecap: round;
        stroke-linejoin: round;
        stroke-width: 17px;
      }

      .cls-2 {
        fill: #e5243c;
        stroke-width: 0px;
      }
    </style>
  </defs>
  <g id="_Слой_2-2" data-name=" Слой 2">
    <path class="cls-1" d="M262.63,289.71c-5.72-8.11-9.9-20.33,5.48-30.11h0c.33-.19.68-.34,1.04-.46,75.53-24.84,70.12-121.12,67.62-144.64-.32-2.96-2.82-5.2-5.8-5.2h-175.31c-3.02,0-5.53,2.31-5.81,5.32-14.92,162.36,103.84,126.3,71.31,174.82"/>
    <rect class="cls-1" x="191.32" y="289.71" width="105.48" height="36.99" rx="6.64" ry="6.64"/>
    <path class="cls-1" d="M344.65,383.15h-201.82v-45.12c0-6.24,5.1-11.34,11.34-11.34h179.14c6.24,0,11.34,5.1,11.34,11.34v45.12Z"/>
    <path class="cls-1" d="M341.24,138.06c47.37-29.29,56.45,74.08-31.03,93.44"/>
    <path class="cls-1" d="M145.95,140.01c-47.37-29.29-56.45,74.08,31.03,93.44"/>
    <g>
      <path class="cls-2" d="M92.17,0H10.22S0,0,0,0v93.2c0,5.64,4.57,10.22,10.22,10.22h0c5.64,0,10.22-4.57,10.22-10.22V20.43s71.73,0,71.73,0c5.64,0,10.22-4.57,10.22-10.22h0C102.38,4.57,97.81,0,92.17,0Z"/>
      <path class="cls-2" d="M492.27,92.42V10.47s0-10.22,0-10.22h-93.2c-5.64,0-10.22,4.57-10.22,10.22h0c0,5.64,4.57,10.22,10.22,10.22h72.76s0,71.73,0,71.73c0,5.64,4.57,10.22,10.22,10.22h0c5.64,0,10.22-4.57,10.22-10.22Z"/>
      <path class="cls-2" d="M400.1,490.84h81.95s10.22,0,10.22,0v-93.2c0-5.64-4.57-10.22-10.22-10.22h0c-5.64,0-10.22,4.57-10.22,10.22v72.76s-71.73,0-71.73,0c-5.64,0-10.22,4.57-10.22,10.22h0c0,5.64,4.57,10.22,10.22,10.22Z"/>
      <path class="cls-2" d="M0,398.41v81.95s0,10.22,0,10.22h93.2c5.64,0,10.22-4.57,10.22-10.22h0c0-5.64-4.57-10.22-10.22-10.22H20.43s0-71.73,0-71.73c0-5.64-4.57-10.22-10.22-10.22h0C4.57,388.2,0,392.77,0,398.41Z"/>
    </g>
  </g>
</svg>