<svg width="1332" height="522" viewBox="0 0 1332 522" fill="none" xmlns="http://www.w3.org/2000/svg">
<rect x="0.5" y="0.5" width="583" height="251" rx="31.5" stroke="#8D8B8B"/>
<rect x="24" y="24" width="256" height="90" rx="8" fill="white" fill-opacity="0.1"/>
<path d="M117.413 62L113.073 50.54V62H110.513V48.2H114.873L119.093 59.5L123.353 48.2H127.573V62H124.793V50.48L120.433 62H117.413ZM139.393 57.56V56.34C139.393 54.28 138.213 53.54 135.933 53.54C133.633 53.54 132.453 54.28 132.453 56.34V57.58C132.453 59.64 133.633 60.4 135.933 60.4C138.213 60.4 139.393 59.64 139.393 57.56ZM129.773 56.98C129.773 53.04 131.933 51.7 135.933 51.7C139.933 51.7 142.073 53.04 142.073 56.98C142.073 60.96 139.933 62.24 135.933 62.24C131.933 62.24 129.773 60.96 129.773 56.98ZM142.903 64.8V60.06H144.123C144.743 59.04 145.043 57.48 145.043 55.28V51.96H155.203V60.04H156.843V64.8H154.383V62H145.363V64.8H142.903ZM152.543 53.92H147.463V55.28C147.463 57.48 147.163 59.06 146.663 60.04H152.543V53.92ZM156.944 51.96H159.724L163.444 59.48L167.044 51.96H169.484L164.044 63.14C163.024 65.28 162.124 66 160.004 66H158.404V64.06H159.724C160.924 64.06 161.384 63.82 161.904 62.68L162.144 62.18L156.944 51.96ZM169.352 62V59.78H169.632C170.952 59.78 171.372 59.18 171.372 56.32V51.96H181.112V62H178.452V53.92H173.812V56.38C173.812 60.8 172.892 62 169.912 62H169.352ZM183.868 62V51.96H186.528V55.16H190.988C193.468 55.16 194.728 56.34 194.728 58.52C194.728 60.76 193.468 62 190.988 62H183.868ZM192.048 58.74V58.28C192.048 57.44 191.548 56.96 190.408 56.96H186.528V60.2H190.408C191.548 60.2 192.048 59.66 192.048 58.74ZM57.6833 84.24C57.6833 82.34 58.8633 81.28 62.0433 81.14L66.3833 80.98V80.66C66.3833 79.06 65.4633 78.46 63.5633 78.46C61.8833 78.46 60.9633 78.86 60.7033 79.94H58.0433C58.3633 77.8 60.1233 76.7 63.5433 76.7C67.2233 76.7 69.0233 77.92 69.0233 80.66V87H66.4833V85.28C65.7233 86.52 64.1433 87.24 61.8433 87.24C58.9033 87.24 57.6833 86.1 57.6833 84.24ZM62.6433 85.5C64.7433 85.5 66.3833 84.76 66.3833 82.84V82.44L62.6233 82.58C61.0633 82.66 60.3633 83 60.3633 83.96V84.14C60.3633 85.06 61.0433 85.5 62.6433 85.5ZM70.0492 76.96H72.8292L76.5492 84.48L80.1492 76.96H82.5892L77.1492 88.14C76.1292 90.28 75.2292 91 73.1092 91H71.5092V89.06H72.8292C74.0292 89.06 74.4892 88.82 75.0092 87.68L75.2492 87.18L70.0492 76.96ZM87.1636 78.92H83.0036V76.96H93.9636V78.92H89.8236V87H87.1636V78.92ZM94.7141 81.98C94.7141 78.24 96.7941 76.7 100.534 76.7C104.254 76.7 106.374 78.1 106.374 81.66V82.22H97.3341V82.62C97.3341 84.62 98.4341 85.48 100.534 85.48C102.334 85.48 103.334 85 103.674 83.92H106.294C105.734 86.22 103.754 87.24 100.534 87.24C96.7941 87.24 94.7141 85.78 94.7141 81.98ZM100.534 78.44C98.6541 78.44 97.4341 79.1 97.3341 80.8H103.754C103.674 79.1 102.634 78.44 100.534 78.44ZM108.517 76.96H111.177V80.92H116.977V76.96H119.637V87H116.977V82.88H111.177V87H108.517V76.96ZM125.503 78.92H121.343V76.96H132.303V78.92H128.163V87H125.503V78.92ZM134.025 76.96H136.665V84.24L142.425 76.96H145.345V87H142.705V79.72L136.965 87H134.025V76.96ZM154.347 87.24C149.927 87.26 147.507 85.82 147.507 81.98C147.507 78.2 149.927 76.7 154.347 76.7V72.4H157.007V76.7C161.427 76.7 163.847 78.2 163.847 81.98C163.847 85.82 161.427 87.24 157.007 87.24V91H154.347V87.24ZM154.347 78.56C151.627 78.56 150.187 79.24 150.187 81.38V82.52C150.187 84.56 151.587 85.4 154.347 85.4V78.56ZM161.167 82.52V81.36C161.167 79.24 159.747 78.56 157.007 78.56V85.4C159.747 85.4 161.167 84.56 161.167 82.52ZM165.997 76.96H168.637V84.24L174.397 76.96H177.317V87H174.677V79.72L168.937 87H165.997V76.96ZM188.139 76.96H191.139L186.519 81.74L191.659 87H188.339L184.339 82.9H182.739V87H180.079V76.96H182.739V80.94H184.279L188.139 76.96ZM192.058 84.24C192.058 82.34 193.238 81.28 196.418 81.14L200.758 80.98V80.66C200.758 79.06 199.838 78.46 197.938 78.46C196.258 78.46 195.338 78.86 195.078 79.94H192.418C192.738 77.8 194.498 76.7 197.918 76.7C201.598 76.7 203.398 77.92 203.398 80.66V87H200.858V85.28C200.098 86.52 198.518 87.24 196.218 87.24C193.278 87.24 192.058 86.1 192.058 84.24ZM197.018 85.5C199.118 85.5 200.758 84.76 200.758 82.84V82.44L196.998 82.58C195.438 82.66 194.738 83 194.738 83.96V84.14C194.738 85.06 195.418 85.5 197.018 85.5ZM216.116 89.8V87H206.036V76.96H208.696V85.04H214.276V76.96H216.936V85.04H218.576V89.8H216.116ZM220.353 76.96H222.993V84.24L228.753 76.96H231.673V87H229.033V79.72L223.293 87H220.353V76.96ZM234.435 76.96H237.075V84.24L242.835 76.96H245.755V87H243.115V79.72L237.375 87H234.435V76.96Z" fill="white"/>
<rect x="304" y="24" width="256" height="90" rx="8" fill="white" fill-opacity="0.1"/>
<path d="M397.413 62L393.073 50.54V62H390.513V48.2H394.873L399.093 59.5L403.353 48.2H407.573V62H404.793V50.48L400.433 62H397.413ZM419.393 57.56V56.34C419.393 54.28 418.213 53.54 415.933 53.54C413.633 53.54 412.453 54.28 412.453 56.34V57.58C412.453 59.64 413.633 60.4 415.933 60.4C418.213 60.4 419.393 59.64 419.393 57.56ZM409.773 56.98C409.773 53.04 411.933 51.7 415.933 51.7C419.933 51.7 422.073 53.04 422.073 56.98C422.073 60.96 419.933 62.24 415.933 62.24C411.933 62.24 409.773 60.96 409.773 56.98ZM422.903 64.8V60.06H424.123C424.743 59.04 425.043 57.48 425.043 55.28V51.96H435.203V60.04H436.843V64.8H434.383V62H425.363V64.8H422.903ZM432.543 53.92H427.463V55.28C427.463 57.48 427.163 59.06 426.663 60.04H432.543V53.92ZM436.944 51.96H439.724L443.444 59.48L447.044 51.96H449.484L444.044 63.14C443.024 65.28 442.124 66 440.004 66H438.404V64.06H439.724C440.924 64.06 441.384 63.82 441.904 62.68L442.144 62.18L436.944 51.96ZM449.352 62V59.78H449.632C450.952 59.78 451.372 59.18 451.372 56.32V51.96H461.112V62H458.452V53.92H453.812V56.38C453.812 60.8 452.892 62 449.912 62H449.352ZM463.868 62V51.96H466.528V55.16H470.988C473.468 55.16 474.728 56.34 474.728 58.52C474.728 60.76 473.468 62 470.988 62H463.868ZM472.048 58.74V58.28C472.048 57.44 471.548 56.96 470.408 56.96H466.528V60.2H470.408C471.548 60.2 472.048 59.66 472.048 58.74ZM372.283 84.24C372.283 82.34 373.463 81.28 376.643 81.14L380.983 80.98V80.66C380.983 79.06 380.063 78.46 378.163 78.46C376.483 78.46 375.563 78.86 375.303 79.94H372.643C372.963 77.8 374.723 76.7 378.143 76.7C381.823 76.7 383.623 77.92 383.623 80.66V87H381.083V85.28C380.323 86.52 378.743 87.24 376.443 87.24C373.503 87.24 372.283 86.1 372.283 84.24ZM377.243 85.5C379.343 85.5 380.983 84.76 380.983 82.84V82.44L377.223 82.58C375.663 82.66 374.963 83 374.963 83.96V84.14C374.963 85.06 375.643 85.5 377.243 85.5ZM394.321 76.96H397.321L392.701 81.74L397.841 87H394.521L390.521 82.9H388.921V87H386.261V76.96H388.921V80.94H390.461L394.321 76.96ZM402.173 78.92H398.013V76.96H408.973V78.92H404.833V87H402.173V78.92ZM410.694 76.96H413.334V84.24L419.094 76.96H422.014V87H419.374V79.72L413.634 87H410.694V76.96ZM424.776 76.96H431.816C434.436 76.96 435.436 77.92 435.436 79.42C435.436 80.46 434.936 81.36 433.456 81.7C435.236 82.02 435.836 83.02 435.836 84.16C435.836 86.08 434.736 87 432.236 87H424.776V76.96ZM433.136 84.12V83.74C433.136 82.96 432.636 82.56 431.516 82.56H427.396V85.34H431.516C432.636 85.34 433.136 84.96 433.136 84.12ZM432.796 79.96V79.66C432.796 79 432.456 78.6 431.396 78.6H427.396V81.1H431.396C432.476 81.1 432.796 80.62 432.796 79.96ZM437.459 84.24C437.459 82.34 438.639 81.28 441.819 81.14L446.159 80.98V80.66C446.159 79.06 445.239 78.46 443.339 78.46C441.659 78.46 440.739 78.86 440.479 79.94H437.819C438.139 77.8 439.899 76.7 443.319 76.7C446.999 76.7 448.799 77.92 448.799 80.66V87H446.259V85.28C445.499 86.52 443.919 87.24 441.619 87.24C438.679 87.24 437.459 86.1 437.459 84.24ZM442.419 85.5C444.519 85.5 446.159 84.76 446.159 82.84V82.44L442.399 82.58C440.839 82.66 440.139 83 440.139 83.96V84.14C440.139 85.06 440.819 85.5 442.419 85.5ZM461.517 89.8V87H451.437V76.96H454.097V85.04H459.677V76.96H462.337V85.04H463.977V89.8H461.517ZM465.753 76.96H468.393V84.24L474.153 76.96H477.073V87H474.433V79.72L468.693 87H465.753V76.96ZM479.835 76.96H482.475V84.24L488.235 76.96H491.155V87H488.515V79.72L482.775 87H479.835V76.96Z" fill="white"/>
<rect x="24" y="138" width="256" height="90" rx="8" fill="white" fill-opacity="0.1"/>
<path d="M69.5323 176L65.1923 164.54V176H62.6323V162.2H66.9923L71.2123 173.5L75.4723 162.2H79.6923V176H76.9123V164.48L72.5523 176H69.5323ZM91.5118 171.56V170.34C91.5118 168.28 90.3318 167.54 88.0518 167.54C85.7518 167.54 84.5718 168.28 84.5718 170.34V171.58C84.5718 173.64 85.7518 174.4 88.0518 174.4C90.3318 174.4 91.5118 173.64 91.5118 171.56ZM81.8918 170.98C81.8918 167.04 84.0518 165.7 88.0518 165.7C92.0518 165.7 94.1918 167.04 94.1918 170.98C94.1918 174.96 92.0518 176.24 88.0518 176.24C84.0518 176.24 81.8918 174.96 81.8918 170.98ZM95.0223 178.8V174.06H96.2423C96.8623 173.04 97.1623 171.48 97.1623 169.28V165.96H107.322V174.04H108.962V178.8H106.502V176H97.4823V178.8H95.0223ZM104.662 167.92H99.5823V169.28C99.5823 171.48 99.2823 173.06 98.7823 174.04H104.662V167.92ZM109.063 165.96H111.843L115.563 173.48L119.163 165.96H121.603L116.163 177.14C115.143 179.28 114.243 180 112.123 180H110.523V178.06H111.843C113.043 178.06 113.503 177.82 114.023 176.68L114.263 176.18L109.063 165.96ZM121.471 176V173.78H121.751C123.071 173.78 123.491 173.18 123.491 170.32V165.96H133.231V176H130.571V167.92H125.931V170.38C125.931 174.8 125.011 176 122.031 176H121.471ZM135.987 176V165.96H138.647V169.16H143.107C145.587 169.16 146.847 170.34 146.847 172.52C146.847 174.76 145.587 176 143.107 176H135.987ZM144.167 172.74V172.28C144.167 171.44 143.667 170.96 142.527 170.96H138.647V174.2H142.527C143.667 174.2 144.167 173.66 144.167 172.74ZM152.693 170.98C152.693 167.2 154.573 165.7 158.573 165.7C161.873 165.7 163.833 166.68 164.153 169.06H161.493C161.173 168 160.373 167.54 158.573 167.54C156.373 167.54 155.373 168.3 155.373 170.28V171.64C155.373 173.72 156.493 174.4 158.573 174.4C160.453 174.4 161.213 173.86 161.533 172.9H164.193C163.833 175.12 162.013 176.24 158.573 176.24C154.693 176.24 152.693 174.96 152.693 170.98ZM166.222 165.96H168.862V173.24L174.622 165.96H177.542V176H174.902V168.72L169.162 176H166.222V165.96ZM180.304 165.96H182.964V169.92H188.764V165.96H191.424V176H188.764V171.88H182.964V176H180.304V165.96ZM202.231 176L198.971 172.36L195.691 176H192.931L197.511 170.94L193.011 165.96H196.071L199.191 169.38L202.331 165.96H205.091L200.651 170.82L205.291 176H202.231ZM206.769 165.96H209.349V167.66C210.169 166.3 211.649 165.7 213.749 165.7C217.109 165.7 219.049 167.2 219.049 170.98C219.049 174.74 217.129 176.24 213.749 176.24C211.709 176.24 210.269 175.7 209.429 174.46V180H206.769V165.96ZM216.369 171.6V170.32C216.369 168.26 215.149 167.54 212.889 167.54C210.649 167.54 209.489 168.24 209.429 170.18V171.6C209.429 173.62 210.629 174.4 212.889 174.4C215.149 174.4 216.369 173.7 216.369 171.6ZM230.262 171.56V170.34C230.262 168.28 229.082 167.54 226.802 167.54C224.502 167.54 223.322 168.28 223.322 170.34V171.58C223.322 173.64 224.502 174.4 226.802 174.4C229.082 174.4 230.262 173.64 230.262 171.56ZM220.642 170.98C220.642 167.04 222.802 165.7 226.802 165.7C230.802 165.7 232.942 167.04 232.942 170.98C232.942 174.96 230.802 176.24 226.802 176.24C222.802 176.24 220.642 174.96 220.642 170.98ZM234.828 169.64H241.868V171.98H234.828V169.64ZM71.8859 190.96H74.5459V194.92H80.3459V190.96H83.0059V201H80.3459V196.88H74.5459V201H71.8859V190.96ZM85.7726 190.96H88.4126V198.24L94.1726 190.96H97.0926V201H94.4526V193.72L88.7126 201H85.7726V190.96ZM99.0546 197.98H101.735C101.875 199.1 102.975 199.54 104.835 199.54C106.855 199.54 107.715 199.16 107.715 198.16V197.88C107.715 197.02 106.995 196.6 105.435 196.6H103.175V194.98H105.355C106.875 194.98 107.475 194.62 107.475 193.82V193.56C107.475 192.74 106.735 192.42 104.855 192.42C102.955 192.42 102.035 192.84 101.855 193.82H99.1746C99.3946 191.56 101.615 190.7 104.835 190.7C108.235 190.7 110.135 191.54 110.135 193.48C110.135 194.48 109.655 195.3 108.055 195.66C109.615 196 110.395 196.88 110.395 198.1C110.395 200.26 108.595 201.24 104.835 201.24C101.315 201.24 99.2746 200.32 99.0546 197.98ZM112.009 198.24C112.009 196.34 113.189 195.28 116.369 195.14L120.709 194.98V194.66C120.709 193.06 119.789 192.46 117.889 192.46C116.209 192.46 115.289 192.86 115.029 193.94H112.369C112.689 191.8 114.449 190.7 117.869 190.7C121.549 190.7 123.349 191.92 123.349 194.66V201H120.809V199.28C120.049 200.52 118.469 201.24 116.169 201.24C113.229 201.24 112.009 200.1 112.009 198.24ZM116.969 199.5C119.069 199.5 120.709 198.76 120.709 196.84V196.44L116.949 196.58C115.389 196.66 114.689 197 114.689 197.96V198.14C114.689 199.06 115.369 199.5 116.969 199.5ZM136.067 203.8V201H125.987V190.96H128.647V199.04H134.227V190.96H136.887V199.04H138.527V203.8H136.067ZM140.304 190.96H142.944V198.24L148.704 190.96H151.624V201H148.984V193.72L143.244 201H140.304V190.96ZM154.386 190.96H157.026V198.24L162.786 190.96H165.706V201H163.066V193.72L157.326 201H154.386V190.96ZM173.374 187.2H176.174V198.72H184.614V201H173.374V187.2ZM194.079 198.72C196.899 198.72 198.439 197.58 198.439 194.66V193.44C198.439 190.6 196.899 189.48 194.079 189.48H189.319V198.72H194.079ZM186.519 187.2H194.239C198.839 187.2 201.279 189.08 201.279 194.1C201.279 199.04 198.839 201 194.239 201H186.519V187.2ZM207.936 187.2H211.776L217.856 201H214.936L213.396 197.46H206.016L204.476 201H201.836L207.936 187.2ZM209.696 189.02L206.916 195.4H212.496L209.696 189.02ZM219.507 187.2H228.207C231.427 187.2 232.887 188.86 232.887 191.66C232.887 194.5 231.427 196.16 228.207 196.16H222.307V201H219.507V187.2ZM230.067 191.98V191.4C230.067 190.22 229.407 189.38 227.827 189.38H222.307V193.98H227.827C229.407 193.98 230.067 193.18 230.067 191.98Z" fill="white"/>
<rect x="304" y="138" width="256" height="90" rx="8" fill="white" fill-opacity="0.1"/>
<path d="M397.413 176L393.073 164.54V176H390.513V162.2H394.873L399.093 173.5L403.353 162.2H407.573V176H404.793V164.48L400.433 176H397.413ZM419.393 171.56V170.34C419.393 168.28 418.213 167.54 415.933 167.54C413.633 167.54 412.453 168.28 412.453 170.34V171.58C412.453 173.64 413.633 174.4 415.933 174.4C418.213 174.4 419.393 173.64 419.393 171.56ZM409.773 170.98C409.773 167.04 411.933 165.7 415.933 165.7C419.933 165.7 422.073 167.04 422.073 170.98C422.073 174.96 419.933 176.24 415.933 176.24C411.933 176.24 409.773 174.96 409.773 170.98ZM422.903 178.8V174.06H424.123C424.743 173.04 425.043 171.48 425.043 169.28V165.96H435.203V174.04H436.843V178.8H434.383V176H425.363V178.8H422.903ZM432.543 167.92H427.463V169.28C427.463 171.48 427.163 173.06 426.663 174.04H432.543V167.92ZM436.944 165.96H439.724L443.444 173.48L447.044 165.96H449.484L444.044 177.14C443.024 179.28 442.124 180 440.004 180H438.404V178.06H439.724C440.924 178.06 441.384 177.82 441.904 176.68L442.144 176.18L436.944 165.96ZM449.352 176V173.78H449.632C450.952 173.78 451.372 173.18 451.372 170.32V165.96H461.112V176H458.452V167.92H453.812V170.38C453.812 174.8 452.892 176 449.912 176H449.352ZM463.868 176V165.96H466.528V169.16H470.988C473.468 169.16 474.728 170.34 474.728 172.52C474.728 174.76 473.468 176 470.988 176H463.868ZM472.048 172.74V172.28C472.048 171.44 471.548 170.96 470.408 170.96H466.528V174.2H470.408C471.548 174.2 472.048 173.66 472.048 172.74ZM377.918 196.56V195.34C377.918 193.28 376.738 192.54 374.458 192.54C372.158 192.54 370.978 193.28 370.978 195.34V196.58C370.978 198.64 372.158 199.4 374.458 199.4C376.738 199.4 377.918 198.64 377.918 196.56ZM368.298 195.98C368.298 192.04 370.458 190.7 374.458 190.7C378.458 190.7 380.598 192.04 380.598 195.98C380.598 199.96 378.458 201.24 374.458 201.24C370.458 201.24 368.298 199.96 368.298 195.98ZM385.513 192.92H381.353V190.96H392.313V192.92H388.173V201H385.513V192.92ZM401.634 197.14C400.774 197.28 399.634 197.34 398.574 197.34C394.874 197.34 393.434 196.2 393.434 193.26V190.96H396.094V193.14C396.094 194.92 396.934 195.38 399.134 195.38C400.074 195.38 400.934 195.32 401.634 195.2V190.96H404.294V201H401.634V197.14ZM406.482 195.98C406.482 192.24 408.562 190.7 412.302 190.7C416.022 190.7 418.142 192.1 418.142 195.66V196.22H409.102V196.62C409.102 198.62 410.202 199.48 412.302 199.48C414.102 199.48 415.102 199 415.442 197.92H418.062C417.502 200.22 415.522 201.24 412.302 201.24C408.562 201.24 406.482 199.78 406.482 195.98ZM412.302 192.44C410.422 192.44 409.202 193.1 409.102 194.8H415.522C415.442 193.1 414.402 192.44 412.302 192.44ZM423.072 192.92H418.912V190.96H429.872V192.92H425.732V201H423.072V192.92ZM431.593 190.96H434.253V194.92H440.053V190.96H442.713V201H440.053V196.88H434.253V201H431.593V190.96ZM454.52 196.56V195.34C454.52 193.28 453.34 192.54 451.06 192.54C448.76 192.54 447.58 193.28 447.58 195.34V196.58C447.58 198.64 448.76 199.4 451.06 199.4C453.34 199.4 454.52 198.64 454.52 196.56ZM444.9 195.98C444.9 192.04 447.06 190.7 451.06 190.7C455.06 190.7 457.2 192.04 457.2 195.98C457.2 199.96 455.06 201.24 451.06 201.24C447.06 201.24 444.9 199.96 444.9 195.98ZM458.806 195.98C458.806 192.2 460.686 190.7 464.686 190.7C467.986 190.7 469.946 191.68 470.266 194.06H467.606C467.286 193 466.486 192.54 464.686 192.54C462.486 192.54 461.486 193.3 461.486 195.28V196.64C461.486 198.72 462.606 199.4 464.686 199.4C466.566 199.4 467.326 198.86 467.646 197.9H470.306C469.946 200.12 468.126 201.24 464.686 201.24C460.806 201.24 458.806 199.96 458.806 195.98ZM475.279 192.92H471.119V190.96H482.079V192.92H477.939V201H475.279V192.92ZM483.8 190.96H486.44V198.24L492.2 190.96H495.12V201H492.48V193.72L486.74 201H483.8V190.96Z" fill="white"/>
<rect x="748.5" y="0.5" width="583" height="251" rx="31.5" stroke="#8D8B8B"/>
<rect x="772" y="24" width="256" height="90" rx="8" fill="white" fill-opacity="0.1"/>
<path d="M888.945 60.7H891.585L885.545 74.5H881.765L875.745 60.7H878.745L883.825 72.48L888.945 60.7ZM893.22 60.7H901.92C905.14 60.7 906.6 62.36 906.6 65.16C906.6 68 905.14 69.66 901.92 69.66H896.02V74.5H893.22V60.7ZM903.78 65.48V64.9C903.78 63.72 903.12 62.88 901.54 62.88H896.02V67.48H901.54C903.12 67.48 903.78 66.68 903.78 65.48ZM918.987 74.5L911.347 63.4V74.5H908.767V60.7H912.587L920.207 71.78V60.7H922.787V74.5H918.987Z" fill="white"/>
<rect x="1052" y="24" width="256" height="90" rx="8" fill="white" fill-opacity="0.1"/>
<path d="M1173.72 60.7H1176.36L1170.32 74.5H1166.54L1160.52 60.7H1163.52L1168.6 72.48L1173.72 60.7ZM1185.56 72.22C1188.38 72.22 1189.92 71.08 1189.92 68.16V66.94C1189.92 64.1 1188.38 62.98 1185.56 62.98H1180.8V72.22H1185.56ZM1178 60.7H1185.72C1190.32 60.7 1192.76 62.58 1192.76 67.6C1192.76 72.54 1190.32 74.5 1185.72 74.5H1178V60.7ZM1195.24 60.7H1198.04V74.5H1195.24V60.7Z" fill="white"/>
<rect x="772" y="138" width="256" height="90" rx="8" fill="white" fill-opacity="0.1"/>
<path d="M894.198 174.7H896.718L893.198 188.5H889.538L886.418 177.26L883.198 188.5H879.638L876.238 174.7H879.038L881.778 186L885.018 174.7H888.258L891.358 185.96L894.198 174.7ZM897.187 183.48C897.187 179.74 899.267 178.2 903.007 178.2C906.727 178.2 908.847 179.6 908.847 183.16V183.72H899.807V184.12C899.807 186.12 900.907 186.98 903.007 186.98C904.807 186.98 905.807 186.5 906.147 185.42H908.767C908.207 187.72 906.227 188.74 903.007 188.74C899.267 188.74 897.187 187.28 897.187 183.48ZM903.007 179.94C901.127 179.94 899.907 180.6 899.807 182.3H906.227C906.147 180.6 905.107 179.94 903.007 179.94ZM910.989 173.9H913.649V180.04C914.489 178.78 915.929 178.2 917.949 178.2C921.289 178.2 923.269 179.7 923.269 183.48C923.269 187.26 921.289 188.74 917.949 188.74C915.869 188.74 914.389 188.16 913.569 186.82V188.5H910.989V173.9ZM920.589 184.1V182.82C920.589 180.78 919.369 180.04 917.149 180.04C914.889 180.04 913.709 180.74 913.649 182.68V184.1C913.649 186.1 914.849 186.9 917.149 186.9C919.389 186.9 920.589 186.1 920.589 184.1Z" fill="white"/>
<rect x="1052" y="138" width="256" height="90" rx="8" fill="white" fill-opacity="0.1"/>
<path d="M1131.47 174.7H1140.17C1143.39 174.7 1144.85 176.36 1144.85 179.16C1144.85 182 1143.39 183.66 1140.17 183.66H1134.27V188.5H1131.47V174.7ZM1142.03 179.48V178.9C1142.03 177.72 1141.37 176.88 1139.79 176.88H1134.27V181.48H1139.79C1141.37 181.48 1142.03 180.68 1142.03 179.48ZM1146.04 183.48C1146.04 179.74 1148.12 178.2 1151.86 178.2C1155.58 178.2 1157.7 179.6 1157.7 183.16V183.72H1148.66V184.12C1148.66 186.12 1149.76 186.98 1151.86 186.98C1153.66 186.98 1154.66 186.5 1155 185.42H1157.62C1157.06 187.72 1155.08 188.74 1151.86 188.74C1148.12 188.74 1146.04 187.28 1146.04 183.48ZM1151.86 179.94C1149.98 179.94 1148.76 180.6 1148.66 182.3H1155.08C1155 180.6 1153.96 179.94 1151.86 179.94ZM1159.27 183.48C1159.27 179.7 1161.15 178.2 1165.15 178.2C1168.45 178.2 1170.41 179.18 1170.73 181.56H1168.07C1167.75 180.5 1166.95 180.04 1165.15 180.04C1162.95 180.04 1161.95 180.8 1161.95 182.78V184.14C1161.95 186.22 1163.07 186.9 1165.15 186.9C1167.03 186.9 1167.79 186.36 1168.11 185.4H1170.77C1170.41 187.62 1168.59 188.74 1165.15 188.74C1161.27 188.74 1159.27 187.46 1159.27 183.48ZM1171.36 178.46H1174.14L1177.86 185.98L1181.46 178.46H1183.9L1178.46 189.64C1177.44 191.78 1176.54 192.5 1174.42 192.5H1172.82V190.56H1174.14C1175.34 190.56 1175.8 190.32 1176.32 189.18L1176.56 188.68L1171.36 178.46ZM1185.37 178.46H1187.95V180.16C1188.77 178.8 1190.25 178.2 1192.35 178.2C1195.71 178.2 1197.65 179.7 1197.65 183.48C1197.65 187.24 1195.73 188.74 1192.35 188.74C1190.31 188.74 1188.87 188.2 1188.03 186.96V192.5H1185.37V178.46ZM1194.97 184.1V182.82C1194.97 180.76 1193.75 180.04 1191.49 180.04C1189.25 180.04 1188.09 180.74 1188.03 182.68V184.1C1188.03 186.12 1189.23 186.9 1191.49 186.9C1193.75 186.9 1194.97 186.2 1194.97 184.1ZM1199.25 183.48C1199.25 179.7 1201.13 178.2 1205.13 178.2C1208.43 178.2 1210.39 179.18 1210.71 181.56H1208.05C1207.73 180.5 1206.93 180.04 1205.13 180.04C1202.93 180.04 1201.93 180.8 1201.93 182.78V184.14C1201.93 186.22 1203.05 186.9 1205.13 186.9C1207.01 186.9 1207.77 186.36 1208.09 185.4H1210.75C1210.39 187.62 1208.57 188.74 1205.13 188.74C1201.25 188.74 1199.25 187.46 1199.25 183.48ZM1226.16 188.5V182.4C1226.16 180.58 1225.16 180.06 1223.28 180.06C1221.38 180.06 1220.16 180.7 1220.16 182.44V188.5H1217.5V178.46H1220.08V180.22C1220.74 178.82 1222.4 178.2 1224.34 178.2C1227.2 178.2 1228.82 179.3 1228.82 182.1V188.5H1226.16Z" fill="white"/>
<rect x="24" y="292" width="256" height="90" rx="8" fill="white" fill-opacity="0.1"/>
<path d="M116.253 316.2H119.573L113.153 322.84L119.953 330H116.353L110.693 324.1H108.733V330H105.933V316.2H108.733V321.82H110.793L116.253 316.2ZM129.559 325.56V324.34C129.559 322.28 128.379 321.54 126.099 321.54C123.799 321.54 122.619 322.28 122.619 324.34V325.58C122.619 327.64 123.799 328.4 126.099 328.4C128.379 328.4 129.559 327.64 129.559 325.56ZM119.939 324.98C119.939 321.04 122.099 319.7 126.099 319.7C130.099 319.7 132.239 321.04 132.239 324.98C132.239 328.96 130.099 330.24 126.099 330.24C122.099 330.24 119.939 328.96 119.939 324.98ZM134.425 319.96H137.085V323.92H142.885V319.96H145.545V330H142.885V325.88H137.085V330H134.425V319.96ZM147.732 324.98C147.732 321.2 149.612 319.7 153.612 319.7C156.912 319.7 158.872 320.68 159.192 323.06H156.532C156.212 322 155.412 321.54 153.612 321.54C151.412 321.54 150.412 322.3 150.412 324.28V325.64C150.412 327.72 151.532 328.4 153.612 328.4C155.492 328.4 156.252 327.86 156.572 326.9H159.232C158.872 329.12 157.052 330.24 153.612 330.24C149.732 330.24 147.732 328.96 147.732 324.98ZM170.301 325.56V324.34C170.301 322.28 169.121 321.54 166.841 321.54C164.541 321.54 163.361 322.28 163.361 324.34V325.58C163.361 327.64 164.541 328.4 166.841 328.4C169.121 328.4 170.301 327.64 170.301 325.56ZM160.681 324.98C160.681 321.04 162.841 319.7 166.841 319.7C170.841 319.7 172.981 321.04 172.981 324.98C172.981 328.96 170.841 330.24 166.841 330.24C162.841 330.24 160.681 328.96 160.681 324.98ZM173.932 330V327.78H174.212C175.532 327.78 175.952 327.18 175.952 324.32V319.96H185.692V330H183.032V321.92H178.392V324.38C178.392 328.8 177.472 330 174.492 330H173.932ZM188.448 330V319.96H191.108V323.16H195.568C198.048 323.16 199.308 324.34 199.308 326.52C199.308 328.76 198.048 330 195.568 330H188.448ZM196.628 326.74V326.28C196.628 325.44 196.128 324.96 194.988 324.96H191.108V328.2H194.988C196.128 328.2 196.628 327.66 196.628 326.74ZM84.4633 344.96H87.2433L90.9633 352.48L94.5633 344.96H97.0033L91.5633 356.14C90.5433 358.28 89.6433 359 87.5233 359H85.9233V357.06H87.2433C88.4433 357.06 88.9033 356.82 89.4233 355.68L89.6633 355.18L84.4633 344.96ZM98.4777 344.96H109.378V355H106.718V346.92H101.138V355H98.4777V344.96ZM112.13 344.96H114.71V346.66C115.53 345.3 117.01 344.7 119.11 344.7C122.47 344.7 124.41 346.2 124.41 349.98C124.41 353.74 122.49 355.24 119.11 355.24C117.07 355.24 115.63 354.7 114.79 353.46V359H112.13V344.96ZM121.73 350.6V349.32C121.73 347.26 120.51 346.54 118.25 346.54C116.01 346.54 114.85 347.24 114.79 349.18V350.6C114.79 352.62 115.99 353.4 118.25 353.4C120.51 353.4 121.73 352.7 121.73 350.6ZM126.023 352.24C126.023 350.34 127.203 349.28 130.383 349.14L134.723 348.98V348.66C134.723 347.06 133.803 346.46 131.903 346.46C130.223 346.46 129.303 346.86 129.043 347.94H126.383C126.703 345.8 128.463 344.7 131.883 344.7C135.563 344.7 137.363 345.92 137.363 348.66V355H134.823V353.28C134.063 354.52 132.483 355.24 130.183 355.24C127.243 355.24 126.023 354.1 126.023 352.24ZM130.983 353.5C133.083 353.5 134.723 352.76 134.723 350.84V350.44L130.963 350.58C129.403 350.66 128.703 351 128.703 351.96V352.14C128.703 353.06 129.383 353.5 130.983 353.5ZM140.001 344.96H147.041C149.661 344.96 150.661 345.92 150.661 347.42C150.661 348.46 150.161 349.36 148.681 349.7C150.461 350.02 151.061 351.02 151.061 352.16C151.061 354.08 149.961 355 147.461 355H140.001V344.96ZM148.361 352.12V351.74C148.361 350.96 147.861 350.56 146.741 350.56H142.621V353.34H146.741C147.861 353.34 148.361 352.96 148.361 352.12ZM148.021 347.96V347.66C148.021 347 147.681 346.6 146.621 346.6H142.621V349.1H146.621C147.701 349.1 148.021 348.62 148.021 347.96ZM152.145 355V352.78H152.425C153.745 352.78 154.165 352.18 154.165 349.32V344.96H163.905V355H161.245V346.92H156.605V349.38C156.605 353.8 155.685 355 152.705 355H152.145ZM166.081 349.98C166.081 346.24 168.161 344.7 171.901 344.7C175.621 344.7 177.741 346.1 177.741 349.66V350.22H168.701V350.62C168.701 352.62 169.801 353.48 171.901 353.48C173.701 353.48 174.701 353 175.041 351.92H177.661C177.101 354.22 175.121 355.24 171.901 355.24C168.161 355.24 166.081 353.78 166.081 349.98ZM171.901 346.44C170.021 346.44 168.801 347.1 168.701 348.8H175.121C175.041 347.1 174.001 346.44 171.901 346.44ZM179.884 344.96H182.544V348.92H188.344V344.96H191.004V355H188.344V350.88H182.544V355H179.884V344.96ZM193.771 344.96H196.411V352.24L202.171 344.96H205.091V355H202.451V347.72L196.711 355H193.771V344.96ZM215.593 351.52H212.233L209.993 355H207.153L209.653 351.16C208.093 350.76 207.313 349.76 207.313 348.24C207.313 346.16 208.593 344.96 211.153 344.96H218.253V355H215.593V351.52ZM215.593 346.72H211.553C210.573 346.72 209.993 347.18 209.993 348.02V348.5C209.993 349.3 210.553 349.74 211.553 349.74H215.593V346.72Z" fill="white"/>
<rect x="304" y="292" width="256" height="90" rx="8" fill="white" fill-opacity="0.1"/>
<path d="M356.656 316.2H370.136V330H367.336V318.48H359.456V330H356.656V316.2ZM381.961 325.56V324.34C381.961 322.28 380.781 321.54 378.501 321.54C376.201 321.54 375.021 322.28 375.021 324.34V325.58C375.021 327.64 376.201 328.4 378.501 328.4C380.781 328.4 381.961 327.64 381.961 325.56ZM372.341 324.98C372.341 321.04 374.501 319.7 378.501 319.7C382.501 319.7 384.641 321.04 384.641 324.98C384.641 328.96 382.501 330.24 378.501 330.24C374.501 330.24 372.341 328.96 372.341 324.98ZM386.827 319.96H389.407V321.66C390.227 320.3 391.707 319.7 393.807 319.7C397.167 319.7 399.107 321.2 399.107 324.98C399.107 328.74 397.187 330.24 393.807 330.24C391.767 330.24 390.327 329.7 389.487 328.46V334H386.827V319.96ZM396.427 325.6V324.32C396.427 322.26 395.207 321.54 392.947 321.54C390.707 321.54 389.547 322.24 389.487 324.18V325.6C389.487 327.62 390.687 328.4 392.947 328.4C395.207 328.4 396.427 327.7 396.427 325.6ZM404.009 321.92H399.849V319.96H410.809V321.92H406.669V330H404.009V321.92ZM411.619 327.24C411.619 325.34 412.799 324.28 415.979 324.14L420.319 323.98V323.66C420.319 322.06 419.399 321.46 417.499 321.46C415.819 321.46 414.899 321.86 414.639 322.94H411.979C412.299 320.8 414.059 319.7 417.479 319.7C421.159 319.7 422.959 320.92 422.959 323.66V330H420.419V328.28C419.659 329.52 418.079 330.24 415.779 330.24C412.839 330.24 411.619 329.1 411.619 327.24ZM416.579 328.5C418.679 328.5 420.319 327.76 420.319 325.84V325.44L416.559 325.58C414.999 325.66 414.299 326 414.299 326.96V327.14C414.299 328.06 414.979 328.5 416.579 328.5ZM424.557 330V327.78H424.837C426.157 327.78 426.577 327.18 426.577 324.32V319.96H436.317V330H433.657V321.92H429.017V324.38C429.017 328.8 428.097 330 425.117 330H424.557ZM443.22 324.98C443.22 321.2 445.1 319.7 449.1 319.7C452.4 319.7 454.36 320.68 454.68 323.06H452.02C451.7 322 450.9 321.54 449.1 321.54C446.9 321.54 445.9 322.3 445.9 324.28V325.64C445.9 327.72 447.02 328.4 449.1 328.4C450.98 328.4 451.74 327.86 452.06 326.9H454.72C454.36 329.12 452.54 330.24 449.1 330.24C445.22 330.24 443.22 328.96 443.22 324.98ZM456.189 327.24C456.189 325.34 457.369 324.28 460.549 324.14L464.889 323.98V323.66C464.889 322.06 463.969 321.46 462.069 321.46C460.389 321.46 459.469 321.86 459.209 322.94H456.549C456.869 320.8 458.629 319.7 462.049 319.7C465.729 319.7 467.529 320.92 467.529 323.66V330H464.989V328.28C464.229 329.52 462.649 330.24 460.349 330.24C457.409 330.24 456.189 329.1 456.189 327.24ZM461.149 328.5C463.249 328.5 464.889 327.76 464.889 325.84V325.44L461.129 325.58C459.569 325.66 458.869 326 458.869 326.96V327.14C458.869 328.06 459.549 328.5 461.149 328.5ZM475.887 329.52L472.547 321.84V330H470.167V319.96H474.127L477.367 327.42L480.627 319.96H484.447V330H481.827V321.88L478.487 329.52H475.887ZM496.238 325.56V324.34C496.238 322.28 495.058 321.54 492.778 321.54C490.478 321.54 489.298 322.28 489.298 324.34V325.58C489.298 327.64 490.478 328.4 492.778 328.4C495.058 328.4 496.238 327.64 496.238 325.56ZM486.618 324.98C486.618 321.04 488.778 319.7 492.778 319.7C496.778 319.7 498.918 321.04 498.918 324.98C498.918 328.96 496.778 330.24 492.778 330.24C488.778 330.24 486.618 328.96 486.618 324.98ZM500.805 323.64H507.845V325.98H500.805V323.64ZM358.631 350.56V349.34C358.631 347.28 357.451 346.54 355.171 346.54C352.871 346.54 351.691 347.28 351.691 349.34V350.58C351.691 352.64 352.871 353.4 355.171 353.4C357.451 353.4 358.631 352.64 358.631 350.56ZM349.011 349.98C349.011 346.04 351.171 344.7 355.171 344.7C359.171 344.7 361.311 346.04 361.311 349.98C361.311 353.96 359.171 355.24 355.171 355.24C351.171 355.24 349.011 353.96 349.011 349.98ZM363.157 349.36C363.157 342.38 364.897 340.58 370.277 340.44C372.817 340.4 374.017 340.34 374.677 340.22V342.38C374.057 342.48 372.877 342.56 370.377 342.6C366.697 342.66 365.717 343.52 365.497 347.22C366.317 345.82 367.837 345.06 370.177 345.06C373.617 345.06 375.457 346.48 375.457 350.08C375.457 353.72 373.397 355.24 369.297 355.24C365.257 355.24 363.157 353.74 363.157 349.36ZM372.777 350.54V349.68C372.777 347.64 371.657 346.9 369.297 346.9C366.977 346.9 365.817 347.62 365.817 349.68V350.54C365.817 352.64 366.977 353.4 369.297 353.4C371.657 353.4 372.777 352.64 372.777 350.54ZM377.058 349.98C377.058 346.2 378.938 344.7 382.938 344.7C386.238 344.7 388.198 345.68 388.518 348.06H385.858C385.538 347 384.738 346.54 382.938 346.54C380.738 346.54 379.738 347.3 379.738 349.28V350.64C379.738 352.72 380.858 353.4 382.938 353.4C384.818 353.4 385.578 352.86 385.898 351.9H388.558C388.198 354.12 386.378 355.24 382.938 355.24C379.058 355.24 377.058 353.96 377.058 349.98ZM389.488 355V352.78H389.768C391.088 352.78 391.508 352.18 391.508 349.32V344.96H401.248V355H398.588V346.92H393.948V349.38C393.948 353.8 393.028 355 390.048 355H389.488ZM402.725 344.96H405.505L409.225 352.48L412.825 344.96H415.265L409.825 356.14C408.805 358.28 407.905 359 405.785 359H404.185V357.06H405.505C406.705 357.06 407.165 356.82 407.685 355.68L407.925 355.18L402.725 344.96ZM430.619 344.96H433.479L429.419 349.74L433.899 355H430.799L427.299 350.9H425.939V355H423.279V350.9H421.899L418.419 355H415.359L419.759 349.82L415.639 344.96H418.599L421.979 348.96H423.279V344.96H425.939V348.96H427.239L430.619 344.96ZM435.294 344.96H437.934V352.24L443.694 344.96H446.614V355H443.974V347.72L438.234 355H435.294V344.96ZM449.376 344.96H456.416C459.036 344.96 460.036 345.92 460.036 347.42C460.036 348.46 459.536 349.36 458.056 349.7C459.836 350.02 460.436 351.02 460.436 352.16C460.436 354.08 459.336 355 456.836 355H449.376V344.96ZM457.736 352.12V351.74C457.736 350.96 457.236 350.56 456.116 350.56H451.996V353.34H456.116C457.236 353.34 457.736 352.96 457.736 352.12ZM457.396 347.96V347.66C457.396 347 457.056 346.6 455.996 346.6H451.996V349.1H455.996C457.076 349.1 457.396 348.62 457.396 347.96ZM462.058 352.24C462.058 350.34 463.238 349.28 466.418 349.14L470.758 348.98V348.66C470.758 347.06 469.838 346.46 467.938 346.46C466.258 346.46 465.338 346.86 465.078 347.94H462.418C462.738 345.8 464.498 344.7 467.918 344.7C471.598 344.7 473.398 345.92 473.398 348.66V355H470.858V353.28C470.098 354.52 468.518 355.24 466.218 355.24C463.278 355.24 462.058 354.1 462.058 352.24ZM467.018 353.5C469.118 353.5 470.758 352.76 470.758 350.84V350.44L466.998 350.58C465.438 350.66 464.738 351 464.738 351.96V352.14C464.738 353.06 465.418 353.5 467.018 353.5ZM476.036 344.96H478.696V348.92H484.496V344.96H487.156V355H484.496V350.88H478.696V355H476.036V344.96ZM489.923 344.96H492.563V352.24L498.323 344.96H501.243V355H498.603V347.72L492.863 355H489.923V344.96ZM511.745 351.52H508.385L506.145 355H503.305L505.805 351.16C504.245 350.76 503.465 349.76 503.465 348.24C503.465 346.16 504.745 344.96 507.305 344.96H514.405V355H511.745V351.52ZM511.745 346.72H507.705C506.725 346.72 506.145 347.18 506.145 348.02V348.5C506.145 349.3 506.705 349.74 507.705 349.74H511.745V346.72Z" fill="white"/>
<path d="M1092.1 468.7H1105.58V482.5H1102.78V470.98H1094.9V482.5H1092.1V468.7ZM1117.4 478.06V476.84C1117.4 474.78 1116.22 474.04 1113.94 474.04C1111.64 474.04 1110.46 474.78 1110.46 476.84V478.08C1110.46 480.14 1111.64 480.9 1113.94 480.9C1116.22 480.9 1117.4 480.14 1117.4 478.06ZM1107.78 477.48C1107.78 473.54 1109.94 472.2 1113.94 472.2C1117.94 472.2 1120.08 473.54 1120.08 477.48C1120.08 481.46 1117.94 482.74 1113.94 482.74C1109.94 482.74 1107.78 481.46 1107.78 477.48ZM1121.03 482.5V480.28H1121.31C1122.63 480.28 1123.05 479.68 1123.05 476.82V472.46H1132.79V482.5H1130.13V474.42H1125.49V476.88C1125.49 481.3 1124.57 482.5 1121.59 482.5H1121.03ZM1135.55 482.5V472.46H1138.21V475.66H1142.67C1145.15 475.66 1146.41 476.84 1146.41 479.02C1146.41 481.26 1145.15 482.5 1142.67 482.5H1135.55ZM1143.73 479.24V478.78C1143.73 477.94 1143.23 477.46 1142.09 477.46H1138.21V480.7H1142.09C1143.23 480.7 1143.73 480.16 1143.73 479.24ZM1147.52 479.48H1150.2C1150.34 480.6 1151.44 481.04 1153.3 481.04C1155.32 481.04 1156.18 480.66 1156.18 479.66V479.38C1156.18 478.52 1155.46 478.1 1153.9 478.1H1151.64V476.48H1153.82C1155.34 476.48 1155.94 476.12 1155.94 475.32V475.06C1155.94 474.24 1155.2 473.92 1153.32 473.92C1151.42 473.92 1150.5 474.34 1150.32 475.32H1147.64C1147.86 473.06 1150.08 472.2 1153.3 472.2C1156.7 472.2 1158.6 473.04 1158.6 474.98C1158.6 475.98 1158.12 476.8 1156.52 477.16C1158.08 477.5 1158.86 478.38 1158.86 479.6C1158.86 481.76 1157.06 482.74 1153.3 482.74C1149.78 482.74 1147.74 481.82 1147.52 479.48ZM1170.08 478.06V476.84C1170.08 474.78 1168.9 474.04 1166.62 474.04C1164.32 474.04 1163.14 474.78 1163.14 476.84V478.08C1163.14 480.14 1164.32 480.9 1166.62 480.9C1168.9 480.9 1170.08 480.14 1170.08 478.06ZM1160.46 477.48C1160.46 473.54 1162.62 472.2 1166.62 472.2C1170.62 472.2 1172.76 473.54 1172.76 477.48C1172.76 481.46 1170.62 482.74 1166.62 482.74C1162.62 482.74 1160.46 481.46 1160.46 477.48ZM1174.94 472.46H1181.98C1184.6 472.46 1185.6 473.42 1185.6 474.92C1185.6 475.96 1185.1 476.86 1183.62 477.2C1185.4 477.52 1186 478.52 1186 479.66C1186 481.58 1184.9 482.5 1182.4 482.5H1174.94V472.46ZM1183.3 479.62V479.24C1183.3 478.46 1182.8 478.06 1181.68 478.06H1177.56V480.84H1181.68C1182.8 480.84 1183.3 480.46 1183.3 479.62ZM1182.96 475.46V475.16C1182.96 474.5 1182.62 474.1 1181.56 474.1H1177.56V476.6H1181.56C1182.64 476.6 1182.96 476.12 1182.96 475.46ZM1187.63 479.74C1187.63 477.84 1188.81 476.78 1191.99 476.64L1196.33 476.48V476.16C1196.33 474.56 1195.41 473.96 1193.51 473.96C1191.83 473.96 1190.91 474.36 1190.65 475.44H1187.99C1188.31 473.3 1190.07 472.2 1193.49 472.2C1197.17 472.2 1198.97 473.42 1198.97 476.16V482.5H1196.43V480.78C1195.67 482.02 1194.09 482.74 1191.79 482.74C1188.85 482.74 1187.63 481.6 1187.63 479.74ZM1192.59 481C1194.69 481 1196.33 480.26 1196.33 478.34V477.94L1192.57 478.08C1191.01 478.16 1190.31 478.5 1190.31 479.46V479.64C1190.31 480.56 1190.99 481 1192.59 481ZM1204.39 474.42H1200.23V472.46H1211.19V474.42H1207.05V482.5H1204.39V474.42ZM1211.94 477.48C1211.94 473.74 1214.02 472.2 1217.76 472.2C1221.48 472.2 1223.6 473.6 1223.6 477.16V477.72H1214.56V478.12C1214.56 480.12 1215.66 480.98 1217.76 480.98C1219.56 480.98 1220.56 480.5 1220.9 479.42H1223.52C1222.96 481.72 1220.98 482.74 1217.76 482.74C1214.02 482.74 1211.94 481.28 1211.94 477.48ZM1217.76 473.94C1215.88 473.94 1214.66 474.6 1214.56 476.3H1220.98C1220.9 474.6 1219.86 473.94 1217.76 473.94ZM1224.55 482.5V480.28H1224.83C1226.15 480.28 1226.57 479.68 1226.57 476.82V472.46H1236.31V482.5H1233.65V474.42H1229.01V476.88C1229.01 481.3 1228.09 482.5 1225.11 482.5H1224.55ZM1239.07 482.5V472.46H1241.73V475.66H1246.19C1248.67 475.66 1249.93 476.84 1249.93 479.02C1249.93 481.26 1248.67 482.5 1246.19 482.5H1239.07ZM1247.25 479.24V478.78C1247.25 477.94 1246.75 477.46 1245.61 477.46H1241.73V480.7H1245.61C1246.75 480.7 1247.25 480.16 1247.25 479.24ZM1255.69 478.5H1258.57C1258.81 479.96 1259.97 480.6 1262.25 480.6C1264.71 480.6 1265.71 479.96 1265.71 478.68V478.2C1265.71 476.92 1264.49 476.36 1262.33 476.36H1260.79V474.32H1262.27C1264.21 474.32 1265.17 473.82 1265.17 472.68V472.2C1265.17 471 1264.17 470.6 1262.27 470.6C1260.37 470.6 1259.29 471.02 1259.01 472.44H1256.15C1256.45 469.58 1258.63 468.46 1262.23 468.46C1265.83 468.46 1267.93 469.5 1267.93 472.1C1267.93 473.72 1267.03 474.74 1265.37 475.2C1267.29 475.62 1268.47 476.64 1268.47 478.52C1268.47 481.46 1266.31 482.74 1262.23 482.74C1258.07 482.74 1255.93 481.42 1255.69 478.5Z" fill="white"/>
<rect x="24" y="422" width="256" height="90" rx="8" fill="white" fill-opacity="0.1"/>
<path d="M67.5066 458.7H71.3466L77.4266 472.5H74.5066L72.9666 468.96H65.5866L64.0466 472.5H61.4066L67.5066 458.7ZM69.2666 460.52L66.4866 466.9H72.0666L69.2666 460.52ZM77.7176 475.3V470.56H78.9376C79.5576 469.54 79.8576 467.98 79.8576 465.78V462.46H90.0176V470.54H91.6576V475.3H89.1976V472.5H80.1776V475.3H77.7176ZM87.3576 464.42H82.2776V465.78C82.2776 467.98 81.9776 469.56 81.4776 470.54H87.3576V464.42ZM99.1488 472.02L95.8088 464.34V472.5H93.4288V462.46H97.3888L100.629 469.92L103.889 462.46H107.709V472.5H105.089V464.38L101.749 472.02H99.1488ZM110.46 462.46H113.1V469.74L118.86 462.46H121.78V472.5H119.14V465.22L113.4 472.5H110.46V462.46ZM124.542 462.46H127.202V466.42H133.002V462.46H135.662V472.5H133.002V468.38H127.202V472.5H124.542V462.46ZM138.429 462.46H141.069V469.74L146.829 462.46H149.749V472.5H147.109V465.22L141.369 472.5H138.429V462.46ZM151.931 467.48C151.931 463.7 153.811 462.2 157.811 462.2C161.111 462.2 163.071 463.18 163.391 465.56H160.731C160.411 464.5 159.611 464.04 157.811 464.04C155.611 464.04 154.611 464.8 154.611 466.78V468.14C154.611 470.22 155.731 470.9 157.811 470.9C159.691 470.9 160.451 470.36 160.771 469.4H163.431C163.071 471.62 161.251 472.74 157.811 472.74C153.931 472.74 151.931 471.46 151.931 467.48ZM168.404 464.42H164.244V462.46H175.204V464.42H171.064V472.5H168.404V464.42ZM176.925 462.46H179.505V464.16C180.325 462.8 181.805 462.2 183.905 462.2C187.265 462.2 189.205 463.7 189.205 467.48C189.205 471.24 187.285 472.74 183.905 472.74C181.865 472.74 180.425 472.2 179.585 470.96V476.5H176.925V462.46ZM186.525 468.1V466.82C186.525 464.76 185.305 464.04 183.045 464.04C180.805 464.04 179.645 464.74 179.585 466.68V468.1C179.585 470.12 180.785 470.9 183.045 470.9C185.305 470.9 186.525 470.2 186.525 468.1ZM190.818 469.74C190.818 467.84 191.998 466.78 195.178 466.64L199.518 466.48V466.16C199.518 464.56 198.598 463.96 196.698 463.96C195.018 463.96 194.098 464.36 193.838 465.44H191.178C191.498 463.3 193.258 462.2 196.678 462.2C200.358 462.2 202.158 463.42 202.158 466.16V472.5H199.618V470.78C198.858 472.02 197.278 472.74 194.978 472.74C192.038 472.74 190.818 471.6 190.818 469.74ZM195.778 471C197.878 471 199.518 470.26 199.518 468.34V467.94L195.758 468.08C194.198 468.16 193.498 468.5 193.498 469.46V469.64C193.498 470.56 194.178 471 195.778 471ZM207.584 464.42H203.424V462.46H214.384V464.42H210.244V472.5H207.584V464.42ZM224.754 468.06V466.84C224.754 464.78 223.574 464.04 221.294 464.04C218.994 464.04 217.814 464.78 217.814 466.84V468.08C217.814 470.14 218.994 470.9 221.294 470.9C223.574 470.9 224.754 470.14 224.754 468.06ZM215.134 467.48C215.134 463.54 217.294 462.2 221.294 462.2C225.294 462.2 227.434 463.54 227.434 467.48C227.434 471.46 225.294 472.74 221.294 472.74C217.294 472.74 215.134 471.46 215.134 467.48ZM229.62 462.46H232.2V464.16C233.02 462.8 234.5 462.2 236.6 462.2C239.96 462.2 241.9 463.7 241.9 467.48C241.9 471.24 239.98 472.74 236.6 472.74C234.56 472.74 233.12 472.2 232.28 470.96V476.5H229.62V462.46ZM239.22 468.1V466.82C239.22 464.76 238 464.04 235.74 464.04C233.5 464.04 232.34 464.74 232.28 466.68V468.1C232.28 470.12 233.48 470.9 235.74 470.9C238 470.9 239.22 470.2 239.22 468.1Z" fill="white"/>
<path d="M1028.23 398.7H1041.71V412.5H1038.91V400.98H1031.03V412.5H1028.23V398.7ZM1053.54 408.06V406.84C1053.54 404.78 1052.36 404.04 1050.08 404.04C1047.78 404.04 1046.6 404.78 1046.6 406.84V408.08C1046.6 410.14 1047.78 410.9 1050.08 410.9C1052.36 410.9 1053.54 410.14 1053.54 408.06ZM1043.92 407.48C1043.92 403.54 1046.08 402.2 1050.08 402.2C1054.08 402.2 1056.22 403.54 1056.22 407.48C1056.22 411.46 1054.08 412.74 1050.08 412.74C1046.08 412.74 1043.92 411.46 1043.92 407.48ZM1057.17 412.5V410.28H1057.45C1058.77 410.28 1059.19 409.68 1059.19 406.82V402.46H1068.93V412.5H1066.27V404.42H1061.63V406.88C1061.63 411.3 1060.71 412.5 1057.73 412.5H1057.17ZM1071.69 412.5V402.46H1074.35V405.66H1078.81C1081.29 405.66 1082.55 406.84 1082.55 409.02C1082.55 411.26 1081.29 412.5 1078.81 412.5H1071.69ZM1079.87 409.24V408.78C1079.87 407.94 1079.37 407.46 1078.23 407.46H1074.35V410.7H1078.23C1079.37 410.7 1079.87 410.16 1079.87 409.24ZM1083.66 409.48H1086.34C1086.48 410.6 1087.58 411.04 1089.44 411.04C1091.46 411.04 1092.32 410.66 1092.32 409.66V409.38C1092.32 408.52 1091.6 408.1 1090.04 408.1H1087.78V406.48H1089.96C1091.48 406.48 1092.08 406.12 1092.08 405.32V405.06C1092.08 404.24 1091.34 403.92 1089.46 403.92C1087.56 403.92 1086.64 404.34 1086.46 405.32H1083.78C1084 403.06 1086.22 402.2 1089.44 402.2C1092.84 402.2 1094.74 403.04 1094.74 404.98C1094.74 405.98 1094.26 406.8 1092.66 407.16C1094.22 407.5 1095 408.38 1095 409.6C1095 411.76 1093.2 412.74 1089.44 412.74C1085.92 412.74 1083.88 411.82 1083.66 409.48ZM1106.21 408.06V406.84C1106.21 404.78 1105.03 404.04 1102.75 404.04C1100.45 404.04 1099.27 404.78 1099.27 406.84V408.08C1099.27 410.14 1100.45 410.9 1102.75 410.9C1105.03 410.9 1106.21 410.14 1106.21 408.06ZM1096.59 407.48C1096.59 403.54 1098.75 402.2 1102.75 402.2C1106.75 402.2 1108.89 403.54 1108.89 407.48C1108.89 411.46 1106.75 412.74 1102.75 412.74C1098.75 412.74 1096.59 411.46 1096.59 407.48ZM1111.08 402.46H1118.12C1120.74 402.46 1121.74 403.42 1121.74 404.92C1121.74 405.96 1121.24 406.86 1119.76 407.2C1121.54 407.52 1122.14 408.52 1122.14 409.66C1122.14 411.58 1121.04 412.5 1118.54 412.5H1111.08V402.46ZM1119.44 409.62V409.24C1119.44 408.46 1118.94 408.06 1117.82 408.06H1113.7V410.84H1117.82C1118.94 410.84 1119.44 410.46 1119.44 409.62ZM1119.1 405.46V405.16C1119.1 404.5 1118.76 404.1 1117.7 404.1H1113.7V406.6H1117.7C1118.78 406.6 1119.1 406.12 1119.1 405.46ZM1123.76 409.74C1123.76 407.84 1124.94 406.78 1128.12 406.64L1132.46 406.48V406.16C1132.46 404.56 1131.54 403.96 1129.64 403.96C1127.96 403.96 1127.04 404.36 1126.78 405.44H1124.12C1124.44 403.3 1126.2 402.2 1129.62 402.2C1133.3 402.2 1135.1 403.42 1135.1 406.16V412.5H1132.56V410.78C1131.8 412.02 1130.22 412.74 1127.92 412.74C1124.98 412.74 1123.76 411.6 1123.76 409.74ZM1128.72 411C1130.82 411 1132.46 410.26 1132.46 408.34V407.94L1128.7 408.08C1127.14 408.16 1126.44 408.5 1126.44 409.46V409.64C1126.44 410.56 1127.12 411 1128.72 411ZM1140.53 404.42H1136.37V402.46H1147.33V404.42H1143.19V412.5H1140.53V404.42ZM1148.08 407.48C1148.08 403.74 1150.16 402.2 1153.9 402.2C1157.62 402.2 1159.74 403.6 1159.74 407.16V407.72H1150.7V408.12C1150.7 410.12 1151.8 410.98 1153.9 410.98C1155.7 410.98 1156.7 410.5 1157.04 409.42H1159.66C1159.1 411.72 1157.12 412.74 1153.9 412.74C1150.16 412.74 1148.08 411.28 1148.08 407.48ZM1153.9 403.94C1152.02 403.94 1150.8 404.6 1150.7 406.3H1157.12C1157.04 404.6 1156 403.94 1153.9 403.94ZM1160.69 412.5V410.28H1160.97C1162.29 410.28 1162.71 409.68 1162.71 406.82V402.46H1172.45V412.5H1169.79V404.42H1165.15V406.88C1165.15 411.3 1164.23 412.5 1161.25 412.5H1160.69ZM1175.2 412.5V402.46H1177.86V405.66H1182.32C1184.8 405.66 1186.06 406.84 1186.06 409.02C1186.06 411.26 1184.8 412.5 1182.32 412.5H1175.2ZM1183.38 409.24V408.78C1183.38 407.94 1182.88 407.46 1181.74 407.46H1177.86V410.7H1181.74C1182.88 410.7 1183.38 410.16 1183.38 409.24ZM1192.11 411.38C1192.11 404.18 1201.43 406.68 1201.43 402.82V402.4C1201.43 401.04 1200.27 400.6 1198.39 400.6C1196.23 400.6 1195.25 401.12 1195.03 402.84H1192.21C1192.45 399.54 1194.73 398.46 1198.41 398.46C1202.11 398.46 1204.25 399.54 1204.25 402.58C1204.25 408.44 1195.39 406.12 1195.01 410.26H1204.25V412.5H1192.11V411.38Z" fill="white"/>
<path d="M988 406.526H682.079C673.192 406.526 666.008 399.283 666.08 390.396L666.5 338.51M666 127.526H590M666 127.526L742.07 127.507M666 127.526L666.5 338.51M590 127.526L597.526 135.052M590 127.526L597.526 120M742.07 127.507L734.57 135.008M742.07 127.507L734.57 120.007M666.5 338.51L566 338.526M566 338.526L573.534 346.04M566 338.526L573.534 331.01" stroke="white" stroke-width="2" stroke-linejoin="round"/>
<path d="M151.516 422L151.516 383M151.516 383L144.001 390.534M151.516 383L159.031 390.534" stroke="white" stroke-width="2" stroke-linejoin="round"/>
<path d="M967.212 328.7H980.692V342.5H977.892V330.98H970.012V342.5H967.212V328.7ZM992.518 338.06V336.84C992.518 334.78 991.338 334.04 989.058 334.04C986.758 334.04 985.578 334.78 985.578 336.84V338.08C985.578 340.14 986.758 340.9 989.058 340.9C991.338 340.9 992.518 340.14 992.518 338.06ZM982.898 337.48C982.898 333.54 985.058 332.2 989.058 332.2C993.058 332.2 995.198 333.54 995.198 337.48C995.198 341.46 993.058 342.74 989.058 342.74C985.058 342.74 982.898 341.46 982.898 337.48ZM996.149 342.5V340.28H996.429C997.749 340.28 998.169 339.68 998.169 336.82V332.46H1007.91V342.5H1005.25V334.42H1000.61V336.88C1000.61 341.3 999.689 342.5 996.709 342.5H996.149ZM1010.67 342.5V332.46H1013.33V335.66H1017.79C1020.27 335.66 1021.53 336.84 1021.53 339.02C1021.53 341.26 1020.27 342.5 1017.79 342.5H1010.67ZM1018.85 339.24V338.78C1018.85 337.94 1018.35 337.46 1017.21 337.46H1013.33V340.7H1017.21C1018.35 340.7 1018.85 340.16 1018.85 339.24ZM1022.64 339.48H1025.32C1025.46 340.6 1026.56 341.04 1028.42 341.04C1030.44 341.04 1031.3 340.66 1031.3 339.66V339.38C1031.3 338.52 1030.58 338.1 1029.02 338.1H1026.76V336.48H1028.94C1030.46 336.48 1031.06 336.12 1031.06 335.32V335.06C1031.06 334.24 1030.32 333.92 1028.44 333.92C1026.54 333.92 1025.62 334.34 1025.44 335.32H1022.76C1022.98 333.06 1025.2 332.2 1028.42 332.2C1031.82 332.2 1033.72 333.04 1033.72 334.98C1033.72 335.98 1033.24 336.8 1031.64 337.16C1033.2 337.5 1033.98 338.38 1033.98 339.6C1033.98 341.76 1032.18 342.74 1028.42 342.74C1024.9 342.74 1022.86 341.82 1022.64 339.48ZM1045.19 338.06V336.84C1045.19 334.78 1044.01 334.04 1041.73 334.04C1039.43 334.04 1038.25 334.78 1038.25 336.84V338.08C1038.25 340.14 1039.43 340.9 1041.73 340.9C1044.01 340.9 1045.19 340.14 1045.19 338.06ZM1035.57 337.48C1035.57 333.54 1037.73 332.2 1041.73 332.2C1045.73 332.2 1047.87 333.54 1047.87 337.48C1047.87 341.46 1045.73 342.74 1041.73 342.74C1037.73 342.74 1035.57 341.46 1035.57 337.48ZM1050.06 332.46H1057.1C1059.72 332.46 1060.72 333.42 1060.72 334.92C1060.72 335.96 1060.22 336.86 1058.74 337.2C1060.52 337.52 1061.12 338.52 1061.12 339.66C1061.12 341.58 1060.02 342.5 1057.52 342.5H1050.06V332.46ZM1058.42 339.62V339.24C1058.42 338.46 1057.92 338.06 1056.8 338.06H1052.68V340.84H1056.8C1057.92 340.84 1058.42 340.46 1058.42 339.62ZM1058.08 335.46V335.16C1058.08 334.5 1057.74 334.1 1056.68 334.1H1052.68V336.6H1056.68C1057.76 336.6 1058.08 336.12 1058.08 335.46ZM1062.74 339.74C1062.74 337.84 1063.92 336.78 1067.1 336.64L1071.44 336.48V336.16C1071.44 334.56 1070.52 333.96 1068.62 333.96C1066.94 333.96 1066.02 334.36 1065.76 335.44H1063.1C1063.42 333.3 1065.18 332.2 1068.6 332.2C1072.28 332.2 1074.08 333.42 1074.08 336.16V342.5H1071.54V340.78C1070.78 342.02 1069.2 342.74 1066.9 342.74C1063.96 342.74 1062.74 341.6 1062.74 339.74ZM1067.7 341C1069.8 341 1071.44 340.26 1071.44 338.34V337.94L1067.68 338.08C1066.12 338.16 1065.42 338.5 1065.42 339.46V339.64C1065.42 340.56 1066.1 341 1067.7 341ZM1079.51 334.42H1075.35V332.46H1086.31V334.42H1082.17V342.5H1079.51V334.42ZM1087.06 337.48C1087.06 333.74 1089.14 332.2 1092.88 332.2C1096.6 332.2 1098.72 333.6 1098.72 337.16V337.72H1089.68V338.12C1089.68 340.12 1090.78 340.98 1092.88 340.98C1094.68 340.98 1095.68 340.5 1096.02 339.42H1098.64C1098.08 341.72 1096.1 342.74 1092.88 342.74C1089.14 342.74 1087.06 341.28 1087.06 337.48ZM1092.88 333.94C1091 333.94 1089.78 334.6 1089.68 336.3H1096.1C1096.02 334.6 1094.98 333.94 1092.88 333.94ZM1099.66 342.5V340.28H1099.94C1101.26 340.28 1101.68 339.68 1101.68 336.82V332.46H1111.42V342.5H1108.76V334.42H1104.12V336.88C1104.12 341.3 1103.2 342.5 1100.22 342.5H1099.66ZM1114.18 342.5V332.46H1116.84V335.66H1121.3C1123.78 335.66 1125.04 336.84 1125.04 339.02C1125.04 341.26 1123.78 342.5 1121.3 342.5H1114.18ZM1122.36 339.24V338.78C1122.36 337.94 1121.86 337.46 1120.72 337.46H1116.84V340.7H1120.72C1121.86 340.7 1122.36 340.16 1122.36 339.24ZM1130.69 330.78L1133.93 328.7H1136.73V342.5H1133.93V331.16L1130.69 333.28V330.78Z" fill="white"/>
<path d="M924 300C924 295.582 927.582 292 932 292H1172C1176.42 292 1180 295.582 1180 300V374C1180 378.418 1176.42 382 1172 382H932C927.582 382 924 378.418 924 374V300Z" fill="white" fill-opacity="0.1"/>
<path fill-rule="evenodd" clip-rule="evenodd" d="M1052 514V455H1236C1242.08 455 1247 450.075 1247 444V432H1300C1304.42 432 1308 435.582 1308 440V514C1308 518.418 1304.42 522 1300 522H1060C1055.58 522 1052 518.418 1052 514Z" fill="white" fill-opacity="0.1"/>
<path fill-rule="evenodd" clip-rule="evenodd" d="M988 385V444C988 448.418 991.582 452 996 452H1236C1240.42 452 1244 448.418 1244 444V370C1244 365.582 1240.42 362 1236 362H1183V374C1183 380.075 1178.08 385 1172 385H988Z" fill="white" fill-opacity="0.1"/>
</svg>
