<?xml version="1.0" encoding="UTF-8"?>
<svg id="_Слой_1" data-name="Слой_1" xmlns="http://www.w3.org/2000/svg" version="1.1" viewBox="0 0 128 128">
  <!-- Generator: Adobe Illustrator 29.0.1, SVG Export Plug-In . SVG Version: 2.1.0 Build 192)  -->
  <defs>
    <style>
      .st0 {
        fill: #cfcece;
      }

      .st1 {
        fill: none;
        stroke: #cfcece;
        stroke-linecap: round;
        stroke-linejoin: round;
        stroke-width: 3px;
      }
    </style>
  </defs>
  <path class="st1" d="M66.8,66.8l6,10.3,13.4,23.2c1.1,1.9-.3,4.2-2.4,4.2H30.2c-2.1,0-3.5-2.3-2.4-4.2l13.4-23.2,11.2-19.3"/>
  <path class="st0" d="M54.2,84.8l-.6-9.5c-.1-1.9-.2-3.2-.2-4s.3-2,.9-2.6,1.3-.9,2.3-.9,1.9.4,2.3,1.2c.4.8.6,1.9.6,3.4s0,1.8-.1,2.7l-.9,9.8c0,1.2-.3,2.1-.6,2.7-.3.6-.8.9-1.5.9s-1.2-.3-1.5-.9c-.3-.6-.5-1.5-.6-2.8ZM56.4,97.9c-.8,0-1.5-.3-2.1-.8s-.9-1.3-.9-2.2.3-1.5.9-2.1,1.3-.9,2.1-.9,1.5.3,2.1.9c.6.6.9,1.3.9,2.1s-.3,1.7-.9,2.2c-.6.5-1.3.8-2.1.8Z"/>
  <path class="st1" d="M86.4,62.9c-3.6,2.1-9.4,4-13.9,4-13.7,0-24.9-11.1-24.9-24.9s11.1-24.9,24.9-24.9,24.9,11.1,24.9,24.9-1.8,10.8-4.3,14.6"/>
  <path class="st1" d="M93.4,56.9l12.3,14.2c.9,1,.8,2.6-.3,3.5l-2.9,2.5c-1.2,1-3.1.9-4.1-.3l-11.8-13.7"/>
  <path class="st1" d="M87.4,42.7v-3.2c0-.9-.7-1.6-1.6-1.6h-.3c-.7,0-1.3-.4-1.5-1.1-.1-.3-.2-.6-.4-.9-.3-.6-.2-1.3.3-1.8l.2-.2c.6-.6.6-1.6,0-2.3l-2.3-2.3c-.6-.6-1.6-.6-2.3,0l-.2.2c-.5.5-1.2.6-1.8.3-.3-.1-.6-.2-.8-.4-.6-.2-1.1-.8-1.1-1.5v-.3c0-.9-.7-1.6-1.6-1.6h-3.2c-.9,0-1.6.7-1.6,1.6v.3c0,.7-.4,1.3-1.1,1.5-.3.1-.6.2-.8.4-.6.3-1.3.2-1.8-.3l-.2-.2c-.6-.6-1.6-.6-2.3,0l-2.3,2.3c-.6.6-.6,1.6,0,2.3l.2.2c.5.5.6,1.2.3,1.8-.1.3-.2.6-.4.9-.2.6-.8,1.1-1.5,1.1h-.3c-.9,0-1.6.7-1.6,1.6v3.2c0,.9.7,1.6,1.6,1.6h.3c.7,0,1.3.4,1.5,1.1.1.3.2.6.4.9.3.6.2,1.3-.3,1.8l-.2.2c-.6.6-.6,1.6,0,2.3l2.3,2.3c.6.6,1.6.6,2.3,0l.2-.2c.5-.5,1.2-.6,1.8-.3.3.1.6.2.8.4.6.2,1.1.8,1.1,1.5v.3c0,.9.7,1.6,1.6,1.6h3.2c.9,0,1.6-.7,1.6-1.6v-.3c0-.7.4-1.3,1.1-1.5.3-.1.6-.2.8-.4.6-.3,1.3-.2,1.8.3l.2.2c.6.6,1.6.6,2.3,0l2.3-2.3c.6-.6.6-1.6,0-2.3l-.2-.2c-.5-.5-.6-1.2-.3-1.8.1-.3.2-.6.4-.9.2-.6.8-1.1,1.5-1.1h.3c.9,0,1.6-.7,1.6-1.6Z"/>
  <ellipse class="st1" cx="72.5" cy="41.1" rx="5.5" ry="5.5"/>
</svg>