<svg width="124" height="124" viewBox="0 0 124 124" fill="none" xmlns="http://www.w3.org/2000/svg">
<path d="M104.5 66.5C106.985 66.5 109 64.4853 109 62C109 59.5147 106.985 57.5 104.5 57.5C102.015 57.5 100 59.5147 100 62C100 64.4853 102.015 66.5 104.5 66.5Z" fill="#CFCECE"/>
<path d="M92.0725 36.4469C94.5578 36.4469 96.5725 34.4322 96.5725 31.9469C96.5725 29.4616 94.5578 27.4469 92.0725 27.4469C89.5872 27.4469 87.5725 29.4616 87.5725 31.9469C87.5725 34.4322 89.5872 36.4469 92.0725 36.4469Z" fill="#CFCECE"/>
<path d="M92.0724 96.5356C94.5577 96.5356 96.5724 94.5209 96.5724 92.0356C96.5724 89.5503 94.5577 87.5356 92.0724 87.5356C89.5871 87.5356 87.5724 89.5503 87.5724 92.0356C87.5724 94.5209 89.5871 96.5356 92.0724 96.5356Z" fill="#CFCECE"/>
<path d="M32.0857 36.4469C34.571 36.4469 36.5857 34.4322 36.5857 31.9469C36.5857 29.4616 34.571 27.4469 32.0857 27.4469C29.6004 27.4469 27.5857 29.4616 27.5857 31.9469C27.5857 34.4322 29.6004 36.4469 32.0857 36.4469Z" fill="#CFCECE"/>
<path d="M32.0856 96.5356C34.5708 96.5356 36.5856 94.5209 36.5856 92.0356C36.5856 89.5503 34.5708 87.5356 32.0856 87.5356C29.6003 87.5356 27.5856 89.5503 27.5856 92.0356C27.5856 94.5209 29.6003 96.5356 32.0856 96.5356Z" fill="#CFCECE"/>
<path d="M62.0001 109C64.4854 109 66.5001 106.985 66.5001 104.5C66.5001 102.015 64.4854 100 62.0001 100C59.5148 100 57.5001 102.015 57.5001 104.5C57.5001 106.985 59.5148 109 62.0001 109Z" fill="#CFCECE"/>
<path d="M62.0001 24C64.4854 24 66.5001 21.9853 66.5001 19.5C66.5001 17.0147 64.4854 15 62.0001 15C59.5148 15 57.5001 17.0147 57.5001 19.5C57.5001 21.9853 59.5148 24 62.0001 24Z" fill="#CFCECE"/>
<path d="M19.5001 66.5C21.9854 66.5 24.0001 64.4853 24.0001 62C24.0001 59.5147 21.9854 57.5 19.5001 57.5C17.0148 57.5 15.0001 59.5147 15.0001 62C15.0001 64.4853 17.0148 66.5 19.5001 66.5Z" fill="#CFCECE"/>
<path d="M56.0001 58.9533L59.9585 64L69.0001 55" stroke="#CFCECE" stroke-width="3" stroke-linecap="round" stroke-linejoin="round"/>
<path d="M59.7432 40.8856L60.7356 42.0105L60.7459 42.0013L59.7432 40.8856ZM47.7677 46.2632L47.8843 47.7586L47.8871 47.7584L47.7677 46.2632ZM62.01 79.9871L63.51 79.9877L63.5106 78.3519L61.8809 78.4927L62.01 79.9871ZM59.7001 79.3631L60.5611 78.1348L60.5535 78.1295L59.7001 79.3631ZM46.5704 46.5584L47.1645 47.9357H47.1645L46.5704 46.5584ZM44.5082 49.0409L45.975 49.3548L45.9757 49.3516L44.5082 49.0409ZM45.3598 62L46.7788 61.5137V61.5137L45.3598 62ZM62 40.0003L62.02 41.5002L63.5 41.4804V40.0003H62ZM64.2669 40.8856L63.2641 42.0013L63.2744 42.0104L64.2669 40.8856ZM76.2423 46.2632L76.1229 47.7584L76.1257 47.7586L76.2423 46.2632ZM62 79.9871L62.1291 78.4927L60.4994 78.3519L60.5 79.9877L62 79.9871ZM64.3099 79.3631L63.4565 78.1295L63.4489 78.1348L64.3099 79.3631ZM77.4396 46.5584L76.8455 47.9357H76.8455L77.4396 46.5584ZM79.5018 49.0409L78.0343 49.3516L78.035 49.3548L79.5018 49.0409ZM78.6502 62L77.2312 61.5137V61.5137L78.6502 62ZM62.01 40.0003H60.51V41.4804L61.99 41.5002L62.01 40.0003ZM58.7507 39.7609C56.542 41.7098 52.6753 44.3666 47.6484 44.7679L47.8871 47.7584C53.8304 47.284 58.292 44.1665 60.7356 42.0104L58.7507 39.7609ZM60.51 79.9865L60.5 105.999L63.5 106.001L63.51 79.9877L60.51 79.9865ZM58.839 80.5914C59.8242 81.282 60.9954 81.5804 62.1391 81.4815L61.8809 78.4927C61.4276 78.5318 60.9596 78.4142 60.5611 78.1348L58.839 80.5914ZM50.5738 71.3208L29.8271 92.0516L31.9476 94.1738L52.6943 73.4429L50.5738 71.3208ZM50.5189 73.3851C52.7055 75.8156 55.4417 78.2411 58.8467 80.5967L60.5535 78.1295C57.323 75.8947 54.7663 73.6208 52.7492 71.3786L50.5189 73.3851ZM29.8271 31.9484L45.5102 47.6194L47.6307 45.4973L31.9476 29.8262L29.8271 31.9484ZM47.6511 44.7677C47.0655 44.8134 46.5002 44.9551 45.9763 45.181L47.1645 47.9357C47.3865 47.84 47.6293 47.7785 47.8843 47.7586L47.6511 44.7677ZM45.9764 45.181C44.5336 45.8033 43.3911 47.0756 43.0408 48.7302L45.9757 49.3516C46.1101 48.7167 46.5505 48.2005 47.1645 47.9357L45.9764 45.181ZM43.0415 48.727C42.4017 51.7163 41.9584 56.7016 43.9408 62.4863L46.7788 61.5137C45.0173 56.3737 45.4166 51.9642 45.975 49.3548L43.0415 48.727ZM43.9408 62.4863C45.1271 65.9482 47.1721 69.6648 50.5189 73.3851L52.7492 71.3786C49.668 67.9535 47.832 64.5872 46.7788 61.5137L43.9408 62.4863ZM45.3598 60.5H18.5001V63.5H45.3598V60.5ZM61.98 38.5004C60.818 38.5159 59.6634 38.9405 58.7404 39.77L60.7459 42.0013C61.1136 41.6707 61.5644 41.5063 62.02 41.5002L61.98 38.5004ZM63.2744 42.0104C65.718 44.1665 70.1796 47.284 76.1229 47.7584L76.3616 44.7679C71.3347 44.3666 67.4681 41.7098 65.2593 39.7609L63.2744 42.0104ZM60.5 79.9877L60.51 106.001L63.51 105.999L63.5 79.9865L60.5 79.9877ZM63.4489 78.1348C63.0504 78.4142 62.5825 78.5318 62.1291 78.4927L61.8709 81.4815C63.0146 81.5804 64.1858 81.282 65.171 80.5914L63.4489 78.1348ZM71.3157 73.4429L92.0624 94.1738L94.183 92.0516L73.4362 71.3208L71.3157 73.4429ZM71.2608 71.3786C69.2437 73.6208 66.687 75.8947 63.4566 78.1295L65.1633 80.5967C68.5683 78.2411 71.3046 75.8156 73.4911 73.3851L71.2608 71.3786ZM92.0624 29.8262L76.3794 45.4973L78.4999 47.6194L94.183 31.9484L92.0624 29.8262ZM76.1257 47.7586C76.3807 47.7785 76.6235 47.84 76.8455 47.9357L78.0337 45.181C77.5099 44.9551 76.9445 44.8134 76.3589 44.7677L76.1257 47.7586ZM76.8455 47.9357C77.4595 48.2005 77.8999 48.7167 78.0343 49.3516L80.9692 48.7302C80.6189 47.0756 79.4764 45.8033 78.0337 45.181L76.8455 47.9357ZM78.035 49.3548C78.5934 51.9642 78.9927 56.3737 77.2312 61.5137L80.0692 62.4863C82.0516 56.7016 81.6083 51.7163 80.9686 48.727L78.035 49.3548ZM77.2312 61.5137C76.178 64.5872 74.342 67.9536 71.2608 71.3786L73.4911 73.3851C76.8379 69.6648 78.8829 65.9482 80.0692 62.4863L77.2312 61.5137ZM78.6502 63.5H105.51V60.5H78.6502V63.5ZM61.99 41.5002C62.4456 41.5063 62.8964 41.6707 63.2642 42.0013L65.2696 39.77C64.3466 38.9405 63.1921 38.5159 62.03 38.5004L61.99 41.5002ZM63.5 40.0003V18H60.5V40.0003H63.5ZM63.51 40.0003V18H60.51V40.0003H63.51Z" fill="#CFCECE"/>
</svg>
