<?xml version="1.0" encoding="UTF-8"?>
<svg id="_Слой_2" data-name="Слой 2" xmlns="http://www.w3.org/2000/svg" viewBox="0 0 492.27 490.84">
  <defs>
    <style>
      .cls-1 {
        stroke-linejoin: round;
      }

      .cls-1, .cls-2 {
        fill: none;
        stroke: #fff;
        stroke-width: 17px;
      }

      .cls-3 {
        fill: #fff;
      }

      .cls-3, .cls-4 {
        stroke-width: 0px;
      }

      .cls-4 {
        fill: #e5243c;
      }
    </style>
  </defs>
  <g id="_Слой_2-2" data-name=" Слой 2">
    <path class="cls-4" d="M92.17,0H10.22S0,0,0,0v93.2c0,5.64,4.57,10.22,10.22,10.22h0c5.64,0,10.22-4.57,10.22-10.22V20.43s71.73,0,71.73,0c5.64,0,10.22-4.57,10.22-10.22h0C102.38,4.57,97.81,0,92.17,0Z"/>
    <path class="cls-4" d="M492.27,92.42V10.47s0-10.22,0-10.22h-93.2c-5.64,0-10.22,4.57-10.22,10.22h0c0,5.64,4.57,10.22,10.22,10.22h72.76s0,71.73,0,71.73c0,5.64,4.57,10.22,10.22,10.22h0c5.64,0,10.22-4.57,10.22-10.22Z"/>
    <path class="cls-4" d="M400.1,490.84h81.95s10.22,0,10.22,0v-93.2c0-5.64-4.57-10.22-10.22-10.22h0c-5.64,0-10.22,4.57-10.22,10.22v72.76s-71.73,0-71.73,0c-5.64,0-10.22,4.57-10.22,10.22h0c0,5.64,4.57,10.22,10.22,10.22Z"/>
    <path class="cls-4" d="M0,398.41v81.95s0,10.22,0,10.22h93.2c5.64,0,10.22-4.57,10.22-10.22h0c0-5.64-4.57-10.22-10.22-10.22H20.43s0-71.73,0-71.73c0-5.64-4.57-10.22-10.22-10.22h0C4.57,388.2,0,392.77,0,398.41Z"/>
    <path class="cls-3" d="M301.96,225.28c20.17,0,36.59,16.41,36.59,36.59v85.79c0,20.17-16.41,36.59-36.59,36.59h-134.97c-20.17,0-36.59-16.41-36.59-36.59v-85.79c0-20.17,16.41-36.59,36.59-36.59h134.97M301.96,208.28h-134.97c-29.6,0-53.59,23.99-53.59,53.59v85.79c0,29.6,23.99,53.59,53.59,53.59h134.97c29.6,0,53.59-23.99,53.59-53.59v-85.79c0-29.6-23.99-53.59-53.59-53.59h0Z"/>
    <path class="cls-2" d="M234.48,99.6h0c40.06,0,72.58,32.52,72.58,72.58v43.69h-145.15v-43.69c0-40.06,32.52-72.58,72.58-72.58Z"/>
    <rect class="cls-3" x="210.58" y="282.39" width="44.74" height="44.74" rx="22.37" ry="22.37"/>
    <polygon class="cls-1" points="232.95 335.46 232.95 339.66 232.95 315.69 232.95 315.69 232.95 335.46"/>
  </g>
</svg>