<?xml version="1.0" encoding="UTF-8"?>
<svg id="_Слой_1" xmlns="http://www.w3.org/2000/svg" version="1.1" viewBox="0 0 128 128">
  <!-- Generator: Adobe Illustrator 29.0.1, SVG Export Plug-In . SVG Version: 2.1.0 Build 192)  -->
  <defs>
    <style>
      .st0 {
        stroke-miterlimit: 10;
      }

      .st0, .st1 {
        fill: none;
        stroke: #cfcece;
        stroke-width: 3px;
      }

      .st1 {
        stroke-linecap: round;
        stroke-linejoin: round;
      }
    </style>
  </defs>
  <circle class="st0" cx="64" cy="63.5" r="39.1"/>
  <line class="st0" x1="32.5" y1="85.5" x2="95.5" y2="42.4"/>
  <rect class="st0" x="42.5" y="50.8" width="43.1" height="30.5" rx="5.9" ry="5.9"/>
  <path class="st0" d="M86.9,59.7h2.1c1.9,0,3.4,1.5,3.4,3.4v7c0,1.9-1.5,3.4-3.4,3.4h-2.1c-.7,0-1.4-.6-1.4-1.4v-11c0-.7.6-1.4,1.4-1.4Z"/>
  <path class="st0" d="M41.1,73.4h-2.1c-1.9,0-3.4-1.5-3.4-3.4v-7c0-1.9,1.5-3.4,3.4-3.4h2.1c.7,0,1.4.6,1.4,1.4v11c0,.7-.6,1.4-1.4,1.4Z"/>
  <circle class="st0" cx="54.4" cy="63.1" r="3.4"/>
  <circle class="st0" cx="74" cy="63.1" r="3.4"/>
  <line class="st0" x1="64" y1="45.6" x2="64" y2="49.9"/>
  <circle class="st0" cx="64" cy="41.7" r="3.4"/>
  <path class="st1" d="M56,74c5.7-2.4,11.5-2.3,17.1,0"/>
</svg>