<?xml version="1.0" encoding="UTF-8"?>
<svg id="_Слой_2" data-name="Слой 2" xmlns="http://www.w3.org/2000/svg" viewBox="0 0 492.27 490.84">
  <defs>
    <style>
      .cls-1 {
        fill: none;
        stroke: #fff;
        stroke-linecap: round;
        stroke-linejoin: round;
        stroke-width: 17px;
      }

      .cls-2 {
        fill: #e5243c;
        stroke-width: 0px;
      }
    </style>
  </defs>
  <g id="_Слой_2-2" data-name=" Слой 2">
    <path class="cls-1" d="M244.55,263.05h-47c3.74,4.47,5.98,8.66,6.55,14.66,1.25,12.72-7.59,24.68-21.63,26.99-14.59,2.49-28.67-6.07-31.45-19.12-.32-1.48-.48-2.99-.48-4.5,0-7.88,2.31-12.77,6.71-18.02h-47v96.13c0,13.27,12.03,24.03,26.86,24.03h107.44"/>
    <path class="cls-1" d="M244.55,263.51v42.06c4.99-3.35,9.68-5.34,16.38-5.86,14.21-1.12,27.58,6.79,30.16,19.35,2.78,13.05-6.79,25.65-21.38,28.14-1.66.28-3.34.43-5.03.43-8.81,0-14.27-2.06-20.14-6v42.06h107.44c14.84,0,26.86-10.76,26.86-24.03v-96.13"/>
    <path class="cls-1" d="M242.67,263.51h47.66c-3.79-4.65-6.05-9.01-6.65-15.25-1.27-13.24,7.7-25.68,21.94-28.1,14.79-2.59,29.07,6.32,31.89,19.9.32,1.54.48,3.11.48,4.68,0,8.21-2.34,13.29-6.8,18.76h47.66v-100.05c0-13.81-12.2-25.01-27.24-25.01h-108.95"/>
    <path class="cls-1" d="M244.55,258.61v-42.06c-4.99,3.35-9.68,5.35-16.37,5.86-14.22,1.12-27.58-6.79-30.17-19.35-2.78-13.05,6.79-25.65,21.38-28.14,1.66-.28,3.34-.43,5.03-.43,8.81,0,14.27,2.06,20.14,6v-42.06h-107.44c-14.83,0-26.86,10.76-26.86,24.03v96.13"/>
    <g>
      <path class="cls-2" d="M92.17,0H10.22S0,0,0,0v93.2c0,5.64,4.57,10.22,10.22,10.22h0c5.64,0,10.22-4.57,10.22-10.22V20.43s71.73,0,71.73,0c5.64,0,10.22-4.57,10.22-10.22h0C102.38,4.57,97.81,0,92.17,0Z"/>
      <path class="cls-2" d="M492.27,92.42V10.47s0-10.22,0-10.22h-93.2c-5.64,0-10.22,4.57-10.22,10.22h0c0,5.64,4.57,10.22,10.22,10.22h72.76s0,71.73,0,71.73c0,5.64,4.57,10.22,10.22,10.22h0c5.64,0,10.22-4.57,10.22-10.22Z"/>
      <path class="cls-2" d="M400.1,490.84h81.95s10.22,0,10.22,0v-93.2c0-5.64-4.57-10.22-10.22-10.22h0c-5.64,0-10.22,4.57-10.22,10.22v72.76s-71.73,0-71.73,0c-5.64,0-10.22,4.57-10.22,10.22h0c0,5.64,4.57,10.22,10.22,10.22Z"/>
      <path class="cls-2" d="M0,398.41v81.95s0,10.22,0,10.22h93.2c5.64,0,10.22-4.57,10.22-10.22h0c0-5.64-4.57-10.22-10.22-10.22H20.43s0-71.73,0-71.73c0-5.64-4.57-10.22-10.22-10.22h0C4.57,388.2,0,392.77,0,398.41Z"/>
    </g>
  </g>
</svg>