<svg width="64" height="64" viewBox="0 0 64 64" fill="none" xmlns="http://www.w3.org/2000/svg">
<path d="M25.7188 29.5096L34.0797 36.9293L51.1135 22.0898" stroke="white" stroke-width="1.93969" stroke-miterlimit="10" stroke-linecap="round" stroke-linejoin="round"/>
<path d="M47.1221 32.3523V44.4403C47.1221 45.1184 46.667 45.6791 46.0948 45.6791H20.9863C20.4271 45.6791 19.959 45.1184 19.959 44.4403V19.5601C19.959 18.882 20.4141 18.3213 20.9863 18.3213H46.0948C46.654 18.3213 47.1221 18.882 47.1221 19.5601V20.0165" stroke="white" stroke-width="1.93969" stroke-miterlimit="10" stroke-linecap="round" stroke-linejoin="round"/>
<path d="M11.9758 0H1.32632H0V1.33007V12.1532C0 12.8835 0.598159 13.4833 1.32632 13.4833C2.05449 13.4833 2.65264 12.8835 2.65264 12.1532V2.66017H11.9758C12.7039 2.66017 13.302 2.06031 13.302 1.33007C13.315 0.586792 12.7169 0 11.9758 0Z" fill="#FF0032"/>
<path d="M63.9997 12.0489V1.36913V0.0390625H62.6734H51.881C51.1528 0.0390625 50.5547 0.638894 50.5547 1.36913C50.5547 2.09937 51.1528 2.6992 51.881 2.6992H61.3471V12.0489C61.3471 12.7791 61.9453 13.3789 62.6734 13.3789C63.4146 13.3789 63.9997 12.7791 63.9997 12.0489Z" fill="#FF0032"/>
<path d="M52.0236 63.9999H62.6729H63.9992V62.6698V51.8467C63.9992 51.1164 63.4011 50.5166 62.6729 50.5166C61.9447 50.5166 61.3466 51.1164 61.3466 51.8467V61.3398H52.0236C51.2954 61.3398 50.6973 61.9396 50.6973 62.6698C50.6973 63.4001 51.2824 63.9999 52.0236 63.9999Z" fill="#FF0032"/>
<path d="M0 51.9512V62.6309V63.961H1.32632H12.1187C12.8469 63.961 13.4451 63.3612 13.4451 62.6309C13.4451 61.9007 12.8469 61.3008 12.1187 61.3008H2.65264V51.9512C2.65264 51.221 2.05449 50.6211 1.32632 50.6211C0.585156 50.6211 0 51.2079 0 51.9512Z" fill="#FF0032"/>
</svg>
