<svg width="124" height="124" viewBox="0 0 124 124" fill="none" xmlns="http://www.w3.org/2000/svg">
<circle cx="34" cy="36" r="3" fill="#D9D9D9"/>
<circle cx="48" cy="36" r="3" fill="#D9D9D9"/>
<circle cx="62" cy="36" r="3" fill="#D9D9D9"/>
<path d="M38.0622 83H26.6053C24.0766 83 22 80.9907 22 78.5441V45M86 83H97.3947C99.9234 83 102 80.9907 102 78.5441V45M22 45V31.4559C22 29.0093 24.0766 27 26.6053 27H97.3947C99.9234 27 102 29.0093 102 31.4559V45M22 45H102" stroke="#CFCECE" stroke-width="3" stroke-linecap="round" stroke-linejoin="round"/>
<path d="M57 79.514L60.3494 84L68 76" stroke="#CFCECE" stroke-width="3" stroke-linecap="round" stroke-linejoin="round"/>
<path d="M60.1156 64.7274L61.1003 65.859L61.1106 65.8499L60.1156 64.7274ZM50.1388 69.1453L50.2538 70.6409L50.2565 70.6407L50.1388 69.1453ZM61.9684 96.9997L61.9875 95.4998L61.9684 96.9997ZM60.0797 96.339L60.9327 95.1051L60.9251 95.0998L60.0797 96.339ZM53.3599 90.6034L52.2517 91.6144H52.2517L53.3599 90.6034ZM49.1413 69.3879L49.7284 70.7682L49.7284 70.7682L49.1413 69.3879ZM47.4233 71.4274L48.8891 71.7455L48.8898 71.7423L47.4233 71.4274ZM48.1327 82.0741L49.5496 81.5817H49.5496L48.1327 82.0741ZM61.9958 64L62.0156 62.5001L61.9958 62.4999L61.9761 62.5001L61.9958 64ZM63.8844 64.7274L62.8894 65.8499L62.8998 65.859L63.8844 64.7274ZM73.8612 69.1453L73.7435 70.6407L73.7462 70.6409L73.8612 69.1453ZM63.9203 96.339L63.0749 95.0998L63.0673 95.1051L63.9203 96.339ZM70.6401 90.6034L71.7483 91.6144L70.6401 90.6034ZM74.8587 69.3879L74.2716 70.7682L74.2716 70.7682L74.8587 69.3879ZM76.5767 71.4274L75.1102 71.7423L75.1109 71.7455L76.5767 71.4274ZM75.8673 82.0741L74.4504 81.5817L75.8673 82.0741ZM59.131 63.5958C57.312 65.1785 54.1385 67.3258 50.0211 67.65L50.2565 70.6407C55.2785 70.2454 59.0433 67.6488 61.1003 65.859L59.131 63.5958ZM59.2268 97.5728C59.5259 97.7796 59.8989 98.0288 60.3619 98.2107C60.8472 98.4013 61.3589 98.492 61.9492 98.4996L61.9875 95.4998C61.6981 95.4961 61.5537 95.4557 61.4588 95.4184C61.3414 95.3723 61.21 95.2968 60.9327 95.1051L59.2268 97.5728ZM52.2517 91.6144C54.0882 93.6275 56.3832 95.633 59.2344 97.5781L60.9251 95.0998C58.2482 93.2736 56.1336 91.4183 54.468 89.5925L52.2517 91.6144ZM50.0238 67.6498C49.5106 67.6892 49.0146 67.8117 48.5542 68.0075L49.7284 70.7682C49.8894 70.6997 50.0666 70.6553 50.2538 70.6409L50.0238 67.6498ZM48.5542 68.0075C47.2874 68.5463 46.2696 69.655 45.9567 71.1125L48.8898 71.7423C48.9808 71.3188 49.2817 70.9582 49.7284 70.7682L48.5542 68.0075ZM45.9574 71.1093C45.4165 73.6016 45.043 77.7527 46.7158 82.5665L49.5496 81.5817C48.1034 77.4201 48.4318 73.8528 48.8891 71.7455L45.9574 71.1093ZM46.7158 82.5665C47.7169 85.4472 49.4401 88.5323 52.2517 91.6144L54.468 89.5925C51.9244 86.8042 50.4143 84.0702 49.5496 81.5817L46.7158 82.5665ZM61.9761 62.5001C60.9549 62.5136 59.9368 62.8815 59.1207 63.6048L61.1106 65.8499C61.3698 65.6202 61.6891 65.5042 62.0156 65.4999L61.9761 62.5001ZM62.8998 65.859C64.9567 67.6488 68.7215 70.2454 73.7435 70.6407L73.9789 67.65C69.8615 67.3258 66.688 65.1785 64.869 63.5958L62.8998 65.859ZM63.0673 95.1051C62.6316 95.4063 62.3854 95.5049 61.9875 95.4998L61.9492 98.4996C63.2012 98.5156 64.0562 98.0685 64.7732 97.5728L63.0673 95.1051ZM69.532 89.5925C67.8664 91.4183 65.7518 93.2736 63.0749 95.0998L64.7656 97.5781C67.6168 95.633 69.9118 93.6275 71.7483 91.6144L69.532 89.5925ZM73.7462 70.6409C73.9334 70.6553 74.1106 70.6997 74.2716 70.7682L75.4458 68.0075C74.9854 67.8117 74.4894 67.6892 73.9762 67.6498L73.7462 70.6409ZM74.2716 70.7682C74.7183 70.9582 75.0192 71.3188 75.1102 71.7423L78.0433 71.1125C77.7304 69.655 76.7126 68.5463 75.4458 68.0075L74.2716 70.7682ZM75.1109 71.7455C75.5682 73.8528 75.8966 77.4201 74.4504 81.5817L77.2842 82.5665C78.957 77.7527 78.5835 73.6016 78.0426 71.1093L75.1109 71.7455ZM74.4504 81.5817C73.5857 84.0702 72.0756 86.8042 69.532 89.5925L71.7483 91.6144C74.5599 88.5323 76.2831 85.4472 77.2842 82.5665L74.4504 81.5817ZM61.9761 65.4999C62.3073 65.5042 62.6336 65.6232 62.8894 65.8499L64.8793 63.6048C64.0598 62.8785 63.0321 62.5135 62.0156 62.5001L61.9761 65.4999Z" fill="#CFCECE"/>
</svg>
