<?xml version="1.0" encoding="UTF-8"?>
<svg id="_Слой_2" data-name="Слой 2" xmlns="http://www.w3.org/2000/svg" viewBox="0 0 492.27 490.84">
  <defs>
    <style>
      .cls-1, .cls-2 {
        stroke-miterlimit: 10;
      }

      .cls-1, .cls-2, .cls-3 {
        fill: none;
        stroke: #fff;
      }

      .cls-1, .cls-3 {
        stroke-width: 17px;
      }

      .cls-2 {
        stroke-width: 17.33px;
      }

      .cls-2, .cls-3 {
        stroke-linecap: round;
      }

      .cls-3 {
        stroke-linejoin: round;
      }

      .cls-4 {
        fill: #e5243c;
        stroke-width: 0px;
      }
    </style>
  </defs>
  <g id="_Слой_2-2" data-name=" Слой 2">
    <path class="cls-1" d="M178.37,132.8h182.82c24.62,0,44.57,19.96,44.57,44.57v112.92"/>
    <line class="cls-2" x1="252.09" y1="143.24" x2="300.05" y2="143.24"/>
    <path class="cls-1" d="M268.44,355.17h132.07c16.74,0,30.31-12.59,30.31-40.97h-118.88c0,8.39-7.02,14.55-16.6,14.55h-26.36"/>
    <g>
      <path class="cls-3" d="M274.88,179.54c13.3.16,23.71,10.92,23.51,24.31-.2,13.29-10.91,23.62-24.35,23.48-13.18-.14-23.6-11.02-23.41-24.44.19-13.11,10.98-23.5,24.25-23.34Z"/>
      <path class="cls-3" d="M232.08,274.31c6.9-61.34,84.05-58.96,87.98,0h-87.98Z"/>
    </g>
    <g>
      <path class="cls-3" d="M136.55,151.56c28.12.33,50.14,23.09,49.72,51.39-.42,28.09-23.07,49.94-51.49,49.64-27.86-.29-49.9-23.3-49.5-51.68.39-27.72,23.21-49.69,51.27-49.36Z"/>
      <path class="cls-3" d="M46.05,351.94c14.6-129.7,177.72-124.68,186.03,0H46.05Z"/>
    </g>
    <g>
      <path class="cls-4" d="M92.17,0H10.22S0,0,0,0v93.2c0,5.64,4.57,10.22,10.22,10.22h0c5.64,0,10.22-4.57,10.22-10.22V20.43s71.73,0,71.73,0c5.64,0,10.22-4.57,10.22-10.22h0C102.38,4.57,97.81,0,92.17,0Z"/>
      <path class="cls-4" d="M492.27,92.42V10.47s0-10.22,0-10.22h-93.2c-5.64,0-10.22,4.57-10.22,10.22h0c0,5.64,4.57,10.22,10.22,10.22h72.76s0,71.73,0,71.73c0,5.64,4.57,10.22,10.22,10.22h0c5.64,0,10.22-4.57,10.22-10.22Z"/>
      <path class="cls-4" d="M400.1,490.84h81.95s10.22,0,10.22,0v-93.2c0-5.64-4.57-10.22-10.22-10.22h0c-5.64,0-10.22,4.57-10.22,10.22v72.76s-71.73,0-71.73,0c-5.64,0-10.22,4.57-10.22,10.22h0c0,5.64,4.57,10.22,10.22,10.22Z"/>
      <path class="cls-4" d="M0,398.41v81.95s0,10.22,0,10.22h93.2c5.64,0,10.22-4.57,10.22-10.22h0c0-5.64-4.57-10.22-10.22-10.22H20.43s0-71.73,0-71.73c0-5.64-4.57-10.22-10.22-10.22h0C4.57,388.2,0,392.77,0,398.41Z"/>
    </g>
  </g>
</svg>